<svg xmlns="http://www.w3.org/2000/svg" width="375" viewBox="0 0 375 375" height="375" version="1.0"><defs><clipPath id="a"><path d="M 41.699219 0.109375 L 333.449219 0.109375 L 333.449219 64 L 41.699219 64 Z M 41.699219 0.109375"/></clipPath></defs><path fill="#C94B5A" d="M 318.078125 53.042969 C 318.28125 78.398438 312.523438 103.378906 307.222656 128.179688 C 290.457031 206.53125 280.777344 284.550781 271.382812 364.035156 C 270.617188 370.480469 260.546875 371.027344 255.460938 371.230469 C 228.222656 372.332031 200.816406 374.886719 173.652344 374.820312 C 151.9375 374.757812 129.839844 374.511719 109.113281 368.023438 C 106.878906 367.324219 104.574219 366.492188 102.957031 364.800781 C 101.199219 362.964844 100.507812 360.378906 99.898438 357.910156 C 90.683594 320.570312 85.984375 282.273438 81.304688 244.089844 C 73.394531 179.527344 65.480469 114.957031 57.566406 50.398438 L 318.078125 53.042969"/><path fill="#B13944" d="M 57.566406 50.394531 C 58.257812 56.015625 58.945312 61.640625 59.632812 67.269531 C 65.660156 69.199219 72.929688 69.601562 79.378906 70.109375 L 81.167969 68.277344 L 83.410156 70.46875 C 84.140625 70.542969 84.859375 70.628906 85.546875 70.722656 C 85.578125 70.722656 85.613281 70.730469 85.644531 70.730469 C 85.597656 68.023438 85.511719 65.316406 85.355469 62.621094 L 88.113281 62.460938 C 88.277344 65.335938 88.367188 68.21875 88.414062 71.101562 C 89.074219 71.191406 89.738281 71.28125 90.402344 71.367188 C 91.851562 70.179688 93.324219 69.011719 94.84375 67.90625 L 96.472656 70.132812 C 95.695312 70.699219 94.929688 71.28125 94.171875 71.871094 C 103.320312 73.078125 112.480469 74.222656 121.652344 75.238281 C 135.710938 76.789062 149.808594 78.03125 163.941406 78.707031 C 189.523438 79.921875 215.121094 79.261719 240.683594 77.636719 C 240.308594 76.929688 239.957031 76.070312 239.980469 75.085938 L 242.738281 75.148438 C 242.730469 75.640625 243.039062 76.21875 243.449219 76.921875 L 243.75 77.441406 C 245.226562 77.34375 246.703125 77.238281 248.1875 77.132812 L 248.609375 68.738281 L 251.367188 68.878906 L 250.964844 76.9375 C 272.445312 75.363281 293.90625 73.191406 315.320312 70.953125 C 315.980469 70.882812 316.652344 70.808594 317.320312 70.714844 C 317.839844 64.84375 318.125 58.953125 318.078125 53.042969 Z M 278.75 249.40625 C 255.109375 239.410156 228.335938 242.347656 202.691406 241.113281 C 183.734375 240.191406 164.910156 236.890625 145.921875 236.691406 C 126.9375 236.496094 107.214844 239.695312 91.609375 250.507812 C 89.230469 252.15625 85.820312 254.910156 83.03125 258.101562 C 83.792969 264.214844 84.570312 270.339844 85.382812 276.445312 C 93.398438 279.96875 105.351562 279.601562 112.742188 280.335938 C 123.929688 281.460938 135.140625 282.40625 146.367188 283.183594 C 147.960938 281.632812 149.589844 280.105469 151.230469 278.597656 C 147.722656 278.746094 143.953125 278.890625 139.183594 279.046875 L 139.085938 276.289062 C 143.703125 276.132812 147.378906 275.996094 150.789062 275.855469 C 148.890625 273.90625 144.167969 268.546875 142.242188 266.660156 L 144.175781 264.6875 C 146.027344 266.5 150.675781 271.777344 152.492188 273.644531 C 152.804688 269.320312 153.136719 265.003906 153.421875 260.707031 L 156.179688 260.890625 C 155.875 265.59375 155.511719 270.332031 155.160156 275.058594 C 158.949219 271.753906 162.847656 268.570312 166.859375 265.574219 L 168.515625 267.785156 C 165.253906 270.21875 162.082031 272.804688 158.96875 275.449219 C 162.351562 275.261719 165.996094 275.039062 170.554688 274.746094 L 170.734375 277.503906 C 165.1875 277.855469 160.988281 278.109375 156.976562 278.320312 C 158.789062 280.253906 160.582031 282.21875 162.351562 284.1875 C 173.195312 284.78125 184.050781 285.222656 194.90625 285.5 C 209.949219 285.882812 224.996094 285.957031 240.039062 285.71875 C 246.628906 285.621094 253.234375 285.453125 259.789062 284.667969 C 267.300781 283.761719 274.710938 282.03125 281.847656 279.519531 C 283.03125 270.644531 284.246094 261.789062 285.507812 252.929688 C 283.394531 251.535156 281.074219 250.390625 278.75 249.40625 Z M 154.5 283.730469 C 155.804688 283.8125 157.117188 283.878906 158.421875 283.957031 C 157.222656 282.644531 156.023438 281.332031 154.800781 280.035156 C 154.703125 281.273438 154.597656 282.5 154.5 283.730469 Z M 150.105469 283.4375 C 150.707031 282.875 151.292969 282.300781 151.890625 281.738281 C 151.847656 282.34375 151.792969 282.945312 151.742188 283.550781 C 151.203125 283.511719 150.65625 283.476562 150.105469 283.4375"/><path fill="#87C280" d="M 233.734375 275.339844 C 181.132812 274.3125 128.355469 273.261719 76.355469 265.273438 C 70.285156 225.015625 66.011719 184.113281 62.558594 143.539062 C 144.597656 153.566406 227.652344 155.246094 310.027344 148.546875 C 302.992188 188.976562 295.953125 229.40625 288.910156 269.839844 C 271.140625 275.03125 252.246094 275.699219 233.734375 275.339844"/><g clip-path="url(#a)"><path fill="#FDE6EB" d="M 333.480469 55.703125 C 333.488281 56.464844 333.457031 57.324219 332.894531 57.839844 C 332.453125 58.246094 331.808594 58.316406 331.207031 58.363281 C 234.894531 66.257812 137.894531 65.628906 41.699219 56.480469 C 44.824219 51.46875 43.296875 42.820312 43.765625 36.9375 C 48.433594 37.085938 53.105469 37.214844 57.777344 37.34375 C 59.777344 28.507812 61.777344 19.667969 63.777344 10.835938 C 64.28125 8.605469 64.832031 6.277344 66.316406 4.535156 C 68.402344 2.089844 71.832031 1.347656 75.019531 0.9375 C 82.601562 -0.03125 90.277344 0.0664062 97.921875 0.175781 C 168.816406 1.175781 239.703125 2.71875 310.570312 4.808594 C 310.492188 16.25 310.417969 27.695312 310.34375 39.136719 C 317.902344 38.730469 326.269531 37.585938 333.316406 37.164062 C 333.371094 43.34375 333.429688 49.523438 333.484375 55.703125"/></g><path fill="#F9C6CE" d="M 287.5625 40.921875 C 292.636719 40.753906 297.765625 40.929688 302.746094 39.917969 C 305.378906 39.382812 307.933594 38.5 310.355469 37.324219 C 310.371094 35.148438 310.386719 32.976562 310.402344 30.800781 C 301.285156 32.808594 292.03125 34.15625 282.726562 34.792969 C 275.46875 35.289062 268.195312 35.367188 260.914062 35.441406 C 228.011719 35.785156 195.019531 36.128906 162.304688 32.554688 C 157.058594 31.980469 151.808594 31.304688 146.523438 31.25 C 139.945312 31.179688 133.394531 32.070312 126.816406 32.320312 C 108.292969 33.015625 79.363281 28.558594 59.945312 27.777344 C 59.222656 30.964844 58.5 34.15625 57.777344 37.34375 C 59.5 41.097656 112.972656 42.425781 132.132812 43.914062 C 152.859375 45.523438 173.621094 46.632812 194.40625 46.800781 C 217.449219 46.984375 240.519531 46.011719 263.410156 43.308594 C 271.449219 42.359375 279.472656 41.195312 287.5625 40.921875 Z M 225.253906 208.738281 C 225.777344 208.253906 226.976562 208.019531 228.160156 208.15625 C 229.257812 208.289062 230.195312 208.714844 230.546875 209.25 C 230.929688 209.816406 230.839844 210.777344 230.34375 211.570312 C 229.820312 212.417969 228.933594 213.046875 227.96875 213.273438 C 227 213.492188 225.925781 213.304688 225.085938 212.769531 C 224.714844 212.53125 224.449219 212.246094 224.40625 212.027344 C 224.367188 211.855469 224.40625 211.550781 224.433594 211.289062 C 224.570312 210.214844 224.726562 209.21875 225.253906 208.738281 Z M 228.648438 216.261719 C 230.425781 215.859375 231.992188 214.742188 232.953125 213.199219 C 234.101562 211.347656 234.160156 209.136719 233.101562 207.546875 C 232.242188 206.242188 230.570312 205.359375 228.53125 205.113281 C 226.386719 204.855469 224.382812 205.367188 223.167969 206.484375 C 221.773438 207.765625 221.542969 209.660156 221.390625 210.914062 C 221.332031 211.363281 221.257812 211.984375 221.390625 212.644531 C 221.617188 213.707031 222.320312 214.652344 223.4375 215.363281 C 224.546875 216.070312 225.835938 216.4375 227.136719 216.4375 C 227.644531 216.4375 228.148438 216.375 228.648438 216.261719 Z M 302.347656 192.664062 C 292.105469 196.539062 282.636719 202.585938 274.835938 210.269531 L 273.742188 211.347656 C 269.042969 216.03125 263.703125 221.328125 257.652344 220.429688 C 253.867188 219.859375 250.589844 216.449219 250.175781 212.652344 C 249.757812 208.851562 252.230469 204.804688 255.800781 203.449219 C 258.246094 202.511719 261.648438 203.035156 262.824219 205.300781 C 263.402344 206.410156 262.90625 207.871094 262.128906 208.746094 C 261.820312 209.089844 260.996094 209.863281 260.027344 209.496094 L 258.941406 212.367188 C 260.832031 213.078125 262.921875 212.472656 264.421875 210.785156 C 266.175781 208.820312 266.640625 205.980469 265.554688 203.890625 C 263.539062 199.992188 258.445312 199.148438 254.707031 200.578125 C 249.808594 202.445312 246.546875 207.78125 247.117188 212.980469 C 247.6875 218.1875 252.019531 222.691406 257.195312 223.464844 C 257.839844 223.5625 258.460938 223.609375 259.085938 223.609375 C 265.765625 223.609375 271.132812 218.277344 275.910156 213.527344 L 276.988281 212.457031 C 284.058594 205.496094 292.539062 199.933594 301.734375 196.195312 C 301.9375 195.015625 302.144531 193.839844 302.347656 192.664062 Z M 180.472656 232.070312 C 187.230469 231.335938 193.679688 228.785156 199.105469 224.703125 C 202.496094 222.152344 204.796875 219.476562 206.140625 216.53125 C 210.96875 205.929688 202.636719 193.75 192.164062 188.550781 C 177.09375 181.070312 156.742188 182.71875 137.734375 192.957031 C 130.84375 196.671875 124.402344 201.199219 118.578125 206.421875 C 117.664062 207.242188 116.761719 208.078125 115.847656 208.917969 C 110.925781 213.484375 105.832031 218.195312 99.539062 219.515625 C 93.582031 220.765625 86.929688 218.496094 82.980469 213.863281 C 79.03125 209.234375 77.84375 202.308594 80.019531 196.628906 C 81.472656 192.835938 85.023438 188.8125 89.675781 188.378906 C 91.871094 188.175781 94.292969 189.066406 95.996094 190.707031 C 97.421875 192.078125 98.15625 193.765625 98.0625 195.46875 C 97.941406 197.632812 96.085938 199.265625 94.300781 199.917969 C 92.507812 200.578125 90.820312 200.316406 89.773438 199.214844 L 87.546875 201.335938 C 89.433594 203.320312 92.425781 203.882812 95.359375 202.804688 C 98.640625 201.597656 100.953125 198.71875 101.128906 195.632812 C 101.269531 193.03125 100.207031 190.5 98.128906 188.496094 C 95.761719 186.21875 92.492188 185.019531 89.390625 185.320312 C 84.144531 185.816406 79.339844 189.816406 77.148438 195.535156 C 74.582031 202.234375 75.988281 210.402344 80.644531 215.859375 C 85.300781 221.3125 93.148438 223.996094 100.167969 222.519531 C 107.296875 221.03125 112.707031 216.015625 117.941406 211.175781 C 118.832031 210.34375 119.734375 209.511719 120.632812 208.710938 C 126.269531 203.644531 132.515625 199.257812 139.191406 195.660156 C 157.320312 185.890625 176.613281 184.261719 190.800781 191.300781 C 200.035156 195.886719 207.28125 206.609375 203.34375 215.257812 C 202.21875 217.726562 200.230469 220.011719 197.253906 222.242188 C 192.269531 226 186.351562 228.34375 180.144531 229.019531 C 177.347656 229.324219 170.441406 229.550781 166.746094 225.136719 C 164.382812 222.3125 164.046875 218.414062 164.179688 215.648438 C 164.382812 211.480469 165.734375 207.9375 167.988281 205.675781 C 170.53125 203.117188 174.492188 202.324219 177.199219 203.808594 C 178.605469 204.574219 179.640625 206.144531 179.90625 207.898438 C 180.128906 209.367188 179.753906 210.71875 178.890625 211.601562 L 181.097656 213.746094 C 182.632812 212.164062 183.308594 209.863281 182.949219 207.441406 C 182.535156 204.761719 180.902344 202.332031 178.675781 201.109375 C 174.753906 198.964844 169.339844 199.972656 165.816406 203.507812 C 163.019531 206.304688 161.347656 210.566406 161.105469 215.5 C 160.949219 218.820312 161.382812 223.519531 164.390625 227.105469 C 167.171875 230.433594 171.828125 232.234375 177.4375 232.234375 C 178.417969 232.234375 179.441406 232.179688 180.472656 232.070312 Z M 102.480469 76.855469 C 98.105469 76.445312 93.703125 76.144531 89.289062 75.914062 C 90.875 74.515625 92.503906 73.167969 94.171875 71.871094 C 92.917969 71.703125 91.660156 71.535156 90.402344 71.367188 C 89.75 71.902344 89.09375 72.433594 88.453125 72.980469 C 88.445312 72.355469 88.425781 71.730469 88.414062 71.101562 C 87.492188 70.980469 86.570312 70.859375 85.644531 70.734375 C 85.65625 71.386719 85.679688 72.039062 85.6875 72.691406 L 83.410156 70.46875 C 82.121094 70.335938 80.773438 70.21875 79.382812 70.109375 L 79.238281 70.257812 L 84.820312 75.703125 C 80.03125 75.515625 75.242188 75.417969 70.484375 75.441406 L 70.496094 78.199219 C 74.527344 78.183594 78.578125 78.265625 82.625 78.394531 C 79.792969 81.234375 77.117188 84.230469 74.632812 87.386719 L 76.804688 89.09375 C 79.539062 85.625 82.5 82.34375 85.660156 79.261719 C 85.546875 84.839844 85.210938 90.40625 84.664062 95.9375 L 87.410156 96.207031 C 87.972656 90.578125 88.308594 84.898438 88.425781 79.226562 L 92.253906 82.957031 C 94.320312 84.980469 96.667969 87.265625 97.476562 90.089844 L 100.128906 89.328125 C 99.121094 85.796875 96.382812 83.128906 94.183594 80.980469 L 91.980469 78.828125 L 102.261719 79.898438 C 102.285156 79.898438 102.3125 79.90625 102.335938 79.90625 C 103.125 79.90625 103.773438 79.292969 103.828125 78.484375 C 103.890625 77.644531 103.296875 76.933594 102.480469 76.855469 Z M 170.871094 149.542969 C 167.667969 147.136719 164.558594 144.589844 161.511719 141.964844 C 164.371094 141.9375 167.234375 141.9375 170.066406 141.875 L 170.015625 139.109375 C 166.605469 139.1875 163.160156 139.207031 159.726562 139.230469 L 167.855469 131.707031 L 165.972656 129.675781 L 159.496094 135.6875 L 159.496094 122.730469 L 156.730469 122.730469 L 156.730469 137.695312 C 153.933594 135.109375 151.195312 132.464844 148.578125 129.722656 L 146.578125 131.625 C 149.074219 134.246094 151.691406 136.773438 154.34375 139.253906 C 150.886719 139.246094 147.421875 139.246094 143.972656 139.195312 L 143.9375 141.957031 C 146.832031 141.996094 149.746094 142.011719 152.65625 142.019531 L 145.242188 148.890625 L 147.117188 150.914062 L 156.730469 142.011719 L 156.730469 151.363281 L 159.496094 151.484375 L 159.496094 143.878906 C 162.660156 146.605469 165.882812 149.25 169.214844 151.753906 Z M 263.949219 89.066406 C 260.921875 88.960938 257.921875 88.285156 254.773438 87.574219 C 253.964844 87.394531 253.144531 87.214844 252.335938 87.042969 L 258.726562 81.128906 C 259.386719 80.515625 260.128906 79.824219 260.898438 79.621094 L 260.195312 76.953125 C 258.753906 77.328125 257.699219 78.3125 256.84375 79.105469 L 250.558594 84.929688 L 250.964844 76.9375 C 250.035156 77.007812 249.113281 77.074219 248.191406 77.132812 L 247.816406 84.433594 L 243.75 77.441406 C 242.730469 77.507812 241.710938 77.578125 240.683594 77.636719 C 240.8125 77.882812 240.945312 78.109375 241.058594 78.3125 L 245.460938 85.878906 C 240.953125 85.257812 236.425781 84.882812 231.996094 84.539062 L 231.777344 87.289062 C 236.597656 87.671875 241.539062 88.0625 246.398438 88.78125 L 237.296875 97.21875 L 239.171875 99.242188 L 247.460938 91.566406 L 246.660156 107.476562 L 249.417969 107.621094 L 250.109375 93.867188 L 253.042969 98.917969 L 255.433594 97.535156 L 250.792969 89.550781 C 250.917969 89.574219 251.046875 89.589844 251.175781 89.613281 C 252.171875 89.820312 253.167969 90.046875 254.167969 90.273438 C 257.613281 91.042969 261.167969 91.84375 264.8125 91.84375 C 265.007812 91.84375 265.195312 91.84375 265.390625 91.835938 L 265.398438 89.078125 L 263.957031 89.035156 Z M 242.484375 367.503906 C 242.769531 364.144531 243.039062 360.78125 243.300781 357.410156 C 246.128906 360.421875 248.910156 363.472656 251.609375 366.558594 L 253.695312 364.746094 C 251.015625 361.6875 248.273438 358.675781 245.476562 355.691406 C 249.488281 355.488281 253.6875 355.226562 259.234375 354.875 L 259.054688 352.117188 C 254.488281 352.410156 250.851562 352.632812 247.46875 352.820312 C 250.582031 350.175781 253.753906 347.597656 257.015625 345.15625 L 255.359375 342.945312 C 251.347656 345.949219 247.449219 349.128906 243.660156 352.433594 C 244.015625 347.703125 244.375 342.96875 244.671875 338.261719 L 241.921875 338.082031 C 241.644531 342.375 241.308594 346.699219 240.992188 351.007812 C 239.171875 349.148438 234.519531 343.875 232.675781 342.058594 L 230.742188 344.039062 C 232.667969 345.925781 237.394531 351.277344 239.289062 353.226562 C 235.878906 353.367188 232.203125 353.511719 227.585938 353.660156 L 227.683594 356.425781 C 232.453125 356.261719 236.222656 356.121094 239.730469 355.96875 C 236.636719 358.808594 233.597656 361.726562 230.691406 364.746094 L 232.683594 366.65625 C 235.171875 364.070312 237.761719 361.566406 240.398438 359.109375 C 240.175781 361.898438 239.917969 364.664062 239.6875 367.441406 C 240.617188 367.464844 241.554688 367.480469 242.484375 367.503906 Z M 158.421875 283.957031 C 160.011719 285.6875 161.578125 287.433594 163.117188 289.195312 L 165.195312 287.375 C 164.257812 286.304688 163.304688 285.246094 162.351562 284.191406 C 161.039062 284.117188 159.734375 284.03125 158.421875 283.957031 Z M 146.367188 283.1875 C 144.949219 284.566406 143.554688 285.960938 142.191406 287.375 L 144.183594 289.285156 C 146.105469 287.285156 148.089844 285.351562 150.109375 283.441406 C 148.863281 283.359375 147.609375 283.277344 146.367188 283.1875 Z M 151.742188 283.554688 C 151.5625 285.726562 151.375 287.898438 151.1875 290.074219 C 152.117188 290.097656 153.054688 290.109375 153.984375 290.132812 C 154.164062 288.003906 154.328125 285.863281 154.5 283.734375 C 153.578125 283.671875 152.664062 283.613281 151.742188 283.554688 Z M 306.503906 131.625 L 306.734375 121.738281 L 303.976562 121.671875 L 303.511719 141.375 C 303.414062 141.507812 303.316406 141.652344 303.21875 141.777344 C 300.871094 138.601562 298.425781 135.492188 295.863281 132.5 L 293.769531 134.292969 C 295.996094 136.898438 298.148438 139.597656 300.226562 142.363281 C 297.664062 142.035156 295.074219 141.785156 292.480469 141.785156 C 291.125 141.785156 289.757812 141.847656 288.402344 141.996094 L 288.703125 144.746094 C 292.660156 144.304688 296.71875 144.65625 300.742188 145.210938 C 299.808594 146.597656 298.914062 148.015625 298.050781 149.460938 C 299.191406 149.378906 300.625 149.273438 301.433594 149.214844 C 302.011719 148.292969 302.605469 147.382812 303.210938 146.484375 C 303.269531 146.566406 303.332031 146.648438 303.382812 146.726562 L 303.382812 146.785156 C 304.394531 141.734375 305.429688 136.675781 306.503906 131.625 Z M 116.882812 349.929688 C 112.285156 350.875 107.644531 351.71875 102.992188 352.492188 C 105.671875 355.234375 108.121094 357.867188 109.613281 359.625 L 107.503906 361.410156 C 106.148438 359.804688 103.925781 357.414062 101.460938 354.875 C 101.597656 357.699219 101.710938 360.503906 101.839844 363.320312 C 100.863281 361.695312 100.359375 359.769531 99.898438 357.910156 C 98.992188 354.238281 98.140625 350.550781 97.320312 346.863281 C 97.648438 347.179688 97.984375 347.5 98.324219 347.832031 C 98.085938 343.355469 97.847656 338.882812 97.578125 334.445312 L 100.335938 334.28125 C 100.613281 338.832031 100.855469 343.417969 101.101562 348.003906 C 101.414062 347.589844 101.726562 347.171875 102.015625 346.75 C 102.355469 346.25 102.679688 345.726562 103.007812 345.207031 C 103.917969 343.753906 104.855469 342.246094 106.203125 341.003906 L 108.078125 343.035156 C 107.003906 344.023438 106.203125 345.304688 105.351562 346.667969 C 105.007812 347.222656 104.660156 347.769531 104.296875 348.304688 C 103.988281 348.761719 103.660156 349.195312 103.332031 349.628906 C 107.683594 348.894531 112.023438 348.109375 116.324219 347.222656 L 116.882812 349.929688"/></svg>