<svg xmlns="http://www.w3.org/2000/svg" width="375" viewBox="0 0 375 375" height="375" version="1.0"><defs><clipPath id="a"><path d="M 320 19 L 340.8125 19 L 340.8125 50 L 320 50 Z M 320 19"/></clipPath><clipPath id="b"><path d="M 34.0625 19 L 55 19 L 55 50 L 34.0625 50 Z M 34.0625 19"/></clipPath></defs><path fill="#FFFBC7" d="M 142.835938 55.453125 L 142.835938 113.882812 L 152.347656 113.882812 L 152.347656 55.453125 L 147.558594 51.648438 Z M 142.835938 55.453125"/><path fill="#FFFBC7" d="M 39.523438 55.453125 L 39.523438 113.882812 L 49.03125 113.882812 L 49.03125 55.453125 L 44.246094 51.648438 Z M 39.523438 55.453125"/><path fill="#FFFBC7" d="M 72.714844 55.453125 L 72.714844 113.882812 L 82.222656 113.882812 L 82.222656 55.453125 L 77.4375 51.648438 Z M 72.714844 55.453125"/><path fill="#FFFBC7" d="M 106.332031 55.453125 L 106.332031 113.882812 L 115.902344 113.882812 L 115.902344 55.453125 L 111.117188 51.648438 Z M 106.332031 55.453125"/><path fill="#FFFBC7" d="M 192.46875 35.507812 L 187.683594 31.640625 L 182.898438 35.507812 L 182.898438 93.9375 L 192.46875 93.9375 Z M 192.46875 35.507812"/><path fill="#FFFBC7" d="M 302.164062 55.453125 L 297.4375 51.648438 L 292.652344 55.453125 L 292.652344 113.882812 L 302.164062 113.882812 Z M 302.164062 55.453125"/><path fill="#FFFBC7" d="M 268.542969 55.453125 L 263.757812 51.648438 L 258.972656 55.453125 L 258.972656 113.882812 L 268.542969 113.882812 Z M 268.542969 55.453125"/><path fill="#FFFBC7" d="M 325.84375 55.453125 L 325.84375 113.882812 L 335.351562 113.882812 L 335.351562 55.453125 L 330.628906 51.648438 Z M 325.84375 55.453125"/><path fill="#FFFBC7" d="M 232.039062 55.453125 L 227.316406 51.648438 L 222.53125 55.453125 L 222.53125 113.882812 L 232.039062 113.882812 Z M 232.039062 55.453125"/><path fill="#F2B963" d="M 143.941406 333.84375 L 157.5 333.84375 L 186.210938 311.074219 L 179.460938 305.675781 Z M 143.941406 333.84375"/><path fill="#F2B963" d="M 324.003906 115.171875 C 324.003906 115.601562 324.003906 116.03125 324.003906 116.460938 C 324.003906 131.863281 321.425781 146.71875 316.703125 160.527344 C 299.09375 212.203125 251.425781 249.949219 194.554688 252.832031 L 194.554688 232.824219 C 240.261719 230.0625 278.910156 200.972656 295.414062 160.464844 C 300.933594 146.902344 304.003906 131.988281 304.003906 116.398438 C 304.003906 116.152344 304.003906 115.90625 304.003906 115.664062 L 290.75 115.664062 L 290.75 115.109375 C 290.75 115.539062 290.75 115.96875 290.75 116.398438 C 290.75 132.171875 287.191406 147.085938 280.875 160.464844 C 265.292969 193.484375 232.714844 216.929688 194.492188 219.566406 L 194.492188 199.070312 C 221.121094 196.796875 244.1875 181.945312 257.621094 160.464844 C 265.660156 147.699219 270.261719 132.601562 270.261719 116.398438 C 270.261719 116.152344 270.261719 115.90625 270.261719 115.664062 L 257.007812 115.664062 L 257.007812 115.109375 C 257.007812 115.539062 257.007812 115.96875 257.007812 116.398438 C 257.007812 133.09375 251.121094 148.4375 241.304688 160.464844 C 229.953125 174.398438 213.328125 183.847656 194.492188 185.75 L 194.492188 163.65625 C 198.417969 163.042969 202.160156 161.9375 205.660156 160.464844 C 222.222656 153.34375 233.820312 136.898438 233.820312 117.75 C 233.820312 117.074219 233.820312 116.398438 233.757812 115.722656 L 220.566406 115.722656 L 220.566406 115.171875 C 220.628906 116.03125 220.691406 116.890625 220.691406 117.75 C 220.691406 133.644531 209.460938 146.960938 194.617188 150.214844 L 194.617188 95.101562 L 194.371094 95.101562 L 194.371094 95.714844 L 181.117188 95.714844 L 181.117188 95.101562 L 180.875 95.101562 L 180.875 150.277344 C 165.71875 147.207031 154.246094 133.765625 154.246094 117.6875 C 154.246094 116.828125 154.308594 115.96875 154.371094 115.109375 L 154.246094 115.109375 L 154.246094 115.664062 L 141.058594 115.664062 C 140.996094 116.335938 140.996094 117.011719 140.996094 117.6875 C 140.996094 136.898438 152.589844 153.34375 169.15625 160.402344 C 172.835938 162 176.761719 163.105469 180.875 163.71875 L 180.875 185.75 C 161.855469 183.972656 144.984375 174.457031 133.511719 160.402344 C 123.695312 148.375 117.804688 133.03125 117.804688 116.335938 C 117.804688 115.90625 117.804688 115.476562 117.804688 115.046875 L 117.804688 115.601562 L 104.554688 115.601562 C 104.554688 115.847656 104.554688 116.09375 104.554688 116.335938 C 104.554688 132.539062 109.214844 147.636719 117.191406 160.402344 C 130.75 182.007812 154.003906 196.921875 180.875 199.070312 L 180.875 219.566406 C 142.46875 217.113281 109.644531 193.605469 94.003906 160.464844 C 87.683594 147.085938 84.125 132.171875 84.125 116.398438 C 84.125 115.96875 84.125 115.539062 84.125 115.109375 L 84.125 115.664062 L 70.871094 115.664062 C 70.871094 115.90625 70.871094 116.152344 70.871094 116.398438 C 70.871094 131.988281 73.941406 146.839844 79.460938 160.464844 C 96.027344 201.09375 134.921875 230.308594 180.875 232.886719 L 180.875 252.832031 C 123.757812 250.132812 75.84375 212.265625 58.171875 160.464844 C 53.449219 146.65625 50.871094 131.804688 50.871094 116.398438 C 50.871094 115.96875 50.871094 115.539062 50.871094 115.109375 L 50.871094 115.664062 L 37.621094 115.664062 C 37.621094 115.90625 37.621094 116.152344 37.621094 116.398438 C 37.621094 131.558594 39.890625 146.347656 44.308594 160.464844 C 51.425781 183.542969 64.1875 204.652344 81.730469 222.144531 C 108.417969 248.84375 143.390625 264.1875 180.875 265.78125 L 180.875 294.8125 L 130.503906 334.703125 L 98.171875 334.703125 L 47.621094 374.78125 L 58.359375 374.78125 L 58.171875 374.535156 L 101.242188 340.410156 L 274.1875 340.410156 L 317.132812 374.472656 L 316.886719 374.78125 L 325.722656 374.78125 L 275.167969 334.703125 L 244.921875 334.703125 L 194.554688 294.8125 L 194.554688 265.78125 C 231.792969 264.0625 266.578125 248.71875 293.144531 222.144531 C 310.691406 204.59375 323.390625 183.480469 330.566406 160.464844 C 334.921875 146.347656 337.253906 131.558594 337.253906 116.398438 C 337.253906 116.152344 337.253906 115.90625 337.253906 115.664062 L 324.003906 115.664062 Z M 195.964844 303.34375 L 236.761719 335.6875 L 138.664062 335.6875 L 179.460938 303.34375 L 187.746094 309.910156 Z M 195.964844 303.34375"/><path fill="#F2B963" d="M 160.445312 333.84375 L 214.984375 333.84375 L 187.683594 312.242188 Z M 160.445312 333.84375"/><path fill="#F2B963" d="M 106.457031 355.570312 L 82.160156 374.84375 L 293.265625 374.84375 L 268.910156 355.570312 Z M 106.457031 355.570312"/><path fill="#F2B963" d="M 217.929688 333.84375 L 231.488281 333.84375 L 195.964844 305.675781 L 189.21875 311.074219 Z M 217.929688 333.84375"/><path fill="#F2B963" d="M 104.1875 348.941406 L 71.488281 374.84375 L 79.644531 374.84375 L 79.460938 374.660156 L 105.84375 353.730469 L 269.585938 353.730469 L 295.78125 374.535156 L 295.535156 374.84375 L 303.941406 374.84375 L 271.242188 348.941406 Z M 104.1875 348.941406"/><path fill="#F2B963" d="M 101.855469 342.316406 L 60.8125 374.84375 L 68.972656 374.84375 L 68.789062 374.660156 L 103.511719 347.101562 L 271.855469 347.101562 L 306.457031 374.535156 L 306.210938 374.84375 L 314.617188 374.84375 L 273.574219 342.316406 Z M 101.855469 342.316406"/><path fill="#F2B963" d="M 270.382812 115.722656 L 270.382812 54.597656 L 263.757812 49.257812 L 257.132812 54.535156 L 257.132812 115.722656 Z M 258.972656 55.453125 L 263.757812 51.648438 L 268.542969 55.453125 L 268.542969 113.882812 L 258.972656 113.882812 Z M 258.972656 55.453125"/><path fill="#F2B963" d="M 304.003906 115.722656 L 304.003906 54.597656 L 297.4375 49.257812 L 290.8125 54.535156 L 290.8125 115.722656 Z M 292.652344 55.453125 L 297.4375 51.648438 L 302.222656 55.453125 L 302.222656 113.882812 L 292.652344 113.882812 Z M 292.652344 55.453125"/><path fill="#F2B963" d="M 324.003906 54.597656 L 324.003906 115.785156 L 337.253906 115.785156 L 337.253906 54.597656 L 330.628906 49.257812 Z M 335.351562 113.882812 L 325.78125 113.882812 L 325.78125 55.453125 L 330.566406 51.648438 L 335.351562 55.453125 Z M 335.351562 113.882812"/><path fill="#F2B963" d="M 233.878906 115.722656 L 233.941406 54.597656 L 227.316406 49.257812 L 220.691406 54.535156 L 220.691406 115.722656 Z M 222.53125 55.453125 L 227.316406 51.648438 L 232.101562 55.453125 L 232.101562 113.882812 L 222.53125 113.882812 Z M 222.53125 55.453125"/><path fill="#F2B963" d="M 194.308594 95.777344 L 194.308594 34.589844 L 187.988281 29.554688 L 187.683594 29.800781 L 187.375 29.554688 L 181.058594 34.589844 L 181.058594 95.714844 L 194.308594 95.714844 Z M 182.898438 35.507812 L 187.683594 31.703125 L 192.46875 35.507812 L 192.46875 93.9375 L 182.898438 93.9375 Z M 182.898438 35.507812"/><path fill="#F2B963" d="M 154.1875 115.171875 L 154.1875 54.597656 L 147.558594 49.257812 L 140.933594 54.535156 L 140.933594 115.664062 L 154.1875 115.664062 Z M 152.347656 113.882812 L 142.773438 113.882812 L 142.773438 55.453125 L 147.558594 51.648438 L 152.347656 55.453125 Z M 152.347656 113.882812"/><path fill="#F2B963" d="M 117.746094 115.171875 L 117.746094 54.597656 L 111.117188 49.257812 L 104.492188 54.535156 L 104.492188 115.664062 L 117.746094 115.664062 Z M 115.902344 113.882812 L 106.332031 113.882812 L 106.332031 55.453125 L 111.117188 51.648438 L 115.902344 55.453125 Z M 115.902344 113.882812"/><path fill="#F2B963" d="M 84.0625 115.171875 L 84.0625 54.597656 L 77.4375 49.257812 L 70.8125 54.535156 L 70.8125 115.664062 L 84.0625 115.664062 Z M 82.222656 113.882812 L 72.714844 113.882812 L 72.714844 55.453125 L 77.5 51.648438 L 82.285156 55.453125 Z M 82.222656 113.882812"/><path fill="#F2B963" d="M 50.871094 115.171875 L 50.871094 54.597656 L 44.246094 49.257812 L 37.621094 54.597656 L 37.621094 115.722656 L 50.871094 115.722656 Z M 49.03125 113.882812 L 39.523438 113.882812 L 39.523438 55.453125 L 44.308594 51.648438 L 49.09375 55.453125 Z M 49.03125 113.882812"/><path fill="#F2B963" d="M 187.988281 29.554688 L 197.929688 21.207031 L 187.683594 0.15625 L 177.5 21.207031 L 187.375 29.554688 L 187.683594 29.800781 Z M 187.988281 29.554688"/><path fill="#F2B963" d="M 237.5 40.296875 L 227.316406 19.246094 L 217.070312 40.296875 L 227.316406 48.949219 Z M 237.5 40.296875"/><path fill="#F2B963" d="M 263.757812 19.613281 L 253.574219 40.664062 L 263.757812 49.257812 L 273.941406 40.664062 Z M 263.757812 19.613281"/><path fill="#F2B963" d="M 307.621094 40.664062 L 297.4375 19.613281 L 287.191406 40.664062 L 297.4375 49.257812 Z M 307.621094 40.664062"/><g clip-path="url(#a)"><path fill="#F2B963" d="M 330.628906 19.613281 L 320.382812 40.664062 L 330.628906 49.257812 L 340.8125 40.664062 Z M 330.628906 19.613281"/></g><path fill="#F2B963" d="M 147.558594 19.613281 L 137.375 40.664062 L 147.558594 49.257812 L 157.804688 40.664062 Z M 147.558594 19.613281"/><path fill="#F2B963" d="M 121.363281 40.664062 L 111.117188 19.613281 L 100.933594 40.664062 L 111.117188 49.257812 Z M 121.363281 40.664062"/><path fill="#F2B963" d="M 77.4375 19.613281 L 67.253906 40.664062 L 77.4375 49.257812 L 87.683594 40.664062 Z M 77.4375 19.613281"/><g clip-path="url(#b)"><path fill="#F2B963" d="M 44.246094 19.613281 L 34.0625 40.664062 L 44.246094 49.257812 L 54.492188 40.664062 Z M 44.246094 19.613281"/></g></svg>