<svg xmlns="http://www.w3.org/2000/svg" width="375" viewBox="0 0 375 375" height="375" version="1.0"><defs><clipPath id="a"><path d="M 69.074219 43 L 305.636719 43 L 305.636719 367 L 69.074219 367 Z M 69.074219 43"/></clipPath></defs><g clip-path="url(#a)"><path fill="#F03849" d="M 304.324219 176.175781 C 303.75 198.492188 298.953125 270.328125 298.011719 284.058594 C 296.515625 306.28125 288.515625 328.601562 275.453125 345.300781 C 270.53125 351.71875 264.773438 355.652344 257.46875 358.476562 C 256.09375 359.007812 254.648438 359.515625 253.15625 359.972656 C 253.15625 359.972656 251.421875 361.710938 244.742188 363.421875 C 234.8125 365.957031 213.941406 368.394531 171.59375 364.847656 C 100.875 358.910156 95.429688 341.078125 94.054688 340.160156 C 92.679688 339.222656 82.195312 332.292969 78.554688 326.601562 C 73.109375 318.035156 70.722656 306.839844 69.589844 293.351562 C 68.671875 282.34375 69.179688 271.632812 69.589844 260.773438 C 70.796875 225.785156 69.589844 121.617188 69.589844 121.617188 C 71.589844 100.695312 69.996094 81.003906 86.460938 65.707031 C 98.101562 54.460938 114.589844 51.226562 128.640625 43.191406 L 257.398438 63.4375 C 274.414062 74.003906 299.625 83.394531 302.566406 105.136719 L 303.75 112.761719 C 307.265625 132.714844 304.902344 156.214844 304.324219 176.175781"/></g><path fill="#FAF6F3" d="M 102.804688 331.34375 C 86.625 321.121094 79.640625 302.921875 76.234375 284.839844 C 75.945312 283.3125 73.625 283.960938 73.910156 285.480469 C 77.441406 304.214844 84.882812 322.871094 101.585938 333.425781 C 102.90625 334.257812 104.113281 332.167969 102.804688 331.34375"/><path fill="#FAF6F3" d="M 107.378906 337.875 C 108.480469 338.292969 109.417969 339.027344 110.527344 339.449219 C 111.976562 340.003906 112.601562 337.671875 111.164062 337.125 C 110.066406 336.703125 109.125 335.972656 108.019531 335.550781 C 106.5625 334.992188 105.941406 337.328125 107.378906 337.875"/><path fill="#FAF6F3" d="M 78.960938 176.804688 C 78.492188 158.503906 78.148438 140.199219 78.25 121.894531 C 78.3125 110.484375 78.136719 98.757812 79.890625 87.449219 C 80.128906 85.914062 77.71875 85.863281 77.480469 87.378906 C 75.730469 98.695312 75.925781 110.40625 75.839844 121.824219 C 75.703125 140.128906 76.082031 158.4375 76.550781 176.734375 C 76.589844 178.28125 79 178.363281 78.960938 176.804688"/><path fill="#FAF6F3" d="M 87.710938 74.359375 C 91.773438 69.5625 96.296875 65.484375 102.050781 62.839844 C 103.460938 62.191406 102.460938 59.996094 101.046875 60.648438 C 94.921875 63.460938 90.085938 67.835938 85.757812 72.941406 C 84.75 74.132812 86.710938 75.539062 87.710938 74.359375"/><path fill="#FAF6F3" d="M 294.820312 96.945312 C 282.671875 110.628906 265.003906 118.296875 247.757812 123.308594 C 245.238281 124.039062 242.695312 124.746094 240.128906 125.414062 C 238.945312 120.328125 233.640625 112.132812 231.210938 108.554688 C 241.953125 105.71875 252.214844 101.320312 261.496094 94.902344 C 272.082031 87.578125 281.960938 75.765625 282.3125 62.601562 C 282.382812 59.929688 282.0625 57.199219 281.277344 54.441406 C 279.296875 47.492188 273.441406 42.125 268.460938 37.203125 C 265.441406 34.222656 262.203125 31.480469 258.78125 28.972656 C 254.414062 25.773438 249.742188 22.996094 244.914062 20.550781 C 232.691406 14.367188 219.824219 9.707031 206.605469 6.179688 C 200.460938 4.539062 194.1875 3.265625 187.867188 2.527344 C 166.277344 -0.0117188 144.476562 3.582031 124.128906 10.988281 C 116.386719 13.808594 110.765625 19.152344 106.214844 26.1875 C 92.253906 47.769531 112.0625 79.050781 114.421875 82.128906 C 123.355469 93.8125 138.015625 100.789062 151.453125 105.777344 C 165.625 111.039062 181.019531 112.679688 196.050781 112.761719 C 201.136719 112.789062 206.230469 112.585938 211.292969 112.085938 C 213.984375 111.816406 216.664062 111.464844 219.332031 111.039062 C 221.835938 115.464844 226.65625 124.1875 228.074219 128.261719 C 214.683594 131.058594 200.953125 132.652344 187.460938 131.976562 C 165.777344 130.898438 143.363281 124.359375 124.253906 114.015625 C 107.292969 104.835938 92.140625 93.84375 83.886719 75.824219 C 83.242188 74.414062 81.164062 75.640625 81.804688 77.042969 C 90.136719 95.230469 105.683594 107.054688 123.039062 116.101562 C 141.976562 125.964844 163.707031 133.210938 185.144531 134.277344 C 199.589844 134.992188 214.34375 133.570312 228.703125 130.636719 C 234.761719 156.734375 244.550781 181.808594 248.550781 208.558594 C 254.167969 245.835938 256.242188 281.308594 241.753906 316.878906 C 236.164062 330.605469 229.488281 343.128906 221.023438 355.269531 C 219.449219 357.542969 217.695312 359.871094 215.898438 362.242188 C 201.46875 362.441406 184.578125 362.027344 168.191406 360.21875 C 160.714844 359.398438 153.339844 358.285156 146.351562 356.808594 C 102.441406 347.546875 94.058594 340.199219 94.058594 340.199219 C 94.730469 346.488281 98.328125 351.578125 103.121094 355.335938 C 106.867188 358.273438 111.34375 360.398438 115.726562 361.652344 C 128.914062 365.535156 155.160156 372.234375 179.558594 373.871094 C 190.8125 374.628906 201.878906 374.984375 213.125 374.433594 C 221.59375 374.019531 230.496094 373.859375 238.78125 371.855469 C 246.402344 370.011719 252.722656 366.667969 253.164062 360.019531 C 253.140625 360.023438 253.113281 360.027344 253.089844 360.03125 C 253.132812 359.996094 253.15625 359.972656 253.15625 359.972656 C 254.648438 359.515625 256.09375 359.007812 257.46875 358.476562 C 267.617188 341.730469 271.546875 320.179688 273.183594 301.816406 C 276.171875 267.699219 266.050781 237.027344 255.808594 204.886719 C 248.386719 181.640625 242.976562 158.894531 240.980469 135.453125 C 240.738281 132.628906 240.550781 130.566406 240.410156 127.902344 C 243.699219 127.035156 246.960938 126.105469 250.179688 125.101562 C 267.214844 119.78125 284.445312 112.257812 296.523438 98.652344 C 297.554688 97.496094 295.855469 95.785156 294.820312 96.945312"/><path fill="#FAF6F3" d="M 148.882812 279.195312 C 152.421875 296.675781 179.503906 302.351562 185.273438 283.417969 C 186.296875 280.058594 181.0625 278.632812 180.042969 281.972656 C 175.773438 295.992188 156.515625 289.632812 154.113281 277.75 C 153.417969 274.320312 148.191406 275.777344 148.882812 279.195312"/><path fill="#FAF6F3" d="M 184.34375 249.511719 C 190.488281 255.417969 182.078125 260.09375 176.535156 260.304688 C 170.273438 260.546875 158.84375 258.914062 158.511719 250.90625 C 159.84375 237.28125 177.898438 243.3125 184.34375 249.511719 Z M 153.089844 250.90625 C 153.054688 251.257812 153.09375 251.5625 153.167969 251.847656 C 155.246094 269.839844 194.925781 271.761719 191.511719 251.367188 C 190.089844 242.890625 177.992188 238.867188 170.914062 237.6875 C 161.425781 236.105469 154.570312 240.34375 153.226562 249.941406 C 153.132812 250.226562 153.074219 250.539062 153.089844 250.90625"/><path fill="#FAF6F3" d="M 188.773438 214.796875 C 188.785156 221.433594 184.902344 219.980469 179.707031 219.695312 C 172.84375 219.3125 166.148438 217.714844 159.246094 218.207031 C 155.777344 218.453125 155.753906 223.882812 159.246094 223.636719 C 168.652344 222.964844 177.949219 226.085938 187.359375 225.371094 C 193.125 224.929688 194.207031 219.652344 194.199219 214.796875 C 194.191406 211.296875 188.769531 211.296875 188.773438 214.796875"/><path fill="#FAF6F3" d="M 164.386719 180.179688 C 166.332031 179.425781 168.535156 179.15625 170.699219 178.980469 C 170.609375 179.328125 170.582031 179.710938 170.640625 180.125 C 171.113281 183.417969 171.859375 186.683594 171.382812 189.960938 C 169.5 189.550781 167.628906 189.113281 165.785156 188.636719 C 161.46875 187.519531 159.671875 182 164.386719 180.179688 Z M 154.535156 183.445312 C 154.796875 189.847656 160.535156 192.886719 166.105469 194.328125 C 174.660156 196.539062 183.875 197.871094 192.589844 199.390625 C 196.011719 199.988281 197.476562 194.757812 194.035156 194.15625 C 188.332031 193.164062 182.476562 192.203125 176.691406 191.074219 C 177.332031 186.929688 176.46875 182.855469 175.871094 178.683594 C 175.863281 178.648438 175.851562 178.617188 175.847656 178.585938 C 180.988281 178.273438 186.171875 178.492188 191.289062 179.054688 C 194.757812 179.4375 194.726562 174.007812 191.289062 173.628906 C 184.269531 172.855469 153.984375 170.039062 154.535156 183.445312"/><path fill="#FAF6F3" d="M 112.980469 181.117188 C 113.121094 179.144531 114.03125 177.964844 116.074219 177.871094 C 116.078125 177.871094 116.078125 177.867188 116.078125 177.867188 C 117.421875 177.933594 120.007812 178.683594 119.71875 180.523438 C 119.507812 181.875 117.847656 182.988281 116.691406 183.472656 C 114.796875 184.261719 112.824219 183.230469 112.980469 181.117188 Z M 116.492188 187.242188 C 119.496094 186.710938 123.363281 183.902344 123.347656 180.515625 C 123.335938 176.734375 119.960938 174.617188 116.546875 174.289062 C 116.402344 174.257812 116.246094 174.242188 116.074219 174.246094 C 115.898438 174.238281 115.742188 174.257812 115.59375 174.289062 C 111.632812 174.660156 109.839844 177.25 109.363281 181.117188 C 108.871094 185.085938 112.808594 187.890625 116.492188 187.242188"/><path fill="#FAF6F3" d="M 170.480469 150.457031 C 170.429688 148.199219 172.089844 147.15625 174.160156 147.152344 C 178.757812 147.601562 179.25 154.277344 174.3125 154.585938 C 171.921875 154.738281 170.53125 152.5625 170.480469 150.457031 Z M 181.578125 151.054688 C 181.648438 147.140625 178.265625 144.183594 174.671875 143.605469 C 174.511719 143.5625 174.347656 143.53125 174.160156 143.535156 C 173.980469 143.515625 173.820312 143.527344 173.667969 143.554688 C 169.671875 143.761719 167.105469 146.394531 166.867188 150.457031 C 166.617188 154.738281 170.207031 158.058594 174.3125 158.207031 C 178.347656 158.351562 181.507812 154.917969 181.578125 151.054688"/><path fill="#FAF6F3" d="M 201.816406 319.367188 C 201.761719 317.109375 203.425781 316.066406 205.492188 316.0625 C 210.089844 316.511719 210.585938 323.1875 205.644531 323.496094 C 203.253906 323.648438 201.867188 321.472656 201.816406 319.367188 Z M 212.910156 319.964844 C 212.980469 316.050781 209.601562 313.09375 206.003906 312.515625 C 205.847656 312.472656 205.679688 312.441406 205.492188 312.445312 C 205.3125 312.425781 205.152344 312.4375 205.003906 312.464844 C 201.003906 312.671875 198.4375 315.304688 198.199219 319.367188 C 197.949219 323.648438 201.539062 326.96875 205.644531 327.117188 C 209.679688 327.261719 212.839844 323.828125 212.910156 319.964844"/><path fill="#F2B0AC" d="M 212.78125 62.625 C 211.675781 68.65625 208.734375 73.265625 203.238281 75.824219 C 198.996094 77.847656 194.371094 79.679688 189.574219 79.152344 C 183.882812 78.742188 178.726562 76.617188 173.519531 74.613281 C 170.363281 73.382812 167.226562 72.007812 164.121094 70.679688 C 158.648438 68.367188 153.25 65.882812 147.753906 63.585938 C 142.402344 61.390625 136.765625 59.367188 132.496094 55.335938 C 132.015625 54.902344 131.582031 54.417969 131.148438 53.886719 C 129.097656 51.304688 127.820312 48 127.820312 44.71875 C 127.796875 42.523438 129.289062 39.433594 130.808594 37.914062 C 133.4375 35.308594 137.773438 34.703125 141.292969 34.484375 C 145.03125 34.292969 148.765625 34.75 152.503906 34.75 C 157.660156 34.75 162.867188 34.96875 168.023438 35.476562 C 180.050781 36.683594 191.621094 39.75 202.25 45.65625 C 209.09375 49.472656 214.328125 54.226562 212.78125 62.625 Z M 264.726562 60.328125 C 262.605469 53.527344 258.339844 47.734375 253.398438 42.691406 C 246.335938 35.5 236.667969 31.351562 227.4375 27.707031 C 213.21875 22.109375 198.25 18.777344 183.089844 17.1875 C 181.449219 17.015625 179.765625 16.871094 178.097656 16.75 C 164.601562 15.714844 150.769531 16.269531 137.773438 20.226562 C 133.195312 21.601562 128.761719 23.578125 124.785156 26.285156 C 120.664062 29.105469 118.15625 32.433594 115.578125 36.632812 C 114.25 38.78125 113.09375 41.023438 112.300781 43.390625 C 109.429688 51.835938 111.746094 61.054688 115.699219 68.75 C 117 71.308594 118.613281 73.820312 120.371094 76.089844 C 126.785156 84.484375 135.703125 90.46875 145.03125 95.125 C 152.070312 98.648438 160.527344 99.710938 168.195312 101.160156 C 178.582031 103.113281 189.042969 103.863281 199.574219 102.992188 C 203.792969 102.632812 208.011719 102.171875 212.207031 101.617188 C 226.160156 99.734375 240.527344 97.347656 253.011719 90.417969 C 259.542969 86.800781 264.726562 81.253906 265.882812 73.648438 C 266.53125 69.425781 266.003906 64.382812 264.726562 60.328125"/><path fill="#F2B0AC" d="M 193.058594 47.066406 C 190.796875 46.058594 188.445312 45.328125 186.261719 44.9375 C 183.097656 44.339844 179.667969 44.449219 176.46875 44.710938 C 171.230469 45.105469 167.761719 47.125 165.464844 51.8125 C 162.363281 58.195312 165.699219 64.113281 171.066406 67.84375 C 177.421875 72.351562 185.355469 74.003906 192.976562 72.578125 C 198.027344 71.527344 203.273438 67.84375 204.0625 62.40625 C 205.117188 55.09375 199.429688 49.886719 193.058594 47.066406"/><path fill="#F2B0AC" d="M 152.960938 53.410156 C 150.371094 55.324219 147.949219 55.625 145.042969 54.230469 C 141.53125 52.539062 139.210938 47.9375 142.917969 45.125 C 145.457031 43.203125 148.640625 42.902344 151.601562 43.800781 C 155.964844 45.785156 157.265625 50.222656 152.960938 53.410156 Z M 152.601562 41.605469 C 152.570312 41.589844 152.539062 41.585938 152.503906 41.574219 C 152.4375 41.542969 152.375 41.511719 152.300781 41.488281 C 148.148438 40.175781 141.566406 41.097656 139.273438 45.417969 C 136.882812 49.921875 140.457031 54.695312 144.527344 56.65625 C 149.046875 58.828125 153.769531 56.863281 156.765625 53.039062 C 160.210938 48.652344 156.949219 43.476562 152.601562 41.605469"/><path fill="#F2B0AC" d="M 150.121094 45.785156 C 149.699219 45.636719 149.257812 45.550781 148.820312 45.527344 C 147.621094 45.464844 145.46875 45.949219 144.605469 46.871094 C 142.171875 49.476562 146.195312 52.746094 148.769531 52.476562 C 150.484375 52.296875 152.148438 50.871094 152.460938 49.175781 C 152.765625 47.496094 151.574219 46.289062 150.121094 45.785156"/></svg>