<svg xmlns="http://www.w3.org/2000/svg" width="375" viewBox="0 0 375 375" height="375" version="1.0"><defs><clipPath id="a"><path d="M 185 9 L 350 9 L 350 197 L 185 197 Z M 185 9"/></clipPath><clipPath id="b"><path d="M 167.382812 26.152344 L 319.339844 -9.144531 L 361.421875 172.03125 L 209.46875 207.328125 Z M 167.382812 26.152344"/></clipPath><clipPath id="c"><path d="M 167.382812 26.152344 L 319.339844 -9.144531 L 361.421875 172.03125 L 209.46875 207.328125 Z M 167.382812 26.152344"/></clipPath><clipPath id="d"><path d="M 167.382812 26.152344 L 319.339844 -9.144531 L 361.421875 172.03125 L 209.46875 207.328125 Z M 167.382812 26.152344"/></clipPath><clipPath id="e"><path d="M 167.402344 26.148438 L 319.359375 -9.148438 L 360.429688 167.679688 L 208.476562 202.976562 Z M 167.402344 26.148438"/></clipPath><clipPath id="f"><path d="M 167.402344 26.148438 L 319.308594 -9.136719 L 360.378906 167.691406 L 208.476562 202.976562 Z M 167.402344 26.148438"/></clipPath><clipPath id="g"><path d="M 185 16 L 351 16 L 351 202 L 185 202 Z M 185 16"/></clipPath><clipPath id="h"><path d="M 167.382812 26.152344 L 319.339844 -9.144531 L 361.421875 172.03125 L 209.46875 207.328125 Z M 167.382812 26.152344"/></clipPath><clipPath id="i"><path d="M 167.382812 26.152344 L 319.339844 -9.144531 L 361.421875 172.03125 L 209.46875 207.328125 Z M 167.382812 26.152344"/></clipPath><clipPath id="j"><path d="M 167.382812 26.152344 L 319.339844 -9.144531 L 361.421875 172.03125 L 209.46875 207.328125 Z M 167.382812 26.152344"/></clipPath><clipPath id="k"><path d="M 169.167969 33.757812 L 321.125 -1.539062 L 361.441406 172.027344 L 209.484375 207.324219 Z M 169.167969 33.757812"/></clipPath><clipPath id="l"><path d="M 169.167969 33.757812 L 321.074219 -1.527344 L 361.390625 172.039062 L 209.484375 207.324219 Z M 169.167969 33.757812"/></clipPath><clipPath id="m"><path d="M 234 40 L 280 40 L 280 162 L 234 162 Z M 234 40"/></clipPath><clipPath id="n"><path d="M 167.382812 26.152344 L 319.339844 -9.144531 L 361.421875 172.03125 L 209.46875 207.328125 Z M 167.382812 26.152344"/></clipPath><clipPath id="o"><path d="M 167.382812 26.152344 L 319.339844 -9.144531 L 361.421875 172.03125 L 209.46875 207.328125 Z M 167.382812 26.152344"/></clipPath><clipPath id="p"><path d="M 167.382812 26.152344 L 319.339844 -9.144531 L 361.421875 172.03125 L 209.46875 207.328125 Z M 167.382812 26.152344"/></clipPath><clipPath id="q"><path d="M 220 58 L 310 58 L 310 150 L 220 150 Z M 220 58"/></clipPath><clipPath id="r"><path d="M 167.382812 26.152344 L 319.339844 -9.144531 L 361.421875 172.03125 L 209.46875 207.328125 Z M 167.382812 26.152344"/></clipPath><clipPath id="s"><path d="M 167.382812 26.152344 L 319.339844 -9.144531 L 361.421875 172.03125 L 209.46875 207.328125 Z M 167.382812 26.152344"/></clipPath><clipPath id="t"><path d="M 167.382812 26.152344 L 319.339844 -9.144531 L 361.421875 172.03125 L 209.46875 207.328125 Z M 167.382812 26.152344"/></clipPath><clipPath id="u"><path d="M 191 13 L 336 13 L 336 186 L 191 186 Z M 191 13"/></clipPath><clipPath id="v"><path d="M 167.382812 26.152344 L 319.339844 -9.144531 L 361.421875 172.03125 L 209.46875 207.328125 Z M 167.382812 26.152344"/></clipPath><clipPath id="w"><path d="M 167.382812 26.152344 L 319.339844 -9.144531 L 361.421875 172.03125 L 209.46875 207.328125 Z M 167.382812 26.152344"/></clipPath><clipPath id="x"><path d="M 167.382812 26.152344 L 319.339844 -9.144531 L 361.421875 172.03125 L 209.46875 207.328125 Z M 167.382812 26.152344"/></clipPath><clipPath id="y"><path d="M 46 20 L 169 20 L 169 210 L 46 210 Z M 46 20"/></clipPath><clipPath id="z"><path d="M 57.027344 16.757812 L 178.320312 23.800781 L 167.0625 217.722656 L 45.769531 210.683594 Z M 57.027344 16.757812"/></clipPath><clipPath id="A"><path d="M 57.027344 16.757812 L 178.320312 23.800781 L 167.0625 217.722656 L 45.769531 210.683594 Z M 57.027344 16.757812"/></clipPath><clipPath id="B"><path d="M 57.027344 16.757812 L 178.320312 23.800781 L 167.0625 217.722656 L 45.769531 210.683594 Z M 57.027344 16.757812"/></clipPath><clipPath id="C"><path d="M 57.023438 16.789062 L 178.667969 23.851562 L 167.640625 213.835938 L 45.996094 206.773438 Z M 57.023438 16.789062"/></clipPath><clipPath id="D"><path d="M 57.023438 16.789062 L 178.320312 23.832031 L 167.292969 213.816406 L 45.996094 206.773438 Z M 57.023438 16.789062"/></clipPath><clipPath id="E"><path d="M 46 36 L 169 36 L 169 214 L 46 214 Z M 46 36"/></clipPath><clipPath id="F"><path d="M 57.027344 16.757812 L 178.320312 23.800781 L 167.0625 217.722656 L 45.769531 210.683594 Z M 57.027344 16.757812"/></clipPath><clipPath id="G"><path d="M 57.027344 16.757812 L 178.320312 23.800781 L 167.0625 217.722656 L 45.769531 210.683594 Z M 57.027344 16.757812"/></clipPath><clipPath id="H"><path d="M 57.027344 16.757812 L 178.320312 23.800781 L 167.0625 217.722656 L 45.769531 210.683594 Z M 57.027344 16.757812"/></clipPath><clipPath id="I"><path d="M 56.078125 33.074219 L 177.722656 40.136719 L 167.414062 217.714844 L 45.769531 210.652344 Z M 56.078125 33.074219"/></clipPath><clipPath id="J"><path d="M 56.078125 33.074219 L 177.375 40.113281 L 167.066406 217.691406 L 45.769531 210.652344 Z M 56.078125 33.074219"/></clipPath><clipPath id="K"><path d="M 56 33 L 158 33 L 158 203 L 56 203 Z M 56 33"/></clipPath><clipPath id="L"><path d="M 57.027344 16.757812 L 178.320312 23.800781 L 167.0625 217.722656 L 45.769531 210.683594 Z M 57.027344 16.757812"/></clipPath><clipPath id="M"><path d="M 57.027344 16.757812 L 178.320312 23.800781 L 167.0625 217.722656 L 45.769531 210.683594 Z M 57.027344 16.757812"/></clipPath><clipPath id="N"><path d="M 57.027344 16.757812 L 178.320312 23.800781 L 167.0625 217.722656 L 45.769531 210.683594 Z M 57.027344 16.757812"/></clipPath><clipPath id="O"><path d="M 86 59 L 138 59 L 138 182 L 86 182 Z M 86 59"/></clipPath><clipPath id="P"><path d="M 57.027344 16.757812 L 178.320312 23.800781 L 167.0625 217.722656 L 45.769531 210.683594 Z M 57.027344 16.757812"/></clipPath><clipPath id="Q"><path d="M 57.027344 16.757812 L 178.320312 23.800781 L 167.0625 217.722656 L 45.769531 210.683594 Z M 57.027344 16.757812"/></clipPath><clipPath id="R"><path d="M 57.027344 16.757812 L 178.320312 23.800781 L 167.0625 217.722656 L 45.769531 210.683594 Z M 57.027344 16.757812"/></clipPath><clipPath id="S"><path d="M 77 76 L 132 76 L 132 185 L 77 185 Z M 77 76"/></clipPath><clipPath id="T"><path d="M 57.027344 16.757812 L 178.320312 23.800781 L 167.0625 217.722656 L 45.769531 210.683594 Z M 57.027344 16.757812"/></clipPath><clipPath id="U"><path d="M 57.027344 16.757812 L 178.320312 23.800781 L 167.0625 217.722656 L 45.769531 210.683594 Z M 57.027344 16.757812"/></clipPath><clipPath id="V"><path d="M 57.027344 16.757812 L 178.320312 23.800781 L 167.0625 217.722656 L 45.769531 210.683594 Z M 57.027344 16.757812"/></clipPath><clipPath id="W"><path d="M 129 187 L 296 187 L 296 361 L 129 361 Z M 129 187"/></clipPath><clipPath id="X"><path d="M 127.507812 200.640625 L 262.339844 171.25 L 303.070312 358.113281 L 168.238281 387.503906 Z M 127.507812 200.640625"/></clipPath><clipPath id="Y"><path d="M 127.507812 200.640625 L 262.339844 171.25 L 303.070312 358.113281 L 168.238281 387.503906 Z M 127.507812 200.640625"/></clipPath><clipPath id="Z"><path d="M 127.507812 200.640625 L 262.339844 171.25 L 303.070312 358.113281 L 168.238281 387.503906 Z M 127.507812 200.640625"/></clipPath><clipPath id="aa"><path d="M 135 190 L 299 190 L 299 366 L 135 366 Z M 135 190"/></clipPath><clipPath id="ab"><path d="M 127.507812 200.640625 L 262.339844 171.25 L 303.070312 358.113281 L 168.238281 387.503906 Z M 127.507812 200.640625"/></clipPath><clipPath id="ac"><path d="M 127.507812 200.640625 L 262.339844 171.25 L 303.070312 358.113281 L 168.238281 387.503906 Z M 127.507812 200.640625"/></clipPath><clipPath id="ad"><path d="M 127.507812 200.640625 L 262.339844 171.25 L 303.070312 358.113281 L 168.238281 387.503906 Z M 127.507812 200.640625"/></clipPath><clipPath id="ae"><path d="M 131.472656 205.765625 L 263.734375 176.9375 L 303.210938 358.039062 L 170.949219 386.867188 Z M 131.472656 205.765625"/></clipPath><clipPath id="af"><path d="M 131.472656 205.765625 L 263.554688 176.976562 L 303.027344 358.078125 L 170.949219 386.867188 Z M 131.472656 205.765625"/></clipPath><clipPath id="ag"><path d="M 133 192 L 286 192 L 286 355 L 133 355 Z M 133 192"/></clipPath><clipPath id="ah"><path d="M 127.507812 200.640625 L 262.339844 171.25 L 303.070312 358.113281 L 168.238281 387.503906 Z M 127.507812 200.640625"/></clipPath><clipPath id="ai"><path d="M 127.507812 200.640625 L 262.339844 171.25 L 303.070312 358.113281 L 168.238281 387.503906 Z M 127.507812 200.640625"/></clipPath><clipPath id="aj"><path d="M 127.507812 200.640625 L 262.339844 171.25 L 303.070312 358.113281 L 168.238281 387.503906 Z M 127.507812 200.640625"/></clipPath><clipPath id="ak"><path d="M 186 205 L 265 205 L 265 327 L 186 327 Z M 186 205"/></clipPath><clipPath id="al"><path d="M 127.507812 200.640625 L 262.339844 171.25 L 303.070312 358.113281 L 168.238281 387.503906 Z M 127.507812 200.640625"/></clipPath><clipPath id="am"><path d="M 127.507812 200.640625 L 262.339844 171.25 L 303.070312 358.113281 L 168.238281 387.503906 Z M 127.507812 200.640625"/></clipPath><clipPath id="an"><path d="M 127.507812 200.640625 L 262.339844 171.25 L 303.070312 358.113281 L 168.238281 387.503906 Z M 127.507812 200.640625"/></clipPath><clipPath id="ao"><path d="M 156 209 L 250 209 L 250 341 L 156 341 Z M 156 209"/></clipPath><clipPath id="ap"><path d="M 127.507812 200.640625 L 262.339844 171.25 L 303.070312 358.113281 L 168.238281 387.503906 Z M 127.507812 200.640625"/></clipPath><clipPath id="aq"><path d="M 127.507812 200.640625 L 262.339844 171.25 L 303.070312 358.113281 L 168.238281 387.503906 Z M 127.507812 200.640625"/></clipPath><clipPath id="ar"><path d="M 127.507812 200.640625 L 262.339844 171.25 L 303.070312 358.113281 L 168.238281 387.503906 Z M 127.507812 200.640625"/></clipPath></defs><g clip-path="url(#a)"><g clip-path="url(#b)"><g clip-path="url(#c)"><g clip-path="url(#d)"><g clip-path="url(#e)"><g clip-path="url(#f)"><path fill="#D08D61" d="M 335.394531 73.132812 C 333.1875 73.832031 330.984375 74.53125 328.789062 75.21875 C 336.164062 97.953125 342.429688 121.050781 347.535156 144.402344 C 348.9375 150.824219 349.601562 154.460938 349.703125 161.039062 C 349.738281 163.335938 349.503906 165.902344 347.789062 167.429688 C 346.707031 168.398438 345.222656 168.753906 343.804688 169.078125 C 311.917969 176.371094 280.664062 186.417969 248.730469 193.519531 C 238.6875 195.75 228.304688 197.984375 218.195312 196.054688 C 216.808594 195.792969 215.34375 195.390625 214.425781 194.320312 C 213.699219 193.476562 213.429688 192.339844 213.183594 191.253906 C 208.324219 169.675781 203.785156 148.019531 199.574219 126.300781 C 198.628906 121.414062 195.550781 113.488281 195.667969 107.292969 C 194.847656 107.394531 194.023438 107.503906 193.199219 107.601562 C 190.113281 107.976562 185.824219 107.40625 185.597656 104.304688 C 185.535156 103.476562 185.828125 102.660156 186.128906 101.886719 C 190.304688 90.933594 194.828125 78.34375 200.539062 68.101562 C 199.789062 66.460938 199.523438 64.28125 199.253906 63.082031 C 198.324219 58.9375 197.421875 54.785156 196.550781 50.625 C 195.566406 45.894531 194.621094 41.15625 193.714844 36.410156 C 193.515625 35.371094 193.34375 34.203125 193.941406 33.332031 C 194.472656 32.5625 195.445312 32.261719 196.347656 32.015625 C 202.828125 30.253906 209.363281 28.6875 215.941406 27.328125 C 216.703125 30.839844 217.394531 34.367188 218.054688 37.902344 C 224.066406 27.210938 233.746094 10.75 239.878906 9.3125 C 250.441406 6.839844 275.992188 25.105469 280.304688 27.09375 C 291.753906 32.375 301.980469 39.902344 312.683594 46.570312 C 337.917969 62.289062 340.65625 71.464844 335.394531 73.132812"/></g></g></g></g></g></g><g clip-path="url(#g)"><g clip-path="url(#h)"><g clip-path="url(#i)"><g clip-path="url(#j)"><g clip-path="url(#k)"><g clip-path="url(#l)"><path fill="#BF7753" d="M 282.625 148.175781 C 282.316406 148.925781 282.316406 149.777344 282.503906 150.566406 C 282.558594 150.796875 282.636719 151.027344 282.785156 151.210938 C 283.101562 151.585938 283.644531 151.65625 284.132812 151.699219 C 285.054688 151.773438 286.042969 151.839844 286.84375 151.371094 C 287.84375 150.785156 288.242188 149.367188 287.695312 148.34375 C 287.535156 148.039062 287.308594 147.78125 287.066406 147.539062 C 285.648438 146.113281 283.453125 146.167969 282.625 148.175781 Z M 262.703125 70.152344 C 261.9375 70.75 260.988281 71.058594 260.054688 71.316406 C 259.300781 71.527344 258.542969 71.703125 257.773438 71.863281 C 257.765625 71.808594 257.757812 71.75 257.742188 71.695312 C 256.945312 68.925781 256.292969 66.117188 255.769531 63.285156 C 258.691406 62.441406 261.613281 61.589844 264.535156 60.761719 C 264.675781 61.78125 264.769531 62.804688 264.796875 63.839844 C 264.867188 66.144531 264.523438 68.742188 262.703125 70.152344 Z M 242.8125 66.832031 C 245.882812 66.0625 248.941406 65.230469 251.992188 64.363281 C 252.199219 65.550781 252.351562 66.40625 252.410156 66.6875 C 252.691406 68.09375 252.796875 70.679688 253.425781 72.492188 C 251.527344 72.632812 249.574219 72.59375 247.804688 71.898438 C 245.535156 71.007812 243.777344 69.085938 242.8125 66.832031 Z M 247.246094 52.183594 C 248.046875 51.734375 248.898438 51.429688 249.785156 51.234375 C 250.140625 53.511719 250.765625 57.238281 251.316406 60.46875 C 249.339844 60.941406 247.359375 61.386719 245.371094 61.804688 C 244.121094 62.066406 242.914062 62.164062 241.9375 62.917969 C 241.707031 58.726562 243.496094 54.296875 247.246094 52.183594 Z M 262.8125 55.089844 C 263.25 55.71875 263.550781 56.429688 263.785156 57.164062 C 260.925781 58.003906 258.050781 58.789062 255.164062 59.527344 C 255.050781 58.722656 254.945312 57.925781 254.855469 57.121094 C 254.628906 55.097656 254.460938 53.046875 254.050781 51.0625 C 254.960938 51.160156 255.859375 51.324219 256.734375 51.546875 C 259.058594 52.121094 261.453125 53.109375 262.8125 55.089844 Z M 268.605469 55.496094 C 267.332031 52.046875 264.519531 49.269531 261.179688 47.738281 C 257.84375 46.207031 254.027344 45.867188 250.40625 46.464844 C 240.757812 48.039062 234.535156 58.046875 237.597656 67.523438 C 238.527344 70.402344 240.371094 73.015625 242.910156 74.6875 C 247.28125 77.570312 252.96875 77.429688 258.109375 76.4375 C 260.714844 75.933594 263.375 75.195312 265.410156 73.492188 C 268.746094 70.691406 269.675781 65.925781 269.585938 61.5625 C 269.542969 59.503906 269.320312 57.425781 268.605469 55.496094 Z M 312.171875 67.816406 C 310.753906 65.53125 303.578125 66.96875 301.058594 63.308594 C 299.644531 61.261719 298.855469 58.878906 297.496094 56.800781 C 296.035156 54.554688 293.515625 53.019531 290.816406 52.722656 C 289.03125 52.527344 287.199219 52.84375 285.433594 52.519531 C 282.375 51.945312 280.03125 49.542969 278.277344 47.015625 C 276.515625 44.496094 275.085938 41.695312 272.800781 39.621094 C 268.269531 35.515625 261.054688 34.859375 257.210938 30.125 C 256.410156 29.136719 251.9375 26.632812 250.535156 26.507812 C 248.976562 26.367188 247.664062 25.644531 246.164062 25.464844 C 241.90625 24.957031 242.75 29.507812 241.808594 32.128906 C 239.800781 37.738281 232.949219 39.621094 230.332031 44.84375 C 228.539062 48.410156 229.246094 52.640625 228.507812 56.546875 C 227.828125 60.175781 225.839844 63.558594 222.980469 65.957031 C 220.464844 68.058594 217.296875 69.449219 215.277344 72.015625 C 212.109375 76.042969 212.636719 81.742188 210.707031 86.460938 C 208.96875 90.703125 205.363281 93.886719 202.210938 97.257812 C 201.394531 98.132812 200.570312 99.460938 201.304688 100.394531 C 201.828125 101.058594 202.832031 101.058594 203.675781 100.917969 C 206.898438 100.386719 209.789062 98.710938 212.785156 97.414062 C 215.78125 96.117188 219.195312 95.183594 222.277344 96.214844 C 224.992188 97.125 227.75 99.5 230.324219 98.222656 C 231.480469 97.644531 232.171875 96.46875 232.957031 95.453125 C 235.40625 92.300781 239.402344 90.359375 243.414062 90.375 C 246.886719 90.390625 250.53125 91.730469 253.691406 90.3125 C 256.398438 89.097656 257.867188 86.230469 260.046875 84.234375 C 262.515625 81.976562 266.019531 80.867188 269.34375 81.285156 C 271.6875 81.585938 273.957031 82.597656 276.320312 82.429688 C 280.226562 82.160156 283.121094 78.859375 286.53125 76.933594 C 289.429688 75.300781 292.871094 74.636719 296.160156 75.082031 C 297.492188 75.261719 298.8125 75.621094 300.15625 75.554688 C 301.5 75.484375 302.800781 74.8125 303.492188 73.675781 C 305.683594 70.058594 313.867188 70.550781 312.171875 67.816406 Z M 325.691406 133.25 C 320.222656 113.691406 313.296875 94.414062 310.378906 74.335938 C 310.1875 74.464844 310.007812 74.605469 309.835938 74.769531 C 308.515625 76.03125 308.171875 78.066406 306.859375 79.335938 C 305.753906 80.410156 304.125 80.757812 302.582031 80.832031 C 297.015625 81.101562 290.863281 78.574219 286.171875 81.589844 C 284.023438 82.964844 282.59375 85.339844 280.304688 86.46875 C 275.707031 88.75 269.816406 85.15625 265.175781 87.339844 C 262.101562 88.792969 260.546875 92.363281 257.617188 94.089844 C 254.417969 95.972656 250.398438 95.246094 246.707031 94.828125 C 242.714844 94.371094 238.21875 94.515625 235.308594 97.289062 C 234.328125 98.222656 233.59375 99.40625 232.539062 100.261719 C 228.453125 103.570312 222.457031 100.449219 217.199219 100.644531 C 214.46875 100.753906 211.824219 101.800781 209.1875 102.964844 C 209.996094 103.96875 210.574219 105.296875 210.902344 106.386719 C 212.457031 111.503906 213.558594 116.746094 214.660156 121.980469 L 224.695312 169.726562 C 225.621094 174.132812 226.761719 178.894531 230.265625 181.722656 C 233.59375 184.40625 238.242188 184.636719 242.5 184.28125 C 249.917969 183.664062 257.066406 181.65625 264.183594 179.410156 C 262.460938 175.945312 261.113281 170.308594 260.878906 169.511719 C 258.867188 162.667969 257.101562 155.757812 255.574219 148.792969 C 254.664062 144.625 254.113281 141.207031 254.25 136.945312 C 254.390625 132.679688 255.574219 128.328125 258.304688 125.054688 C 260.113281 122.871094 262.515625 121.261719 265.050781 120 C 266.984375 119.035156 269.03125 118.253906 271.167969 117.980469 C 277.070312 117.214844 282.9375 120.464844 286.773438 125.019531 C 290.613281 129.578125 292.476562 134.476562 294.34375 140.136719 C 297.597656 149.980469 300.210938 160.03125 302.183594 170.210938 C 309.695312 168.652344 317.03125 166.222656 323.988281 162.980469 C 325.503906 162.273438 327.070312 161.464844 327.984375 160.066406 C 328.742188 158.902344 328.957031 157.46875 329.0625 156.082031 C 329.667969 148.371094 327.777344 140.699219 325.691406 133.25 Z M 296.3125 171.265625 C 293.296875 161.535156 291.949219 151.042969 288.671875 141.429688 C 287.097656 136.804688 285.4375 132.035156 282.140625 128.429688 C 278.84375 124.828125 271.226562 123.703125 266.753906 125.652344 C 263.761719 126.957031 261.683594 129.878906 260.753906 133.011719 C 259.828125 136.148438 259.917969 139.496094 260.285156 142.746094 C 260.867188 147.929688 262.132812 153.015625 263.398438 158.078125 C 264.984375 164.445312 266.570312 170.816406 268.152344 177.1875 C 268.226562 177.476562 268.296875 177.777344 268.355469 178.074219 C 274.390625 176.132812 280.4375 174.171875 286.628906 172.90625 C 289.835938 172.253906 293.078125 171.785156 296.3125 171.265625 Z M 323.621094 71.265625 C 322.492188 73.488281 319.457031 73.78125 316.972656 73.566406 C 316.554688 73.53125 316.125 73.492188 315.683594 73.457031 C 317.636719 78.292969 318.507812 83.523438 319.625 88.632812 C 324.71875 111.847656 335.488281 133.996094 336.378906 157.742188 C 336.445312 159.476562 336.441406 161.292969 335.65625 162.835938 C 334.578125 164.953125 332.285156 166.125 330.101562 167.054688 C 315.679688 173.195312 299.824219 174.910156 284.640625 178.792969 C 265.785156 183.605469 246.796875 191.898438 227.613281 188.585938 C 226.378906 188.367188 225.105469 188.085938 224.101562 187.332031 C 222.625 186.210938 222.03125 184.300781 221.554688 182.511719 C 217.359375 166.820312 215.640625 150.53125 211.078125 134.9375 C 208.605469 126.484375 205.21875 118.230469 203.605469 109.539062 C 203.390625 108.386719 203.0625 106.867188 203.101562 105.449219 C 200.554688 106.25 197.953125 106.566406 195.238281 105.683594 C 187.238281 103.070312 196.210938 93.921875 199.574219 91.605469 C 202.164062 89.828125 204.871094 87.96875 206.351562 85.199219 C 208.867188 80.496094 207.253906 74.265625 210.171875 69.800781 C 213.089844 65.34375 219.585938 64.179688 222.214844 59.542969 C 225.085938 54.480469 222.042969 47.605469 224.804688 42.476562 C 227.1875 38.046875 233.109375 36.464844 235.511719 32.039062 C 236.621094 30 236.828125 27.609375 237.132812 25.300781 C 237.4375 23 237.90625 20.59375 239.398438 18.8125 C 240.894531 17.035156 243.722656 16.175781 245.597656 17.546875 C 247.21875 18.730469 247.585938 21.066406 249.078125 22.410156 C 250.601562 23.785156 252.871094 23.796875 254.855469 24.324219 C 260.605469 25.859375 264.164062 31.921875 269.78125 33.90625 C 272.121094 34.734375 274.730469 34.816406 276.878906 36.054688 C 280.4375 38.101562 281.71875 42.660156 284.820312 45.339844 C 288.9375 48.882812 295.21875 48.386719 299.882812 51.152344 C 304.753906 54.035156 307.265625 60.101562 312.429688 62.402344 C 314.925781 63.515625 317.78125 63.609375 320.265625 64.75 C 322.75 65.886719 324.855469 68.828125 323.621094 71.265625 Z M 199.757812 127.238281 C 199.699219 126.925781 199.636719 126.617188 199.574219 126.300781 C 199.117188 123.941406 198.164062 120.867188 197.3125 117.625 C 197.957031 120.941406 198.972656 124.328125 199.757812 127.238281 Z M 347.535156 144.402344 C 348.9375 150.824219 349.601562 154.460938 349.703125 161.039062 C 349.738281 163.335938 349.503906 165.902344 347.789062 167.429688 C 346.707031 168.398438 345.222656 168.753906 343.804688 169.078125 C 311.917969 176.371094 280.664062 186.417969 248.730469 193.519531 C 238.6875 195.75 228.304688 197.984375 218.195312 196.054688 C 216.808594 195.792969 215.34375 195.390625 214.425781 194.320312 C 213.980469 193.804688 213.710938 193.183594 213.507812 192.527344 C 213.742188 193.574219 213.976562 194.628906 214.214844 195.679688 C 214.457031 196.765625 214.726562 197.902344 215.453125 198.746094 C 216.371094 199.820312 217.835938 200.214844 219.222656 200.484375 C 229.332031 202.40625 239.714844 200.175781 249.757812 197.941406 C 281.691406 190.847656 312.945312 180.800781 344.835938 173.507812 C 346.25 173.179688 347.734375 172.820312 348.816406 171.859375 C 350.53125 170.332031 350.765625 167.757812 350.730469 165.460938 C 350.628906 158.890625 349.964844 155.246094 348.5625 148.824219 C 347.730469 145.015625 346.863281 141.21875 345.972656 137.421875 C 346.503906 139.75 347.027344 142.070312 347.535156 144.402344 Z M 335.394531 73.132812 C 333.1875 73.832031 330.984375 74.53125 328.789062 75.21875 C 329.253906 76.65625 329.714844 78.09375 330.175781 79.535156 C 332.253906 78.878906 334.332031 78.21875 336.421875 77.554688 C 338.066406 77.035156 338.933594 75.78125 338.566406 73.820312 C 338.539062 73.660156 338.5 73.5 338.457031 73.339844 L 337.632812 69.800781 L 337.601562 69.851562 C 337.757812 71.550781 336.910156 72.652344 335.394531 73.132812 Z M 200.441406 68.289062 C 200.472656 68.226562 200.503906 68.164062 200.539062 68.101562 C 200.4375 67.875 200.34375 67.636719 200.257812 67.398438 C 200.265625 67.433594 200.273438 67.472656 200.28125 67.511719 C 200.332031 67.738281 200.382812 68 200.441406 68.289062 Z M 195.671875 107.292969 C 194.847656 107.394531 194.023438 107.503906 193.199219 107.601562 C 190.316406 107.953125 186.382812 107.476562 185.695312 104.882812 L 186.699219 109.207031 C 187.3125 111.886719 191.308594 112.378906 194.226562 112.027344 C 194.832031 111.957031 195.433594 111.875 196.039062 111.800781 C 195.792969 110.242188 195.644531 108.71875 195.671875 107.292969 Z M 218.058594 37.902344 C 217.675781 35.859375 217.28125 33.816406 216.867188 31.773438 C 216.902344 31.769531 216.9375 31.757812 216.96875 31.753906 C 217.394531 33.71875 217.800781 35.691406 218.191406 37.667969 C 218.144531 37.746094 218.101562 37.824219 218.058594 37.902344"/></g></g></g></g></g></g><g clip-path="url(#m)"><g clip-path="url(#n)"><g clip-path="url(#o)"><g clip-path="url(#p)"><path fill="#C94B5A" d="M 236.125 103.980469 C 237.75 105.140625 240.371094 104.796875 241.363281 103.0625 C 243.324219 99.628906 240.503906 95.410156 236.601562 96.371094 C 233.214844 97.203125 233.695312 102.246094 236.125 103.980469 Z M 260.253906 44.410156 C 260.761719 45.140625 261.746094 45.339844 262.636719 45.433594 C 265.644531 45.738281 265.015625 41.640625 263.039062 40.625 C 260.8125 39.480469 258.976562 42.558594 260.253906 44.410156 Z M 274.089844 109.03125 C 273.40625 109.621094 273.082031 110.546875 273.058594 111.449219 C 273.019531 112.851562 273.789062 114.335938 275.105469 114.816406 C 275.753906 115.050781 276.46875 115.035156 277.152344 114.976562 C 277.78125 114.921875 278.457031 114.820312 278.90625 114.378906 C 279.453125 113.839844 279.492188 112.976562 279.425781 112.207031 C 279.351562 111.378906 279.191406 110.523438 278.734375 109.828125 C 277.886719 108.535156 275.296875 107.988281 274.089844 109.03125 Z M 254.132812 155.8125 C 256.683594 154.332031 257.085938 159.140625 256.277344 160.621094 C 255.820312 161.457031 254.792969 161.9375 253.863281 161.753906 C 250.835938 161.160156 252.238281 156.917969 254.132812 155.8125"/></g></g></g></g><g clip-path="url(#q)"><g clip-path="url(#r)"><g clip-path="url(#s)"><g clip-path="url(#t)"><path fill="#8AD37E" d="M 285.652344 58.996094 C 284.796875 58.539062 283.683594 59.089844 283.203125 59.929688 C 282.722656 60.769531 282.726562 61.792969 282.800781 62.761719 C 282.855469 63.429688 282.960938 64.152344 283.445312 64.617188 C 284.105469 65.25 285.160156 65.136719 286.058594 64.976562 C 286.417969 64.910156 286.789062 64.84375 287.074219 64.621094 C 287.714844 64.128906 287.644531 63.15625 287.492188 62.359375 C 287.25 61.070312 286.765625 59.582031 285.507812 59.199219 M 220.570312 74.273438 C 219.949219 75.160156 219.984375 76.597656 220.921875 77.128906 C 221.210938 77.296875 221.542969 77.355469 221.871094 77.417969 C 222.726562 77.570312 223.683594 77.703125 224.398438 77.210938 C 227.117188 75.339844 223.351562 70.347656 220.570312 74.273438 Z M 304.832031 146.890625 C 304.738281 147.253906 304.691406 147.628906 304.769531 147.996094 C 304.96875 148.914062 305.925781 149.496094 306.859375 149.625 C 307.664062 149.738281 308.605469 149.515625 308.988281 148.800781 C 309.140625 148.523438 309.183594 148.195312 309.207031 147.871094 C 309.386719 144.539062 305.746094 143.460938 304.832031 146.890625 Z M 223.183594 124.703125 C 222.808594 125.503906 222.800781 126.433594 222.988281 127.296875 C 223.109375 127.871094 223.347656 128.472656 223.851562 128.773438 C 224.066406 128.902344 224.3125 128.96875 224.558594 129.007812 C 226.125 129.257812 227.804688 128.441406 228.574219 127.054688 C 228.773438 126.699219 228.917969 126.300781 228.898438 125.890625 C 228.863281 125.121094 228.28125 124.496094 227.695312 123.992188 C 226.21875 122.726562 224.089844 122.753906 223.183594 124.703125 Z M 301.511719 88.261719 C 301.949219 88.339844 302.308594 88.679688 302.5 89.078125 C 302.695312 89.480469 302.75 89.933594 302.765625 90.375 C 302.773438 90.636719 302.765625 90.921875 302.609375 91.132812 C 302.425781 91.382812 302.09375 91.464844 301.792969 91.527344 C 301.222656 91.640625 300.652344 91.757812 300.074219 91.726562 C 299.765625 91.710938 299.425781 91.636719 299.222656 91.398438 C 299.105469 91.257812 299.046875 91.070312 299.007812 90.890625 C 298.902344 90.34375 298.96875 89.757812 299.253906 89.28125 C 299.652344 88.613281 300.734375 88.125 301.511719 88.261719"/></g></g></g></g><g clip-path="url(#u)"><g clip-path="url(#v)"><g clip-path="url(#w)"><g clip-path="url(#x)"><path fill="#FDEDE7" d="M 282.027344 145.59375 C 281.714844 146.339844 281.714844 147.191406 281.90625 147.976562 C 281.957031 148.210938 282.035156 148.445312 282.183594 148.625 C 282.5 149.003906 283.042969 149.074219 283.535156 149.113281 C 284.457031 149.191406 285.441406 149.253906 286.242188 148.785156 C 287.242188 148.199219 287.640625 146.78125 287.09375 145.761719 C 286.9375 145.457031 286.707031 145.195312 286.464844 144.953125 C 285.046875 143.53125 282.851562 143.578125 282.027344 145.59375 Z M 261.910156 66.738281 C 261.144531 67.335938 260.195312 67.644531 259.261719 67.90625 C 258.507812 68.113281 257.75 68.289062 256.980469 68.449219 C 256.972656 68.394531 256.964844 68.339844 256.949219 68.28125 C 256.152344 65.515625 255.5 62.707031 254.976562 59.871094 C 257.898438 59.027344 260.820312 58.179688 263.742188 57.347656 C 263.882812 58.367188 263.976562 59.398438 264.003906 60.425781 C 264.074219 62.730469 263.730469 65.328125 261.910156 66.738281 Z M 242.019531 63.417969 C 245.089844 62.652344 248.148438 61.816406 251.203125 60.953125 C 251.40625 62.136719 251.558594 62.992188 251.621094 63.277344 C 251.898438 64.683594 252.003906 67.269531 252.632812 69.078125 C 250.734375 69.222656 248.78125 69.183594 247.011719 68.484375 C 244.742188 67.597656 242.984375 65.671875 242.019531 63.417969 Z M 246.453125 48.769531 C 247.253906 48.320312 248.105469 48.015625 248.992188 47.824219 C 249.347656 50.097656 249.972656 53.824219 250.527344 57.058594 C 248.546875 57.527344 246.566406 57.972656 244.578125 58.390625 C 243.328125 58.65625 242.121094 58.753906 241.144531 59.503906 C 240.914062 55.316406 242.703125 50.882812 246.453125 48.769531 Z M 262.019531 51.675781 C 262.457031 52.308594 262.757812 53.019531 262.992188 53.75 C 260.132812 54.589844 257.257812 55.382812 254.371094 56.113281 C 254.257812 55.3125 254.152344 54.511719 254.0625 53.707031 C 253.835938 51.683594 253.667969 49.636719 253.257812 47.648438 C 254.167969 47.746094 255.066406 47.917969 255.941406 48.132812 C 258.269531 48.707031 260.660156 49.699219 262.019531 51.675781 Z M 267.8125 52.082031 C 266.539062 48.636719 263.726562 45.855469 260.386719 44.324219 C 257.050781 42.792969 253.234375 42.457031 249.613281 43.050781 C 239.964844 44.625 233.742188 54.632812 236.804688 64.113281 C 237.738281 66.992188 239.578125 69.601562 242.117188 71.277344 C 246.488281 74.15625 252.175781 74.015625 257.316406 73.023438 C 259.921875 72.519531 262.582031 71.785156 264.617188 70.078125 C 267.953125 67.28125 268.882812 62.511719 268.792969 58.148438 C 268.75 56.09375 268.527344 54.011719 267.8125 52.082031 Z M 302.699219 70.261719 C 302.007812 71.398438 300.707031 72.074219 299.363281 72.140625 C 298.019531 72.207031 296.699219 71.851562 295.371094 71.671875 C 292.078125 71.222656 288.636719 71.886719 285.738281 73.519531 C 282.328125 75.449219 279.433594 78.75 275.527344 79.019531 C 273.164062 79.183594 270.894531 78.171875 268.550781 77.871094 C 265.226562 77.453125 261.722656 78.566406 259.253906 80.824219 C 257.074219 82.816406 255.609375 85.6875 252.898438 86.898438 C 249.738281 88.320312 246.09375 86.976562 242.625 86.964844 C 238.609375 86.945312 234.613281 88.886719 232.164062 92.039062 C 231.378906 93.054688 230.6875 94.234375 229.53125 94.808594 C 226.957031 96.085938 224.199219 93.710938 221.484375 92.804688 C 218.402344 91.769531 214.988281 92.703125 211.992188 94 C 208.996094 95.296875 206.105469 96.976562 202.882812 97.503906 C 202.039062 97.648438 201.035156 97.640625 200.511719 96.984375 C 199.777344 96.050781 200.601562 94.71875 201.417969 93.84375 C 204.570312 90.472656 208.175781 87.289062 209.914062 83.046875 C 211.847656 78.328125 211.316406 72.628906 214.484375 68.601562 C 216.503906 66.035156 219.675781 64.648438 222.1875 62.542969 C 225.046875 60.144531 227.035156 56.761719 227.714844 53.136719 C 228.453125 49.230469 227.746094 44.996094 229.539062 41.429688 C 232.15625 36.207031 239.007812 34.328125 241.015625 28.714844 C 241.957031 26.097656 241.113281 21.542969 245.371094 22.054688 C 246.871094 22.230469 248.183594 22.953125 249.742188 23.09375 C 251.144531 23.21875 255.617188 25.726562 256.417969 26.710938 C 260.261719 31.449219 267.480469 32.105469 272.007812 36.210938 C 274.292969 38.28125 275.722656 41.082031 277.484375 43.601562 C 279.238281 46.128906 281.582031 48.535156 284.640625 49.105469 C 286.40625 49.4375 288.238281 49.113281 290.023438 49.308594 C 292.722656 49.605469 295.242188 51.144531 296.703125 53.386719 C 298.066406 55.464844 298.851562 57.851562 300.265625 59.898438 C 302.785156 63.554688 309.960938 62.117188 311.378906 64.402344 C 313.074219 67.136719 304.890625 66.644531 302.699219 70.261719 Z M 328.269531 152.667969 C 328.164062 154.054688 327.949219 155.488281 327.191406 156.652344 C 326.277344 158.054688 324.710938 158.859375 323.195312 159.566406 C 316.238281 162.808594 308.902344 165.238281 301.390625 166.796875 C 299.417969 156.621094 296.804688 146.566406 293.550781 136.726562 C 291.683594 131.0625 289.820312 126.164062 285.980469 121.609375 C 282.144531 117.050781 276.277344 113.804688 270.375 114.566406 C 268.238281 114.839844 266.191406 115.621094 264.257812 116.585938 C 261.722656 117.847656 259.320312 119.460938 257.511719 121.640625 C 254.78125 124.917969 253.597656 129.265625 253.457031 133.53125 C 253.320312 137.796875 253.871094 141.210938 254.78125 145.382812 C 256.308594 152.347656 258.078125 159.257812 260.085938 166.097656 C 260.320312 166.894531 261.667969 172.535156 263.390625 175.996094 C 256.273438 178.242188 249.125 180.246094 241.707031 180.867188 C 237.449219 181.222656 232.800781 180.992188 229.472656 178.308594 C 225.96875 175.484375 224.828125 170.722656 223.902344 166.316406 C 220.558594 150.398438 217.214844 134.488281 213.867188 118.570312 C 212.765625 113.335938 211.664062 108.089844 210.109375 102.972656 C 209.78125 101.882812 209.203125 100.558594 208.394531 99.550781 C 211.03125 98.390625 213.675781 97.339844 216.410156 97.234375 C 221.664062 97.035156 227.660156 100.160156 231.746094 96.847656 C 232.800781 95.996094 233.535156 94.8125 234.515625 93.875 C 237.425781 91.101562 241.921875 90.957031 245.914062 91.414062 C 249.609375 91.835938 253.625 92.558594 256.824219 90.679688 C 259.753906 88.953125 261.308594 85.378906 264.382812 83.929688 C 269.023438 81.742188 274.914062 85.339844 279.511719 83.054688 C 281.800781 81.921875 283.230469 79.554688 285.378906 78.171875 C 290.070312 75.160156 296.222656 77.6875 301.789062 77.417969 C 303.332031 77.34375 304.960938 77 306.070312 75.925781 C 307.378906 74.65625 307.722656 72.621094 309.042969 71.355469 C 309.214844 71.191406 309.394531 71.050781 309.585938 70.921875 C 312.503906 91 319.429688 110.277344 324.898438 129.835938 C 326.984375 137.285156 328.875 144.957031 328.269531 152.667969 Z M 285.835938 169.496094 C 279.644531 170.761719 273.601562 172.71875 267.5625 174.664062 C 267.503906 174.363281 267.433594 174.0625 267.359375 173.773438 C 265.777344 167.40625 264.191406 161.035156 262.605469 154.667969 C 261.339844 149.601562 260.074219 144.519531 259.492188 139.332031 C 259.125 136.082031 259.035156 132.734375 259.960938 129.597656 C 260.894531 126.464844 262.96875 123.546875 265.960938 122.242188 C 270.433594 120.289062 278.050781 121.414062 281.347656 125.015625 C 284.648438 128.625 286.304688 133.390625 287.882812 138.015625 C 291.15625 147.628906 292.503906 158.121094 295.519531 167.855469 C 292.285156 168.375 289.042969 168.839844 285.835938 169.496094 Z M 319.472656 61.335938 C 316.992188 60.199219 314.136719 60.105469 311.640625 58.992188 C 306.472656 56.6875 303.960938 50.621094 299.089844 47.738281 C 294.425781 44.972656 288.144531 45.46875 284.027344 41.925781 C 280.925781 39.25 279.644531 34.6875 276.089844 32.640625 C 273.941406 31.402344 271.328125 31.320312 268.988281 30.492188 C 263.371094 28.507812 259.8125 22.445312 254.0625 20.910156 C 252.078125 20.382812 249.808594 20.375 248.285156 18.996094 C 246.792969 17.652344 246.425781 15.320312 244.804688 14.132812 C 242.929688 12.761719 240.101562 13.621094 238.609375 15.402344 C 237.113281 17.179688 236.644531 19.585938 236.339844 21.890625 C 236.035156 24.195312 235.828125 26.585938 234.71875 28.628906 C 232.316406 33.050781 226.394531 34.632812 224.011719 39.066406 C 221.25 44.195312 224.292969 51.066406 221.421875 56.128906 C 218.792969 60.765625 212.296875 61.929688 209.378906 66.390625 C 206.460938 70.851562 208.074219 77.082031 205.558594 81.789062 C 204.078125 84.554688 201.371094 86.414062 198.78125 88.191406 C 195.417969 90.507812 186.445312 99.660156 194.445312 102.269531 C 197.160156 103.152344 199.761719 102.835938 202.308594 102.039062 C 202.269531 103.453125 202.597656 104.972656 202.8125 106.125 C 204.425781 114.816406 207.8125 123.070312 210.285156 131.527344 C 214.847656 147.117188 216.566406 163.40625 220.761719 179.101562 C 221.238281 180.890625 221.832031 182.796875 223.3125 183.917969 C 224.3125 184.675781 225.585938 184.957031 226.824219 185.171875 C 246.007812 188.488281 264.988281 180.199219 283.851562 175.378906 C 299.035156 171.496094 314.886719 169.78125 329.308594 163.644531 C 331.496094 162.710938 333.785156 161.542969 334.863281 159.421875 C 335.648438 157.878906 335.65625 156.0625 335.589844 154.328125 C 334.699219 130.582031 323.929688 108.433594 318.835938 85.222656 C 317.71875 80.113281 316.84375 74.878906 314.894531 70.046875 C 315.332031 70.078125 315.765625 70.117188 316.183594 70.15625 C 318.667969 70.371094 321.699219 70.078125 322.832031 67.851562 C 324.066406 65.414062 321.960938 62.472656 319.476562 61.335938"/></g></g></g></g><g clip-path="url(#y)"><g clip-path="url(#z)"><g clip-path="url(#A)"><g clip-path="url(#B)"><g clip-path="url(#C)"><g clip-path="url(#D)"><path fill="#D08D61" d="M 168.078125 200.183594 C 167.96875 203.707031 166.136719 207.417969 162.832031 208.675781 C 160.453125 209.578125 157.796875 209.078125 155.269531 208.753906 C 150.820312 208.179688 146.316406 208.1875 141.824219 208.265625 C 112.5 208.777344 82.449219 212.296875 54.351562 203.878906 C 51.558594 203.039062 48.503906 201.835938 47.296875 199.1875 C 46.167969 196.714844 47.039062 193.84375 47.914062 191.277344 C 52.902344 176.691406 60.925781 162.898438 66.453125 148.507812 C 66.570312 148.199219 66.695312 147.90625 66.824219 147.613281 C 64.894531 147.300781 62.964844 146.972656 61.039062 146.628906 C 58.660156 146.203125 56.097656 145.652344 54.492188 143.847656 C 51.726562 140.730469 53.054688 135.78125 54.949219 132.070312 C 61.320312 119.570312 66.773438 110.835938 72.269531 99.847656 C 72.851562 98.679688 73.433594 97.5625 74.015625 96.484375 C 66.082031 95.492188 58.410156 93.445312 60.671875 87.78125 C 62.109375 84.167969 84.652344 61.417969 87 58.796875 C 94.851562 50.03125 102.640625 41.210938 110.371094 32.339844 C 112.238281 30.199219 118.003906 20.863281 120.742188 20.523438 C 124.121094 20.097656 128.519531 28.246094 130.050781 30.796875 C 142.65625 51.8125 146.996094 64.300781 159.34375 84.101562 C 161.351562 87.320312 163.335938 90.546875 165.320312 93.777344 C 166.460938 95.625 167.597656 98.0625 166.320312 99.820312 C 165.191406 101.378906 162.898438 101.351562 160.976562 101.164062 C 157.402344 100.820312 153.984375 100.542969 150.675781 100.324219 C 154.527344 113.644531 160.695312 126.335938 165.597656 139.378906 C 167.339844 144.011719 168.570312 150.089844 164.707031 153.1875 C 162.429688 155.015625 159.226562 154.984375 156.308594 154.867188 C 154.980469 154.808594 153.65625 154.753906 152.332031 154.699219 C 156.777344 166.453125 161.222656 178.203125 165.671875 189.949219 C 166.921875 193.25 168.191406 196.65625 168.078125 200.183594"/></g></g></g></g></g></g><g clip-path="url(#E)"><g clip-path="url(#F)"><g clip-path="url(#G)"><g clip-path="url(#H)"><g clip-path="url(#I)"><g clip-path="url(#J)"><path fill="#BF7753" d="M 148.144531 189.203125 C 144.457031 176.335938 140.765625 163.476562 137.074219 150.609375 C 127.835938 150.21875 118.597656 149.820312 109.359375 149.429688 C 100.75 149.0625 92.074219 148.683594 83.566406 147.453125 C 82.992188 148.3125 82.441406 149.082031 82.148438 149.570312 C 80.832031 151.78125 79.445312 153.960938 78.359375 156.296875 C 75.101562 163.300781 70.804688 175.839844 68.199219 183.109375 C 66.796875 187.035156 64.773438 191.414062 66.664062 195.128906 C 67.777344 197.320312 70.089844 198.710938 72.484375 199.285156 C 74.878906 199.855469 77.378906 199.71875 79.835938 199.539062 C 88.441406 198.90625 97.050781 197.820312 105.675781 198.136719 C 117.726562 198.578125 129.710938 201.75 141.707031 200.5625 C 143.894531 200.347656 146.261719 199.890625 147.703125 198.230469 C 149.769531 195.847656 149.015625 192.230469 148.144531 189.203125 Z M 78.832031 138.761719 C 97.023438 137.761719 114.4375 143.425781 132.609375 144.789062 C 136.46875 145.078125 141.035156 144.941406 143.277344 141.796875 C 144.105469 140.640625 144.480469 139.214844 144.625 137.796875 C 144.976562 134.40625 144.121094 131.019531 143.269531 127.71875 C 140.648438 117.539062 138.027344 107.367188 135.40625 97.191406 C 123.632812 96.886719 111.875 96.277344 100.246094 94.496094 C 97.949219 94.140625 95.652344 93.742188 93.332031 93.554688 C 92.648438 93.5 91.953125 93.464844 91.257812 93.433594 C 91.394531 95.976562 88.128906 99.0625 86.6875 101.238281 C 81.652344 108.828125 79.570312 117.988281 75.179688 125.964844 C 73.242188 129.488281 71.425781 131.496094 72.53125 135.355469 C 72.859375 136.503906 73.539062 137.59375 74.570312 138.195312 C 75.828125 138.925781 77.378906 138.839844 78.832031 138.761719 Z M 85.730469 86.117188 C 86.03125 86.851562 86.9375 87.09375 87.722656 87.234375 C 91.582031 87.9375 95.4375 88.640625 99.292969 89.347656 C 102.644531 89.957031 105.996094 90.566406 109.390625 90.839844 C 112.898438 91.121094 116.421875 91.03125 119.941406 91.058594 C 126.921875 91.101562 133.90625 91.570312 140.832031 92.449219 C 142.394531 92.644531 144.363281 92.671875 145.089844 91.277344 C 145.5 90.484375 145.3125 89.523438 145.046875 88.675781 C 144.167969 85.90625 142.527344 83.449219 141.203125 80.859375 C 138.96875 76.488281 137.613281 71.722656 135.53125 67.277344 C 132.078125 59.898438 128.730469 54.402344 123.445312 48.199219 C 122.734375 47.367188 121.976562 46.5 120.945312 46.136719 C 116.101562 44.425781 111.414062 52.316406 108.878906 55.113281 C 104.570312 59.84375 100.707031 64.875 97.21875 70.25 C 95.648438 72.671875 94.148438 75.167969 92.203125 77.304688 C 90.085938 79.632812 87.433594 81.570312 86.003906 84.375 C 85.726562 84.914062 85.5 85.550781 85.730469 86.117188 Z M 155.921875 203.390625 C 153.574219 206.082031 149.40625 205.855469 145.84375 205.554688 C 119.039062 203.308594 91.753906 209.59375 65.316406 204.660156 C 62.363281 204.105469 59.175781 203.253906 57.417969 200.820312 C 55.394531 198.019531 55.988281 194.164062 56.898438 190.832031 C 58.433594 185.222656 60.609375 179.820312 63 174.527344 C 65.160156 169.753906 67.503906 165.066406 69.75 160.328125 C 71.074219 157.53125 74.464844 150.597656 77.332031 146.378906 C 74.527344 145.8125 71.742188 145.136719 68.992188 144.304688 C 67.179688 143.753906 65.191406 142.96875 64.445312 141.230469 C 63.984375 140.171875 64.105469 138.953125 64.289062 137.804688 C 65.320312 131.511719 68.164062 125.675781 70.972656 119.949219 C 75.132812 111.464844 79.160156 102.902344 83.417969 94.464844 C 83.621094 94.070312 83.820312 93.675781 84.03125 93.292969 C 80.832031 93.164062 77.695312 92.785156 74.785156 91.488281 C 74.34375 91.289062 73.898438 91.066406 73.578125 90.707031 C 72.378906 89.351562 73.546875 87.277344 74.710938 85.890625 C 77.589844 82.460938 80.484375 79.046875 83.398438 75.648438 C 88.695312 69.46875 94.050781 63.34375 99.464844 57.273438 C 102.152344 54.265625 111.808594 41.84375 112.894531 40.414062 C 114.210938 38.683594 116.097656 37.273438 118.257812 37.011719 C 122.136719 36.535156 125.476562 39.753906 127.492188 43.089844 C 130.246094 47.65625 131.738281 52.871094 134.28125 57.554688 C 136.183594 61.050781 138.644531 64.207031 140.671875 67.632812 C 142.796875 71.234375 144.429688 75.101562 146.050781 78.953125 C 147.863281 83.25 149.667969 87.542969 151.480469 91.839844 C 152.078125 93.261719 152.648438 95.007812 151.726562 96.246094 C 150.878906 97.382812 149.238281 97.460938 147.824219 97.4375 C 145.308594 97.398438 142.796875 97.351562 140.28125 97.304688 C 141.113281 98.390625 141.6875 99.675781 142.238281 100.945312 C 147.214844 112.449219 151.609375 124.296875 153.839844 136.628906 C 154.527344 140.445312 154.855469 144.835938 152.300781 147.753906 C 150.003906 150.382812 146.265625 150.84375 142.664062 150.8125 C 143.367188 153.878906 143.785156 157.015625 144.808594 159.984375 C 145.65625 162.4375 146.90625 164.730469 148.03125 167.070312 C 151.464844 174.230469 153.707031 181.882812 155.9375 189.496094 C 156.726562 192.207031 157.527344 194.957031 157.585938 197.777344 C 157.621094 199.773438 157.234375 201.886719 155.921875 203.390625 Z M 60.050781 93.460938 C 59.925781 97.453125 65.699219 99.21875 72.109375 100.164062 C 72.164062 100.0625 72.214844 99.953125 72.269531 99.847656 C 72.851562 98.679688 73.433594 97.5625 74.015625 96.484375 C 66.867188 95.585938 59.933594 93.839844 60.285156 89.359375 L 60.28125 89.359375 L 60.042969 93.460938 Z M 168.003906 201.136719 C 167.621094 204.359375 165.839844 207.535156 162.832031 208.675781 C 160.453125 209.578125 157.796875 209.078125 155.269531 208.753906 C 150.820312 208.179688 146.316406 208.1875 141.828125 208.265625 C 112.5 208.78125 82.449219 212.296875 54.351562 203.878906 C 51.558594 203.039062 48.503906 201.835938 47.296875 199.1875 C 46.917969 198.359375 46.769531 197.488281 46.765625 196.59375 C 46.363281 196.566406 46.539062 200.503906 46.539062 200.503906 C 46.542969 201.394531 46.691406 202.265625 47.070312 203.09375 C 48.277344 205.746094 51.332031 206.949219 54.125 207.789062 C 82.222656 216.207031 112.273438 212.683594 141.601562 212.171875 C 146.089844 212.09375 150.59375 212.085938 155.042969 212.660156 C 157.570312 212.988281 160.226562 213.488281 162.605469 212.582031 C 165.910156 211.332031 167.742188 207.613281 167.851562 204.085938 L 168.027344 201.132812 C 168.027344 201.132812 168.019531 201.132812 168.003906 201.136719 Z M 61.042969 146.628906 C 58.660156 146.203125 56.101562 145.652344 54.496094 143.847656 C 53.441406 142.660156 52.980469 141.203125 52.921875 139.652344 C 52.921875 139.652344 52.886719 140.457031 52.847656 141.382812 C 52.691406 142.316406 52.648438 143.238281 52.742188 144.125 C 52.742188 144.15625 52.742188 144.179688 52.742188 144.1875 L 52.746094 144.1875 C 52.894531 145.496094 53.355469 146.726562 54.269531 147.753906 C 55.875 149.5625 58.433594 150.109375 60.816406 150.535156 C 62.324219 150.808594 63.832031 151.0625 65.339844 151.3125 C 65.722656 150.378906 66.09375 149.441406 66.453125 148.507812 C 66.570312 148.199219 66.699219 147.90625 66.828125 147.613281 C 64.894531 147.300781 62.96875 146.972656 61.042969 146.628906 Z M 166.875 98.101562 C 166.859375 98.710938 166.703125 99.296875 166.320312 99.820312 C 165.191406 101.378906 162.898438 101.351562 160.980469 101.164062 C 157.402344 100.820312 153.984375 100.542969 150.679688 100.324219 C 151.066406 101.664062 151.480469 103 151.914062 104.332031 C 154.765625 104.53125 157.699219 104.773438 160.75 105.070312 C 162.671875 105.257812 164.964844 105.289062 166.09375 103.726562 C 166.386719 103.324219 166.546875 102.882812 166.613281 102.425781 L 166.617188 102.425781 L 166.617188 102.410156 C 166.640625 102.230469 166.65625 102.058594 166.652344 101.875 C 166.730469 100.710938 166.878906 98.101562 166.878906 98.101562 Z M 164.707031 153.1875 C 162.429688 155.015625 159.226562 154.984375 156.308594 154.867188 C 154.984375 154.808594 153.65625 154.753906 152.332031 154.703125 C 152.835938 156.027344 153.335938 157.355469 153.835938 158.679688 C 154.585938 158.710938 155.332031 158.738281 156.082031 158.769531 C 159 158.890625 162.203125 158.921875 164.480469 157.09375 C 165.914062 155.945312 166.648438 154.386719 166.914062 152.640625 C 166.996094 152.070312 167.035156 151.476562 167.027344 150.878906 L 167.222656 147.964844 C 167.070312 150.015625 166.347656 151.871094 164.707031 153.1875 Z M 164.707031 153.1875"/></g></g></g></g></g></g><g clip-path="url(#K)"><g clip-path="url(#L)"><g clip-path="url(#M)"><g clip-path="url(#N)"><path fill="#FDEDE7" d="M 147.929688 194.316406 C 146.488281 195.976562 144.121094 196.4375 141.933594 196.652344 C 129.9375 197.839844 117.953125 194.671875 105.902344 194.230469 C 97.277344 193.914062 88.667969 194.996094 80.0625 195.628906 C 77.605469 195.808594 75.105469 195.949219 72.710938 195.378906 C 70.316406 194.804688 68.003906 193.414062 66.890625 191.21875 C 65 187.503906 67.023438 183.128906 68.429688 179.207031 C 71.03125 171.929688 75.328125 159.398438 78.585938 152.390625 C 79.675781 150.050781 81.058594 147.871094 82.375 145.660156 C 82.667969 145.171875 83.222656 144.402344 83.792969 143.550781 C 92.300781 144.773438 100.976562 145.15625 109.585938 145.519531 C 118.824219 145.917969 128.0625 146.308594 137.300781 146.703125 C 140.992188 159.566406 144.683594 172.429688 148.371094 185.292969 C 149.242188 188.320312 149.996094 191.941406 147.929688 194.316406 Z M 74.796875 134.285156 C 73.765625 133.683594 73.089844 132.59375 72.761719 131.453125 C 71.65625 127.585938 73.472656 125.578125 75.410156 122.058594 C 79.796875 114.078125 81.878906 104.917969 86.914062 97.332031 C 88.355469 95.152344 91.621094 92.066406 91.484375 89.53125 C 92.179688 89.554688 92.875 89.59375 93.558594 89.648438 C 95.878906 89.832031 98.175781 90.230469 100.472656 90.585938 C 112.101562 92.371094 123.863281 92.976562 135.632812 93.285156 C 138.253906 103.457031 140.878906 113.632812 143.496094 123.808594 C 144.347656 127.109375 145.207031 130.5 144.851562 133.894531 C 144.707031 135.304688 144.332031 136.730469 143.503906 137.886719 C 141.261719 141.035156 136.695312 141.167969 132.835938 140.878906 C 114.667969 139.515625 97.253906 133.855469 79.058594 134.851562 C 77.605469 134.929688 76.054688 135.019531 74.796875 134.285156 Z M 86.230469 80.464844 C 87.660156 77.660156 90.316406 75.726562 92.433594 73.398438 C 94.375 71.253906 95.875 68.761719 97.449219 66.339844 C 100.933594 60.96875 104.796875 55.9375 109.105469 51.203125 C 111.640625 48.410156 116.332031 40.519531 121.171875 42.226562 C 122.203125 42.589844 122.960938 43.457031 123.671875 44.289062 C 128.960938 50.496094 132.304688 55.988281 135.757812 63.367188 C 137.839844 67.8125 139.195312 72.582031 141.429688 76.949219 C 142.753906 79.535156 144.394531 81.996094 145.273438 84.769531 C 145.542969 85.617188 145.726562 86.578125 145.320312 87.371094 C 144.589844 88.761719 142.621094 88.742188 141.058594 88.542969 C 134.132812 87.65625 127.148438 87.195312 120.167969 87.148438 C 116.648438 87.128906 113.125 87.210938 109.617188 86.929688 C 106.222656 86.660156 102.871094 86.046875 99.523438 85.433594 C 95.667969 84.730469 91.808594 84.03125 87.953125 83.324219 C 87.167969 83.179688 86.257812 82.945312 85.957031 82.207031 C 85.726562 81.644531 85.953125 81.003906 86.230469 80.464844 Z M 157.8125 193.867188 C 157.753906 191.042969 156.953125 188.296875 156.164062 185.589844 C 153.933594 177.972656 151.691406 170.320312 148.257812 163.164062 C 147.132812 160.824219 145.882812 158.53125 145.035156 156.074219 C 144.007812 153.109375 143.589844 149.96875 142.890625 146.90625 C 146.492188 146.933594 150.226562 146.476562 152.527344 143.847656 C 155.082031 140.925781 154.75 136.539062 154.0625 132.71875 C 151.835938 120.382812 147.4375 108.542969 142.464844 97.035156 C 141.914062 95.769531 141.335938 94.484375 140.507812 93.394531 C 143.023438 93.445312 145.535156 93.488281 148.050781 93.53125 C 149.464844 93.554688 151.105469 93.46875 151.953125 92.335938 C 152.875 91.097656 152.304688 89.355469 151.703125 87.929688 C 149.894531 83.636719 148.089844 79.339844 146.277344 75.046875 C 144.65625 71.195312 143.023438 67.324219 140.894531 63.726562 C 138.871094 60.300781 136.40625 57.140625 134.507812 53.644531 C 131.964844 48.960938 130.46875 43.746094 127.71875 39.183594 C 125.703125 35.84375 122.359375 32.628906 118.484375 33.101562 C 116.324219 33.367188 114.4375 34.777344 113.121094 36.507812 C 112.035156 37.933594 102.375 50.355469 99.691406 53.363281 C 94.277344 59.4375 88.921875 65.5625 83.625 71.734375 C 80.710938 75.136719 77.816406 78.554688 74.9375 81.984375 C 73.773438 83.367188 72.601562 85.445312 73.804688 86.796875 C 74.125 87.15625 74.570312 87.382812 75.011719 87.578125 C 77.921875 88.875 81.058594 89.257812 84.257812 89.386719 C 84.046875 89.769531 83.84375 90.164062 83.644531 90.558594 C 79.386719 98.996094 75.355469 107.554688 71.195312 116.039062 C 68.386719 121.769531 65.546875 127.601562 64.515625 133.898438 C 64.328125 135.042969 64.210938 136.257812 64.667969 137.328125 C 65.414062 139.0625 67.40625 139.847656 69.214844 140.394531 C 71.964844 141.230469 74.75 141.902344 77.558594 142.472656 C 74.691406 146.6875 71.300781 153.625 69.972656 156.421875 C 67.730469 161.15625 65.382812 165.84375 63.226562 170.621094 C 60.835938 175.910156 58.660156 181.316406 57.125 186.921875 C 56.210938 190.25 55.617188 194.109375 57.644531 196.910156 C 59.398438 199.339844 62.585938 200.199219 65.539062 200.75 C 91.980469 205.6875 119.265625 199.398438 146.070312 201.648438 C 149.632812 201.949219 153.796875 202.175781 156.144531 199.484375 C 157.457031 197.980469 157.847656 195.867188 157.808594 193.867188"/></g></g></g></g><g clip-path="url(#O)"><g clip-path="url(#P)"><g clip-path="url(#Q)"><g clip-path="url(#R)"><path fill="#C94B5A" d="M 136.25 177.902344 C 135.441406 177.53125 134.429688 177.71875 133.738281 178.277344 C 133.050781 178.84375 132.660156 179.722656 132.597656 180.609375 C 132.585938 180.777344 132.585938 180.953125 132.683594 181.09375 C 132.753906 181.199219 132.867188 181.257812 132.980469 181.316406 C 134.277344 181.945312 135.886719 181.871094 137.117188 181.128906 C 137.515625 180.886719 137.890625 180.550781 137.980469 180.101562 C 138.074219 179.625 137.820312 179.128906 137.445312 178.820312 C 137.066406 178.515625 136.597656 178.355469 136.128906 178.21875 M 86.855469 160.59375 C 86.851562 160.871094 86.863281 161.164062 86.992188 161.414062 C 87.179688 161.777344 87.570312 161.984375 87.941406 162.164062 C 88.640625 162.511719 89.351562 162.863281 90.121094 163.019531 C 90.886719 163.167969 91.730469 163.097656 92.375 162.660156 C 92.910156 162.292969 93.257812 161.710938 93.5 161.109375 C 94.015625 159.828125 94.09375 158.304688 93.378906 157.121094 C 90.882812 153.003906 86.933594 157.53125 86.855469 160.59375 Z M 115.082031 126.515625 C 114.949219 127.285156 114.988281 128.132812 115.457031 128.761719 C 116.050781 129.5625 117.148438 129.773438 118.136719 129.921875 C 118.878906 130.03125 119.671875 130.140625 120.347656 129.804688 C 120.992188 129.484375 121.390625 128.824219 121.71875 128.183594 C 122.707031 126.261719 122.886719 123.015625 120.152344 122.425781 C 117.734375 121.90625 115.464844 124.375 115.082031 126.515625 Z M 116.253906 67.550781 C 115.453125 67.933594 114.503906 67.714844 113.652344 67.457031 C 112.523438 67.105469 111.304688 66.609375 110.777344 65.550781 C 110.441406 64.878906 110.449219 64.085938 110.578125 63.34375 C 112.234375 53.710938 122.84375 64.375 116.253906 67.550781"/></g></g></g></g><g clip-path="url(#S)"><g clip-path="url(#T)"><g clip-path="url(#U)"><g clip-path="url(#V)"><path fill="#8AD37E" d="M 78.488281 177.269531 C 78.117188 177.859375 77.832031 178.519531 77.785156 179.214844 C 77.707031 180.359375 78.355469 181.527344 79.371094 182.070312 C 80.386719 182.617188 81.71875 182.511719 82.632812 181.8125 C 83.09375 181.457031 83.449219 180.984375 83.738281 180.484375 C 84.257812 179.59375 84.609375 178.550781 84.425781 177.539062 C 83.800781 174.132812 79.871094 175.070312 78.488281 177.269531 Z M 102.027344 179.949219 C 101.824219 181.015625 101.769531 182.183594 102.304688 183.132812 C 102.773438 183.976562 103.695312 184.554688 104.660156 184.605469 C 105.628906 184.652344 106.605469 184.179688 107.164062 183.394531 C 107.558594 182.828125 107.742188 182.144531 107.90625 181.480469 C 108.109375 180.65625 108.308594 179.808594 108.257812 178.960938 C 108.210938 178.105469 107.882812 177.234375 107.207031 176.707031 C 104.648438 174.710938 102.472656 177.621094 102.027344 179.949219 Z M 115.238281 155.652344 C 114.300781 155.570312 113.554688 156.394531 113.023438 157.171875 C 112.773438 157.53125 112.535156 157.917969 112.476562 158.351562 C 112.394531 159.011719 112.777344 159.667969 113.308594 160.074219 C 113.839844 160.476562 114.503906 160.671875 115.15625 160.8125 C 116.191406 161.042969 117.433594 161.097656 118.144531 160.308594 C 118.625 159.769531 118.707031 158.996094 118.765625 158.28125 C 118.8125 157.683594 118.839844 157.015625 118.4375 156.574219 C 118.1875 156.300781 117.820312 156.175781 117.472656 156.058594 C 116.671875 155.785156 115.671875 155.558594 115.066406 156.152344 M 114.539062 102.339844 C 113.640625 103.167969 113.164062 104.433594 113.285156 105.648438 C 113.292969 105.789062 113.316406 105.933594 113.390625 106.058594 C 113.480469 106.210938 113.636719 106.308594 113.789062 106.398438 C 115.347656 107.292969 117.519531 107.304688 118.800781 106.042969 C 119.644531 105.207031 119.980469 103.96875 120.03125 102.78125 C 120.046875 102.46875 120.039062 102.136719 119.878906 101.871094 C 119.003906 100.402344 115.453125 101.492188 114.539062 102.339844 Z M 88.058594 112.398438 C 87.511719 113.167969 87.253906 114.203125 87.628906 115.066406 C 88.140625 116.230469 89.71875 116.679688 90.898438 116.1875 C 92.074219 115.699219 92.835938 114.492188 93.082031 113.242188 C 93.203125 112.628906 93.214844 111.976562 92.980469 111.402344 C 91.917969 108.832031 89.089844 110.957031 88.058594 112.398438 Z M 130.4375 81.527344 C 129.355469 82.6875 127.382812 82.769531 126.082031 81.851562 C 124.867188 81 124.273438 79.1875 125.101562 77.957031 C 127.453125 74.464844 133.496094 78.238281 130.4375 81.527344"/></g></g></g></g><g clip-path="url(#W)"><g clip-path="url(#X)"><g clip-path="url(#Y)"><g clip-path="url(#Z)"><path fill="#D08D61" d="M 157.035156 309.355469 C 156.304688 307.21875 155.570312 305.066406 154.9375 302.894531 C 154.515625 301.449219 152.789062 293.296875 154.027344 281.382812 C 155.476562 267.449219 150.652344 253.746094 148.441406 239.867188 C 148.285156 238.886719 148.140625 237.914062 148.011719 236.933594 L 148.007812 236.921875 C 147.925781 236.292969 147.851562 235.664062 147.78125 235.039062 C 147.359375 235.171875 146.9375 235.300781 146.515625 235.4375 C 144.292969 236.171875 141.746094 236.933594 139.726562 235.75 C 138.460938 235.011719 137.703125 233.660156 137.054688 232.34375 C 134.09375 226.320312 132.269531 219.808594 130.464844 213.34375 C 129.949219 211.488281 129.425781 209.542969 129.847656 207.664062 C 130.601562 204.316406 134.011719 202.355469 137.167969 201.023438 C 144.804688 197.800781 152.902344 195.851562 160.960938 193.910156 C 166.382812 192.605469 171.804688 191.300781 177.226562 189.996094 C 180.699219 189.160156 184.183594 188.320312 187.730469 187.867188 C 193.003906 187.199219 198.34375 187.453125 203.640625 187.355469 C 209.105469 187.253906 212.585938 188.972656 214.214844 194.425781 C 216.566406 202.316406 218 210.484375 218.476562 218.703125 C 218.503906 219.125 218.523438 219.566406 218.34375 219.953125 C 218.125 220.429688 217.644531 220.726562 217.179688 220.972656 C 214.996094 222.152344 212.660156 222.945312 210.246094 223.519531 C 210.28125 223.632812 210.308594 223.746094 210.335938 223.859375 L 210.34375 223.886719 C 210.386719 224.0625 210.429688 224.242188 210.472656 224.425781 L 210.476562 224.453125 C 210.519531 224.640625 210.558594 224.824219 210.597656 225.015625 L 210.601562 225.035156 C 211.523438 229.65625 211.609375 236.019531 212.523438 239.171875 C 215.414062 249.160156 218.625 259.0625 222.15625 268.84375 C 223.242188 271.851562 224.398438 274.929688 226.539062 277.308594 C 228.488281 279.476562 231.109375 280.902344 233.6875 282.273438 C 245.976562 288.804688 258.445312 294.992188 271.074219 300.824219 C 272.90625 301.667969 274.753906 302.523438 276.558594 303.449219 C 276.996094 303.671875 277.425781 303.902344 277.855469 304.132812 C 277.875 304.144531 277.894531 304.15625 277.914062 304.167969 C 278.761719 304.625 279.59375 305.109375 280.40625 305.621094 C 280.476562 305.664062 280.546875 305.710938 280.613281 305.753906 C 280.941406 305.960938 281.261719 306.175781 281.578125 306.394531 C 281.660156 306.449219 281.742188 306.507812 281.824219 306.558594 C 282.570312 307.085938 283.289062 307.636719 283.984375 308.226562 C 284.082031 308.308594 284.171875 308.390625 284.265625 308.472656 C 284.519531 308.695312 284.769531 308.921875 285.015625 309.152344 C 285.109375 309.242188 285.207031 309.335938 285.296875 309.425781 C 285.621094 309.742188 285.933594 310.0625 286.238281 310.398438 C 286.703125 310.914062 287.140625 311.445312 287.554688 311.996094 C 288.378906 313.09375 289.105469 314.265625 289.757812 315.480469 C 289.921875 315.78125 290.078125 316.089844 290.230469 316.398438 C 291.613281 319.183594 292.621094 322.191406 293.476562 325.183594 C 293.699219 325.972656 293.917969 326.765625 294.117188 327.5625 C 294.214844 327.960938 294.3125 328.363281 294.398438 328.761719 C 294.839844 330.765625 295.128906 332.796875 295.109375 334.84375 C 295.109375 335.636719 295.050781 336.417969 294.953125 337.195312 C 294.917969 337.453125 294.882812 337.710938 294.839844 337.96875 C 294.753906 338.484375 294.648438 338.992188 294.523438 339.496094 C 294.339844 340.253906 294.109375 341 293.847656 341.734375 C 293.667969 342.222656 293.472656 342.707031 293.261719 343.183594 C 292.945312 343.902344 292.59375 344.601562 292.207031 345.289062 C 291.5625 346.429688 290.828125 347.527344 290.011719 348.5625 C 289.683594 348.980469 289.347656 349.386719 288.996094 349.78125 C 288.523438 350.316406 288.027344 350.832031 287.519531 351.324219 C 287.402344 351.4375 287.285156 351.542969 287.167969 351.65625 C 286.695312 352.097656 286.207031 352.527344 285.707031 352.933594 C 285.449219 353.144531 285.183594 353.351562 284.921875 353.554688 C 284.710938 353.714844 284.496094 353.867188 284.28125 354.023438 C 283.636719 354.484375 282.972656 354.914062 282.296875 355.316406 C 281.894531 355.550781 281.488281 355.777344 281.078125 355.996094 C 280.96875 356.050781 280.863281 356.109375 280.757812 356.164062 C 280.355469 356.371094 279.949219 356.574219 279.535156 356.765625 C 279.496094 356.785156 279.453125 356.800781 279.414062 356.820312 C 279.039062 356.996094 278.660156 357.15625 278.285156 357.316406 C 278.148438 357.371094 278.011719 357.425781 277.875 357.484375 C 277.511719 357.628906 277.152344 357.769531 276.789062 357.898438 C 276.632812 357.957031 276.472656 358.011719 276.3125 358.066406 C 276.019531 358.167969 275.722656 358.269531 275.425781 358.367188 C 275.230469 358.421875 275.039062 358.484375 274.847656 358.542969 C 274.589844 358.621094 274.332031 358.695312 274.074219 358.765625 C 273.738281 358.863281 273.398438 358.953125 273.058594 359.039062 C 272.871094 359.082031 272.695312 359.125 272.507812 359.167969 C 272.246094 359.234375 271.984375 359.292969 271.71875 359.347656 C 271.613281 359.371094 271.503906 359.390625 271.390625 359.417969 C 270.847656 359.527344 270.296875 359.632812 269.746094 359.722656 C 269.675781 359.734375 269.605469 359.746094 269.539062 359.757812 C 265.71875 360.378906 261.796875 360.515625 257.941406 360.300781 C 242.453125 359.421875 227.738281 353.304688 213.949219 346.171875 C 201.976562 339.980469 190.394531 332.949219 178.09375 327.484375 C 177.851562 327.375 177.605469 327.269531 177.359375 327.160156 C 176.773438 326.902344 176.191406 326.65625 175.605469 326.40625 C 175.363281 326.304688 175.121094 326.199219 174.878906 326.097656 C 174.070312 325.761719 173.261719 325.429688 172.449219 325.109375 C 168.917969 323.722656 165.207031 322.414062 162.5 319.753906 C 159.683594 316.984375 158.316406 313.097656 157.035156 309.355469"/></g></g></g></g><g clip-path="url(#aa)"><g clip-path="url(#ab)"><g clip-path="url(#ac)"><g clip-path="url(#ad)"><g clip-path="url(#ae)"><g clip-path="url(#af)"><path fill="#BF7753" d="M 281.496094 325.628906 C 277.695312 318.796875 270.140625 315.222656 263.074219 312.074219 C 254.140625 308.097656 245.207031 304.128906 236.277344 300.152344 C 231.578125 298.058594 226.804688 295.921875 222.898438 292.539062 C 217.804688 288.121094 214.734375 282.171875 212.46875 275.71875 C 210.925781 277.265625 208.546875 277.699219 206.355469 277.570312 C 204.097656 277.441406 201.894531 276.832031 199.640625 276.738281 C 196.042969 276.582031 192.410156 277.804688 189.636719 280.097656 C 187.988281 281.457031 186.601562 283.207031 184.664062 284.109375 C 182.46875 285.125 179.898438 284.894531 177.542969 284.339844 C 175.1875 283.78125 172.894531 282.910156 170.480469 282.699219 C 169.09375 282.574219 167.625 282.71875 166.328125 283.207031 C 166.320312 286.648438 166.347656 290.085938 166.65625 293.511719 C 167.285156 300.429688 169.199219 307.5 173.722656 312.738281 C 177.191406 316.757812 181.925781 319.398438 186.648438 321.753906 C 193.824219 325.328125 201.21875 328.429688 208.601562 331.535156 C 221.453125 336.929688 234.300781 342.328125 247.15625 347.71875 C 255 351.015625 263.691406 354.355469 271.714844 351.652344 C 276.664062 349.984375 280.789062 345.976562 282.65625 341.027344 C 284.515625 336.070312 284.078125 330.269531 281.496094 325.628906 Z M 212.117188 269.695312 C 211.910156 269.730469 211.699219 269.769531 211.488281 269.808594 C 211.625 269.890625 211.753906 269.988281 211.878906 270.089844 C 211.960938 269.960938 212.042969 269.828125 212.117188 269.695312 Z M 166.339844 278.210938 C 168.191406 277.207031 170.378906 276.816406 172.445312 277.226562 C 175.226562 277.78125 177.652344 279.617188 180.460938 280.007812 C 181.820312 280.195312 183.226562 280.027344 184.5 279.527344 C 186.765625 278.640625 188.488281 276.796875 190.308594 275.179688 C 192.128906 273.566406 194.320312 272.074219 196.75 272.148438 C 198.84375 272.214844 200.714844 273.445312 202.757812 273.917969 C 205.730469 274.605469 208.992188 273.46875 211.027344 271.21875 C 209.75 266.886719 208.691406 262.441406 207.507812 258.171875 C 207.265625 257.277344 207.007812 256.386719 206.746094 255.496094 C 206.464844 256.050781 206.015625 256.539062 205.578125 257 C 204.601562 258.019531 203.519531 259.09375 202.125 259.332031 C 201.476562 259.441406 200.808594 259.355469 200.15625 259.265625 C 197.679688 258.914062 195.199219 258.476562 192.703125 258.582031 C 190.207031 258.6875 187.648438 259.394531 185.792969 261.070312 C 184.761719 262 183.976562 263.199219 182.820312 263.964844 C 180.980469 265.179688 178.574219 265.074219 176.410156 264.640625 C 174.246094 264.207031 172.089844 263.496094 169.890625 263.664062 C 168.34375 263.777344 166.871094 264.328125 165.523438 265.117188 C 165.855469 267.628906 166.09375 270.15625 166.21875 272.699219 C 166.304688 274.53125 166.335938 276.371094 166.339844 278.210938 Z M 164.925781 261.191406 C 165.417969 260.902344 165.925781 260.644531 166.445312 260.425781 C 168.078125 259.730469 169.882812 259.273438 171.632812 259.597656 C 172.933594 259.832031 174.121094 260.484375 175.378906 260.902344 C 177.445312 261.582031 179.882812 261.550781 181.609375 260.230469 C 182.488281 259.5625 183.109375 258.625 183.867188 257.824219 C 185.964844 255.59375 189.175781 254.480469 192.207031 254.921875 C 194.421875 255.25 196.53125 256.355469 198.769531 256.238281 C 201.445312 256.105469 203.699219 254.28125 205.738281 252.539062 C 205.777344 252.507812 205.8125 252.492188 205.84375 252.476562 C 202.84375 242.65625 199.421875 232.910156 198.617188 222.738281 C 184.539062 224.167969 170.558594 227.21875 157.449219 232.457031 C 160.386719 241.914062 163.277344 251.460938 164.925781 261.191406 Z M 155.234375 229.761719 C 166.628906 225.636719 178.226562 221.863281 190.222656 220.160156 C 195.136719 219.460938 200.105469 219.113281 205.003906 218.304688 C 205.382812 218.242188 205.773438 218.171875 206.09375 217.960938 C 206.671875 217.582031 206.890625 216.839844 207.019531 216.148438 C 207.390625 214.074219 207.277344 211.910156 206.683594 209.878906 C 205.992188 207.511719 204.671875 205.367188 203.101562 203.472656 C 202.164062 202.339844 201.121094 201.269531 199.851562 200.546875 C 198.253906 199.632812 196.394531 199.324219 194.574219 199.144531 C 187.304688 198.421875 180 199.527344 172.804688 200.726562 C 167.464844 201.617188 162.066406 202.613281 157.140625 204.960938 C 153.054688 206.90625 149.0625 208.253906 144.714844 209.566406 C 142.972656 210.089844 141.007812 210.8125 140.351562 212.535156 C 140.101562 213.191406 140.082031 213.917969 140.101562 214.621094 C 140.214844 219.113281 141.726562 223.566406 144.367188 227.1875 C 145.472656 228.703125 146.851562 230.128906 148.625 230.664062 C 150.800781 231.320312 153.105469 230.53125 155.234375 229.761719 Z M 286.738281 346.070312 C 281.699219 354.609375 271.609375 357.414062 261.777344 357.195312 C 251.949219 356.976562 242.535156 353.28125 233.375 349.585938 C 212.253906 341.050781 191.15625 332.171875 171.652344 320.28125 C 170.222656 319.40625 168.785156 318.507812 167.640625 317.273438 C 166.171875 315.691406 165.277344 313.648438 164.605469 311.585938 C 161.324219 301.496094 162.90625 290.546875 161.859375 279.992188 C 161.1875 273.203125 159.421875 266.574219 157.96875 259.910156 C 156.089844 251.308594 154.730469 242.601562 153.878906 233.84375 C 150.703125 234.964844 147.308594 235.609375 144.441406 234 C 142.078125 232.671875 140.6875 230.097656 139.601562 227.585938 C 137.753906 223.320312 136.410156 218.832031 135.613281 214.25 C 135.386719 212.960938 135.210938 211.609375 135.632812 210.378906 C 136.460938 207.964844 139.1875 206.929688 141.59375 206.191406 C 143.960938 205.464844 152.953125 202.519531 154.832031 201.625 C 156.871094 200.65625 159.074219 200.09375 161.273438 199.582031 C 173.183594 196.808594 185.390625 195.335938 197.625 195.1875 C 200.707031 195.152344 204.03125 195.28125 206.476562 197.203125 C 209.207031 199.351562 210.050781 203.101562 210.71875 206.539062 C 211.433594 210.242188 212.152344 214 211.863281 217.757812 C 211.796875 218.566406 211.675781 219.402344 211.261719 220.09375 C 210.261719 221.753906 208.027344 222 206.105469 222.121094 C 205.253906 222.171875 204.398438 222.234375 203.542969 222.300781 C 206.707031 238.3125 210.664062 254.167969 215.421875 269.777344 C 216.4375 273.113281 217.503906 276.460938 219.199219 279.5 C 223.132812 286.523438 230.046875 291.21875 236.800781 295.492188 C 240.976562 298.128906 245.195312 300.710938 249.621094 302.875 C 261.386719 308.621094 279.59375 308.699219 284.914062 320.808594 C 288.335938 328.585938 291.023438 338.8125 286.738281 346.070312 Z M 137.652344 233.464844 C 137.652344 233.464844 137.65625 233.472656 137.660156 233.476562 C 137.65625 233.472656 137.65625 233.46875 137.652344 233.464844 Z M 212.03125 190.226562 C 212.019531 190.210938 212.011719 190.199219 212.011719 190.199219 L 212.011719 190.203125 C 212.015625 190.214844 212.023438 190.21875 212.03125 190.226562 Z M 297.414062 332.394531 C 297.214844 331.597656 297 330.804688 296.773438 330.015625 C 295.917969 327.019531 294.90625 324.015625 293.527344 321.230469 C 293.375 320.917969 293.21875 320.613281 293.054688 320.308594 C 292.402344 319.097656 291.675781 317.925781 290.851562 316.828125 C 290.511719 316.375 290.152344 315.941406 289.785156 315.519531 C 289.9375 315.804688 290.085938 316.101562 290.234375 316.394531 C 291.613281 319.179688 292.621094 322.1875 293.476562 325.179688 C 293.699219 325.96875 293.921875 326.761719 294.117188 327.558594 C 294.214844 327.957031 294.3125 328.359375 294.398438 328.757812 C 294.839844 330.761719 295.128906 332.792969 295.113281 334.839844 C 295.109375 335.632812 295.054688 336.414062 294.953125 337.191406 C 294.917969 337.449219 294.882812 337.707031 294.839844 337.964844 C 294.753906 338.480469 294.648438 338.988281 294.527344 339.492188 C 294.339844 340.25 294.113281 340.996094 293.847656 341.730469 C 293.667969 342.21875 293.472656 342.703125 293.261719 343.179688 C 292.945312 343.898438 292.59375 344.597656 292.210938 345.285156 C 291.566406 346.425781 290.828125 347.519531 290.011719 348.558594 C 289.683594 348.976562 289.347656 349.382812 288.996094 349.777344 C 288.523438 350.3125 288.027344 350.828125 287.519531 351.320312 C 287.402344 351.433594 287.285156 351.539062 287.167969 351.652344 C 286.695312 352.09375 286.207031 352.523438 285.707031 352.929688 C 285.449219 353.140625 285.1875 353.347656 284.921875 353.550781 C 284.710938 353.707031 284.5 353.863281 284.28125 354.015625 C 283.636719 354.480469 282.972656 354.910156 282.296875 355.3125 C 281.894531 355.546875 281.488281 355.773438 281.078125 355.992188 C 280.96875 356.046875 280.867188 356.105469 280.761719 356.15625 C 280.355469 356.367188 279.949219 356.570312 279.539062 356.761719 C 279.5 356.78125 279.457031 356.796875 279.417969 356.816406 C 279.039062 356.992188 278.664062 357.152344 278.289062 357.3125 C 278.148438 357.367188 278.011719 357.421875 277.875 357.480469 C 277.511719 357.625 277.152344 357.761719 276.792969 357.894531 C 276.632812 357.953125 276.472656 358.007812 276.3125 358.0625 C 276.019531 358.164062 275.722656 358.265625 275.425781 358.359375 C 275.230469 358.417969 275.042969 358.480469 274.847656 358.539062 C 274.589844 358.617188 274.335938 358.691406 274.074219 358.761719 C 273.738281 358.859375 273.398438 358.949219 273.058594 359.035156 C 272.871094 359.078125 272.695312 359.121094 272.507812 359.164062 C 272.246094 359.230469 271.984375 359.285156 271.722656 359.34375 C 271.613281 359.367188 271.503906 359.386719 271.390625 359.414062 C 270.847656 359.523438 270.300781 359.628906 269.746094 359.71875 C 269.679688 359.730469 269.605469 359.742188 269.539062 359.753906 C 265.722656 360.375 261.796875 360.511719 257.941406 360.292969 C 242.453125 359.417969 227.738281 353.300781 213.949219 346.167969 C 201.976562 339.976562 190.394531 332.945312 178.09375 327.480469 C 177.851562 327.371094 177.605469 327.265625 177.359375 327.15625 C 176.777344 326.898438 176.191406 326.648438 175.605469 326.402344 C 175.363281 326.296875 175.121094 326.195312 174.878906 326.089844 C 174.074219 325.757812 173.265625 325.425781 172.449219 325.105469 C 168.917969 323.71875 165.210938 322.410156 162.5 319.75 C 161.859375 319.117188 161.296875 318.429688 160.789062 317.695312 L 163.390625 321.449219 C 163.820312 322.179688 164.296875 322.878906 164.832031 323.527344 L 164.835938 323.535156 L 164.839844 323.535156 C 165.140625 323.898438 165.457031 324.253906 165.796875 324.585938 C 168.503906 327.25 172.214844 328.554688 175.746094 329.941406 C 176.558594 330.261719 177.367188 330.59375 178.171875 330.925781 C 178.414062 331.03125 178.65625 331.136719 178.902344 331.234375 C 179.484375 331.488281 180.070312 331.734375 180.652344 331.992188 C 180.898438 332.097656 181.144531 332.203125 181.390625 332.316406 C 193.6875 337.78125 205.269531 344.8125 217.242188 351.003906 C 231.035156 358.136719 245.75 364.253906 261.234375 365.132812 C 265.089844 365.347656 269.015625 365.210938 272.832031 364.589844 C 272.902344 364.578125 272.972656 364.566406 273.039062 364.554688 C 273.59375 364.464844 274.140625 364.363281 274.691406 364.246094 C 274.792969 364.226562 274.90625 364.203125 275.015625 364.179688 C 275.28125 364.125 275.539062 364.0625 275.808594 364 C 275.984375 363.960938 276.171875 363.914062 276.347656 363.871094 C 276.691406 363.78125 277.03125 363.695312 277.371094 363.597656 C 277.628906 363.523438 277.886719 363.453125 278.140625 363.375 C 278.332031 363.316406 278.53125 363.257812 278.71875 363.199219 C 279.019531 363.101562 279.3125 363 279.605469 362.898438 C 279.765625 362.84375 279.925781 362.789062 280.085938 362.730469 C 280.445312 362.597656 280.808594 362.460938 281.164062 362.316406 C 281.304688 362.257812 281.441406 362.207031 281.578125 362.148438 C 281.960938 361.988281 282.335938 361.824219 282.710938 361.652344 C 282.75 361.632812 282.792969 361.617188 282.832031 361.597656 C 283.242188 361.40625 283.652344 361.203125 284.054688 360.996094 C 284.160156 360.9375 284.265625 360.882812 284.371094 360.828125 C 284.78125 360.609375 285.191406 360.382812 285.589844 360.148438 C 286.269531 359.746094 286.929688 359.316406 287.578125 358.855469 C 287.792969 358.699219 288.003906 358.542969 288.214844 358.386719 C 288.480469 358.183594 288.742188 357.976562 289 357.765625 C 289.5 357.355469 289.992188 356.929688 290.464844 356.488281 C 290.582031 356.375 290.695312 356.269531 290.8125 356.15625 C 291.324219 355.660156 291.820312 355.148438 292.289062 354.609375 C 292.640625 354.21875 292.980469 353.8125 293.304688 353.394531 C 294.121094 352.359375 294.859375 351.261719 295.503906 350.121094 C 295.890625 349.433594 296.242188 348.734375 296.554688 348.015625 C 296.769531 347.539062 296.960938 347.054688 297.140625 346.566406 C 297.40625 345.832031 297.632812 345.085938 297.820312 344.328125 C 297.945312 343.824219 298.046875 343.316406 298.132812 342.800781 C 298.175781 342.542969 298.214844 342.285156 298.246094 342.027344 C 298.347656 341.25 298.402344 340.46875 298.410156 339.675781 C 298.425781 337.628906 298.132812 335.597656 297.691406 333.59375 C 297.605469 333.195312 297.511719 332.792969 297.414062 332.394531 Z M 141.097656 238.554688 C 141.238281 238.78125 141.386719 239 141.546875 239.210938 C 141.570312 239.246094 141.582031 239.265625 141.582031 239.265625 L 141.585938 239.265625 C 141.988281 239.789062 142.453125 240.25 143.023438 240.582031 C 144.679688 241.550781 146.683594 241.21875 148.574219 240.660156 C 148.53125 240.394531 148.484375 240.128906 148.441406 239.863281 C 148.289062 238.882812 148.144531 237.910156 148.015625 236.929688 L 148.011719 236.917969 C 147.929688 236.289062 147.855469 235.660156 147.785156 235.035156 C 147.363281 235.167969 146.941406 235.296875 146.519531 235.433594 C 144.296875 236.167969 141.75 236.929688 139.726562 235.746094 C 139.171875 235.417969 138.714844 234.972656 138.320312 234.460938 C 139.109375 235.628906 140.398438 237.527344 141.097656 238.554688 Z M 213.167969 191.871094 C 214.023438 193.089844 215.128906 194.691406 215.75 195.59375 C 215.878906 195.765625 216.003906 195.945312 216.125 196.132812 C 216.183594 196.222656 216.222656 196.28125 216.234375 196.296875 C 216.234375 196.296875 216.230469 196.304688 216.226562 196.304688 C 216.738281 197.136719 217.164062 198.113281 217.507812 199.257812 C 219.863281 207.148438 221.296875 215.316406 221.773438 223.535156 C 221.800781 223.960938 221.816406 224.402344 221.640625 224.785156 C 221.421875 225.261719 220.9375 225.554688 220.472656 225.804688 C 218.292969 226.984375 215.949219 227.777344 213.542969 228.351562 C 213.570312 228.464844 213.605469 228.578125 213.632812 228.691406 L 213.636719 228.71875 C 213.683594 228.894531 213.722656 229.074219 213.769531 229.257812 L 213.773438 229.285156 C 213.8125 229.46875 213.855469 229.65625 213.890625 229.847656 L 213.894531 229.863281 C 214.816406 234.488281 214.902344 240.847656 215.820312 244.003906 C 218.710938 253.992188 221.925781 263.890625 225.453125 273.675781 C 225.964844 275.105469 226.5 276.546875 227.144531 277.921875 C 226.9375 277.722656 226.734375 277.519531 226.539062 277.304688 C 224.402344 274.925781 223.242188 271.847656 222.15625 268.839844 C 218.628906 259.054688 215.414062 249.15625 212.523438 239.167969 C 211.609375 236.015625 211.523438 229.652344 210.601562 225.03125 L 210.597656 225.011719 C 210.558594 224.820312 210.519531 224.632812 210.480469 224.449219 L 210.472656 224.421875 C 210.429688 224.238281 210.386719 224.058594 210.34375 223.882812 L 210.339844 223.855469 C 210.308594 223.742188 210.28125 223.625 210.25 223.515625 C 212.660156 222.941406 214.996094 222.148438 217.179688 220.96875 C 217.644531 220.722656 218.125 220.425781 218.34375 219.949219 C 218.523438 219.5625 218.503906 219.121094 218.480469 218.699219 C 218.003906 210.480469 216.566406 202.3125 214.214844 194.421875 C 213.925781 193.457031 213.578125 192.613281 213.167969 191.871094"/></g></g></g></g></g></g><g clip-path="url(#ag)"><g clip-path="url(#ah)"><g clip-path="url(#ai)"><g clip-path="url(#aj)"><path fill="#FDEDE7" d="M 280.75 337.964844 C 278.890625 342.917969 274.765625 346.921875 269.8125 348.589844 C 261.792969 351.292969 253.097656 347.953125 245.253906 344.660156 C 232.402344 339.261719 219.550781 333.867188 206.699219 328.472656 C 199.3125 325.371094 191.921875 322.265625 184.746094 318.691406 C 180.027344 316.339844 175.292969 313.699219 171.820312 309.675781 C 167.300781 304.4375 165.382812 297.367188 164.757812 290.449219 C 164.484375 287.472656 164.429688 284.484375 164.425781 281.5 C 165.941406 280.574219 167.875 280.296875 169.679688 280.457031 C 172.089844 280.667969 174.386719 281.539062 176.738281 282.097656 C 179.09375 282.65625 181.664062 282.882812 183.859375 281.863281 C 185.796875 280.960938 187.183594 279.21875 188.832031 277.855469 C 191.605469 275.5625 195.238281 274.339844 198.835938 274.492188 C 201.089844 274.585938 203.292969 275.199219 205.546875 275.328125 C 207.472656 275.4375 209.535156 275.121094 211.058594 274 C 213.273438 279.933594 216.257812 285.367188 221 289.476562 C 224.90625 292.859375 229.679688 295 234.375 297.089844 C 243.308594 301.066406 252.242188 305.039062 261.171875 309.015625 C 268.242188 312.160156 275.796875 315.734375 279.59375 322.566406 C 282.179688 327.203125 282.613281 333.011719 280.75 337.964844 Z M 211.074219 267.84375 C 210.949219 267.746094 210.820312 267.648438 210.683594 267.5625 C 210.894531 267.523438 211.105469 267.488281 211.3125 267.449219 C 211.238281 267.585938 211.15625 267.71875 211.074219 267.84375 Z M 164.316406 269.636719 C 164.214844 267.570312 164.03125 265.511719 163.792969 263.464844 C 165.378906 262.371094 167.175781 261.5625 169.085938 261.421875 C 171.285156 261.253906 173.441406 261.964844 175.605469 262.398438 C 177.769531 262.832031 180.175781 262.941406 182.011719 261.722656 C 183.167969 260.953125 183.960938 259.753906 184.988281 258.828125 C 186.84375 257.152344 189.402344 256.445312 191.898438 256.335938 C 194.394531 256.234375 196.878906 256.671875 199.351562 257.019531 C 200.007812 257.109375 200.671875 257.195312 201.324219 257.089844 C 202.71875 256.851562 203.792969 255.777344 204.773438 254.753906 C 204.964844 254.554688 205.152344 254.351562 205.339844 254.136719 C 205.429688 254.460938 205.519531 254.785156 205.609375 255.109375 C 206.921875 259.867188 208.082031 264.835938 209.574219 269.628906 C 207.535156 271.4375 204.625 272.289062 201.957031 271.671875 C 199.914062 271.203125 198.039062 269.976562 195.945312 269.90625 C 193.511719 269.828125 191.328125 271.324219 189.503906 272.9375 C 187.6875 274.554688 185.960938 276.398438 183.695312 277.285156 C 182.417969 277.785156 181.011719 277.949219 179.65625 277.761719 C 176.847656 277.375 174.421875 275.539062 171.644531 274.984375 C 169.148438 274.488281 166.476562 275.15625 164.4375 276.664062 C 164.445312 274.320312 164.429688 271.976562 164.316406 269.636719 Z M 155.542969 229.398438 C 168.65625 224.15625 182.636719 221.109375 196.71875 219.679688 C 197.554688 230.320312 201.269531 240.507812 204.355469 250.785156 C 202.46875 252.363281 200.394531 253.875 197.964844 253.996094 C 195.730469 254.109375 193.617188 253.007812 191.402344 252.683594 C 188.375 252.238281 185.160156 253.355469 183.0625 255.578125 C 182.304688 256.382812 181.683594 257.320312 180.808594 257.988281 C 179.078125 259.308594 176.640625 259.34375 174.574219 258.65625 C 173.316406 258.242188 172.128906 257.589844 170.828125 257.351562 C 169.078125 257.03125 167.273438 257.484375 165.640625 258.183594 C 164.808594 258.539062 163.988281 258.972656 163.253906 259.507812 C 161.65625 249.300781 158.625 239.300781 155.542969 229.398438 Z M 146.722656 227.601562 C 144.949219 227.066406 143.570312 225.640625 142.464844 224.125 C 139.824219 220.503906 138.3125 216.050781 138.199219 211.558594 C 138.179688 210.855469 138.199219 210.128906 138.449219 209.472656 C 139.105469 207.75 141.070312 207.027344 142.816406 206.503906 C 147.160156 205.191406 151.152344 203.847656 155.238281 201.898438 C 160.164062 199.554688 165.558594 198.554688 170.902344 197.664062 C 178.097656 196.464844 185.398438 195.363281 192.671875 196.082031 C 194.496094 196.261719 196.355469 196.574219 197.949219 197.484375 C 199.21875 198.207031 200.265625 199.277344 201.203125 200.410156 C 202.769531 202.304688 204.09375 204.449219 204.785156 206.820312 C 205.375 208.847656 205.488281 211.015625 205.113281 213.089844 C 204.988281 213.777344 204.769531 214.519531 204.191406 214.898438 C 203.871094 215.113281 203.480469 215.183594 203.101562 215.246094 C 198.203125 216.050781 193.238281 216.398438 188.324219 217.097656 C 176.328125 218.800781 164.726562 222.574219 153.332031 226.699219 C 151.203125 227.46875 148.898438 228.261719 146.722656 227.601562 Z M 282.003906 318.140625 C 276.679688 306.027344 259.484375 305.5625 247.71875 299.816406 C 243.289062 297.652344 239.074219 295.070312 234.902344 292.433594 C 228.144531 288.164062 221.226562 283.46875 217.300781 276.441406 C 215.601562 273.40625 214.539062 270.054688 213.523438 266.71875 C 208.765625 251.109375 204.804688 235.253906 201.644531 219.242188 C 202.5 219.175781 203.347656 219.117188 204.203125 219.0625 C 206.125 218.941406 208.359375 218.699219 209.359375 217.035156 C 209.777344 216.34375 209.894531 215.507812 209.957031 214.699219 C 210.25 210.945312 209.53125 207.183594 208.816406 203.480469 C 208.152344 200.042969 207.308594 196.292969 204.570312 194.144531 C 202.132812 192.222656 198.800781 192.09375 195.722656 192.132812 C 183.488281 192.277344 171.277344 193.75 159.371094 196.523438 C 157.171875 197.035156 154.972656 197.597656 152.933594 198.566406 C 151.050781 199.460938 142.0625 202.40625 139.695312 203.132812 C 137.285156 203.871094 134.558594 204.90625 133.730469 207.320312 C 133.308594 208.550781 133.484375 209.90625 133.710938 211.191406 C 134.511719 215.773438 135.855469 220.261719 137.699219 224.527344 C 138.789062 227.039062 140.179688 229.613281 142.542969 230.941406 C 145.410156 232.550781 148.800781 231.90625 151.980469 230.789062 C 152.828125 239.542969 154.1875 248.25 156.066406 256.851562 C 157.519531 263.515625 159.285156 270.144531 159.960938 276.933594 C 161.007812 287.492188 159.425781 298.4375 162.707031 308.527344 C 163.375 310.59375 164.273438 312.628906 165.738281 314.214844 C 166.882812 315.449219 168.320312 316.351562 169.75 317.222656 C 189.253906 329.113281 210.351562 337.996094 231.472656 346.527344 C 240.632812 350.222656 250.050781 353.917969 259.878906 354.136719 C 269.707031 354.355469 278.707031 352.160156 283.746094 343.621094 C 288.035156 336.363281 285.421875 325.914062 282.003906 318.140625"/></g></g></g></g><g clip-path="url(#ak)"><g clip-path="url(#al)"><g clip-path="url(#am)"><g clip-path="url(#an)"><path fill="#C94B5A" d="M 259.441406 323.683594 C 259.433594 324.15625 259.457031 324.671875 259.765625 325.027344 C 259.941406 325.230469 260.191406 325.355469 260.445312 325.4375 C 261.074219 325.640625 261.753906 325.605469 262.410156 325.511719 C 262.792969 325.453125 263.191406 325.371094 263.492188 325.121094 C 263.691406 324.960938 263.832031 324.738281 263.941406 324.503906 C 264.25 323.828125 264.289062 323.035156 264.050781 322.332031 C 263.648438 321.152344 262.410156 319.605469 261 320.070312 C 259.570312 320.542969 259.484375 322.4375 259.441406 323.683594 Z M 215.929688 324.867188 C 216.03125 325.492188 216.382812 326.09375 216.933594 326.390625 C 217.589844 326.742188 218.378906 326.613281 219.105469 326.464844 C 219.820312 326.320312 220.566406 326.132812 221.085938 325.621094 C 221.527344 325.183594 221.738281 324.550781 221.738281 323.925781 C 221.734375 323.304688 221.523438 322.699219 221.214844 322.160156 C 221.101562 321.957031 220.964844 321.757812 220.765625 321.640625 C 220.171875 321.289062 218.121094 321.324219 217.433594 321.554688 C 216.246094 321.953125 215.753906 323.757812 215.929688 324.867188 Z M 196.882812 287.613281 C 197.671875 288.542969 199.058594 288.632812 200.269531 288.539062 C 200.730469 288.503906 201.199219 288.449219 201.625 288.265625 C 204.488281 287.027344 202.710938 283.210938 200.363281 282.582031 C 197.875 281.914062 195.070312 285.484375 196.882812 287.613281 Z M 190.753906 205.765625 C 191.074219 205.710938 191.402344 205.679688 191.710938 205.769531 C 192.109375 205.886719 192.421875 206.1875 192.679688 206.511719 C 194.019531 208.210938 194.078125 210.804688 192.8125 212.558594 C 192.46875 213.039062 192.027344 213.464844 191.488281 213.707031 C 190.304688 214.234375 188.855469 213.773438 187.933594 212.871094 C 187.105469 212.0625 186.613281 210.917969 186.625 209.757812 C 186.65625 207.238281 188.554688 206.148438 190.753906 205.765625"/></g></g></g></g><g clip-path="url(#ao)"><g clip-path="url(#ap)"><g clip-path="url(#aq)"><g clip-path="url(#ar)"><path fill="#8AD37E" d="M 157.292969 215.167969 C 157.90625 215.511719 158.601562 215.734375 159.300781 215.710938 C 160 215.683594 160.707031 215.382812 161.136719 214.824219 C 161.371094 214.515625 161.515625 214.148438 161.605469 213.773438 C 162.035156 211.945312 160.921875 208.636719 158.546875 209.695312 C 156.535156 210.585938 154.898438 213.828125 157.292969 215.167969 Z M 244.871094 340.277344 C 245.570312 340.703125 246.445312 340.71875 247.242188 340.5625 C 248.320312 340.34375 249.429688 339.722656 249.75 338.667969 C 250.515625 336.128906 247.863281 334.066406 245.511719 334.882812 C 243.40625 335.613281 242.90625 339.085938 244.871094 340.277344 Z M 219.953125 305.136719 C 220.683594 306.125 222.113281 306.28125 223.316406 306.050781 C 223.976562 305.921875 224.640625 305.691406 225.140625 305.238281 C 226.738281 303.777344 226.503906 299.832031 224.496094 298.777344 C 222.832031 297.898438 220.613281 298.753906 219.75 300.363281 C 219.050781 301.664062 219.042969 303.914062 219.953125 305.136719 Z M 181.605469 304.738281 C 180.964844 305.136719 180.292969 305.570312 179.949219 306.246094 C 179.65625 306.828125 179.648438 307.515625 179.707031 308.167969 C 179.769531 308.867188 179.925781 309.613281 180.4375 310.09375 C 180.722656 310.363281 181.097656 310.519531 181.472656 310.640625 C 182.191406 310.878906 182.980469 311.015625 183.703125 310.792969 C 184.785156 310.457031 185.496094 309.355469 185.675781 308.226562 C 185.851562 307.105469 185.589844 305.960938 185.265625 304.871094 C 185.214844 304.714844 185.164062 304.550781 185.0625 304.421875 C 184.910156 304.230469 184.664062 304.140625 184.425781 304.097656 C 183.566406 303.9375 182.335938 304.28125 181.605469 304.738281 Z M 171.703125 235.789062 C 173.769531 234.453125 175.632812 236.242188 175.929688 238.285156 C 176.039062 239.035156 176.0625 239.828125 175.746094 240.515625 C 175.464844 241.109375 174.957031 241.566406 174.425781 241.949219 C 173.941406 242.304688 173.40625 242.617188 172.8125 242.71875 C 171.722656 242.90625 170.578125 242.277344 170.019531 241.320312 C 168.9375 239.460938 169.988281 236.898438 171.703125 235.789062"/></g></g></g></g></svg>