<svg xmlns="http://www.w3.org/2000/svg" width="375" viewBox="0 0 375 375" height="375" version="1.0"><path fill="#FFF1E8" d="M 326.1875 7.3125 L 367.667969 48.792969 L 263.957031 152.492188 L 222.476562 111.011719 Z M 326.1875 7.3125"/><path fill="#A16A4A" d="M 263.957031 159.898438 L 215.070312 111.011719 L 326.1875 -0.09375 L 375.074219 48.792969 Z M 229.882812 111.011719 L 263.957031 145.085938 L 360.261719 48.792969 L 326.1875 14.71875 Z M 229.882812 111.011719"/><path fill="#FFD3B5" d="M 21.988281 159.425781 C 8.140625 173.273438 0.34375 276.054688 49.652344 325.347656 C 98.957031 374.644531 201.726562 366.859375 215.574219 353.011719 C 222.464844 346.121094 346.925781 221.660156 346.925781 221.660156 L 153.351562 28.074219 C 153.351562 28.074219 29.035156 152.386719 21.988281 159.425781 Z M 21.988281 159.425781"/><path fill="#A16A4A" d="M 162.464844 368.714844 C 162.453125 368.714844 162.464844 368.714844 162.464844 368.714844 C 139.359375 368.714844 81.757812 364.851562 45.953125 329.058594 C 16.195312 299.308594 8.726562 253.898438 6.914062 229.484375 C 4.460938 196.363281 9.355469 164.65625 18.289062 155.71875 C 25.339844 148.679688 149.65625 24.363281 149.65625 24.363281 L 153.363281 20.65625 L 354.34375 221.648438 L 219.28125 356.710938 C 210.984375 365.007812 184.765625 368.714844 162.464844 368.714844 Z M 153.351562 35.476562 C 132.652344 56.175781 32.011719 156.820312 25.695312 163.136719 C 20.675781 168.152344 14.820312 194.382812 17.355469 228.707031 C 19.054688 251.667969 25.988281 294.292969 53.359375 321.652344 C 76.277344 344.558594 117.054688 358.238281 162.453125 358.238281 C 190.378906 358.238281 208.167969 353.011719 211.875 349.304688 L 339.523438 221.648438 Z M 153.351562 35.476562"/><path fill="#FFF1E8" d="M 111.871094 249.300781 C 111.871094 249.300781 64.839844 271.414062 35.824219 242.386719 C 6.652344 213.214844 21.996094 159.417969 21.996094 159.417969 L 153.351562 28.074219 L 243.226562 117.945312 Z M 111.871094 249.300781"/><path fill="#A16A4A" d="M 74.769531 262.59375 C 57.421875 262.59375 43.082031 257.042969 32.125 246.085938 C 1.132812 215.089844 16.308594 160.296875 16.96875 157.980469 L 17.347656 156.671875 L 153.351562 20.65625 L 250.632812 117.9375 L 114.101562 254.046875 C 113.359375 254.390625 95.667969 262.59375 74.769531 262.59375 Z M 26.710938 162.109375 C 24.742188 170.132812 15.261719 214.410156 39.53125 238.679688 C 48.445312 247.605469 60.304688 252.121094 74.769531 252.121094 C 90.941406 252.121094 105.398438 246.390625 108.863281 244.914062 L 235.820312 117.945312 L 153.351562 35.476562 Z M 26.710938 162.109375"/><path fill="#FFC49C" d="M 126.703125 264.132812 C 126.703125 264.132812 104.457031 311.03125 133.15625 339.71875 C 162.015625 368.578125 215.582031 353.011719 215.582031 353.011719 L 346.9375 221.660156 L 258.058594 132.78125 Z M 126.703125 264.132812"/><path fill="#A16A4A" d="M 183.246094 362.441406 C 183.238281 362.441406 183.246094 362.441406 183.246094 362.441406 C 160.496094 362.441406 141.890625 355.863281 129.457031 343.429688 C 98.496094 312.476562 121.003906 263.945312 121.980469 261.890625 L 123.007812 260.4375 L 258.078125 125.375 L 354.363281 221.660156 L 218.339844 357.664062 L 217.050781 358.042969 C 216.429688 358.21875 201.695312 362.441406 183.246094 362.441406 Z M 131.09375 267.152344 C 128.515625 273.140625 113.054688 312.214844 136.863281 336.023438 C 147.445312 346.601562 163.050781 351.964844 183.246094 351.964844 C 197.273438 351.964844 209.121094 349.273438 212.878906 348.308594 L 339.53125 221.648438 L 258.058594 140.175781 Z M 131.09375 267.152344"/><path fill="#C74343" d="M 152.617188 89.925781 C 152.617188 89.925781 145.789062 103.050781 139.136719 109.691406 C 133.679688 115.148438 125.363281 123.414062 125.363281 123.414062 C 125.363281 123.414062 133.15625 124.976562 136.265625 128.085938 C 139.378906 131.199219 139.128906 138.730469 133.667969 144.175781 C 128.210938 149.632812 115.757812 163.636719 113.421875 163.386719 C 111.085938 163.125 107.964844 159.5 106.414062 157.929688 C 104.851562 156.367188 101.21875 151.695312 96.296875 155.59375 C 91.363281 159.480469 77.859375 167.796875 77.859375 167.796875 C 77.859375 167.796875 85.128906 176.628906 87.203125 179.226562 C 89.289062 181.824219 92.660156 189.34375 92.660156 189.34375 C 92.660156 189.34375 104.089844 188.304688 112.121094 180.773438 C 120.167969 173.242188 123.800781 161.3125 130.296875 155.34375 C 136.78125 149.371094 150.542969 139.765625 158.328125 131.972656 C 166.109375 124.179688 165.417969 116.523438 158.734375 108.832031 C 153.445312 102.738281 152.617188 89.925781 152.617188 89.925781 Z M 152.617188 89.925781"/><path fill="#66798F" d="M 223.4375 187.542969 C 223.4375 187.542969 218.042969 195.765625 211.402344 202.417969 C 204.761719 209.058594 195.042969 215.375 195.042969 215.375 C 195.042969 215.375 201.003906 217.582031 202.710938 219.292969 C 206.972656 223.554688 205.433594 226.792969 203.042969 229.515625 C 200.65625 232.238281 186.335938 246.222656 181.738281 250.820312 C 177.140625 255.417969 160.484375 280.015625 182.472656 302 C 201.410156 320.9375 217.613281 315.242188 240.09375 297.414062 C 254.75 285.796875 266.910156 274.253906 276.839844 267.988281 C 281.691406 264.929688 285.703125 259 280.246094 252.183594 C 273.761719 244.0625 273.046875 240.460938 273.046875 240.460938 C 273.046875 240.460938 267.714844 250.296875 262.058594 255.480469 C 255.871094 261.160156 247.792969 264.195312 247.792969 264.195312 C 247.792969 264.195312 252.988281 266.199219 255.367188 268.238281 C 257.753906 270.28125 253.890625 274.261719 247.40625 280.746094 C 240.933594 287.21875 220.097656 299.875 208.511719 284.527344 C 233.765625 256.75 247.667969 249.050781 253.460938 244.628906 C 259.253906 240.199219 261.988281 235.316406 258.40625 229.359375 C 254.675781 223.144531 249.792969 216.222656 249.792969 216.222656 C 249.792969 216.222656 243.152344 226.234375 238.554688 230.488281 C 233.957031 234.753906 222.644531 239.582031 222.644531 239.582031 C 222.644531 239.582031 228.320312 240.964844 229.210938 243.875 C 230.75 248.925781 223.460938 254.066406 215.804688 261.390625 C 208.136719 268.722656 199.953125 275.875 199.953125 275.875 C 199.953125 275.875 183.363281 258.363281 205.863281 238.953125 C 225.042969 222.402344 229.347656 220.191406 232.007812 218.371094 C 236.050781 215.59375 238.574219 209.726562 234.65625 204.101562 C 230.761719 198.46875 223.4375 187.542969 223.4375 187.542969 Z M 223.4375 187.542969"/></svg>