<svg xmlns="http://www.w3.org/2000/svg" width="375" viewBox="0 0 375 375" height="375" version="1.0"><defs><clipPath id="a"><path d="M 71 52 L 198 52 L 198 169 L 71 169 Z M 71 52"/></clipPath><clipPath id="b"><path d="M 47.324219 90.222656 L 207.722656 35.429688 L 245.789062 146.855469 L 85.390625 201.652344 Z M 47.324219 90.222656"/></clipPath><clipPath id="c"><path d="M 207.5 35.503906 L 47.101562 90.300781 L 85.167969 201.726562 L 245.566406 146.933594 Z M 207.5 35.503906"/></clipPath><clipPath id="d"><path d="M 207.5 35.503906 L 47.101562 90.300781 L 85.167969 201.726562 L 245.566406 146.933594 Z M 207.5 35.503906"/></clipPath><clipPath id="e"><path d="M 70 52 L 199 52 L 199 169 L 70 169 Z M 70 52"/></clipPath><clipPath id="f"><path d="M 47.324219 90.222656 L 207.722656 35.429688 L 245.789062 146.855469 L 85.390625 201.652344 Z M 47.324219 90.222656"/></clipPath><clipPath id="g"><path d="M 207.5 35.503906 L 47.101562 90.300781 L 85.167969 201.726562 L 245.566406 146.933594 Z M 207.5 35.503906"/></clipPath><clipPath id="h"><path d="M 207.5 35.503906 L 47.101562 90.300781 L 85.167969 201.726562 L 245.566406 146.933594 Z M 207.5 35.503906"/></clipPath><clipPath id="i"><path d="M 64 114 L 169 114 L 169 179 L 64 179 Z M 64 114"/></clipPath><clipPath id="j"><path d="M 47.324219 90.222656 L 207.722656 35.429688 L 245.789062 146.855469 L 85.390625 201.652344 Z M 47.324219 90.222656"/></clipPath><clipPath id="k"><path d="M 207.5 35.503906 L 47.101562 90.300781 L 85.167969 201.726562 L 245.566406 146.933594 Z M 207.5 35.503906"/></clipPath><clipPath id="l"><path d="M 207.5 35.503906 L 47.101562 90.300781 L 85.167969 201.726562 L 245.566406 146.933594 Z M 207.5 35.503906"/></clipPath><clipPath id="m"><path d="M 64 113 L 170 113 L 170 179 L 64 179 Z M 64 113"/></clipPath><clipPath id="n"><path d="M 47.324219 90.222656 L 207.722656 35.429688 L 245.789062 146.855469 L 85.390625 201.652344 Z M 47.324219 90.222656"/></clipPath><clipPath id="o"><path d="M 207.5 35.503906 L 47.101562 90.300781 L 85.167969 201.726562 L 245.566406 146.933594 Z M 207.5 35.503906"/></clipPath><clipPath id="p"><path d="M 207.5 35.503906 L 47.101562 90.300781 L 85.167969 201.726562 L 245.566406 146.933594 Z M 207.5 35.503906"/></clipPath><clipPath id="q"><path d="M 143.871094 88.980469 L 57.847656 118.367188 L 86.214844 201.40625 L 172.238281 172.019531 Z M 143.871094 88.980469"/></clipPath><clipPath id="r"><path d="M 143.871094 88.980469 L 57.957031 118.328125 L 86.320312 201.355469 L 172.234375 172.007812 Z M 143.871094 88.980469"/></clipPath><clipPath id="s"><path d="M 186 41 L 213 41 L 213 69 L 186 69 Z M 186 41"/></clipPath><clipPath id="t"><path d="M 47.324219 90.222656 L 207.722656 35.429688 L 245.789062 146.855469 L 85.390625 201.652344 Z M 47.324219 90.222656"/></clipPath><clipPath id="u"><path d="M 207.5 35.503906 L 47.101562 90.300781 L 85.167969 201.726562 L 245.566406 146.933594 Z M 207.5 35.503906"/></clipPath><clipPath id="v"><path d="M 207.5 35.503906 L 47.101562 90.300781 L 85.167969 201.726562 L 245.566406 146.933594 Z M 207.5 35.503906"/></clipPath><clipPath id="w"><path d="M 185 41 L 214 41 L 214 70 L 185 70 Z M 185 41"/></clipPath><clipPath id="x"><path d="M 47.324219 90.222656 L 207.722656 35.429688 L 245.789062 146.855469 L 85.390625 201.652344 Z M 47.324219 90.222656"/></clipPath><clipPath id="y"><path d="M 207.5 35.503906 L 47.101562 90.300781 L 85.167969 201.726562 L 245.566406 146.933594 Z M 207.5 35.503906"/></clipPath><clipPath id="z"><path d="M 207.5 35.503906 L 47.101562 90.300781 L 85.167969 201.726562 L 245.566406 146.933594 Z M 207.5 35.503906"/></clipPath></defs><path fill="#8E5E4F" d="M 72.722656 265.746094 C 67.96875 269.273438 69.710938 271.707031 75.058594 271.601562 C 88.40625 271.335938 97.851562 263.535156 106.175781 254.511719 C 104.414062 269.765625 96.675781 280.378906 86.054688 289.386719 C 82.765625 292.179688 84.683594 294.644531 90.03125 293.835938 C 105.164062 291.550781 115.90625 284.75 121.613281 273.941406 C 125.589844 263.5625 129.570312 253.183594 133.546875 242.808594 C 122.265625 233.125 110.988281 223.441406 99.710938 213.757812 C 94.890625 235.023438 88.074219 254.363281 72.722656 265.746094" fill-rule="evenodd"/><path fill="#8E5E4F" d="M 252.855469 330.585938 C 256.261719 339.855469 259.882812 349.3125 261.042969 361.714844 C 261.339844 364.886719 259.375 366.339844 256.363281 368.035156 C 254.300781 369.199219 254.785156 372.277344 256.832031 372.949219 C 263.441406 375.128906 271.140625 374.523438 278.585938 373.183594 C 281.851562 372.597656 282.742188 369.675781 283.03125 366.867188 C 283.867188 358.785156 280.574219 361.664062 283.03125 332.226562 C 275.703125 322.238281 268.371094 312.25 261.042969 302.261719 C 258.3125 311.703125 255.585938 321.144531 252.855469 330.585938" fill-rule="evenodd"/><path fill="#8E5E4F" d="M 289.839844 330.585938 C 291.8125 339.855469 293.964844 349.3125 293.199219 361.714844 C 293.003906 364.886719 290.816406 366.339844 287.539062 368.035156 C 285.292969 369.199219 285.300781 372.277344 287.246094 372.949219 C 293.511719 375.128906 301.308594 374.523438 308.964844 373.183594 C 312.320312 372.597656 313.664062 369.675781 314.390625 366.867188 C 316.476562 358.785156 312.738281 361.664062 319.761719 332.226562 C 313.980469 322.238281 308.203125 312.25 302.421875 302.261719 C 298.226562 311.703125 294.035156 321.144531 289.839844 330.585938" fill-rule="evenodd"/><path fill="#8E5E4F" d="M 314.015625 338.132812 C 326.503906 363.324219 346.515625 367.917969 369.644531 363.484375 C 374.554688 362.542969 374.910156 359.199219 371.359375 358.910156 C 351.511719 357.289062 336.230469 350.355469 329.070312 333.175781 C 328.242188 331.078125 327.417969 328.984375 326.589844 326.886719 C 322.398438 330.636719 318.207031 334.382812 314.015625 338.132812" fill-rule="evenodd"/><path fill="#A4715D" d="M 129.195312 140.914062 C 109.796875 150.773438 95.28125 165.292969 98.371094 201.457031 C 99.308594 212.417969 96.175781 223.597656 97.960938 234.449219 C 106.625 287.105469 129.90625 278.332031 171.914062 291.113281 C 182.554688 294.351562 201.917969 300.613281 212.070312 321.96875 C 220.410156 339.511719 240.703125 343.425781 264.910156 345.144531 C 294.695312 347.257812 310.875 345.671875 323.902344 338.988281 C 330.394531 335.65625 331.570312 329.957031 332.226562 325.953125 C 340.707031 274.324219 334.105469 221.964844 298.929688 170.96875 C 279.695312 143.082031 248.988281 128.277344 211.347656 123.894531 C 185.914062 120.933594 158.210938 126.164062 129.195312 140.914062" fill-rule="evenodd"/><path fill="#B68D68" d="M 198.253906 304.125 C 203.5 308.472656 208.390625 314.226562 212.070312 321.96875 C 220.410156 339.511719 240.703125 343.425781 264.910156 345.144531 C 294.695312 347.257812 310.875 345.671875 323.902344 338.988281 C 330.394531 335.65625 331.570312 329.957031 332.226562 325.953125 C 337.722656 292.492188 336.878906 258.722656 326.03125 225.214844 C 268.855469 237.445312 226.03125 263.527344 198.253906 304.121094 L 198.253906 304.125" fill-rule="evenodd"/><path fill="#B68D68" d="M 129.195312 140.914062 C 109.796875 150.773438 95.28125 165.292969 98.371094 201.457031 C 99.308594 212.417969 96.175781 223.597656 97.960938 234.449219 C 105.996094 283.28125 126.605469 279.285156 163.054688 288.640625 L 163.058594 288.640625 C 170.542969 225.734375 197.585938 172.832031 252.324219 134.085938 C 239.925781 128.964844 226.175781 125.621094 211.347656 123.894531 C 185.914062 120.933594 158.210938 126.164062 129.195312 140.914062" fill-rule="evenodd"/><path fill="#DCCBA5" d="M 130.546875 165.5 C 135.839844 164.328125 142.1875 162.914062 148.597656 157.15625 C 154.894531 151.507812 153.386719 145.367188 144.757812 145.238281 C 137.910156 145.136719 131.929688 152.101562 126.175781 160.175781 C 118.027344 151.425781 108.570312 146.566406 97.988281 145.058594 C 97.75 138.105469 100.277344 132.34375 97.339844 126.039062 C 94.339844 119.59375 85.660156 118.640625 84.679688 125.699219 C 83.53125 133.996094 88.347656 140.605469 92.257812 145.945312 C 83.425781 147.964844 73.277344 158.441406 61.476562 179.542969 C 54.226562 192.984375 47.8125 206.910156 39.726562 219.871094 C 31.027344 233.820312 19.214844 244.238281 6.015625 251.601562 C 7.292969 254.304688 8.570312 257.007812 9.847656 259.714844 C 26.992188 264.5625 44.980469 261.363281 63.960938 254.4375 C 88.097656 245.628906 108.0625 229.871094 121.769531 202.980469 C 127.066406 192.300781 129.367188 179.332031 130.546875 165.5" fill-rule="evenodd"/><path fill="#A4715D" d="M 126.175781 160.175781 C 118.027344 151.425781 108.570312 146.566406 97.988281 145.058594 C 97.75 138.105469 100.277344 132.34375 97.339844 126.039062 C 94.339844 119.59375 85.660156 118.640625 84.679688 125.699219 C 83.53125 133.996094 88.347656 140.605469 92.257812 145.945312 C 83.425781 147.964844 73.277344 158.441406 61.476562 179.542969 C 54.226562 192.984375 47.8125 206.910156 39.726562 219.871094 C 31.027344 233.820312 19.214844 244.238281 6.015625 251.601562 L 6.3125 252.234375 L 13.105469 254.386719 C 40.90625 253.980469 61.691406 245.03125 77.894531 230.492188 C 81.390625 227.828125 83.40625 224.285156 84.019531 219.460938 C 85.519531 207.609375 93.550781 201.253906 107.269531 199.234375 C 110.882812 198.703125 113.878906 196.367188 116.195312 193.035156 C 122.46875 184.003906 125.265625 172.699219 126.175781 160.175781" fill-rule="evenodd"/><path fill="#8E5E4F" d="M 107.230469 152.472656 C 106.128906 151.957031 104.527344 152.742188 103.660156 154.222656 C 102.789062 155.703125 102.976562 157.316406 104.082031 157.828125 C 105.183594 158.339844 106.78125 157.558594 107.652344 156.078125 C 108.523438 154.597656 108.332031 152.984375 107.230469 152.472656" fill-rule="evenodd"/><path fill="#8E5E4F" d="M 113.632812 162.078125 C 111.621094 161.144531 108.628906 162.730469 106.949219 165.625 C 105.273438 168.523438 105.542969 171.625 107.558594 172.5625 C 109.570312 173.496094 112.5625 171.910156 114.242188 169.011719 C 115.917969 166.117188 115.648438 163.011719 113.632812 162.078125" fill-rule="evenodd"/><path fill="#8E5E4F" d="M 100.078125 162.507812 C 98.289062 161.679688 95.628906 163.09375 94.136719 165.667969 C 92.644531 168.238281 92.886719 171 94.675781 171.832031 C 96.46875 172.664062 99.128906 171.25 100.621094 168.675781 C 102.113281 166.101562 101.871094 163.34375 100.078125 162.507812" fill-rule="evenodd"/><path fill="#8E5E4F" d="M 95.9375 149.675781 C 93.820312 148.6875 90.671875 150.359375 88.90625 153.40625 C 87.140625 156.453125 87.425781 159.71875 89.542969 160.699219 C 91.664062 161.6875 94.8125 160.015625 96.578125 156.96875 C 98.339844 153.925781 98.054688 150.65625 95.9375 149.675781" fill-rule="evenodd"/><path fill="#8E5E4F" d="M 96.53125 179.367188 C 94.414062 178.382812 91.15625 180.289062 89.257812 183.625 C 87.359375 186.960938 87.535156 190.460938 89.652344 191.445312 C 91.773438 192.429688 95.03125 190.523438 96.929688 187.1875 C 98.828125 183.855469 98.648438 180.351562 96.53125 179.367188" fill-rule="evenodd"/><path fill="#8E5E4F" d="M 82.011719 178.054688 C 79.894531 177.074219 76.738281 178.765625 74.960938 181.835938 C 73.183594 184.90625 73.460938 188.195312 75.578125 189.179688 C 77.695312 190.160156 80.855469 188.46875 82.632812 185.398438 C 84.410156 182.328125 84.132812 179.039062 82.011719 178.054688" fill-rule="evenodd"/><path fill="#8E5E4F" d="M 106.605469 176.476562 C 105.441406 175.9375 103.988281 176.597656 103.355469 177.957031 C 102.726562 179.3125 103.164062 180.847656 104.328125 181.390625 C 105.492188 181.929688 106.945312 181.269531 107.574219 179.914062 C 108.203125 178.554688 107.769531 177.019531 106.605469 176.476562" fill-rule="evenodd"/><path fill="#8E5E4F" d="M 86.753906 165.648438 C 85.238281 164.945312 83.296875 165.917969 82.417969 167.8125 C 81.535156 169.714844 82.050781 171.824219 83.5625 172.527344 C 85.078125 173.230469 87.019531 172.261719 87.902344 170.363281 C 88.78125 168.464844 88.265625 166.351562 86.753906 165.648438" fill-rule="evenodd"/><path fill="#8E5E4F" d="M 71.613281 177.730469 C 70.335938 177.136719 68.730469 177.890625 68.023438 179.40625 C 67.320312 180.925781 67.785156 182.636719 69.0625 183.230469 C 70.339844 183.824219 71.945312 183.074219 72.652344 181.554688 C 73.355469 180.035156 72.890625 178.324219 71.613281 177.730469" fill-rule="evenodd"/><path fill="#8E5E4F" d="M 89.175781 195.09375 C 88.046875 194.570312 86.5625 195.371094 85.859375 196.886719 C 85.15625 198.398438 85.503906 200.050781 86.632812 200.578125 C 87.765625 201.101562 89.25 200.300781 89.953125 198.785156 C 90.65625 197.273438 90.308594 195.621094 89.175781 195.09375" fill-rule="evenodd"/><path fill="#8E5E4F" d="M 80.652344 193.53125 C 78.574219 192.382812 75.128906 194.085938 72.957031 197.339844 C 70.789062 200.589844 70.71875 204.160156 72.800781 205.3125 C 74.882812 206.464844 78.328125 204.761719 80.496094 201.507812 C 82.667969 198.253906 82.738281 194.683594 80.652344 193.53125" fill-rule="evenodd"/><path fill="#8E5E4F" d="M 68.089844 190.800781 C 66.675781 189.765625 64.347656 190.539062 62.890625 192.53125 C 61.429688 194.519531 61.394531 196.976562 62.808594 198.015625 C 64.222656 199.050781 66.550781 198.277344 68.011719 196.285156 C 69.46875 194.292969 69.507812 191.839844 68.089844 190.800781" fill-rule="evenodd"/><path fill="#8E5E4F" d="M 74.988281 209.585938 C 73.601562 208.546875 71.476562 209.042969 70.238281 210.695312 C 69 212.347656 69.121094 214.53125 70.507812 215.570312 C 71.894531 216.609375 74.019531 216.113281 75.261719 214.460938 C 76.496094 212.808594 76.375 210.625 74.988281 209.585938" fill-rule="evenodd"/><path fill="#8E5E4F" d="M 64.824219 202.070312 C 62.527344 200.800781 58.734375 202.675781 56.34375 206.257812 C 53.953125 209.84375 53.878906 213.777344 56.171875 215.042969 C 58.464844 216.3125 62.261719 214.4375 64.648438 210.851562 C 67.039062 207.269531 67.117188 203.335938 64.824219 202.070312" fill-rule="evenodd"/><path fill="#8E5E4F" d="M 53.429688 217.550781 C 52.625 216.597656 50.941406 216.699219 49.667969 217.777344 C 48.394531 218.855469 48.011719 220.5 48.816406 221.453125 C 49.621094 222.402344 51.304688 222.300781 52.582031 221.226562 C 53.855469 220.148438 54.234375 218.503906 53.429688 217.550781" fill-rule="evenodd"/><path fill="#8E5E4F" d="M 64.300781 217.65625 C 62.589844 216.476562 59.253906 218.066406 56.847656 221.203125 C 54.445312 224.339844 53.890625 227.84375 55.601562 229.019531 C 57.316406 230.199219 60.652344 228.613281 63.054688 225.472656 C 65.457031 222.335938 66.015625 218.835938 64.300781 217.65625" fill-rule="evenodd"/><path fill="#8E5E4F" d="M 49.917969 231.226562 C 50.851562 227.703125 49.585938 224.496094 44.972656 226.347656 C 42.058594 227.511719 40.226562 229.800781 39.117188 232.1875 C 36.1875 238.472656 47.96875 238.589844 49.917969 231.226562" fill-rule="evenodd"/><path fill="#8E5E4F" d="M 35.382812 234.023438 C 34.332031 233.535156 33.085938 233.984375 32.601562 235.03125 C 32.117188 236.074219 32.578125 237.316406 33.628906 237.804688 C 34.679688 238.296875 35.925781 237.84375 36.410156 236.800781 C 36.894531 235.753906 36.433594 234.511719 35.382812 234.023438" fill-rule="evenodd"/><path fill="#8E5E4F" d="M 38.71875 240.566406 C 37.949219 239.390625 36.109375 239.230469 34.613281 240.210938 C 33.117188 241.195312 32.53125 242.945312 33.304688 244.121094 C 34.078125 245.300781 35.917969 245.457031 37.410156 244.476562 C 38.90625 243.496094 39.492188 241.742188 38.71875 240.566406" fill-rule="evenodd"/><path fill="#8E5E4F" d="M 28.355469 244.476562 C 27.707031 243.101562 25.765625 242.660156 24.023438 243.484375 C 22.28125 244.3125 21.394531 246.09375 22.046875 247.46875 C 22.695312 248.839844 24.636719 249.28125 26.378906 248.457031 C 28.121094 247.628906 29.007812 245.847656 28.355469 244.476562" fill-rule="evenodd"/><path fill="#48484A" d="M 102.117188 208.578125 C 99.296875 207.265625 95.933594 208.523438 94.605469 211.386719 C 93.277344 214.25 94.488281 217.628906 97.308594 218.941406 C 100.128906 220.25 103.488281 218.992188 104.816406 216.128906 C 106.144531 213.265625 104.933594 209.886719 102.117188 208.578125" fill-rule="evenodd"/><path fill="#48484A" d="M 13.28125 246.203125 C 8.558594 244.011719 3.386719 245.121094 1.734375 248.6875 C 0.0820312 252.25 2.570312 256.917969 7.292969 259.113281 C 12.019531 261.308594 17.191406 260.199219 18.84375 256.632812 C 20.496094 253.066406 18.007812 248.398438 13.28125 246.203125" fill-rule="evenodd"/><path fill="#B68D68" d="M 185.179688 295.984375 C 213.097656 244.988281 253.597656 207.46875 306.546875 182.765625 C 307.015625 183.542969 307.476562 184.320312 307.933594 185.097656 L 307.816406 185.15625 C 255.363281 209.597656 215.273438 246.695312 187.609375 297.167969 C 186.792969 296.75 185.980469 296.355469 185.179688 295.984375 Z M 172.527344 291.300781 C 173.34375 291.550781 174.203125 291.820312 175.105469 292.109375 L 175.105469 292.105469 C 193.996094 232.066406 229.996094 186.648438 284.222656 154.613281 L 284.582031 154.402344 C 283.886719 153.761719 283.1875 153.128906 282.476562 152.507812 C 227.882812 184.871094 191.574219 230.761719 172.53125 291.296875 L 172.527344 291.300781" fill-rule="evenodd"/><g clip-path="url(#a)"><g clip-path="url(#b)"><g clip-path="url(#c)"><g clip-path="url(#d)"><path fill="#EF3245" d="M 157.035156 168.265625 C 173.359375 152.667969 165.410156 119.558594 167.007812 102.171875 C 169.414062 75.972656 199.398438 59.9375 197.835938 55.011719 C 196.777344 51.6875 184.480469 51.984375 175.0625 53.726562 C 129.546875 62.144531 93.578125 85.199219 71.203125 119.792969 L 157.035156 168.265625"/></g></g></g></g><g clip-path="url(#e)"><g clip-path="url(#f)"><g clip-path="url(#g)"><g clip-path="url(#h)"><path fill="#100F0D" d="M 148.914062 60.941406 C 157.269531 58.085938 166.023438 55.808594 175.136719 54.125 C 180.003906 53.222656 185.402344 52.757812 189.574219 52.875 C 194.164062 53.003906 197.035156 53.828125 197.449219 55.132812 C 197.90625 56.574219 194.46875 59.828125 190.492188 63.601562 C 181.617188 72.011719 168.203125 84.722656 166.605469 102.136719 C 166.167969 106.910156 166.445312 112.917969 166.742188 119.277344 C 167.515625 135.875 168.476562 156.507812 156.96875 167.765625 L 71.777344 119.652344 C 82.875 102.609375 97.304688 88.355469 114.675781 77.285156 C 125.140625 70.613281 136.597656 65.148438 148.914062 60.941406 Z M 157.09375 168.765625 L 157.3125 168.558594 C 169.3125 157.09375 168.335938 136.101562 167.550781 119.234375 C 167.257812 112.90625 166.976562 106.929688 167.410156 102.207031 C 168.980469 85.097656 182.261719 72.511719 191.046875 64.1875 C 195.734375 59.746094 198.832031 56.8125 198.21875 54.886719 C 197.007812 51.074219 183.90625 51.683594 174.988281 53.332031 C 152.335938 57.519531 131.898438 65.347656 114.238281 76.605469 C 96.648438 87.816406 82.054688 102.273438 70.863281 119.574219 L 70.632812 119.933594 L 71.003906 120.144531 L 157.09375 168.765625"/></g></g></g></g><g clip-path="url(#i)"><g clip-path="url(#j)"><g clip-path="url(#k)"><g clip-path="url(#l)"><path fill="#FFF" d="M 71.542969 137.601562 C 71.171875 139.5625 72.71875 141.664062 74.757812 142.113281 C 76.796875 142.558594 79.652344 139.382812 79.652344 139.382812 C 79.652344 139.382812 81.953125 143.308594 84.335938 143.601562 C 86.390625 143.851562 90.007812 141.96875 90.007812 141.96875 C 90.007812 141.96875 90.542969 145.121094 92.148438 145.113281 C 93.75 145.101562 95.769531 142.464844 95.769531 142.464844 C 95.769531 142.464844 95.648438 145.53125 96.996094 146.199219 C 98.34375 146.867188 100.1875 146.273438 100.789062 144.957031 C 100.535156 146.917969 101.894531 149 103.824219 149.65625 C 105.75 150.316406 109.085938 147.78125 109.085938 147.78125 C 109.085938 147.785156 109.136719 150.804688 110.421875 151.539062 C 111.710938 152.273438 113.519531 151.945312 114.378906 150.804688 C 113.773438 152.40625 114.992188 154.300781 116.609375 155.023438 C 118.226562 155.746094 120.097656 155.570312 121.804688 155.148438 C 121.511719 156.597656 122.285156 158.226562 123.609375 158.984375 C 124.929688 159.742188 127.820312 158.59375 127.820312 158.59375 C 127.820312 158.59375 127.515625 161.382812 128.75 162.0625 C 129.984375 162.734375 131.515625 162.523438 132.761719 161.957031 C 132.222656 163.378906 132.734375 165.160156 133.953125 166.167969 C 135.171875 167.175781 137.023438 167.355469 138.328125 166.566406 C 137.695312 168.257812 138.136719 170.339844 139.398438 171.726562 C 140.660156 173.113281 142.707031 173.761719 144.476562 173.324219 C 143.796875 174.78125 144.300781 176.8125 145.726562 177.699219 C 147.148438 178.585938 149.324219 177.929688 149.628906 176.3125 C 150.304688 177.421875 151.636719 178.121094 152.863281 178.007812 C 154.085938 177.890625 155.121094 176.949219 155.316406 175.707031 C 155.359375 175.414062 155.371094 175.09375 155.546875 174.875 C 155.878906 174.476562 156.546875 174.667969 157.097656 174.773438 C 159.746094 175.277344 161.886719 172.203125 160.496094 169.574219 C 162.878906 170.988281 165.871094 169.003906 165.125 166.292969 C 165.125 166.292969 169.714844 165.175781 168.292969 162.070312 C 166.875 158.960938 162.472656 161.128906 162.472656 161.128906 C 164.105469 159.96875 164.152344 157.066406 162.492188 155.058594 C 160.828125 153.046875 157.820312 152.386719 156.230469 153.609375 C 157.984375 152.101562 156.019531 148.574219 153.625 146.765625 C 151.558594 145.207031 148.84375 144.128906 146.921875 144.945312 C 148.417969 144.316406 147.453125 141.628906 145.652344 140.839844 C 143.847656 140.042969 142.03125 140.722656 140.875 141.765625 C 142.023438 140.851562 141.824219 138.78125 140.421875 137.566406 C 139.015625 136.351562 136.757812 136.308594 135.855469 137.445312 C 136.476562 135.542969 135.140625 132.929688 132.871094 131.738281 C 130.601562 130.546875 127.777344 130.964844 126.640625 132.59375 C 127.308594 131.328125 126.546875 129.425781 124.957031 128.5 C 123.367188 127.578125 121.238281 127.804688 120.375 128.953125 C 120.890625 127.320312 119.148438 125.269531 117.066406 124.542969 C 114.980469 123.820312 112.796875 124.144531 110.960938 124.785156 C 110.894531 123.273438 109.460938 121.6875 107.644531 121.15625 C 105.820312 120.625 103.820312 121.199219 103.019531 122.457031 C 103.660156 121.261719 102.160156 119.605469 100.453125 119.308594 C 98.746094 119.007812 97.15625 119.738281 96.121094 120.71875 C 95.972656 119.179688 94.425781 117.667969 92.515625 117.242188 C 90.605469 116.8125 88.546875 117.519531 87.746094 118.84375 C 87.304688 117.042969 85.414062 115.414062 83.125 114.933594 C 80.835938 114.449219 78.328125 115.152344 77.0625 116.601562 C 76.535156 115.035156 74.351562 113.777344 72.320312 114.09375 C 70.289062 114.410156 69.085938 116.433594 70.191406 117.792969 C 68.710938 117.484375 67.039062 117.988281 66.21875 118.976562 C 65.398438 119.96875 65.472656 121.367188 66.347656 122.335938 C 66.550781 122.5625 66.804688 122.785156 66.847656 123.0625 C 66.933594 123.574219 66.308594 123.941406 65.839844 124.289062 C 63.613281 125.945312 64.691406 129.519531 67.441406 130.277344 C 64.898438 131.070312 64.585938 134.636719 66.773438 135.902344 C 66.773438 135.902344 63.683594 138.695312 66.917969 140.394531 C 70.15625 142.089844 71.542969 137.601562 71.542969 137.601562"/></g></g></g></g><g clip-path="url(#m)"><g clip-path="url(#n)"><g clip-path="url(#o)"><g clip-path="url(#p)"><g clip-path="url(#q)"><g clip-path="url(#r)"><path fill="#100F0D" d="M 71.039062 137.5625 C 70.675781 139.796875 72.398438 142.078125 74.707031 142.574219 C 76.957031 143.058594 79.445312 141.667969 80.109375 139.578125 C 79.792969 139.488281 79.472656 139.398438 79.15625 139.308594 C 78.644531 141.6875 81.179688 143.285156 83.238281 143.855469 C 85.59375 144.503906 88.742188 144.234375 90.367188 142.300781 C 90.105469 142.109375 89.839844 141.921875 89.574219 141.734375 C 88.476562 143.21875 90.023438 145.230469 91.667969 145.53125 C 93.664062 145.898438 95.355469 144.261719 96.195312 142.722656 C 96.480469 142.199219 95.636719 141.679688 95.34375 142.207031 C 94.527344 143.691406 95.125 145.769531 96.734375 146.585938 C 98.398438 147.429688 100.472656 146.691406 101.253906 145.121094 C 100.9375 145.050781 100.617188 144.980469 100.300781 144.914062 C 100.0625 147.101562 101.539062 149.410156 103.710938 150.109375 C 105.914062 150.820312 108.390625 149.894531 109.539062 147.984375 C 109.238281 147.847656 108.933594 147.714844 108.632812 147.582031 C 108.003906 149.136719 108.664062 151.035156 110.167969 151.925781 C 111.652344 152.808594 113.710938 152.417969 114.746094 151.128906 C 114.480469 150.945312 114.210938 150.761719 113.941406 150.582031 C 113.34375 152.316406 114.308594 154.128906 115.828125 155.125 C 117.625 156.300781 119.96875 156.082031 121.933594 155.613281 C 121.734375 155.410156 121.535156 155.210938 121.335938 155.011719 C 121.039062 156.6875 121.839844 158.546875 123.410156 159.40625 C 124.929688 160.238281 126.871094 160.066406 128.140625 158.96875 C 127.902344 158.75 127.65625 158.53125 127.410156 158.3125 C 126.382812 159.476562 126.996094 161.375 128.207031 162.265625 C 129.605469 163.289062 131.515625 163.035156 132.957031 162.40625 C 132.742188 162.191406 132.527344 161.980469 132.308594 161.765625 C 131.734375 163.398438 132.257812 165.371094 133.65625 166.527344 C 135.054688 167.6875 137.097656 167.835938 138.605469 166.976562 C 138.363281 166.761719 138.121094 166.550781 137.882812 166.34375 C 137.222656 168.222656 137.628906 170.398438 138.988281 171.960938 C 140.367188 173.546875 142.621094 174.246094 144.605469 173.796875 C 144.421875 173.550781 144.238281 173.308594 144.050781 173.066406 C 143.277344 174.847656 143.847656 177.335938 145.792969 178.265625 C 147.445312 179.050781 149.695312 178.304688 150.097656 176.488281 C 149.800781 176.492188 149.5 176.5 149.203125 176.507812 C 150.082031 177.875 151.699219 178.753906 153.242188 178.460938 C 154.6875 178.183594 155.578125 177.078125 155.832031 175.636719 C 155.863281 175.429688 155.878906 175.222656 156.089844 175.152344 C 156.246094 175.097656 156.488281 175.160156 156.65625 175.1875 C 156.949219 175.242188 157.234375 175.308594 157.527344 175.328125 C 158.082031 175.363281 158.621094 175.277344 159.105469 175.070312 C 161.054688 174.246094 162.117188 171.714844 160.9375 169.398438 C 160.75 169.617188 160.5625 169.832031 160.375 170.050781 C 163.167969 171.652344 166.421875 169.382812 165.625 166.261719 C 165.550781 166.441406 165.472656 166.625 165.398438 166.804688 C 166.15625 166.609375 166.867188 166.28125 167.5 165.871094 C 168.351562 165.324219 169.125 164.480469 169.09375 163.261719 C 169.0625 162.050781 168.214844 160.707031 167.015625 160.167969 C 165.335938 159.40625 163.457031 159.972656 162.175781 160.621094 C 162.410156 160.933594 162.644531 161.25 162.875 161.566406 C 164.699219 160.214844 164.726562 157.011719 162.824219 154.730469 C 160.96875 152.503906 157.671875 151.816406 155.898438 153.128906 C 156.15625 153.425781 156.410156 153.722656 156.664062 154.019531 C 158.476562 152.386719 156.8125 149.160156 154.902344 147.261719 C 152.722656 145.09375 149.101562 143.457031 146.660156 144.445312 C 146.875 144.761719 147.085938 145.078125 147.296875 145.394531 C 149.019531 144.585938 148.082031 141.808594 146.324219 140.675781 C 144.179688 139.289062 141.804688 140.167969 140.480469 141.339844 C 140.03125 141.738281 140.800781 142.585938 141.265625 142.195312 C 142.570312 141.089844 142.488281 138.765625 140.804688 137.285156 C 139.0625 135.75 136.492188 135.78125 135.355469 137.132812 C 135.707031 137.300781 136.054688 137.472656 136.402344 137.648438 C 137.058594 135.515625 135.609375 132.609375 133.03125 131.296875 C 130.417969 129.96875 127.433594 130.507812 126.121094 132.316406 C 126.46875 132.5 126.8125 132.683594 127.15625 132.871094 C 127.898438 131.367188 127.105469 129.25 125.238281 128.128906 C 123.390625 127.019531 120.949219 127.296875 119.910156 128.601562 C 120.242188 128.800781 120.574219 129.003906 120.90625 129.203125 C 121.414062 127.4375 120.011719 125.464844 117.976562 124.429688 C 115.578125 123.207031 112.796875 123.597656 110.6875 124.328125 C 110.972656 124.507812 111.253906 124.6875 111.539062 124.871094 C 111.421875 123.125 109.875 121.285156 107.710938 120.691406 C 105.625 120.121094 103.457031 120.761719 102.511719 122.167969 C 102.867188 122.320312 103.226562 122.476562 103.582031 122.632812 C 104.261719 121.230469 102.761719 119.476562 100.964844 118.953125 C 98.894531 118.347656 96.890625 119.242188 95.683594 120.363281 C 96.023438 120.488281 96.363281 120.613281 96.703125 120.738281 C 96.5 118.984375 94.828125 117.28125 92.617188 116.785156 C 90.40625 116.292969 88.152344 117.125 87.207031 118.617188 C 87.582031 118.6875 87.957031 118.757812 88.332031 118.828125 C 87.816406 116.847656 85.894531 115.097656 83.363281 114.511719 C 80.792969 113.914062 78.015625 114.710938 76.570312 116.3125 C 76.929688 116.386719 77.289062 116.464844 77.648438 116.539062 C 76.972656 114.65625 74.296875 113.066406 71.761719 113.726562 C 69.613281 114.289062 68.460938 116.4375 69.664062 118 C 69.902344 117.785156 70.136719 117.570312 70.375 117.355469 C 68.503906 117 66.433594 117.609375 65.542969 118.96875 C 64.710938 120.234375 65.042969 121.628906 66.035156 122.765625 C 66.175781 122.929688 66.332031 123.078125 66.242188 123.28125 C 66.175781 123.433594 65.957031 123.574219 65.8125 123.679688 C 65.570312 123.867188 65.316406 124.039062 65.105469 124.25 C 64.699219 124.644531 64.40625 125.113281 64.253906 125.617188 C 63.625 127.640625 64.90625 130.027344 67.28125 130.722656 C 67.25 130.4375 67.21875 130.152344 67.183594 129.867188 C 64.230469 130.847656 64.027344 134.804688 66.496094 136.292969 C 66.472656 136.046875 66.445312 135.804688 66.417969 135.558594 C 65.816406 136.089844 65.320312 136.78125 65.070312 137.5 C 64.664062 138.664062 65.125 139.761719 66.160156 140.484375 C 67.109375 141.152344 68.339844 141.488281 69.449219 141.003906 C 70.742188 140.4375 71.605469 139.003906 72.019531 137.765625 C 72.210938 137.195312 71.253906 136.871094 71.066406 137.441406 C 70.929688 137.855469 70.738281 138.261719 70.515625 138.632812 C 70.171875 139.21875 69.722656 139.828125 69.070312 140.140625 C 68.199219 140.554688 67.160156 140.132812 66.492188 139.542969 C 65.363281 138.542969 66.203125 137.050781 67.121094 136.242188 C 67.363281 136.03125 67.328125 135.679688 67.046875 135.507812 C 65.15625 134.363281 65.546875 131.402344 67.699219 130.691406 C 68.148438 130.542969 68.007812 129.953125 67.605469 129.835938 C 66.507812 129.515625 65.734375 128.703125 65.40625 127.769531 C 65.121094 126.980469 65.117188 126.082031 65.574219 125.335938 C 66.089844 124.5 67.707031 123.996094 67.386719 122.890625 C 67.222656 122.324219 66.597656 121.929688 66.378906 121.371094 C 66.164062 120.8125 66.179688 120.207031 66.4375 119.664062 C 66.960938 118.574219 68.566406 117.960938 70.007812 118.234375 C 70.464844 118.320312 71.015625 117.980469 70.71875 117.589844 C 69.890625 116.496094 70.683594 115 72.1875 114.605469 C 73.980469 114.136719 75.984375 115.332031 76.472656 116.664062 C 76.609375 117.035156 77.238281 117.234375 77.550781 116.890625 C 78.742188 115.582031 80.949219 114.941406 83.054688 115.394531 C 85.082031 115.824219 86.738281 117.277344 87.160156 118.863281 C 87.28125 119.3125 88.015625 119.488281 88.28125 119.070312 C 89.015625 117.941406 90.746094 117.320312 92.414062 117.695312 C 94.082031 118.070312 95.371094 119.367188 95.535156 120.699219 C 95.585938 121.085938 96.230469 121.371094 96.554688 121.070312 C 97.460938 120.238281 98.835938 119.488281 100.394531 119.769531 C 101.738281 120.015625 102.941406 121.253906 102.453125 122.28125 C 102.222656 122.765625 103.230469 123.171875 103.523438 122.742188 C 104.238281 121.699219 105.835938 121.152344 107.410156 121.574219 C 109.023438 122.003906 110.285156 123.367188 110.382812 124.699219 C 110.410156 125.042969 110.832031 125.375 111.234375 125.238281 C 112.96875 124.648438 115.160156 124.25 117.175781 125.085938 C 118.738281 125.730469 120.222656 127.324219 119.835938 128.707031 C 119.710938 129.167969 120.46875 129.757812 120.835938 129.308594 C 121.605469 128.359375 123.289062 128.097656 124.675781 128.878906 C 126.042969 129.648438 126.640625 131.238281 126.121094 132.316406 C 125.851562 132.871094 126.808594 133.34375 127.15625 132.871094 C 128.199219 131.460938 130.71875 131.097656 132.710938 132.179688 C 134.738281 133.285156 135.820312 135.535156 135.308594 137.246094 C 135.144531 137.800781 136.039062 138.132812 136.355469 137.761719 C 137.132812 136.855469 139.023438 136.914062 140.152344 137.953125 C 141.246094 138.960938 141.363281 140.582031 140.480469 141.339844 C 140.742188 141.625 141.003906 141.910156 141.265625 142.195312 C 142.257812 141.328125 143.847656 140.542969 145.511719 141.292969 C 146.8125 141.882812 147.765625 143.914062 146.546875 144.496094 C 146.046875 144.734375 146.667969 145.648438 147.179688 145.445312 C 149.25 144.621094 152.183594 145.984375 154.070312 147.75 C 155.601562 149.183594 157.253906 151.871094 155.800781 153.207031 C 155.414062 153.558594 156.136719 154.40625 156.566406 154.09375 C 157.988281 153.058594 160.519531 153.492188 162.050781 155.257812 C 163.621094 157.066406 163.496094 159.613281 162.070312 160.691406 C 161.644531 161.011719 162.296875 161.867188 162.769531 161.632812 C 163.242188 161.398438 163.757812 161.21875 164.285156 161.09375 C 165.039062 160.910156 166 160.761719 166.863281 161.179688 C 167.75 161.605469 168.1875 162.714844 167.972656 163.496094 C 167.613281 164.804688 166.058594 165.457031 164.851562 165.777344 C 164.644531 165.832031 164.570312 166.101562 164.625 166.324219 C 165.234375 168.695312 162.675781 170.265625 160.617188 169.09375 C 160.183594 168.847656 159.859375 169.363281 160.058594 169.75 C 160.59375 170.804688 160.507812 171.941406 160.015625 172.808594 C 159.601562 173.539062 158.917969 174.121094 158.0625 174.273438 C 157.101562 174.449219 155.699219 173.65625 155.082031 174.621094 C 154.765625 175.113281 154.859375 175.804688 154.570312 176.324219 C 154.28125 176.835938 153.8125 177.222656 153.253906 177.410156 C 152.125 177.785156 150.742188 177.1875 150.058594 176.117188 C 149.839844 175.777344 149.261719 175.6875 149.164062 176.140625 C 148.890625 177.398438 147.335938 177.957031 146.164062 177.40625 C 144.769531 176.75 144.34375 174.84375 144.902344 173.582031 C 145.058594 173.230469 144.773438 172.75 144.34375 172.851562 C 142.710938 173.230469 140.886719 172.675781 139.71875 171.386719 C 138.601562 170.148438 138.230469 168.292969 138.769531 166.789062 C 138.921875 166.359375 138.464844 165.910156 138.042969 166.15625 C 136.902344 166.820312 135.320312 166.695312 134.25 165.808594 C 133.175781 164.921875 132.773438 163.394531 133.21875 162.15625 C 133.347656 161.796875 132.953125 161.339844 132.566406 161.511719 C 131.488281 161.988281 130.105469 162.285156 128.972656 161.652344 C 128.003906 161.109375 127.46875 159.722656 128.226562 158.875 C 128.585938 158.480469 127.882812 157.882812 127.496094 158.222656 C 126.558594 159.046875 125.085938 159.25 123.921875 158.628906 C 122.726562 157.988281 122.042969 156.570312 122.277344 155.292969 C 122.339844 154.960938 122.054688 154.597656 121.679688 154.6875 C 120.0625 155.082031 118.164062 155.332031 116.605469 154.503906 C 115.402344 153.863281 114.34375 152.375 114.820312 151.027344 C 114.980469 150.578125 114.367188 150.027344 114.011719 150.480469 C 113.261719 151.429688 111.8125 151.773438 110.679688 151.152344 C 109.5625 150.539062 109.082031 149.089844 109.539062 147.984375 C 109.773438 147.414062 108.929688 147.078125 108.632812 147.582031 C 107.742188 149.085938 105.640625 149.816406 103.933594 149.203125 C 102.195312 148.578125 101.078125 146.753906 101.28125 145 C 101.347656 144.433594 100.535156 144.355469 100.324219 144.789062 C 99.800781 145.863281 98.246094 146.347656 97.144531 145.75 C 96.078125 145.171875 95.628906 143.726562 96.195312 142.722656 C 95.914062 142.550781 95.628906 142.378906 95.34375 142.207031 C 94.730469 143.359375 93.632812 144.648438 92.140625 144.644531 C 90.972656 144.640625 89.660156 143.25 90.441406 142.203125 C 90.761719 141.777344 89.988281 141.230469 89.648438 141.636719 C 88.28125 143.285156 85.675781 143.488281 83.65625 143.003906 C 82.011719 142.609375 79.71875 141.378906 80.144531 139.457031 C 80.261719 138.949219 79.347656 138.6875 79.191406 139.1875 C 78.671875 140.863281 76.789062 142.027344 74.941406 141.675781 C 73.046875 141.316406 71.75 139.398438 72.050781 137.644531 C 72.152344 137.050781 71.132812 136.976562 71.039062 137.5625"/></g></g></g></g></g></g><g clip-path="url(#s)"><g clip-path="url(#t)"><g clip-path="url(#u)"><g clip-path="url(#v)"><path fill="#FFF" d="M 193.484375 49.492188 C 191.628906 47.089844 187.574219 47.546875 186.527344 49.527344 C 185.105469 52.21875 186.921875 56.054688 189.9375 56.453125 C 190.867188 56.574219 192.105469 56.617188 192.324219 57.527344 C 192.46875 58.136719 191.996094 58.699219 191.632812 59.207031 C 189.683594 61.945312 190.640625 66.273438 193.558594 67.929688 C 194.554688 68.5 195.824219 68.761719 196.847656 68.246094 C 198.253906 67.542969 198.6875 65.71875 199.910156 64.734375 C 201.652344 66.714844 204.035156 68.902344 206.566406 68.136719 C 208.125 67.664062 209.171875 66.136719 209.570312 64.558594 C 210.175781 62.132812 208.882812 58.945312 206.382812 58.859375 C 208.292969 59.546875 210.636719 58.847656 211.804688 57.183594 C 212.972656 55.519531 212.808594 53.035156 211.386719 51.585938 C 209.96875 50.132812 207.433594 49.929688 205.832031 51.183594 C 207.25 49.484375 208.128906 47.179688 207.59375 45.035156 C 207.0625 42.890625 204.808594 41.144531 202.652344 41.667969 C 200.347656 42.226562 199.246094 44.796875 198.480469 47.039062 C 198.175781 45.882812 197.855469 44.699219 197.15625 43.730469 C 196.453125 42.761719 195.277344 42.042969 194.09375 42.230469 C 192.554688 42.472656 191.460938 43.28125 191.050781 44.785156 C 190.582031 46.515625 193.484375 49.492188 193.484375 49.492188"/></g></g></g></g><g clip-path="url(#w)"><g clip-path="url(#x)"><g clip-path="url(#y)"><g clip-path="url(#z)"><path fill="#100F0D" d="M 193.121094 49.910156 C 193.617188 50.421875 194.335938 49.582031 193.84375 49.078125 C 193.460938 48.683594 193.085938 48.222656 192.722656 47.726562 C 192.246094 47.070312 191.722656 46.308594 191.578125 45.492188 C 191.414062 44.539062 192.164062 43.574219 192.96875 43.152344 C 194.023438 42.59375 195.183594 42.636719 196.109375 43.410156 C 197.230469 44.351562 197.601562 45.867188 197.960938 47.21875 C 198.117188 47.8125 198.867188 47.605469 199.023438 47.148438 C 199.480469 45.808594 200.019531 44.398438 200.984375 43.332031 C 201.75 42.480469 202.84375 41.957031 204 42.179688 C 205.09375 42.390625 206.027344 43.144531 206.601562 44.078125 C 207.933594 46.246094 206.894531 49.023438 205.414062 50.824219 C 205.027344 51.296875 205.628906 52.023438 206.140625 51.636719 C 207.183594 50.851562 208.609375 50.695312 209.816406 51.191406 C 211.023438 51.691406 211.828125 52.792969 211.992188 54.085938 C 212.15625 55.402344 211.714844 56.753906 210.664062 57.605469 C 209.5625 58.503906 207.980469 58.828125 206.625 58.363281 C 206.554688 58.710938 206.484375 59.0625 206.414062 59.410156 C 207.589844 59.472656 208.421875 60.4375 208.820312 61.464844 C 209.664062 63.644531 208.847656 66.871094 206.386719 67.613281 C 204 68.339844 201.773438 66.019531 200.367188 64.421875 C 200.1875 64.21875 199.847656 64.070312 199.597656 64.28125 C 198.972656 64.804688 198.535156 65.457031 198.09375 66.136719 C 197.6875 66.761719 197.242188 67.464844 196.539062 67.785156 C 195.085938 68.453125 193.320312 67.375 192.433594 66.25 C 191.652344 65.257812 191.222656 64.03125 191.171875 62.773438 C 191.117188 61.460938 191.527344 60.316406 192.277344 59.253906 C 192.671875 58.691406 193.039062 58.058594 192.847656 57.347656 C 192.679688 56.726562 192.148438 56.355469 191.5625 56.171875 C 190.964844 55.980469 190.335938 55.988281 189.726562 55.855469 C 189.175781 55.734375 188.667969 55.472656 188.234375 55.113281 C 187.371094 54.398438 186.785156 53.328125 186.632812 52.21875 C 186.496094 51.234375 186.640625 50.011719 187.398438 49.289062 C 188.910156 47.839844 191.777344 48.234375 193.027344 49.804688 C 193.464844 50.355469 194.378906 49.738281 193.941406 49.183594 C 192.234375 47.035156 188.386719 46.515625 186.445312 48.691406 C 185.609375 49.628906 185.363281 51.074219 185.53125 52.285156 C 185.710938 53.589844 186.316406 54.824219 187.273438 55.734375 C 187.738281 56.179688 188.300781 56.539062 188.910156 56.757812 C 189.574219 56.996094 190.261719 57.003906 190.949219 57.148438 C 191.214844 57.207031 191.605469 57.28125 191.746094 57.546875 C 191.894531 57.820312 191.695312 58.148438 191.546875 58.378906 C 191.164062 58.984375 190.738281 59.523438 190.484375 60.210938 C 189.488281 62.878906 190.316406 66.207031 192.609375 67.957031 C 193.910156 68.953125 195.757812 69.5 197.269531 68.640625 C 198.65625 67.855469 199.046875 66.175781 200.222656 65.191406 C 199.964844 65.140625 199.710938 65.09375 199.453125 65.042969 C 200.582031 66.320312 201.828125 67.613281 203.398438 68.339844 C 204.765625 68.972656 206.304688 69.03125 207.632812 68.261719 C 209.019531 67.453125 209.929688 65.839844 210.1875 64.289062 C 210.617188 61.722656 209.265625 58.464844 206.351562 58.308594 C 205.8125 58.28125 205.628906 59.179688 206.140625 59.351562 C 207.671875 59.878906 209.328125 59.722656 210.734375 58.898438 C 213.128906 57.488281 213.828125 54.238281 212.351562 51.917969 C 210.925781 49.679688 207.628906 49.140625 205.519531 50.730469 C 205.765625 51 206.007812 51.273438 206.25 51.542969 C 207.332031 50.226562 208.132812 48.621094 208.277344 46.90625 C 208.398438 45.46875 208.042969 44.015625 207.109375 42.894531 C 206.230469 41.839844 204.988281 41.09375 203.597656 41.03125 C 200.332031 40.875 198.816406 44.371094 197.941406 46.929688 C 198.296875 46.910156 198.648438 46.882812 199.003906 46.863281 C 198.527344 45.0625 197.921875 43.15625 196.222656 42.148438 C 194.960938 41.398438 193.410156 41.578125 192.183594 42.332031 C 191.183594 42.949219 190.34375 44.21875 190.460938 45.429688 C 190.5625 46.5 191.191406 47.5 191.8125 48.347656 C 192.210938 48.894531 192.648438 49.425781 193.121094 49.910156"/></g></g></g></g></svg>