<svg xmlns="http://www.w3.org/2000/svg" width="375" viewBox="0 0 375 375" height="375" version="1.0"><defs><clipPath id="a"><path d="M 56.046875 110.574219 L 317.09375 110.574219 L 317.09375 375 L 56.046875 375 Z M 56.046875 110.574219"/></clipPath><clipPath id="b"><path d="M 56.046875 3.15625 L 317.09375 3.15625 L 317.09375 370 L 56.046875 370 Z M 56.046875 3.15625"/></clipPath></defs><path fill="#ABDF9C" d="M 61.324219 115.03125 C 55.5 110.71875 59.667969 107.53125 64.582031 103.25 C 68.832031 99.546875 74.515625 98.039062 79.984375 96.640625 C 84.988281 95.363281 89.988281 94.078125 94.992188 92.800781 C 100.199219 91.472656 105.40625 90.136719 110.675781 89.074219 C 148.898438 81.347656 186.796875 82.617188 225.046875 90.195312 C 231.964844 91.570312 238.957031 92.996094 245.28125 96.121094 C 251.589844 99.238281 257.257812 104.296875 259.601562 110.9375 C 257.128906 113.097656 254.039062 114.414062 250.972656 115.59375 C 234.089844 122.070312 216.242188 125.546875 198.496094 129 C 192.558594 130.160156 186.601562 131.316406 180.578125 131.925781 C 166.730469 133.320312 152.773438 131.789062 138.941406 130.265625 C 121.714844 128.355469 104.476562 126.449219 87.394531 123.53125 C 78.738281 122.0625 68.566406 120.386719 61.324219 115.03125"/><path fill="#FAC8D2" d="M 70.96875 111.71875 C 71.851562 109.261719 73.207031 106.933594 74.855469 104.992188 C 79.710938 99.292969 86.527344 95.65625 92.109375 90.660156 C 92.558594 90.253906 93.023438 89.8125 93.183594 89.234375 C 93.402344 88.453125 93.035156 87.648438 92.789062 86.882812 C 91.6875 83.414062 93.382812 79.273438 96.601562 77.574219 C 97.582031 77.054688 98.835938 76.53125 98.945312 75.429688 C 99.015625 74.722656 98.550781 74.09375 98.28125 73.4375 C 96.886719 70.046875 100.683594 66.84375 104.09375 65.488281 C 108.570312 63.707031 113.355469 62.703125 118.167969 62.527344 C 116.027344 62.183594 116.101562 59.015625 117.09375 57.085938 C 121.945312 47.617188 133.492188 44.050781 143.929688 41.921875 C 154.355469 39.789062 165.867188 37.609375 172.484375 29.277344 C 175.921875 24.953125 177.546875 19.453125 178.320312 13.996094 C 191.402344 12.417969 205.09375 20 210.679688 31.921875 C 213.160156 37.210938 213.972656 43.917969 210.457031 48.585938 C 213.160156 47.359375 216.523438 48.019531 219.492188 48.171875 C 222.3125 48.316406 225.238281 49.199219 227.140625 51.285156 C 230.824219 55.316406 229.664062 62.46875 233.898438 65.917969 C 234.554688 66.453125 235.3125 66.867188 235.847656 67.519531 C 236.71875 68.574219 236.839844 70.054688 236.742188 71.417969 C 236.554688 73.953125 235.734375 76.433594 234.371094 78.574219 C 236.582031 76.125 241.792969 79.492188 243.289062 82.4375 C 244.792969 85.371094 244.75 88.886719 246.058594 91.914062 C 247.101562 94.3125 248.929688 96.273438 250.207031 98.554688 C 250.871094 99.75 251.367188 101.003906 251.726562 102.304688 C 251.671875 102.378906 251.621094 102.453125 251.574219 102.53125 C 244.554688 113.414062 230.582031 117.019531 217.914062 119.753906 C 210.839844 121.289062 203.757812 122.820312 196.679688 124.34375 C 189.9375 125.800781 183.183594 127.257812 176.3125 127.828125 C 159.386719 129.242188 142.542969 125.230469 125.648438 123.527344 C 108.875 121.828125 91.347656 122.285156 76.027344 115.238281 C 74.144531 114.367188 72.25 113.339844 70.96875 111.71875"/><path fill="#FDECF1" d="M 126.976562 66.972656 C 134.28125 68.453125 141.792969 68.519531 149.25 68.457031 C 152.054688 68.433594 154.867188 68.386719 157.648438 68.003906 C 161.433594 67.480469 165.09375 66.328125 168.847656 65.632812 C 175.921875 64.316406 183.289062 64.613281 190.183594 62.5625 C 194.703125 61.214844 198.929688 58.855469 202.449219 55.71875 C 203.964844 54.363281 205.457031 52.824219 207.019531 51.457031 C 207.003906 51.363281 206.988281 51.269531 206.957031 51.175781 C 194.921875 57.226562 181.929688 61.375 168.605469 63.417969 C 151.574219 66.027344 134.207031 65.199219 117.074219 63.445312 C 117.042969 63.566406 117.019531 63.695312 116.988281 63.820312 C 120.183594 65.238281 123.550781 66.277344 126.976562 66.972656 Z M 196.613281 92.441406 C 201.394531 91.945312 206.183594 91.335938 210.847656 90.171875 C 216.855469 88.679688 222.589844 86.28125 228.304688 83.894531 C 230.800781 82.847656 233.335938 81.789062 235.425781 80.078125 C 236.230469 79.429688 236.960938 78.6875 237.671875 77.917969 C 236.394531 77.566406 235.175781 77.679688 234.371094 78.574219 C 234.464844 78.433594 234.546875 78.28125 234.636719 78.128906 C 233.898438 78.648438 233.164062 79.191406 232.402344 79.671875 C 230.566406 80.828125 228.175781 81.382812 226.058594 80.933594 C 220.882812 79.828125 215.90625 83.007812 211.019531 85.027344 C 202.359375 88.617188 192.6875 88.699219 183.304688 88.722656 C 158.296875 88.796875 133.289062 88.875 108.273438 88.949219 C 137.355469 94.304688 167.207031 95.507812 196.613281 92.441406 Z M 305.996094 45.988281 C 305.367188 52.5625 303.597656 59.863281 297.953125 63.292969 C 295.246094 64.929688 291.988281 65.425781 288.832031 65.386719 C 287.570312 65.367188 286.269531 65.261719 285.132812 64.703125 C 282.832031 63.566406 281.777344 60.886719 281.199219 58.390625 C 280.539062 55.550781 280.214844 52.628906 280.261719 49.714844 C 280.28125 47.558594 280.5 45.363281 279.953125 43.273438 C 279.410156 41.183594 277.882812 39.167969 275.75 38.828125 C 272.523438 38.3125 270.09375 41.570312 268.472656 44.398438 C 260.183594 58.929688 251.867188 73.515625 245.109375 88.796875 C 244.613281 86.628906 244.296875 84.402344 243.289062 82.4375 C 241.792969 79.492188 236.582031 76.125 234.371094 78.574219 C 235.734375 76.433594 236.554688 73.953125 236.742188 71.417969 C 236.839844 70.054688 236.71875 68.574219 235.847656 67.519531 C 235.3125 66.867188 234.554688 66.453125 233.898438 65.917969 C 232.070312 64.429688 231.253906 62.253906 230.613281 59.933594 C 232.378906 55.164062 234.183594 50.40625 236.058594 45.6875 C 238.800781 38.796875 241.710938 31.96875 244.875 25.257812 C 246.621094 21.554688 248.847656 18.132812 251.328125 14.878906 C 262.695312 -0.0351562 277.757812 3.332031 282.199219 3.8125 C 288.847656 4.523438 294.378906 9.046875 299.359375 13.5 C 301.351562 15.285156 303.378906 17.15625 304.546875 19.566406 C 305.539062 21.628906 305.839844 23.953125 306.050781 26.238281 C 306.652344 32.804688 306.636719 39.425781 305.996094 45.988281"/><g clip-path="url(#a)"><path fill="#8AD37E" d="M 303.367188 214.699219 C 301.117188 234.867188 290.476562 253.960938 274.523438 266.515625 C 272.246094 268.308594 269.824219 269.984375 267.109375 270.992188 C 264.507812 271.953125 261.710938 272.261719 258.953125 272.5625 C 255.980469 272.882812 253.003906 273.214844 250.035156 273.539062 C 250.476562 271.839844 250.890625 270.136719 251.269531 268.414062 C 253.078125 260 253.871094 251.402344 254.652344 242.820312 C 255.621094 232.253906 256.582031 221.675781 257.554688 211.097656 C 258.847656 197.035156 259.996094 182.34375 260.621094 167.582031 C 268.175781 166.679688 275.675781 165.195312 283.28125 167.148438 C 291.367188 169.21875 298.808594 174.871094 301.5625 182.734375 C 302.582031 185.648438 302.9375 188.75 303.222656 191.824219 C 303.929688 199.433594 304.214844 207.109375 303.367188 214.699219 Z M 316.570312 186.664062 C 316.230469 181.398438 315.742188 176.035156 313.742188 171.152344 C 312.570312 168.304688 310.914062 165.683594 309.261719 163.074219 C 307.296875 159.972656 305.3125 156.839844 302.785156 154.160156 C 295.605469 146.519531 284.09375 143.246094 273.960938 145.964844 C 270.847656 146.804688 267.890625 148.148438 264.972656 149.53125 C 263.667969 150.148438 262.359375 150.777344 261.070312 151.460938 C 261.261719 137.699219 260.875 124.050781 259.605469 110.9375 C 257.132812 113.097656 254.042969 114.414062 250.972656 115.59375 C 234.09375 122.070312 216.246094 125.546875 198.5 129 C 192.558594 130.160156 186.605469 131.316406 180.582031 131.925781 C 166.734375 133.320312 152.777344 131.789062 138.941406 130.265625 C 121.71875 128.355469 104.480469 126.449219 87.398438 123.53125 C 78.742188 122.0625 68.570312 120.386719 61.324219 115.03125 C 59.21875 113.476562 58.425781 112.0625 58.492188 110.695312 C 57.371094 123.734375 55.878906 147.855469 56.0625 160.949219 C 56.394531 184.835938 59.394531 208.589844 62.390625 232.296875 C 63.507812 241.15625 64.632812 250.054688 67.09375 258.632812 C 69.332031 266.445312 72.65625 273.921875 74.925781 281.726562 C 78.6875 294.675781 79.542969 308.492188 84.867188 320.878906 C 86.582031 324.882812 88.742188 328.675781 90.894531 332.453125 C 99.535156 347.621094 108.277344 362.929688 120.128906 375.753906 C 141.523438 379.96875 163.175781 378.984375 184.921875 377.351562 C 189.589844 377 194.328125 376.632812 198.726562 375.039062 C 214.386719 369.375 220.320312 350.582031 227.945312 335.78125 C 232.0625 327.78125 234.972656 319.234375 237.875 310.722656 C 239.964844 304.578125 242.066406 298.433594 244.15625 292.289062 C 244.183594 292.199219 244.214844 292.109375 244.246094 292.023438 C 245.484375 292.378906 246.816406 292.410156 248.109375 292.386719 C 264.320312 292.078125 280.335938 285.453125 292.011719 274.222656 C 303.304688 263.359375 310.367188 248.644531 313.878906 233.386719 C 317.394531 218.128906 317.5625 202.289062 316.570312 186.664062"/></g><g clip-path="url(#b)"><path fill="#C94B5A" d="M 128.738281 55.519531 C 130.730469 55.519531 130.734375 52.421875 128.738281 52.421875 C 126.746094 52.421875 126.742188 55.519531 128.738281 55.519531 Z M 198.769531 74.910156 C 199.6875 74.910156 200.566406 74.101562 200.53125 73.15625 C 200.484375 72.207031 199.757812 71.40625 198.769531 71.40625 C 197.859375 71.40625 196.980469 72.210938 197.019531 73.15625 C 197.0625 74.105469 197.792969 74.910156 198.769531 74.910156 Z M 102.980469 69.90625 C 104.609375 69.90625 104.609375 67.378906 102.980469 67.378906 C 101.355469 67.378906 101.351562 69.90625 102.980469 69.90625 Z M 104 81.804688 C 105.398438 81.804688 105.402344 79.632812 104 79.632812 C 102.597656 79.632812 102.59375 81.804688 104 81.804688 Z M 128.734375 85.394531 C 129.589844 85.394531 130.40625 84.644531 130.367188 83.765625 C 130.328125 82.878906 129.652344 82.136719 128.734375 82.136719 C 127.882812 82.136719 127.066406 82.886719 127.105469 83.765625 C 127.144531 84.644531 127.820312 85.394531 128.734375 85.394531 Z M 193.332031 20.328125 C 193.386719 20.277344 193.4375 20.226562 193.492188 20.175781 C 193.769531 19.910156 193.769531 19.417969 193.492188 19.148438 C 193.4375 19.101562 193.386719 19.050781 193.332031 19 C 192.753906 18.441406 191.730469 18.84375 191.730469 19.664062 C 191.730469 20.480469 192.753906 20.886719 193.332031 20.328125 Z M 160.589844 44.316406 C 162.113281 44.316406 162.113281 41.957031 160.589844 41.957031 C 159.070312 41.957031 159.070312 44.316406 160.589844 44.316406 Z M 219.558594 112.777344 C 220.289062 112.777344 220.296875 111.632812 219.558594 111.632812 C 218.820312 111.632812 218.820312 112.777344 219.558594 112.777344 Z M 171.890625 128.65625 C 173.304688 128.65625 173.304688 126.457031 171.890625 126.457031 C 170.46875 126.457031 170.46875 128.65625 171.890625 128.65625 Z M 124.21875 119.484375 C 125.738281 119.484375 125.742188 117.117188 124.21875 117.117188 C 122.699219 117.117188 122.695312 119.484375 124.21875 119.484375 Z M 89.199219 117.058594 C 91.089844 117.058594 91.09375 114.121094 89.199219 114.121094 C 87.3125 114.121094 87.308594 117.058594 89.199219 117.058594 Z M 116.539062 100.5 C 117.746094 100.5 117.746094 98.625 116.539062 98.625 C 115.332031 98.625 115.328125 100.5 116.539062 100.5 Z M 101.625 103.183594 C 103.09375 103.183594 103.097656 100.90625 101.625 100.90625 C 100.15625 100.90625 100.15625 103.183594 101.625 103.183594 Z M 173.015625 99.902344 C 174.90625 99.902344 174.910156 96.972656 173.015625 96.972656 C 171.128906 96.972656 171.121094 99.902344 173.015625 99.902344 Z M 222.941406 62.5625 C 224.417969 62.5625 224.417969 60.28125 222.941406 60.28125 C 221.476562 60.28125 221.476562 62.5625 222.941406 62.5625 Z M 219.386719 353.382812 C 202.234375 355.195312 185.085938 356.953125 167.851562 357.449219 C 148.746094 357.996094 129.464844 356.929688 110.789062 352.699219 C 107.609375 351.980469 104.453125 351.167969 101.320312 350.257812 C 105.164062 356.480469 109.226562 362.546875 113.742188 368.265625 C 114.085938 368.289062 114.429688 368.308594 114.769531 368.324219 C 120.199219 368.683594 125.625 369.039062 131.054688 369.390625 C 135.339844 369.667969 139.65625 369.953125 143.941406 369.601562 C 148.820312 369.203125 153.605469 367.988281 158.445312 367.242188 C 165.101562 366.214844 171.851562 366.085938 178.589844 365.957031 C 189.664062 365.75 200.738281 365.539062 211.820312 365.328125 C 214.71875 361.789062 217.152344 357.679688 219.386719 353.382812 Z M 251.273438 290.019531 C 206.453125 294.414062 161.273438 292.628906 116.300781 290.261719 C 103.980469 289.617188 91.246094 288.675781 79.8125 283.652344 C 78.203125 282.945312 76.503906 282.15625 74.917969 281.710938 C 74.921875 281.710938 74.921875 281.726562 74.921875 281.726562 C 76.492188 287.121094 77.554688 292.65625 78.644531 298.1875 C 90.84375 301.820312 103.078125 305.40625 115.554688 307.929688 C 123.128906 309.460938 130.777344 310.597656 138.421875 311.730469 C 148.527344 313.226562 158.679688 314.726562 168.898438 314.847656 C 183.730469 315.011719 198.4375 312.257812 213.023438 309.523438 C 222.019531 307.832031 231.019531 306.132812 240.019531 304.445312 C 241.394531 300.394531 242.777344 296.339844 244.152344 292.289062 C 244.183594 292.199219 244.214844 292.109375 244.242188 292.027344 C 245.484375 292.378906 246.816406 292.410156 248.109375 292.386719 C 257.003906 292.214844 265.835938 290.132812 273.929688 286.445312 C 266.535156 288.324219 258.882812 289.269531 251.273438 290.019531 Z M 317.070312 199.808594 C 312.761719 202.371094 308.347656 204.769531 303.859375 207 C 303.800781 209.574219 303.65625 212.144531 303.363281 214.699219 C 303.085938 217.207031 302.679688 219.695312 302.144531 222.160156 C 306.90625 220.574219 311.65625 218.964844 316.410156 217.351562 C 316.957031 211.527344 317.140625 205.667969 317.070312 199.808594 Z M 255.160156 237.289062 C 255.574219 232.726562 255.996094 228.167969 256.410156 223.609375 C 238.980469 227.386719 221.0625 228.898438 203.25 227.964844 C 192.476562 227.402344 181.769531 225.972656 171.011719 225.320312 C 145.980469 223.796875 120.972656 226.359375 95.953125 226.628906 C 84.4375 226.753906 72.886719 226.394531 61.457031 224.898438 C 61.765625 227.363281 62.074219 229.828125 62.386719 232.300781 C 62.949219 236.738281 63.511719 241.199219 64.246094 245.617188 C 67.355469 245.796875 70.484375 245.835938 73.554688 245.859375 C 93.445312 245.972656 113.335938 246.082031 133.226562 246.195312 C 140.039062 246.234375 146.875 246.273438 153.632812 247.144531 C 159.0625 247.847656 164.410156 249.082031 169.820312 249.890625 C 176.476562 250.882812 183.21875 251.230469 189.941406 251.042969 C 211.46875 250.425781 232.425781 244.320312 252.996094 237.972656 C 253.71875 237.746094 254.4375 237.511719 255.160156 237.289062 Z M 257.460938 170.820312 C 258.46875 170.550781 259.484375 170.273438 260.507812 169.988281 C 260.542969 169.183594 260.589844 168.386719 260.621094 167.585938 C 264.4375 167.132812 268.234375 166.523438 272.046875 166.292969 C 281.816406 162.648438 290.875 157.578125 297.046875 149.511719 C 290.242188 145.320312 281.703125 143.890625 273.957031 145.964844 C 270.84375 146.804688 267.890625 148.152344 264.972656 149.535156 C 263.664062 150.148438 262.355469 150.78125 261.070312 151.464844 C 261.078125 151.171875 261.078125 150.871094 261.078125 150.585938 C 254.808594 154.128906 248.144531 157.039062 241.339844 159.335938 C 223.136719 165.480469 203.808594 167.546875 184.617188 168.410156 C 142.054688 170.328125 99.242188 166.503906 57.699219 157.058594 C 57.160156 156.941406 56.609375 156.8125 56.054688 156.675781 C 56.042969 158.195312 56.042969 159.628906 56.0625 160.953125 C 56.171875 168.882812 56.582031 176.808594 57.183594 184.71875 C 63.757812 186.140625 70.574219 186.882812 77.1875 187.402344 C 137.640625 192.125 198.886719 186.492188 257.460938 170.820312 Z M 186.121094 53.34375 C 186.972656 53.34375 187.792969 52.59375 187.746094 51.714844 C 187.710938 50.832031 187.03125 50.085938 186.121094 50.085938 C 185.265625 50.085938 184.445312 50.835938 184.492188 51.714844 C 184.527344 52.59375 185.207031 53.34375 186.121094 53.34375 Z M 105.273438 121.894531 C 107.445312 120.566406 109.664062 119.304688 111.933594 118.15625 C 120.160156 113.957031 128.984375 110.921875 138.050781 109.183594 C 143.121094 108.214844 148.261719 107.652344 153.421875 107.511719 C 163.667969 107.230469 173.960938 108.59375 184.164062 107.578125 C 188.578125 107.132812 193.007812 106.234375 196.976562 104.242188 C 199.550781 102.941406 201.886719 101.199219 204.03125 99.269531 C 207.105469 96.492188 209.804688 93.289062 212.023438 89.78125 C 205.414062 93.523438 198.707031 97.300781 191.347656 99.179688 C 177.40625 102.734375 162.757812 99.121094 148.367188 98.984375 C 139.066406 98.894531 129.761719 100.285156 120.851562 102.941406 C 116.757812 104.167969 112.695312 105.675781 109.195312 108.117188 C 106.3125 110.125 103.886719 112.707031 101.511719 115.300781 C 99.828125 117.140625 98.082031 118.988281 96.363281 120.867188 C 99.308594 121.292969 102.28125 121.625 105.273438 121.894531 Z M 91.898438 93.042969 C 90.917969 93.101562 89.929688 93.164062 88.949219 93.261719 C 84.101562 97.039062 78.824219 100.328125 74.851562 104.992188 C 73.234375 106.894531 71.90625 109.171875 71.019531 111.566406 C 73.023438 109.15625 75.398438 107.03125 77.992188 105.257812 C 82.804688 101.964844 88.296875 99.78125 93.886719 98.128906 C 103 95.429688 112.445312 94.085938 121.847656 92.742188 C 111.894531 91.863281 101.875 92.457031 91.898438 93.042969 Z M 230.863281 116.433594 C 232.546875 113.984375 234.300781 111.574219 235.8125 109.011719 C 238 105.308594 239.683594 101.164062 239.644531 96.867188 C 239.628906 94.402344 238.96875 91.871094 237.652344 89.765625 C 237.324219 89.242188 236.472656 87.6875 235.601562 87.902344 C 234.527344 88.183594 235.164062 89.363281 235.277344 90.292969 C 235.886719 95.417969 234.832031 100.75 232.226562 105.210938 C 229.714844 109.5 225.9375 112.894531 222.910156 116.832031 C 222.367188 117.53125 221.863281 118.253906 221.375 118.980469 C 224.546875 118.253906 227.75 117.433594 230.863281 116.433594 Z M 147.066406 126.335938 C 149.066406 126.027344 151.074219 125.800781 153.050781 125.582031 C 173.292969 123.308594 193.660156 119.347656 211.847656 110.175781 C 214.148438 109.019531 216.433594 107.757812 218.316406 106 C 220.105469 104.332031 221.464844 102.273438 222.636719 100.140625 C 224.359375 97.023438 225.722656 93.703125 226.683594 90.269531 C 226.9375 89.339844 227.667969 86.777344 226.066406 87.738281 C 225.308594 88.191406 224.425781 90.910156 223.910156 91.726562 C 220.609375 96.949219 215.960938 101.238281 210.789062 104.574219 C 207.820312 106.480469 204.660156 108.097656 201.390625 109.410156 C 190.132812 113.941406 177.894531 115.300781 165.855469 116.878906 C 154.914062 118.3125 143.804688 120.046875 133.742188 124.488281 C 138.1875 125.082031 142.628906 125.742188 147.066406 126.335938 Z M 228.945312 80.972656 C 230.179688 80.769531 231.375 80.316406 232.398438 79.671875 C 233.15625 79.191406 233.886719 78.648438 234.628906 78.132812 C 234.855469 77.75 235.066406 77.359375 235.261719 76.960938 C 233.96875 77.121094 232.675781 77.21875 231.375 77.167969 C 228.375 77.054688 225.449219 76.207031 222.570312 75.359375 C 219.367188 74.425781 216.148438 73.480469 213.113281 72.089844 C 205.992188 68.824219 199.734375 63.050781 191.929688 62.316406 C 190.164062 62.148438 188.382812 62.253906 186.628906 62.480469 C 184.910156 62.703125 183.195312 63.035156 181.523438 63.503906 C 180.398438 63.816406 177.285156 64.363281 176.910156 65.554688 C 181.328125 65.757812 185.765625 65.320312 190.203125 65.601562 C 192.214844 65.730469 194.253906 65.945312 196.125 66.695312 C 197.855469 67.382812 199.382812 68.496094 200.917969 69.554688 C 209.292969 75.332031 218.917969 79.785156 228.945312 80.972656 Z M 169.472656 76.65625 C 170.808594 77.691406 171.9375 78.964844 173.164062 80.128906 C 177.742188 84.457031 191.195312 87.03125 197.464844 87.632812 C 198.617188 87.746094 199.773438 87.777344 200.921875 87.761719 C 204.382812 87.21875 207.773438 86.371094 211.015625 85.027344 C 211.140625 84.976562 211.269531 84.921875 211.390625 84.871094 C 202.417969 84.589844 186.824219 82.796875 180.164062 77.5625 C 177.839844 75.742188 175.796875 73.539062 173.214844 72.101562 C 171.796875 71.304688 170.246094 70.765625 168.691406 70.28125 C 165.285156 69.21875 161.773438 68.410156 158.207031 68.28125 C 155.757812 68.191406 153.304688 68.429688 150.863281 68.539062 C 149.636719 68.59375 144.832031 67.847656 144.214844 68.65625 C 147.523438 71.371094 152.847656 71.769531 156.90625 72.40625 C 161.277344 73.097656 165.886719 73.867188 169.472656 76.65625 Z M 129.148438 76.523438 C 134.523438 80.121094 141.390625 80.46875 147.425781 82.796875 C 150.945312 84.148438 154.1875 86.214844 156.929688 88.804688 C 159.457031 88.789062 161.984375 88.789062 164.507812 88.777344 C 160.96875 85.492188 157.261719 82.390625 153.390625 79.5 C 152.261719 78.648438 151.105469 77.816406 149.804688 77.265625 C 148.554688 76.734375 147.207031 76.480469 145.863281 76.25 C 141.703125 75.535156 137.503906 75.027344 133.285156 74.722656 C 132.117188 74.636719 130.878906 74.554688 129.914062 73.890625 C 129.414062 73.550781 129.019531 73.078125 128.636719 72.613281 C 127.957031 71.796875 127.3125 70.875 126.539062 70.160156 C 125.324219 71.039062 126.328125 72.46875 126.339844 73.574219 C 126.921875 74.816406 128.007812 75.757812 129.148438 76.523438 Z M 111.824219 76.050781 C 113.792969 77.746094 115.980469 79.453125 116.785156 81.925781 C 117.257812 83.398438 117.1875 84.988281 117.585938 86.484375 C 117.816406 87.355469 118.21875 88.167969 118.722656 88.910156 C 121.367188 88.902344 124.011719 88.894531 126.65625 88.886719 C 124.847656 87.273438 123.363281 85.273438 122.835938 82.929688 C 122.335938 80.714844 122.679688 78.25 121.515625 76.300781 C 120.414062 74.453125 118.265625 73.574219 116.382812 72.539062 C 114.5 71.5 112.578125 69.851562 112.625 67.703125 C 112.640625 66.820312 113.128906 66.148438 113.398438 65.375 C 112.320312 65.628906 111.210938 66.28125 110.367188 67.007812 C 109.328125 67.902344 108.546875 69.171875 108.492188 70.539062 C 108.402344 72.761719 110.132812 74.601562 111.824219 76.054688 Z M 195.875 31.359375 C 196.726562 33.992188 196.871094 36.8125 196.71875 39.574219 C 196.351562 46.039062 194.320312 52.394531 190.90625 57.898438 C 192.863281 57.226562 194.800781 56.515625 196.726562 55.75 C 198.476562 52.242188 200.476562 48.808594 200.929688 44.949219 C 201.261719 42.066406 200.6875 39.167969 200.117188 36.324219 C 199.597656 33.714844 198.988281 30.945312 197.109375 29.054688 C 195.667969 27.59375 193.679688 26.777344 192.085938 25.492188 C 193.875 27.058594 195.148438 29.105469 195.875 31.359375 Z M 164.621094 64.046875 C 165.757812 62.183594 167.011719 60.378906 168.269531 58.59375 C 169.898438 56.265625 171.539062 53.9375 173.34375 51.746094 C 175.898438 48.644531 178.792969 45.828125 181.199219 42.609375 C 183.597656 39.390625 185.53125 35.65625 185.773438 31.644531 C 185.972656 28.085938 184.492188 23.207031 180.996094 21.59375 C 182.554688 27.183594 181.269531 32.378906 178.546875 37.417969 C 173.765625 46.273438 166.441406 53.457031 159.019531 60.261719 C 157.574219 61.59375 156.035156 63.140625 155.253906 64.882812 C 158.386719 64.703125 161.507812 64.425781 164.621094 64.046875 Z M 133.296875 64.742188 C 136.070312 61.320312 139.875 58.777344 143.484375 56.183594 C 147.125 53.574219 152.304688 49.9375 153.539062 45.375 C 152.425781 45.296875 150.320312 47.628906 149.273438 48.332031 C 147.652344 49.410156 145.929688 50.339844 144.132812 51.097656 C 141.679688 52.136719 139.09375 52.859375 136.734375 54.085938 C 133.847656 55.589844 131.351562 57.832031 129.550781 60.546875 C 128.765625 61.730469 128.109375 63.019531 127.765625 64.390625 C 129.605469 64.523438 131.449219 64.648438 133.296875 64.742188 Z M 305.992188 45.988281 C 306.621094 39.519531 306.636719 32.996094 306.066406 26.519531 C 305.839844 26.640625 305.613281 26.757812 305.398438 26.867188 C 301.351562 28.972656 297.53125 31.476562 293.839844 34.152344 C 289.667969 37.183594 285.675781 40.449219 281.691406 43.71875 C 281.199219 44.117188 280.71875 44.519531 280.238281 44.929688 C 280.390625 46.511719 280.269531 48.125 280.253906 49.714844 C 280.207031 52.628906 280.53125 55.550781 281.195312 58.390625 C 281.773438 60.886719 282.824219 63.566406 285.125 64.703125 C 286.261719 65.261719 287.5625 65.367188 288.824219 65.386719 C 288.898438 65.386719 288.976562 65.382812 289.058594 65.382812 C 291.285156 63.191406 293.3125 60.796875 295.605469 58.667969 C 298.433594 56.046875 301.628906 53.894531 305.019531 52.054688 C 305.503906 50.050781 305.800781 47.988281 305.992188 45.988281 Z M 274.832031 3.15625 C 268.207031 3.105469 258.9375 4.890625 251.320312 14.878906 C 250.507812 15.945312 249.742188 17.035156 248.988281 18.132812 C 249.492188 20.464844 250.09375 22.792969 250.492188 25.050781 C 252.089844 33.855469 253.578125 42.730469 256.394531 51.242188 C 257.164062 53.542969 258.019531 55.816406 258.996094 58.03125 C 259.179688 58.433594 259.507812 58.976562 259.886719 59.589844 C 262.703125 54.503906 265.585938 49.445312 268.464844 44.398438 C 269.992188 41.730469 272.246094 38.6875 275.199219 38.777344 C 273.480469 27.042969 274.523438 15.050781 274.832031 3.15625 Z M 230.605469 59.933594 C 232.375 55.164062 234.179688 50.410156 236.050781 45.691406 C 237.011719 48.878906 238.125 52.035156 239.351562 55.226562 C 241.277344 60.238281 243.199219 65.25 245.125 70.261719 C 246.351562 73.457031 247.613281 76.691406 249.375 79.605469 C 247.890625 82.644531 246.472656 85.710938 245.101562 88.804688 C 244.605469 86.632812 244.289062 84.402344 243.285156 82.4375 C 241.785156 79.492188 236.578125 76.125 234.367188 78.574219 C 235.726562 76.433594 236.546875 73.953125 236.734375 71.417969 C 236.832031 70.054688 236.710938 68.574219 235.839844 67.519531 C 235.304688 66.867188 234.546875 66.453125 233.890625 65.917969 C 232.066406 64.429688 231.246094 62.253906 230.605469 59.933594"/></g></svg>