<svg xmlns="http://www.w3.org/2000/svg" width="375" viewBox="0 0 375 375" height="375" version="1.0"><defs><clipPath id="a"><path d="M 4.464844 68 L 369.414062 68 L 369.414062 374.808594 L 4.464844 374.808594 Z M 4.464844 68"/></clipPath><clipPath id="b"><path d="M 0 66.136719 L 375 66.136719 L 375 375 L 0 375 Z M 0 66.136719"/></clipPath></defs><path fill="#58A856" d="M 220.382812 90.597656 C 234.167969 91.199219 247.84375 94.1875 260.621094 99.398438 C 265.855469 101.535156 271.070312 104.132812 274.882812 108.308594 C 279.042969 107.332031 283.191406 109.363281 286.117188 112.484375 C 289.039062 115.601562 290.785156 119.617188 292.5 123.535156 C 302.863281 147.195312 314.171875 170.441406 326.390625 193.199219 C 328.3125 196.78125 330.261719 200.359375 331.78125 204.132812 C 333.019531 207.203125 333.964844 210.386719 334.90625 213.566406 C 337.726562 223.074219 342.421875 232.347656 346 241.597656 C 351.171875 254.933594 356.339844 268.269531 361.511719 281.601562 C 364.792969 290.066406 368.125 299.1875 366.003906 308.015625 C 365.726562 309.167969 365.347656 310.320312 364.628906 311.269531 C 363.699219 312.496094 362.292969 313.25 360.980469 314.050781 C 354.089844 318.234375 348.632812 324.445312 341.867188 328.832031 C 335.101562 333.214844 325.914062 335.523438 319.128906 331.167969 C 317.167969 329.90625 315.550781 328.179688 314.113281 326.34375 C 308.5 319.183594 305.429688 310.402344 302.457031 301.800781 C 292.796875 273.851562 283.132812 245.902344 273.472656 217.953125 C 269.027344 205.089844 264.25 193.550781 258.453125 181.238281 C 261.398438 209.390625 264.085938 237.570312 266.515625 265.773438 C 266.796875 269.039062 267.078125 272.304688 267.355469 275.570312 C 268.554688 289.667969 269.753906 303.757812 270.953125 317.855469 C 271.71875 326.875 271.875 337.121094 266.785156 344.609375 C 263.515625 349.429688 257.25 351.378906 251.421875 351.34375 C 245.597656 351.304688 239.925781 349.636719 234.164062 348.761719 C 229.023438 347.980469 223.804688 347.835938 218.605469 347.691406 C 213.117188 347.539062 207.625 347.382812 202.136719 347.226562 C 196.902344 347.082031 191.664062 346.933594 186.4375 347.175781 C 167.542969 348.046875 148.925781 353.957031 130.0625 352.621094 C 124.816406 352.25 119.625 351.320312 114.445312 350.390625 C 110.910156 349.761719 107.25 349.859375 103.71875 349.226562 C 98.949219 344.53125 96.484375 337.894531 95.625 331.257812 C 94.765625 324.621094 95.367188 317.894531 95.921875 311.222656 C 99.480469 268.464844 101.097656 225.320312 100.628906 182.414062 C 87.445312 224.269531 75.402344 266.484375 64.511719 308.992188 C 62.582031 316.539062 60.59375 324.285156 56.078125 330.628906 C 53.699219 333.96875 50.289062 337 46.191406 337.242188 C 43.921875 337.375 41.703125 336.636719 39.550781 335.90625 C 33.707031 333.921875 27.863281 331.9375 22.023438 329.953125 C 15.464844 327.726562 8.21875 324.898438 5.351562 318.589844 C 3.292969 314.066406 4.042969 308.820312 4.828125 303.910156 C 5.917969 297.125 7.003906 290.339844 8.394531 283.609375 C 16.867188 242.550781 36.253906 204.6875 49.933594 165.058594 C 53.523438 154.664062 56.769531 144.03125 62.351562 134.554688 C 67.933594 125.074219 77.335938 116.15625 87.875 113.027344 C 90.097656 107.808594 95.5625 104.84375 100.757812 102.585938 C 110.953125 98.160156 121.644531 94.894531 132.570312 92.871094 C 134.96875 98.664062 141.199219 101.789062 147.210938 103.566406 C 161.332031 107.734375 176.273438 109.101562 190.917969 107.558594 C 196.71875 106.945312 202.554688 105.859375 207.8125 103.332031 C 213.070312 100.800781 218.097656 95.964844 220.382812 90.597656"/><g clip-path="url(#a)"><path fill="#FDE6EB" d="M 368.953125 331.492188 L 366.894531 326.429688 C 365.179688 322.210938 363.402344 317.851562 360.5625 314.203125 L 361.007812 313.859375 C 363.894531 317.570312 365.683594 321.96875 367.414062 326.21875 L 368.828125 329.691406 L 368.859375 329.640625 C 369.300781 329.894531 369.480469 330.515625 369.238281 330.964844 Z M 361.808594 335.582031 L 354.367188 321.832031 C 354.03125 321.203125 353.605469 320.425781 352.925781 320.066406 L 353.183594 319.570312 C 354.019531 320.007812 354.484375 320.871094 354.859375 321.566406 L 362.300781 335.316406 Z M 353.886719 341.085938 C 352.777344 339.363281 351.949219 337.460938 351.15625 335.617188 C 350.703125 334.582031 350.238281 333.507812 349.730469 332.484375 C 348.585938 330.1875 347.167969 328.027344 345.511719 326.066406 L 345.941406 325.707031 C 347.625 327.703125 349.070312 329.894531 350.230469 332.234375 C 350.75 333.273438 351.214844 334.351562 351.667969 335.398438 C 352.453125 337.21875 353.269531 339.097656 354.355469 340.777344 Z M 346.871094 346.167969 C 343.589844 341.710938 339.867188 336.664062 338.820312 330.761719 L 339.375 330.660156 C 340.394531 336.4375 344.078125 341.433594 347.324219 345.835938 Z M 337.851562 350.203125 C 337.847656 350.203125 337.839844 350.203125 337.835938 350.203125 C 337.546875 350.191406 337.265625 349.929688 337.136719 349.683594 L 332.816406 341.386719 C 332.238281 340.273438 331.652344 339.140625 331.230469 337.949219 C 330.652344 336.300781 330.429688 334.613281 330.582031 333.054688 L 331.140625 333.109375 C 330.996094 334.585938 331.207031 336.195312 331.761719 337.761719 C 332.167969 338.914062 332.75 340.03125 333.308594 341.109375 L 337.636719 349.421875 C 337.695312 349.542969 337.816406 349.632812 337.859375 349.640625 C 337.835938 349.640625 337.789062 349.65625 337.773438 349.683594 L 338.25 349.976562 C 338.160156 350.121094 338.015625 350.203125 337.851562 350.203125 Z M 139.085938 374.078125 L 138.316406 366.597656 C 137.839844 361.957031 137.34375 357.160156 138.386719 352.480469 L 138.933594 352.605469 C 137.910156 357.191406 138.402344 361.941406 138.875 366.539062 L 139.644531 374.023438 Z M 155.574219 374.445312 C 155.035156 369.925781 154.695312 365.328125 154.554688 360.777344 C 154.457031 357.609375 154.449219 354.246094 155.449219 351.050781 L 155.984375 351.21875 C 155.007812 354.332031 155.019531 357.640625 155.113281 360.757812 C 155.253906 365.292969 155.597656 369.878906 156.132812 374.382812 Z M 172.121094 374.511719 C 171.359375 365.851562 171.472656 357.078125 172.457031 348.4375 L 173.011719 348.5 C 172.035156 357.105469 171.921875 365.839844 172.675781 374.464844 Z M 256.03125 371.003906 L 255.476562 370.90625 C 256.214844 366.816406 256.515625 362.640625 256.375 358.492188 C 256.347656 357.695312 256.308594 356.855469 256.113281 356.03125 C 255.828125 354.800781 255.230469 352.246094 254.433594 350.921875 L 254.910156 350.632812 C 255.757812 352.027344 256.367188 354.648438 256.660156 355.90625 C 256.867188 356.777344 256.910156 357.6875 256.933594 358.472656 C 257.078125 362.660156 256.773438 366.875 256.03125 371.003906 Z M 244.421875 370.519531 L 243.871094 370.402344 C 245.382812 363.5 245.382812 356.136719 243.875 350.199219 L 244.417969 350.058594 C 245.945312 356.078125 245.949219 363.535156 244.421875 370.519531 Z M 230.695312 371.167969 L 230.152344 371.035156 C 230.519531 369.703125 230.902344 368.351562 231.207031 367.007812 C 232.546875 361.179688 232.699219 354.988281 231.644531 349.105469 L 232.195312 349.007812 C 233.261719 354.964844 233.109375 361.230469 231.753906 367.132812 C 231.445312 368.488281 231.066406 369.847656 230.695312 371.167969 Z M 217.5 371.433594 L 216.949219 371.347656 C 218.144531 363.632812 217.976562 355.835938 216.460938 348.175781 L 217.011719 348.070312 C 218.542969 355.792969 218.703125 363.652344 217.5 371.433594 Z M 204.542969 373.09375 L 203.988281 373.042969 C 204.722656 364.949219 205.5625 355.777344 202.972656 347.476562 L 203.511719 347.304688 C 206.132812 355.71875 205.289062 364.949219 204.542969 373.09375 Z M 188.757812 374.808594 L 188.199219 374.753906 C 189.046875 365.644531 189.476562 356.382812 189.480469 347.234375 L 190.042969 347.234375 C 190.039062 356.402344 189.605469 365.675781 188.757812 374.808594 Z M 124.234375 373.941406 C 123.53125 369.25 123.144531 364.464844 123.089844 359.71875 C 123.058594 357.292969 123.121094 354.5 124.214844 352.0625 L 124.726562 352.296875 C 123.679688 354.625 123.625 357.34375 123.648438 359.710938 C 123.707031 364.433594 124.089844 369.191406 124.785156 373.859375 Z M 111.710938 373.242188 C 110.800781 367.664062 110.371094 361.972656 110.425781 356.324219 C 110.445312 354.285156 110.578125 351.960938 111.867188 350.21875 L 112.316406 350.554688 C 111.125 352.160156 111.007812 354.378906 110.984375 356.332031 C 110.929688 361.945312 111.359375 367.605469 112.261719 373.152344 Z M 38.0625 351.667969 L 37.53125 351.496094 C 37.84375 350.53125 38.1875 349.605469 38.523438 348.71875 C 38.855469 347.828125 39.203125 346.914062 39.507812 345.957031 C 40.433594 343.09375 41.480469 339.851562 40.902344 336.695312 L 41.453125 336.59375 C 42.058594 339.890625 40.988281 343.203125 40.042969 346.128906 C 39.730469 347.097656 39.382812 348.023438 39.050781 348.914062 C 38.71875 349.800781 38.371094 350.714844 38.0625 351.667969 Z M 31.378906 349.171875 L 30.871094 348.9375 C 33.074219 344.246094 35 339.609375 34.363281 334.414062 L 34.917969 334.34375 C 35.574219 339.683594 33.527344 344.597656 31.378906 349.171875 Z M 22.292969 346.875 L 21.773438 346.664062 C 23.789062 341.726562 25.230469 336.558594 26.054688 331.296875 L 26.609375 331.382812 C 25.777344 336.6875 24.324219 341.898438 22.292969 346.875 Z M 13.351562 343.484375 L 12.800781 343.394531 C 13.601562 338.347656 14.507812 332.625 17.917969 328.25 L 18.363281 328.597656 C 15.039062 332.855469 14.144531 338.503906 13.351562 343.484375 Z M 5.316406 339.042969 L 4.757812 339.003906 C 4.816406 338.1875 5.019531 337.394531 5.21875 336.628906 L 6.722656 330.820312 C 6.964844 329.882812 7.21875 328.914062 7.660156 328.019531 C 8.34375 326.632812 9.472656 325.472656 10.84375 324.753906 L 11.105469 325.253906 C 9.835938 325.914062 8.792969 326.984375 8.160156 328.269531 C 7.746094 329.113281 7.5 330.050781 7.265625 330.960938 L 5.761719 336.765625 C 5.570312 337.507812 5.371094 338.277344 5.316406 339.042969 Z M 359.902344 294.382812 C 358.976562 294.382812 358.292969 293.628906 358.253906 292.734375 C 358.210938 291.839844 359.039062 291.085938 359.902344 291.085938 C 360.828125 291.085938 361.511719 291.839844 361.550781 292.734375 C 361.589844 293.625 360.761719 294.382812 359.902344 294.382812 Z M 304.648438 295.113281 C 303.699219 295.113281 303.703125 293.636719 304.648438 293.636719 C 305.59375 293.636719 305.59375 295.113281 304.648438 295.113281 Z M 325.589844 292.824219 C 324.898438 292.824219 324.390625 292.261719 324.359375 291.597656 C 324.332031 290.933594 324.945312 290.367188 325.589844 290.367188 C 326.273438 290.367188 326.785156 290.933594 326.816406 291.597656 C 326.84375 292.257812 326.230469 292.824219 325.589844 292.824219 Z M 344.636719 279.59375 C 343.191406 279.59375 343.195312 277.347656 344.636719 277.347656 C 346.082031 277.347656 346.082031 279.59375 344.636719 279.59375 Z M 325.90625 328.34375 C 324.59375 328.34375 324.597656 326.308594 325.90625 326.308594 C 327.21875 326.308594 327.214844 328.34375 325.90625 328.34375 Z M 345.890625 307.6875 C 344.808594 307.6875 344.808594 306.003906 345.890625 306.003906 C 346.976562 306.003906 346.972656 307.6875 345.890625 307.6875 Z M 315.890625 304.382812 C 315.160156 304.382812 314.617188 303.78125 314.585938 303.074219 C 314.554688 302.371094 315.207031 301.769531 315.890625 301.769531 C 316.621094 301.769531 317.167969 302.367188 317.199219 303.074219 C 317.230469 303.78125 316.574219 304.382812 315.890625 304.382812 Z M 326.394531 314.367188 C 325.085938 314.367188 325.085938 312.332031 326.394531 312.332031 C 327.707031 312.332031 327.703125 314.367188 326.394531 314.367188 Z M 343.289062 318.71875 C 342.027344 318.71875 342.027344 316.753906 343.289062 316.753906 C 344.554688 316.753906 344.554688 318.71875 343.289062 318.71875 Z M 357.621094 302.765625 C 356.863281 301.714844 357.890625 300.277344 359.050781 300.277344 C 360.207031 300.277344 361.238281 301.714844 360.480469 302.765625 C 360.113281 303.273438 359.695312 303.609375 359.050781 303.632812 C 358.425781 303.664062 357.964844 303.234375 357.621094 302.765625 Z M 350.960938 288.347656 C 350.613281 288.949219 349.65625 288.683594 349.65625 287.992188 C 349.65625 287.296875 350.613281 287.035156 350.960938 287.636719 C 350.984375 287.671875 351.007812 287.707031 351.027344 287.742188 C 351.113281 287.894531 351.113281 288.089844 351.027344 288.242188 C 351.007812 288.277344 350.984375 288.3125 350.960938 288.347656 Z M 337.628906 297.320312 C 336.988281 297.78125 336.101562 297.160156 336.101562 296.445312 C 336.101562 295.726562 336.988281 295.101562 337.628906 295.566406 C 337.648438 295.578125 337.671875 295.59375 337.6875 295.605469 C 338.308594 296.046875 338.308594 296.839844 337.6875 297.28125 C 337.671875 297.292969 337.648438 297.308594 337.628906 297.320312 Z M 100.683594 321.492188 C 99.785156 321.773438 98.863281 321.015625 98.863281 320.109375 C 98.863281 319.203125 99.785156 318.441406 100.683594 318.722656 C 100.710938 318.730469 100.734375 318.738281 100.761719 318.746094 C 102.101562 319.164062 102.101562 321.050781 100.761719 321.46875 C 100.734375 321.480469 100.710938 321.488281 100.683594 321.492188 Z M 199.21875 342.839844 C 198.945312 342.839844 198.945312 342.417969 199.21875 342.417969 C 199.488281 342.417969 199.488281 342.839844 199.21875 342.839844 Z M 257.375 342.699219 C 255.746094 342.699219 255.75 340.175781 257.375 340.175781 C 259 340.175781 258.996094 342.699219 257.375 342.699219 Z M 265.296875 314.246094 C 264.488281 314.726562 263.296875 314.289062 263.082031 313.34375 C 262.902344 312.542969 263.328125 311.710938 264.136719 311.488281 C 265.011719 311.246094 265.898438 311.851562 266.019531 312.742188 C 266.097656 313.355469 265.828125 313.929688 265.296875 314.246094 Z M 249.363281 312.308594 C 248.664062 312.261719 248.117188 311.640625 248.316406 310.933594 C 248.496094 310.28125 249.316406 309.898438 249.910156 310.28125 C 249.984375 310.328125 250.058594 310.378906 250.132812 310.425781 C 250.515625 310.671875 250.726562 311.128906 250.601562 311.578125 C 250.488281 311.988281 250.058594 312.359375 249.617188 312.324219 C 249.53125 312.320312 249.449219 312.3125 249.363281 312.308594 Z M 244.410156 328.375 C 242.332031 328.375 242.335938 325.148438 244.410156 325.148438 C 246.492188 325.148438 246.484375 328.375 244.410156 328.375 Z M 260.957031 330.625 C 259.054688 330.625 259.058594 327.679688 260.957031 327.679688 C 262.855469 327.679688 262.851562 330.625 260.957031 330.625 Z M 240.671875 342.066406 C 239.570312 342.800781 238.089844 341.828125 238.089844 340.585938 C 238.089844 339.339844 239.570312 338.363281 240.671875 339.097656 C 240.703125 339.117188 240.726562 339.132812 240.757812 339.15625 C 241.820312 339.867188 241.820312 341.304688 240.757812 342.011719 C 240.726562 342.03125 240.703125 342.046875 240.671875 342.066406 Z M 232.984375 314.214844 C 232.082031 314.214844 231.414062 313.472656 231.371094 312.601562 C 231.332031 311.730469 232.144531 310.988281 232.984375 310.988281 C 233.890625 310.988281 234.558594 311.726562 234.597656 312.601562 C 234.636719 313.472656 233.828125 314.214844 232.984375 314.214844 Z M 220.171875 322.730469 C 219.863281 321.835938 221.546875 321.839844 221.242188 322.730469 C 221.230469 322.757812 221.222656 322.78125 221.210938 322.808594 C 221.042969 323.304688 220.371094 323.304688 220.199219 322.808594 C 220.1875 322.78125 220.179688 322.757812 220.171875 322.730469 Z M 212.347656 337.003906 C 211.582031 337.003906 211.015625 336.375 210.980469 335.636719 C 210.949219 334.898438 211.632812 334.269531 212.347656 334.269531 C 213.117188 334.269531 213.683594 334.894531 213.714844 335.636719 C 213.75 336.375 213.0625 337.003906 212.347656 337.003906 Z M 201.777344 324.535156 C 200.632812 324.535156 199.792969 323.597656 199.742188 322.5 C 199.691406 321.398438 200.710938 320.460938 201.777344 320.460938 C 202.914062 320.460938 203.757812 321.394531 203.808594 322.5 C 203.855469 323.59375 202.839844 324.535156 201.777344 324.535156 Z M 189.324219 335.09375 C 187.382812 335.09375 187.386719 332.078125 189.324219 332.078125 C 191.269531 332.078125 191.265625 335.09375 189.324219 335.09375 Z M 177.433594 319.703125 C 176.730469 319.847656 176.046875 319.652344 175.605469 319.078125 C 175.21875 318.578125 175.132812 317.929688 175.378906 317.351562 C 175.90625 316.109375 177.800781 315.882812 178.472656 317.144531 C 178.484375 317.164062 178.492188 317.1875 178.503906 317.207031 C 178.988281 318.109375 178.609375 319.457031 177.496094 319.691406 C 177.472656 319.695312 177.453125 319.699219 177.433594 319.703125 Z M 111.214844 341.496094 C 110.039062 341.496094 110.042969 339.671875 111.214844 339.671875 C 112.386719 339.671875 112.386719 341.496094 111.214844 341.496094 Z M 117.523438 324.0625 C 116.167969 324.0625 116.171875 321.957031 117.523438 321.957031 C 118.878906 321.957031 118.878906 324.0625 117.523438 324.0625 Z M 150.609375 324.171875 C 148.894531 324.171875 148.898438 321.503906 150.609375 321.503906 C 152.328125 321.503906 152.324219 324.171875 150.609375 324.171875 Z M 147.089844 347.015625 C 147.445312 347.265625 147.335938 347.863281 146.859375 347.863281 C 146.382812 347.863281 146.273438 347.261719 146.628906 347.015625 C 146.652344 347 146.675781 346.980469 146.699219 346.964844 C 146.785156 346.90625 146.933594 346.90625 147.015625 346.964844 C 147.039062 346.980469 147.066406 347 147.089844 347.015625 Z M 166.472656 335.769531 C 165.828125 335.816406 165.34375 335.203125 165.316406 334.609375 C 165.289062 334.015625 165.867188 333.414062 166.472656 333.453125 C 167.023438 333.492188 167.371094 333.667969 167.660156 334.144531 C 167.828125 334.421875 167.828125 334.800781 167.660156 335.082031 C 167.371094 335.554688 167.023438 335.730469 166.472656 335.769531 Z M 137.308594 329.417969 C 136.089844 329.417969 136.089844 327.523438 137.308594 327.523438 C 138.527344 327.523438 138.527344 329.417969 137.308594 329.417969 Z M 130.996094 338.976562 C 130.367188 338.976562 129.90625 338.460938 129.875 337.855469 C 129.847656 337.246094 130.414062 336.730469 130.996094 336.730469 C 131.628906 336.730469 132.09375 337.246094 132.117188 337.855469 C 132.148438 338.460938 131.585938 338.976562 130.996094 338.976562 Z M 109.664062 330.671875 C 109.226562 331.082031 108.46875 330.796875 108.46875 330.175781 C 108.46875 329.554688 109.226562 329.269531 109.664062 329.679688 C 109.703125 329.714844 109.742188 329.753906 109.78125 329.789062 C 109.988281 329.988281 109.988281 330.363281 109.78125 330.558594 C 109.742188 330.597656 109.703125 330.636719 109.664062 330.671875 Z M 112.152344 253.640625 C 112.570312 254.027344 112.203125 254.601562 111.730469 254.65625 C 111.589844 254.675781 111.457031 254.652344 111.320312 254.625 C 111.445312 254.625 111.566406 254.625 111.691406 254.625 C 111.65625 254.632812 111.625 254.640625 111.589844 254.652344 C 111.234375 254.757812 110.855469 254.640625 110.59375 254.390625 C 109.976562 253.796875 110.058594 252.703125 110.652344 252.125 C 111.269531 251.53125 112.332031 251.601562 112.933594 252.1875 C 113.445312 252.683594 113.582031 253.433594 113.234375 254.066406 C 112.894531 254.6875 112.203125 254.96875 111.5625 254.652344 C 111.1875 254.46875 111.121094 253.875 111.425781 253.605469 C 111.488281 253.546875 111.496094 253.542969 111.441406 253.59375 C 111.484375 253.539062 111.523438 253.484375 111.566406 253.429688 C 111.542969 253.414062 111.519531 253.582031 111.519531 253.601562 C 111.527344 253.867188 111.832031 254.050781 112.074219 254.019531 C 112.144531 254.015625 112.210938 253.996094 112.273438 253.953125 C 112.207031 254.003906 112.132812 254.039062 112.054688 254.0625 C 111.867188 254.144531 111.863281 254.144531 112.046875 254.066406 C 112.128906 253.984375 112.210938 253.90625 112.292969 253.824219 C 112.328125 253.769531 112.347656 253.710938 112.351562 253.644531 C 112.375 253.488281 112.363281 253.5625 112.324219 253.867188 C 112.28125 254.027344 112.214844 254.167969 112.113281 254.300781 C 112.113281 254.0625 112.113281 253.828125 112.113281 253.589844 C 112.074219 253.578125 112.085938 253.597656 112.152344 253.640625 Z M 123.832031 264.203125 C 122.660156 264.203125 122.664062 262.378906 123.832031 262.378906 C 125.011719 262.378906 125.007812 264.203125 123.832031 264.203125 Z M 136.472656 254.601562 C 137.050781 254.511719 137.519531 254.664062 137.859375 255.164062 C 138.28125 255.785156 138.054688 256.707031 137.492188 257.171875 C 137.085938 257.507812 136.601562 257.648438 136.097656 257.433594 C 135.605469 257.230469 135.339844 256.785156 135.3125 256.265625 C 135.269531 255.5625 135.730469 254.714844 136.472656 254.601562 Z M 141.789062 268.054688 C 141.523438 267.59375 141.59375 267.117188 141.808594 266.664062 C 142.011719 266.234375 142.566406 265.953125 143.027344 265.964844 C 143.238281 265.96875 143.445312 266.003906 143.640625 266.085938 C 143.726562 266.121094 144.277344 266.519531 143.960938 266.277344 C 143.664062 266.046875 144.003906 266.28125 144.09375 266.378906 C 144.144531 266.433594 144.261719 266.585938 144.300781 266.648438 C 144.605469 267.164062 144.519531 267.902344 144.085938 268.320312 C 144.0625 268.335938 144.042969 268.355469 144.027344 268.375 C 143.371094 269 142.269531 268.894531 141.808594 268.089844 C 141.800781 268.078125 141.792969 268.066406 141.789062 268.054688 Z M 153.765625 261.09375 C 153.203125 261.09375 152.722656 260.617188 152.722656 260.050781 C 152.722656 259.484375 153.203125 259.003906 153.765625 259.003906 C 154.332031 259.003906 154.8125 259.480469 154.8125 260.050781 C 154.8125 260.613281 154.328125 261.09375 153.765625 261.09375 Z M 178.070312 261.179688 C 177.242188 261.179688 176.632812 260.503906 176.597656 259.707031 C 176.558594 258.914062 177.300781 258.234375 178.070312 258.234375 C 178.894531 258.234375 179.507812 258.910156 179.542969 259.707031 C 179.578125 260.503906 178.839844 261.179688 178.070312 261.179688 Z M 199.386719 263.269531 C 198.753906 263.269531 198.753906 262.289062 199.386719 262.289062 C 200.019531 262.289062 200.019531 263.269531 199.386719 263.269531 Z M 218.101562 274.972656 C 218.265625 275.441406 217.882812 275.917969 217.429688 275.980469 C 216.929688 276.046875 216.546875 275.671875 216.515625 275.1875 C 216.503906 274.964844 216.566406 274.75 216.683594 274.558594 C 217.140625 273.828125 218.351562 274.300781 218.097656 275.15625 C 218.097656 275.09375 218.101562 275.035156 218.101562 274.972656 Z M 221.726562 256.398438 C 220.058594 256.398438 220.058594 253.804688 221.726562 253.804688 C 223.402344 253.804688 223.398438 256.398438 221.726562 256.398438 Z M 246.972656 258.632812 C 246.15625 258.632812 246.160156 257.371094 246.972656 257.371094 C 247.78125 257.371094 247.78125 258.632812 246.972656 258.632812 Z M 259.589844 250.765625 C 258.960938 250.765625 258.496094 250.25 258.46875 249.640625 C 258.441406 249.035156 259.003906 248.519531 259.589844 248.519531 C 260.21875 248.519531 260.683594 249.03125 260.710938 249.640625 C 260.738281 250.246094 260.179688 250.765625 259.589844 250.765625 Z M 252.085938 245.714844 C 251.421875 245.714844 250.921875 245.167969 250.894531 244.523438 C 250.863281 243.878906 251.464844 243.328125 252.085938 243.328125 C 252.753906 243.328125 253.25 243.875 253.277344 244.523438 C 253.308594 245.164062 252.707031 245.714844 252.085938 245.714844 Z M 332.414062 220.414062 C 329.839844 220.414062 329.84375 216.417969 332.414062 216.417969 C 334.988281 216.417969 334.984375 220.414062 332.414062 220.414062 Z M 309.320312 231.570312 C 308.6875 232.671875 307.042969 232.652344 306.414062 231.570312 C 306.109375 231.050781 306.109375 230.390625 306.414062 229.871094 C 306.6875 229.398438 307.292969 228.976562 307.863281 229.039062 C 307.941406 229.046875 308.015625 229.050781 308.09375 229.0625 C 308.648438 229.121094 309.125 229.316406 309.425781 229.828125 C 309.707031 230.304688 309.695312 230.902344 309.425781 231.382812 C 309.386719 231.445312 309.351562 231.507812 309.320312 231.570312 Z M 292.019531 246.402344 C 291.472656 247.21875 290.125 246.9375 290.125 245.886719 C 290.125 244.839844 291.476562 244.558594 292.019531 245.375 C 292.027344 245.386719 292.035156 245.398438 292.042969 245.410156 C 292.21875 245.671875 292.21875 246.101562 292.042969 246.363281 C 292.035156 246.378906 292.027344 246.390625 292.019531 246.402344 Z M 286.8125 219.269531 C 286.8125 218.5625 287.386719 218.035156 288.070312 218.007812 C 288.753906 217.976562 289.335938 218.609375 289.335938 219.269531 C 289.335938 219.464844 289.316406 219.664062 289.242188 219.847656 C 289.03125 220.371094 288.652344 220.714844 288.070312 220.742188 C 287.5 220.765625 287.097656 220.332031 286.902344 219.847656 C 286.828125 219.664062 286.8125 219.464844 286.8125 219.269531 Z M 298.816406 225.171875 C 297.367188 225.171875 297.375 222.925781 298.816406 222.925781 C 300.261719 222.925781 300.261719 225.171875 298.816406 225.171875 Z M 317.902344 215.90625 C 317.652344 216.335938 317.039062 216.410156 316.691406 216.0625 C 316.335938 215.710938 316.417969 215.101562 316.847656 214.847656 C 317.546875 214.4375 318.277344 215.25 317.902344 215.90625 Z M 315.359375 184.785156 C 314.5 184.785156 314.5 183.453125 315.359375 183.453125 C 316.214844 183.453125 316.214844 184.785156 315.359375 184.785156 Z M 302.226562 190.46875 C 301.539062 190.46875 301.03125 189.902344 301 189.242188 C 300.96875 188.578125 301.585938 188.011719 302.226562 188.011719 C 302.917969 188.011719 303.425781 188.574219 303.453125 189.242188 C 303.484375 189.902344 302.871094 190.46875 302.226562 190.46875 Z M 298.132812 203.527344 C 297.445312 203.527344 296.929688 202.960938 296.902344 202.292969 C 296.871094 201.625 297.488281 201.058594 298.132812 201.058594 C 298.824219 201.058594 299.335938 201.625 299.367188 202.292969 C 299.394531 202.960938 298.78125 203.527344 298.132812 203.527344 Z M 281.421875 205.664062 C 280.535156 205.664062 279.882812 204.941406 279.84375 204.085938 C 279.804688 203.230469 280.59375 202.507812 281.421875 202.507812 C 281.804688 202.507812 282.109375 202.589844 282.441406 202.773438 C 283.429688 203.3125 283.429688 204.851562 282.441406 205.394531 C 282.109375 205.578125 281.804688 205.664062 281.421875 205.664062 Z M 290.800781 143.609375 C 289.355469 143.609375 289.355469 141.367188 290.800781 141.367188 C 292.246094 141.367188 292.246094 143.609375 290.800781 143.609375 Z M 272.894531 123.117188 C 272.351562 123.117188 272.351562 122.273438 272.894531 122.273438 C 273.433594 122.273438 273.433594 123.117188 272.894531 123.117188 Z M 284.488281 128.015625 C 283.136719 128.015625 283.136719 125.90625 284.488281 125.90625 C 285.847656 125.90625 285.84375 128.015625 284.488281 128.015625 Z M 271.1875 140.585938 C 269.246094 140.585938 269.25 137.566406 271.1875 137.566406 C 273.132812 137.566406 273.128906 140.585938 271.1875 140.585938 Z M 275.621094 158.746094 C 274.636719 158.746094 273.910156 157.941406 273.871094 156.992188 C 273.828125 156.046875 274.707031 155.238281 275.621094 155.238281 C 276.605469 155.238281 277.332031 156.042969 277.375 156.992188 C 277.417969 157.941406 276.539062 158.746094 275.621094 158.746094 Z M 256.511719 159.597656 C 255.941406 159.597656 255.460938 159.113281 255.460938 158.542969 C 255.460938 157.976562 255.945312 157.492188 256.511719 157.492188 C 257.085938 157.492188 257.5625 157.972656 257.5625 158.542969 C 257.5625 159.113281 257.082031 159.597656 256.511719 159.597656 Z M 245.304688 176.484375 C 244.515625 177.3125 243.195312 176.640625 243.148438 175.589844 C 243.101562 174.496094 244.566406 173.921875 245.304688 174.699219 C 245.316406 174.710938 245.332031 174.726562 245.347656 174.742188 C 245.800781 175.222656 245.800781 175.960938 245.347656 176.441406 C 245.332031 176.453125 245.316406 176.46875 245.304688 176.484375 Z M 227.183594 155.199219 C 226.417969 155.199219 226.421875 154.007812 227.183594 154.007812 C 227.957031 154.007812 227.953125 155.199219 227.183594 155.199219 Z M 241.203125 160.914062 C 241.203125 161.488281 240.71875 161.96875 240.148438 161.96875 C 239.582031 161.96875 239.09375 161.484375 239.09375 160.914062 C 239.09375 160.75 239.117188 160.578125 239.164062 160.417969 C 239.453125 159.449219 240.84375 159.449219 241.132812 160.417969 C 241.179688 160.578125 241.203125 160.75 241.203125 160.914062 Z M 229.746094 183.507812 C 229.039062 183.507812 228.515625 182.929688 228.480469 182.242188 C 228.453125 181.5625 229.085938 180.980469 229.746094 180.980469 C 230.453125 180.980469 230.976562 181.558594 231.007812 182.242188 C 231.039062 182.925781 230.40625 183.507812 229.746094 183.507812 Z M 201.152344 176.539062 C 201.050781 176.402344 201.050781 176.144531 201.152344 176.007812 C 201.164062 175.992188 201.175781 175.976562 201.1875 175.960938 C 201.363281 175.714844 201.742188 175.523438 202.03125 175.738281 C 202.15625 175.832031 202.253906 175.910156 202.339844 176.042969 C 202.425781 176.167969 202.425781 176.375 202.339844 176.5 C 202.253906 176.632812 202.15625 176.714844 202.03125 176.804688 C 201.742188 177.019531 201.363281 176.832031 201.1875 176.582031 C 201.175781 176.566406 201.164062 176.554688 201.152344 176.539062 Z M 216.441406 167.503906 C 215.714844 167.503906 215.175781 166.910156 215.148438 166.203125 C 215.113281 165.507812 215.761719 164.90625 216.441406 164.90625 C 217.171875 164.90625 217.707031 165.503906 217.742188 166.203125 C 217.769531 166.90625 217.121094 167.503906 216.441406 167.503906 Z M 197.554688 187.445312 C 197.328125 187.949219 196.589844 187.972656 196.234375 187.617188 C 195.910156 187.292969 195.914062 186.746094 196.234375 186.425781 C 196.589844 186.070312 197.1875 186.117188 197.492188 186.511719 C 197.714844 186.808594 197.707031 187.117188 197.554688 187.445312 Z M 182.675781 175.519531 C 181.226562 175.519531 181.230469 173.273438 182.675781 173.273438 C 184.121094 173.273438 184.117188 175.519531 182.675781 175.519531 Z M 185.253906 164.730469 C 184.378906 164.144531 184.144531 162.914062 184.921875 162.140625 C 185.699219 161.359375 186.925781 161.597656 187.507812 162.472656 C 187.527344 162.503906 187.550781 162.535156 187.574219 162.570312 C 188.464844 163.90625 186.6875 165.683594 185.351562 164.792969 C 185.316406 164.769531 185.285156 164.75 185.253906 164.730469 Z M 172.269531 195.277344 C 171.5625 195.277344 171.039062 194.699219 171.007812 194.015625 C 170.976562 193.335938 171.609375 192.753906 172.269531 192.753906 C 172.976562 192.753906 173.5 193.332031 173.535156 194.015625 C 173.5625 194.699219 172.929688 195.277344 172.269531 195.277344 Z M 167.003906 180.675781 C 167.09375 180.644531 167.242188 180.652344 167.332031 180.691406 C 167.601562 180.796875 167.832031 181.015625 167.824219 181.335938 C 167.820312 181.375 167.820312 181.410156 167.816406 181.449219 C 167.789062 182.300781 166.519531 182.300781 166.492188 181.449219 C 166.492188 181.410156 166.488281 181.375 166.488281 181.335938 C 166.480469 181.019531 166.707031 180.796875 166.976562 180.691406 C 166.988281 180.6875 166.996094 180.683594 167.003906 180.675781 Z M 151.972656 187.332031 C 151.230469 187.332031 150.675781 186.71875 150.640625 185.996094 C 150.609375 185.277344 151.277344 184.664062 151.972656 184.664062 C 152.722656 184.664062 153.273438 185.273438 153.304688 185.996094 C 153.339844 186.71875 152.671875 187.332031 151.972656 187.332031 Z M 145.152344 159.425781 C 143.121094 159.425781 143.125 156.269531 145.152344 156.269531 C 147.1875 156.269531 147.183594 159.425781 145.152344 159.425781 Z M 136.457031 180.433594 C 135.75 180.433594 135.222656 179.855469 135.195312 179.171875 C 135.164062 178.492188 135.796875 177.910156 136.457031 177.910156 C 137.164062 177.910156 137.6875 178.488281 137.71875 179.171875 C 137.746094 179.851562 137.117188 180.433594 136.457031 180.433594 Z M 125.40625 162.683594 C 124.921875 162.820312 124.425781 162.4375 124.425781 161.941406 C 124.425781 161.4375 124.921875 161.0625 125.40625 161.195312 C 126.175781 161.410156 126.121094 162.480469 125.40625 162.683594 Z M 112.578125 171.84375 C 111.714844 171.84375 111.074219 171.136719 111.035156 170.300781 C 111 169.464844 111.773438 168.757812 112.578125 168.757812 C 113.441406 168.757812 114.082031 169.464844 114.121094 170.300781 C 114.160156 171.132812 113.382812 171.84375 112.578125 171.84375 Z M 74.886719 134.796875 C 73.804688 134.796875 73.804688 133.113281 74.886719 133.113281 C 75.972656 133.113281 75.972656 134.796875 74.886719 134.796875 Z M 91.261719 138.46875 C 90.355469 138.46875 89.6875 137.734375 89.648438 136.859375 C 89.609375 135.988281 90.417969 135.246094 91.261719 135.246094 C 92.164062 135.246094 92.832031 135.984375 92.875 136.859375 C 92.914062 137.730469 92.101562 138.46875 91.261719 138.46875 Z M 71 158.957031 C 70.542969 158.671875 70.292969 158.164062 70.363281 157.632812 C 70.441406 157.058594 70.808594 156.730469 71.320312 156.523438 C 71.179688 156.558594 71.058594 156.628906 70.957031 156.730469 C 71.613281 156.167969 72.378906 156.195312 73.03125 156.730469 C 72.464844 156.421875 72.347656 156.34375 72.671875 156.488281 C 72.777344 156.519531 72.871094 156.570312 72.945312 156.652344 C 73.121094 156.785156 73.242188 156.941406 73.328125 157.144531 C 73.414062 157.351562 73.449219 157.535156 73.460938 157.765625 C 73.515625 158.539062 72.75 159.265625 71.996094 159.238281 C 71.640625 159.222656 71.304688 159.148438 71 158.957031 Z M 89.214844 170.160156 C 88.527344 170.160156 88.015625 169.601562 87.988281 168.933594 C 87.957031 168.269531 88.570312 167.707031 89.214844 167.707031 C 89.902344 167.707031 90.410156 168.269531 90.441406 168.933594 C 90.46875 169.597656 89.855469 170.160156 89.214844 170.160156 Z M 43.507812 219.742188 C 42.019531 219.742188 42.019531 217.429688 43.507812 217.429688 C 44.996094 217.429688 44.996094 219.742188 43.507812 219.742188 Z M 60.050781 210.933594 C 58.921875 210.933594 58.921875 209.179688 60.050781 209.179688 C 61.179688 209.179688 61.179688 210.933594 60.050781 210.933594 Z M 73.011719 220.648438 C 72.046875 220.648438 71.335938 219.859375 71.296875 218.929688 C 71.253906 218 72.113281 217.210938 73.011719 217.210938 C 73.976562 217.210938 74.691406 217.996094 74.730469 218.929688 C 74.769531 219.859375 73.910156 220.648438 73.011719 220.648438 Z M 66.019531 244.628906 C 64.125 244.628906 64.125 241.683594 66.019531 241.683594 C 67.917969 241.683594 67.914062 244.628906 66.019531 244.628906 Z M 57.492188 256.855469 C 56.511719 256.855469 55.78125 256.050781 55.738281 255.101562 C 55.699219 254.15625 56.574219 253.347656 57.492188 253.347656 C 58.476562 253.347656 59.203125 254.152344 59.246094 255.101562 C 59.289062 256.046875 58.410156 256.855469 57.492188 256.855469 Z M 46.972656 237.929688 C 46.722656 238.285156 46.121094 238.171875 46.121094 237.699219 C 46.121094 237.222656 46.722656 237.113281 46.972656 237.464844 C 46.988281 237.488281 47.003906 237.511719 47.023438 237.535156 C 47.082031 237.621094 47.082031 237.769531 47.023438 237.855469 C 47.003906 237.878906 46.988281 237.902344 46.972656 237.929688 Z M 30.035156 247.476562 C 29.085938 247.476562 29.085938 246.003906 30.035156 246.003906 C 30.984375 246.003906 30.980469 247.476562 30.035156 247.476562 Z M 35.324219 262.367188 C 34.691406 262.367188 34.226562 261.847656 34.199219 261.246094 C 34.171875 260.636719 34.734375 260.121094 35.324219 260.121094 C 35.949219 260.121094 36.414062 260.632812 36.445312 261.246094 C 36.46875 261.847656 35.90625 262.367188 35.324219 262.367188 Z M 43.675781 331.203125 C 41.914062 331.203125 41.917969 328.46875 43.675781 328.46875 C 45.441406 328.46875 45.4375 331.203125 43.675781 331.203125 Z M 51.183594 317.761719 C 50.296875 317.761719 49.644531 317.039062 49.605469 316.183594 C 49.566406 315.332031 50.359375 314.605469 51.183594 314.605469 C 52.066406 314.605469 52.722656 315.332031 52.757812 316.183594 C 52.796875 317.035156 52.007812 317.761719 51.183594 317.761719 Z M 18.566406 315.375 C 17.582031 315.375 16.855469 314.574219 16.8125 313.625 C 16.769531 312.679688 17.648438 311.871094 18.566406 311.871094 C 18.605469 311.871094 18.652344 311.871094 18.695312 311.871094 C 19.675781 311.871094 20.402344 312.671875 20.445312 313.625 C 20.488281 314.570312 19.609375 315.375 18.695312 315.375 C 18.652344 315.375 18.605469 315.375 18.566406 315.375 Z M 36.175781 322.121094 C 34.683594 322.121094 34.6875 319.804688 36.175781 319.804688 C 37.664062 319.804688 37.664062 322.121094 36.175781 322.121094 Z M 36.695312 289.984375 C 36.074219 289.875 35.457031 289.628906 35.011719 289.183594 C 32.578125 286.730469 35.601562 281.925781 38.875 283.746094 C 42.398438 285.707031 40.78125 290.714844 36.695312 289.984375 Z M 66.382812 273.003906 C 62.917969 273.136719 59.441406 272.78125 56.082031 271.941406 C 52.796875 271.117188 49.640625 269.84375 46.359375 269.007812 C 43.578125 268.292969 40.730469 267.902344 37.90625 267.390625 C 33.152344 266.527344 28.460938 265.316406 23.878906 263.773438 C 21.324219 262.910156 17.5625 260.539062 14.429688 260.078125 C 12.089844 267.828125 10.035156 275.65625 8.394531 283.609375 C 7.257812 289.113281 6.324219 294.65625 5.425781 300.203125 C 8.023438 301.761719 10.910156 300.035156 13.773438 300.996094 C 21.121094 303.472656 28.917969 305.605469 36.597656 306.628906 C 45.691406 307.84375 54.644531 312.011719 63.671875 310.402344 C 63.84375 310.375 64.007812 310.339844 64.175781 310.304688 C 64.289062 309.863281 64.402344 309.429688 64.511719 308.992188 C 67.570312 297.0625 70.726562 285.15625 73.964844 273.273438 C 71.632812 272.636719 68.878906 272.902344 66.382812 273.003906 Z M 217.835938 241.59375 C 209.574219 241.449219 201.039062 241.308594 193.171875 243.132812 C 189.058594 244.085938 184.929688 245.628906 180.9375 247.121094 C 174.214844 249.628906 167.289062 252.21875 160.011719 252.21875 C 159.273438 252.21875 158.535156 252.191406 157.789062 252.136719 C 151.652344 251.675781 145.949219 249.25 140.4375 246.90625 C 134.851562 244.53125 129.578125 242.285156 123.882812 241.898438 C 119.824219 241.621094 115.824219 242.3125 111.589844 243.042969 C 107.777344 243.699219 103.84375 244.363281 99.863281 244.273438 C 99.898438 243.265625 99.925781 242.257812 99.957031 241.25 C 103.621094 241.332031 107.25 240.714844 111.074219 240.058594 C 115.296875 239.328125 119.675781 238.574219 124.089844 238.878906 C 130.292969 239.300781 136.054688 241.746094 141.621094 244.117188 C 147.15625 246.472656 152.378906 248.691406 158.019531 249.117188 C 165.449219 249.675781 172.457031 247.054688 179.875 244.285156 C 183.960938 242.757812 188.183594 241.179688 192.488281 240.179688 C 200.714844 238.273438 209.445312 238.417969 217.886719 238.566406 C 230.582031 238.777344 242.578125 238.988281 252.6875 232.695312 C 256.132812 230.546875 259.21875 227.65625 262.207031 224.863281 C 262.390625 224.695312 262.578125 224.523438 262.761719 224.351562 C 262.878906 225.621094 262.996094 226.890625 263.113281 228.160156 C 260.375 230.707031 257.523438 233.25 254.289062 235.265625 C 243.414062 242.03125 230.402344 241.8125 217.835938 241.59375 Z M 302 210.800781 C 298.109375 212.304688 293.988281 213.128906 290 213.929688 C 284.832031 214.96875 279.949219 215.949219 275.53125 218.269531 C 274.972656 218.558594 274.433594 218.871094 273.902344 219.195312 C 273.757812 218.78125 273.617188 218.367188 273.472656 217.953125 C 273.277344 217.390625 273.078125 216.839844 272.882812 216.285156 C 273.292969 216.046875 273.699219 215.808594 274.125 215.585938 C 278.929688 213.0625 284.253906 211.992188 289.40625 210.957031 C 293.265625 210.183594 297.261719 209.378906 300.914062 207.972656 C 310.515625 204.269531 317.535156 196.832031 323.476562 187.707031 C 324.007812 188.710938 324.539062 189.71875 325.078125 190.71875 C 319.03125 199.613281 311.746094 207.042969 302 210.800781 Z M 84.195312 236.859375 C 83.910156 237.839844 83.628906 238.820312 83.34375 239.800781 C 80.882812 238.648438 78.464844 237.375 76.078125 236.117188 C 72.894531 234.4375 69.601562 232.707031 66.304688 231.320312 C 54.472656 226.347656 41.101562 225.359375 28.664062 228.554688 C 27.34375 228.894531 26.101562 229.355469 24.898438 229.816406 C 25.371094 228.574219 25.847656 227.332031 26.324219 226.085938 C 26.839844 225.921875 27.363281 225.761719 27.910156 225.617188 C 40.988281 222.265625 55.039062 223.296875 67.480469 228.527344 C 70.894531 229.960938 74.25 231.730469 77.488281 233.4375 C 79.753906 234.628906 81.976562 235.800781 84.195312 236.859375 Z M 280.351562 184.589844 C 279.222656 186.453125 276.699219 186.898438 275.128906 188.410156 C 274.917969 188.613281 274.597656 188.847656 274.371094 188.660156 C 273.640625 188.050781 273.589844 184.902344 273.40625 183.9375 C 273.328125 183.542969 273.21875 183.105469 273.152344 182.660156 C 273.003906 182.746094 272.859375 182.832031 272.707031 182.917969 C 271.359375 183.671875 271.480469 180.328125 271.363281 179.523438 C 271.324219 179.25 271.25 178.917969 271.179688 178.566406 C 270.835938 178.769531 270.488281 178.960938 270.148438 179.167969 C 270.167969 178.257812 269.734375 173.480469 270.433594 173.039062 C 271.160156 172.589844 274.574219 175.847656 275.242188 176.359375 C 275.007812 176.476562 274.777344 176.605469 274.542969 176.722656 C 275.796875 177.683594 277.011719 179.054688 277.550781 179.558594 C 277.625 179.625 277.703125 179.703125 277.71875 179.800781 C 277.753906 179.992188 277.566406 180.140625 277.394531 180.238281 C 277.277344 180.304688 277.15625 180.375 277.035156 180.445312 C 278.351562 181.410156 279.597656 183.003906 280.289062 183.777344 C 280.371094 183.871094 280.460938 183.972656 280.488281 184.097656 C 280.527344 184.265625 280.445312 184.441406 280.351562 184.589844 Z M 244.734375 209.414062 C 244.652344 209.515625 244.519531 209.5625 244.398438 209.605469 C 242.265625 210.34375 240.125 211.050781 237.972656 211.726562 C 238.101562 209.878906 238.328125 208.03125 238.652344 206.207031 C 238.707031 205.90625 238.765625 205.652344 238.828125 205.417969 C 238.328125 205.550781 237.832031 205.6875 237.335938 205.828125 C 237.683594 205.730469 237.589844 202.785156 237.929688 201.144531 C 237.578125 201.195312 237.21875 201.242188 236.859375 201.25 C 237.070312 200.441406 237.839844 195.707031 238.566406 195.601562 C 239.539062 195.460938 241.433594 199.152344 241.847656 199.875 C 241.863281 199.90625 241.886719 199.941406 241.875 199.976562 C 241.863281 200.023438 241.816406 200.042969 241.769531 200.058594 C 241.546875 200.140625 241.320312 200.214844 241.097656 200.296875 C 241.402344 200.992188 241.6875 201.8125 241.929688 202.175781 C 242.367188 202.835938 242.878906 203.480469 243.0625 204.25 C 242.753906 204.335938 242.441406 204.421875 242.132812 204.503906 C 242.988281 205.863281 243.832031 207.234375 244.632812 208.625 C 244.777344 208.871094 244.910156 209.195312 244.734375 209.414062 Z M 201.042969 219.320312 C 201.03125 219.320312 202.359375 214.949219 202.550781 214.566406 C 202.644531 214.378906 202.738281 214.242188 202.835938 214.101562 C 202.277344 214.109375 201.714844 214.136719 201.152344 214.125 C 201.222656 214.125 202.636719 209.804688 202.8125 209.378906 C 202.894531 209.179688 202.972656 209.007812 203.042969 208.84375 C 202.671875 208.84375 202.300781 208.847656 201.929688 208.847656 C 202.683594 208.847656 203.132812 204.191406 204.410156 204.082031 C 205.53125 203.988281 206.824219 207.550781 207.210938 208.355469 C 207.257812 208.453125 207.304688 208.566406 207.261719 208.667969 C 207.203125 208.8125 207.015625 208.835938 206.855469 208.835938 C 206.601562 208.839844 206.351562 208.839844 206.097656 208.839844 C 206.523438 210.136719 206.949219 211.4375 207.375 212.738281 C 207.484375 213.074219 207.589844 213.464844 207.414062 213.769531 C 207.027344 213.824219 206.640625 213.84375 206.25 213.882812 C 206.359375 214.246094 206.460938 214.671875 206.660156 215.125 C 207.214844 216.386719 207.996094 217.574219 208.160156 218.96875 C 205.796875 219.230469 203.414062 219.488281 201.042969 219.320312 Z M 160.578125 224.464844 C 160.777344 222.609375 160.941406 220.03125 161.695312 218.164062 C 161.476562 218.136719 161.253906 218.109375 161.039062 218.066406 C 160.789062 218.011719 161.964844 214.347656 162.496094 213.195312 C 162.132812 213.195312 161.769531 213.195312 161.40625 213.199219 C 161.753906 213.195312 163.445312 209.355469 163.722656 208.882812 C 164.820312 207 165.128906 207.417969 165.941406 209.125 C 166.632812 210.582031 168.03125 211.652344 168.527344 213.183594 C 168.238281 213.183594 167.949219 213.1875 167.664062 213.1875 C 168.285156 214.578125 168.777344 216.03125 169.125 217.515625 C 168.730469 217.597656 168.335938 217.675781 167.9375 217.753906 C 168.425781 219.664062 168.886719 221.585938 169.292969 223.515625 C 166.445312 224.207031 163.507812 224.523438 160.578125 224.464844 Z M 114.4375 211.015625 C 114.382812 211.015625 114.324219 211.015625 114.285156 210.976562 C 114.238281 210.929688 114.246094 210.855469 114.257812 210.792969 C 114.515625 209.355469 114.738281 207.730469 115.226562 206.316406 C 114.878906 206.316406 114.53125 206.328125 114.1875 206.3125 C 114.351562 205.195312 114.433594 203.386719 114.96875 202.160156 C 114.652344 202.199219 114.335938 202.242188 114.019531 202.285156 C 114.039062 201.265625 115.625 195.589844 116.710938 195.394531 C 118.109375 195.136719 119.421875 201.566406 120.878906 201.375 C 120.394531 201.441406 119.90625 201.503906 119.417969 201.566406 C 119.933594 202.871094 120.546875 204.136719 121.261719 205.339844 C 120.960938 205.441406 120.648438 205.515625 120.347656 205.601562 C 120.910156 207.027344 121.445312 208.46875 121.910156 209.933594 C 119.476562 210.589844 116.960938 210.957031 114.4375 211.015625 Z M 303.769531 148.296875 C 297.96875 155.082031 290.320312 160.300781 281.808594 163.019531 C 275.378906 165.074219 268.449219 165.796875 262.5 168.988281 C 252.402344 174.40625 246.460938 186.214844 235.699219 190.144531 C 228.84375 192.644531 221.269531 191.464844 214 192.042969 C 204.949219 192.765625 196.378906 196.226562 187.664062 198.765625 C 178.945312 201.300781 169.46875 202.914062 160.886719 199.941406 C 152.507812 197.046875 145.898438 190.089844 137.347656 187.742188 C 129.160156 185.492188 120.507812 187.785156 112.027344 188.253906 C 108.230469 188.464844 104.417969 188.273438 100.652344 187.742188 C 100.730469 198.695312 100.667969 209.664062 100.476562 220.636719 C 103.765625 221.019531 107.085938 221.125 110.394531 220.945312 C 118.871094 220.472656 127.523438 218.179688 135.710938 220.429688 C 144.261719 222.78125 150.871094 229.738281 159.253906 232.636719 C 167.835938 235.601562 177.308594 233.996094 186.027344 231.453125 C 194.746094 228.914062 203.3125 225.453125 212.367188 224.734375 C 219.636719 224.152344 227.210938 225.335938 234.0625 222.832031 C 244.71875 218.945312 250.652344 207.347656 260.5625 201.855469 C 259.875 194.980469 259.171875 188.109375 258.453125 181.238281 C 261.347656 187.386719 263.988281 193.34375 266.457031 199.367188 C 270.9375 197.933594 275.675781 197.144531 280.175781 195.707031 C 293.246094 191.535156 304.320312 181.476562 309.726562 168.855469 C 310.332031 167.445312 311.039062 166.144531 311.804688 164.90625 C 309.074219 159.394531 306.394531 153.855469 303.769531 148.296875 Z M 64.738281 195.464844 C 64.738281 195.425781 63.914062 195.171875 62.804688 194.835938 C 62.851562 196.726562 62.746094 198.648438 62.746094 200.515625 C 62.746094 200.703125 62.730469 200.921875 62.574219 201.03125 C 62.375 201.167969 62.109375 201.019531 61.90625 200.882812 C 59.878906 199.53125 57.210938 199.417969 55.203125 198.039062 C 54.089844 197.277344 57.324219 193.988281 58.246094 193.425781 C 57.546875 193.191406 57.027344 192.992188 56.878906 192.875 C 55.65625 191.933594 56.292969 191.648438 57.300781 190.625 C 58.078125 189.835938 58.804688 188.96875 59.632812 188.242188 C 59.835938 188.0625 60.078125 187.882812 60.347656 187.710938 C 59.886719 187.558594 59.433594 187.386719 59 187.183594 C 58.90625 187.140625 58.800781 187.058594 58.828125 186.964844 C 58.839844 186.921875 58.878906 186.890625 58.914062 186.863281 C 60.082031 185.964844 63.597656 182.277344 64.957031 183.089844 C 65.722656 183.542969 65.976562 185.601562 66.128906 186.382812 C 66.207031 186.785156 66.246094 189.800781 66.40625 189.902344 C 66.027344 189.660156 65.628906 189.464844 65.222656 189.289062 C 65.386719 191.304688 64.835938 194.230469 64.738281 195.464844 Z M 85.667969 183.566406 C 77.96875 180.242188 71.042969 175.292969 63.308594 172.054688 C 58.679688 170.113281 53.523438 168.855469 48.550781 169.007812 C 44.234375 181.148438 39.4375 193.140625 34.632812 205.121094 C 35.457031 204.945312 36.144531 204.78125 37.363281 204.125 C 44.742188 200.140625 53.941406 201.5 61.675781 204.742188 C 69.410156 207.984375 76.332031 212.933594 84.03125 216.253906 C 85.863281 217.042969 87.738281 217.722656 89.636719 218.316406 C 92.703125 208.023438 95.839844 197.753906 99.042969 187.5 C 94.449219 186.722656 89.949219 185.410156 85.667969 183.566406 Z M 273.757812 113.726562 C 268.8125 114.265625 264.042969 115.03125 259.222656 116.066406 C 259.378906 121.640625 259.476562 127.523438 259.578125 133.230469 C 259.679688 139.355469 259.785156 145.683594 259.960938 151.605469 L 260.023438 153.769531 L 257.972656 153.089844 C 255.941406 152.417969 253.867188 151.832031 251.800781 151.34375 C 251.292969 151.226562 250.785156 151.109375 250.273438 150.996094 C 248.84375 150.675781 247.363281 150.34375 245.90625 149.886719 C 244 149.289062 242.175781 148.488281 240.414062 147.714844 C 239.246094 147.203125 238.042969 146.671875 236.851562 146.21875 C 231.539062 144.207031 225.835938 143.210938 220.835938 142.535156 L 206.703125 168.132812 L 205.308594 166.1875 C 202.425781 162.179688 198.28125 159.542969 193.890625 156.757812 C 190.515625 154.613281 187.042969 152.410156 184.132812 149.496094 C 178.683594 159.320312 171.722656 168.148438 163.421875 175.75 L 162.445312 176.644531 L 161.429688 175.792969 C 155.265625 170.648438 152.21875 163.230469 149.265625 156.054688 C 147.011719 150.570312 144.6875 144.914062 140.984375 140.410156 L 104.511719 160.433594 L 104.359375 158.054688 C 103.539062 145.265625 103.582031 132.304688 104.488281 119.503906 L 80.183594 116.402344 C 81.796875 115.460938 83.464844 114.660156 85.164062 113.984375 L 107.71875 116.863281 L 107.613281 118.296875 C 106.675781 130.632812 106.550781 143.128906 107.242188 155.480469 L 141.65625 136.585938 L 142.457031 137.480469 C 146.96875 142.503906 149.5625 148.804688 152.066406 154.898438 C 154.824219 161.613281 157.441406 167.972656 162.378906 172.585938 C 170.5 164.949219 177.253906 156.078125 182.46875 146.207031 L 183.515625 144.226562 L 184.964844 145.9375 C 187.832031 149.320312 191.5625 151.691406 195.511719 154.199219 C 199.320312 156.617188 203.234375 159.101562 206.304688 162.589844 L 219.183594 139.261719 L 220.207031 139.394531 C 225.617188 140.101562 231.953125 141.125 237.925781 143.386719 C 239.1875 143.867188 240.425781 144.410156 241.628906 144.941406 C 243.394531 145.714844 245.066406 146.449219 246.8125 146.996094 C 248.148438 147.414062 249.5 147.71875 250.933594 148.039062 C 251.457031 148.15625 251.976562 148.273438 252.496094 148.394531 C 253.957031 148.738281 255.421875 149.132812 256.878906 149.566406 C 256.734375 144.257812 256.640625 138.6875 256.546875 133.28125 C 256.441406 127.15625 256.332031 120.824219 256.160156 114.902344 L 256.125 113.652344 L 257.34375 113.378906 C 262.691406 112.179688 267.957031 111.308594 273.433594 110.714844 C 275.84375 110.449219 278.296875 110.242188 280.667969 110.042969 C 281.414062 109.984375 282.164062 109.917969 282.914062 109.851562 C 284.082031 110.570312 285.167969 111.46875 286.117188 112.484375 C 286.152344 112.515625 286.175781 112.558594 286.210938 112.589844 C 284.433594 112.765625 282.664062 112.917969 280.921875 113.0625 C 278.566406 113.261719 276.136719 113.464844 273.757812 113.726562 Z M 263.933594 100.839844 C 255.105469 103.300781 246.277344 105.769531 237.453125 108.234375 C 238.261719 115.558594 239.066406 122.882812 239.875 130.207031 C 230.828125 127.949219 221.785156 125.6875 212.738281 123.425781 C 212.054688 123.253906 211.289062 123.09375 210.675781 123.445312 C 210.007812 123.828125 209.785156 124.667969 209.609375 125.421875 C 207.902344 132.570312 204.566406 139.324219 199.925781 145.027344 C 192.984375 139.132812 186.046875 133.234375 179.105469 127.339844 C 174.625 134.199219 170.144531 141.058594 165.667969 147.914062 C 158.664062 139.742188 152.078125 131.210938 145.925781 122.375 C 136.425781 128.523438 126.925781 134.671875 117.425781 140.824219 C 117.242188 129.523438 117.0625 118.222656 116.882812 106.921875 C 113.179688 106.796875 102.757812 107.066406 96.917969 104.414062 C 98.179688 103.742188 99.476562 103.144531 100.757812 102.585938 C 110.953125 98.160156 121.644531 94.894531 132.570312 92.871094 C 134.96875 98.664062 141.199219 101.789062 147.210938 103.566406 C 161.332031 107.734375 176.273438 109.101562 190.917969 107.558594 C 196.71875 106.945312 202.554688 105.859375 207.8125 103.332031 C 213.070312 100.800781 218.097656 95.964844 220.382812 90.597656 C 234.167969 91.199219 247.84375 94.1875 260.621094 99.398438 C 261.730469 99.851562 262.839844 100.332031 263.933594 100.839844 Z M 203.445312 73.453125 C 192.671875 77.917969 180.957031 80.238281 169.28125 80.238281 C 167.625 80.238281 165.964844 80.191406 164.3125 80.097656 C 159.980469 79.847656 154.390625 79.230469 149.53125 76.613281 L 149.796875 76.117188 C 150.460938 76.476562 151.140625 76.792969 151.824219 77.078125 C 151.875 75.132812 151.472656 73.179688 150.640625 71.414062 C 150.410156 70.921875 150.109375 70.378906 149.640625 70.058594 L 149.957031 69.59375 C 150.539062 69.988281 150.886719 70.617188 151.152344 71.175781 C 152.046875 73.082031 152.472656 75.199219 152.382812 77.300781 C 155.390625 78.46875 158.546875 79.019531 161.40625 79.308594 C 161.589844 76.066406 161.355469 72.8125 160.699219 69.632812 L 161.25 69.523438 C 161.914062 72.75 162.15625 76.050781 161.96875 79.34375 L 161.453125 79.3125 C 162.457031 79.414062 163.433594 79.484375 164.34375 79.535156 C 166.183594 79.640625 168.027344 79.679688 169.875 79.667969 L 169.707031 69.363281 L 170.265625 69.351562 L 170.433594 79.65625 C 173.082031 79.625 175.726562 79.472656 178.363281 79.199219 C 178.4375 75.671875 178.34375 72.097656 178.082031 68.574219 L 178.644531 68.535156 C 178.902344 72.054688 178.996094 75.617188 178.925781 79.144531 C 181.203125 78.894531 183.472656 78.554688 185.722656 78.128906 C 185.457031 75.160156 185.175781 71.820312 186.300781 68.800781 L 186.34375 68.6875 L 186.902344 68.453125 L 187.117188 68.96875 L 186.785156 69.109375 C 185.757812 71.964844 186.019531 75.167969 186.277344 78.027344 C 188.613281 77.574219 190.933594 77.023438 193.222656 76.382812 C 193.246094 74.515625 193.390625 72.632812 193.652344 70.789062 C 193.777344 69.898438 193.972656 68.890625 194.6875 68.230469 L 195.070312 68.644531 C 194.492188 69.179688 194.320312 70.070312 194.207031 70.867188 C 193.957031 72.636719 193.820312 74.433594 193.785156 76.230469 C 196.089844 75.570312 198.371094 74.8125 200.609375 73.96875 C 200.753906 72.253906 201.152344 70.574219 201.804688 68.980469 L 202.324219 69.195312 C 201.730469 70.652344 201.359375 72.179688 201.203125 73.742188 C 201.882812 73.484375 202.558594 73.214844 203.230469 72.9375 Z M 211.304688 101.289062 L 210.746094 101.25 C 211.207031 94.40625 210.929688 87.492188 209.914062 80.703125 C 209.710938 79.332031 209.480469 77.996094 208.90625 76.777344 C 208.28125 75.445312 207.320312 74.480469 206.203125 74.074219 L 206.394531 73.546875 C 207.652344 74.003906 208.726562 75.070312 209.414062 76.542969 C 210.015625 77.828125 210.265625 79.261719 210.46875 80.621094 C 211.488281 87.449219 211.769531 94.402344 211.304688 101.289062 Z M 199.691406 105.886719 L 199.136719 105.816406 C 199.976562 99.148438 199.855469 92.402344 198.78125 85.773438 C 198.328125 82.980469 197.660156 80.101562 195.859375 77.917969 L 196.289062 77.5625 C 198.175781 79.84375 198.871094 82.8125 199.335938 85.679688 C 200.421875 92.367188 200.539062 99.167969 199.691406 105.886719 Z M 187.882812 108.007812 L 187.320312 107.988281 C 187.648438 98.859375 187.988281 89.417969 185.753906 80.390625 L 186.296875 80.253906 C 188.546875 89.359375 188.210938 98.839844 187.882812 108.007812 Z M 173.726562 107.625 C 173.355469 99.292969 173.046875 90.828125 172.800781 82.472656 L 173.359375 82.457031 C 173.605469 90.8125 173.917969 99.269531 174.285156 107.597656 Z M 160.128906 106.664062 C 159.78125 100.507812 159.417969 94.152344 159.398438 87.890625 C 159.390625 85.691406 159.445312 83.558594 160.179688 81.585938 L 160.707031 81.78125 C 160.003906 83.667969 159.953125 85.746094 159.957031 87.886719 C 159.980469 94.136719 160.339844 100.484375 160.6875 106.621094 Z M 148.859375 104.285156 C 148.023438 97.445312 147.84375 90.492188 148.328125 83.617188 C 148.453125 81.828125 148.636719 79.933594 149.351562 78.21875 L 149.871094 78.429688 C 149.1875 80.070312 149.007812 81.910156 148.886719 83.660156 C 148.40625 90.496094 148.585938 97.414062 149.414062 104.214844 Z M 139.058594 99.664062 C 139.003906 99.664062 138.953125 99.683594 138.917969 99.71875 C 138.867188 99.773438 138.878906 99.855469 138.902344 99.90625 L 139.109375 99.8125 L 139.105469 99.667969 C 139.089844 99.664062 139.074219 99.664062 139.058594 99.664062 Z M 139.058594 100.222656 C 139.019531 100.222656 138.980469 100.214844 138.941406 100.203125 C 138.742188 100.132812 138.632812 99.957031 138.617188 99.667969 C 138.234375 93.761719 137.84375 87.652344 138.617188 81.558594 C 138.828125 79.855469 139.171875 77.882812 140.0625 76.136719 L 140.5625 76.394531 C 139.707031 78.0625 139.382812 79.976562 139.171875 81.628906 C 138.414062 87.636719 138.792969 93.675781 139.167969 99.527344 L 139.414062 99.671875 C 139.472656 99.804688 139.441406 99.980469 139.332031 100.097656 C 139.257812 100.179688 139.160156 100.222656 139.058594 100.222656 Z M 262.601562 283.382812 C 262.296875 284.019531 261.847656 284.597656 261.246094 284.972656 C 259.882812 285.816406 257.933594 285.335938 256.949219 284.066406 C 255.972656 282.796875 255.925781 280.945312 256.65625 279.515625 C 258.128906 276.628906 261.550781 276.808594 262.792969 279.832031 C 263.257812 280.964844 263.132812 282.285156 262.601562 283.382812 Z M 202.046875 291.792969 C 201.28125 292.390625 200.292969 292.648438 199.320312 292.699219 C 198.347656 292.746094 197.238281 292.519531 196.71875 291.691406 C 196.222656 290.890625 196.46875 289.84375 196.804688 288.964844 C 198.089844 285.621094 202.75 284.882812 203.226562 289.261719 C 203.335938 290.226562 202.820312 291.199219 202.046875 291.792969 Z M 129.808594 297.105469 C 129.066406 297.78125 128.121094 298.292969 127.113281 298.308594 C 126.109375 298.328125 125.0625 297.773438 124.691406 296.84375 C 124.480469 296.308594 124.496094 295.714844 124.566406 295.144531 C 124.824219 293.042969 126.9375 289.949219 129.4375 290.816406 C 132.320312 291.8125 131.554688 295.507812 129.808594 297.105469 Z M 267.355469 275.570312 C 267.078125 272.304688 266.796875 269.039062 266.515625 265.773438 C 266.433594 264.820312 266.347656 263.867188 266.261719 262.910156 C 232.75 266.828125 199.625 274.777344 165.890625 275.386719 C 161.347656 275.46875 156.808594 275.417969 152.269531 275.441406 C 134.238281 275.535156 116.234375 276.832031 98.265625 278.339844 C 97.609375 289.320312 96.832031 300.285156 95.921875 311.222656 C 95.90625 311.40625 95.890625 311.589844 95.875 311.769531 C 97.234375 312.246094 98.679688 312.554688 100.089844 312.78125 C 122.507812 316.375 152.699219 310.1875 175.398438 310.597656 C 204.640625 311.132812 233.714844 305.097656 262.097656 298.050781 C 264.425781 297.472656 266.769531 296.878906 269.148438 296.636719 C 268.550781 289.613281 267.953125 282.59375 267.355469 275.570312 Z M 323.972656 262.101562 C 322.84375 262.664062 321.476562 262.617188 320.28125 262.214844 C 319.621094 261.996094 318.96875 261.644531 318.609375 261.046875 C 318.230469 260.421875 318.246094 259.621094 318.429688 258.90625 C 318.695312 257.871094 319.285156 256.910156 320.15625 256.289062 C 322.285156 254.769531 325.398438 256.476562 325.75 259.023438 C 325.925781 260.277344 325.105469 261.535156 323.972656 262.101562 Z M 346 241.597656 C 343.914062 236.203125 341.449219 230.800781 339.199219 225.347656 C 337.492188 226.226562 335.921875 227.542969 334.441406 228.796875 C 320.207031 240.808594 303.453125 249.363281 287.851562 259.550781 C 291.457031 269.984375 295.066406 280.417969 298.671875 290.847656 C 309.972656 284.140625 322.867188 280.617188 334.972656 275.453125 C 341.929688 272.484375 348.644531 268.945312 355.039062 264.90625 C 352.027344 257.136719 349.015625 249.367188 346 241.597656"/></g><g clip-path="url(#b)"><path fill="#E63949" d="M 325.75 259.023438 C 325.398438 256.476562 322.285156 254.769531 320.15625 256.289062 C 319.285156 256.910156 318.695312 257.871094 318.429688 258.90625 C 318.246094 259.621094 318.230469 260.421875 318.609375 261.046875 C 318.96875 261.644531 319.621094 261.996094 320.28125 262.214844 C 321.476562 262.617188 322.84375 262.664062 323.972656 262.101562 C 325.105469 261.535156 325.925781 260.277344 325.75 259.023438 Z M 356.40625 268.433594 C 338.230469 277.25 319.007812 284.824219 298.78125 291.164062 C 298.230469 289.570312 297.679688 287.976562 297.128906 286.382812 C 306.882812 283.328125 316.390625 279.976562 325.664062 276.335938 C 317.839844 274.054688 309.511719 272.570312 301.972656 269.824219 C 302.359375 268.5625 302.9375 267.367188 303.445312 266.144531 C 305.429688 261.375 307.152344 256.070312 309.359375 251.207031 C 308.0625 251.953125 306.753906 252.679688 305.429688 253.378906 C 299.890625 256.285156 294.125 258.65625 288.230469 260.648438 C 287.683594 259.058594 287.132812 257.464844 286.582031 255.875 C 292.257812 253.957031 297.792969 251.683594 303.085938 248.90625 C 312.507812 243.957031 321.265625 237.394531 329.738281 231.050781 C 332.703125 228.832031 335.71875 226.574219 338.789062 224.363281 C 339.441406 225.964844 340.117188 227.554688 340.796875 229.148438 C 338.082031 231.117188 335.402344 233.117188 332.761719 235.09375 C 327.71875 238.875 322.566406 242.722656 317.203125 246.296875 C 324.476562 246.324219 331.222656 247.3125 338.671875 248.949219 C 336.636719 258.164062 335.023438 265.289062 332.289062 273.667969 C 339.882812 270.539062 347.3125 267.21875 354.566406 263.6875 C 355.179688 265.273438 355.792969 266.851562 356.40625 268.433594 Z M 262.792969 279.832031 C 261.550781 276.808594 258.128906 276.628906 256.65625 279.515625 C 255.925781 280.945312 255.972656 282.796875 256.949219 284.066406 C 257.933594 285.335938 259.882812 285.816406 261.246094 284.972656 C 261.847656 284.597656 262.296875 284.019531 262.601562 283.382812 C 263.132812 282.285156 263.257812 280.964844 262.792969 279.832031 Z M 259.414062 296.46875 L 241.273438 284.398438 L 254.226562 268.558594 C 249.878906 269.25 245.546875 269.863281 241.257812 270.445312 C 227.867188 272.253906 214.355469 273.859375 200.820312 275.246094 L 217.371094 284.398438 L 205.203125 305.722656 C 223.929688 303.464844 242.003906 300.382812 259.414062 296.46875 Z M 203.226562 289.261719 C 202.75 284.882812 198.089844 285.621094 196.804688 288.964844 C 196.46875 289.84375 196.222656 290.890625 196.71875 291.691406 C 197.238281 292.519531 198.347656 292.746094 199.320312 292.699219 C 200.292969 292.648438 201.28125 292.390625 202.046875 291.792969 C 202.820312 291.199219 203.335938 290.226562 203.226562 289.261719 Z M 201.890625 306.113281 L 179.484375 291.164062 L 193.714844 275.949219 C 182.304688 277.054688 170.886719 278.019531 159.515625 278.8125 C 149.570312 279.503906 139.519531 280.0625 129.4375 280.351562 L 146.273438 292.386719 L 133.949219 310.28125 C 157.449219 310.003906 180.109375 308.621094 201.890625 306.113281 Z M 129.4375 290.816406 C 126.9375 289.949219 124.824219 293.042969 124.566406 295.144531 C 124.496094 295.714844 124.480469 296.308594 124.691406 296.84375 C 125.0625 297.773438 126.109375 298.328125 127.113281 298.308594 C 128.121094 298.292969 129.066406 297.78125 129.808594 297.105469 C 131.554688 295.507812 132.320312 291.8125 129.4375 290.816406 Z M 269.378906 299.335938 C 225.539062 310.027344 177.429688 315.398438 125.292969 315.398438 C 115.542969 315.398438 105.65625 315.203125 95.628906 314.828125 C 95.722656 313.625 95.820312 312.421875 95.921875 311.222656 C 95.960938 310.746094 95.996094 310.265625 96.03125 309.789062 C 107.003906 310.199219 117.804688 310.375 128.433594 310.328125 L 110.699219 297.175781 L 125.789062 280.453125 C 122.273438 280.527344 118.757812 280.570312 115.238281 280.570312 C 109.539062 280.570312 103.839844 280.460938 98.148438 280.214844 C 98.253906 278.535156 98.339844 276.851562 98.4375 275.171875 C 118.675781 276.042969 139.125 275.171875 159.167969 273.773438 C 186.277344 271.882812 213.667969 269.078125 240.578125 265.441406 C 249.007812 264.300781 257.605469 263.03125 266.121094 261.289062 C 266.25 262.785156 266.390625 264.277344 266.515625 265.773438 C 266.535156 265.96875 266.550781 266.160156 266.566406 266.355469 C 264.605469 266.75 262.636719 267.121094 260.664062 267.476562 L 266.921875 270.507812 C 267.066406 272.195312 267.210938 273.886719 267.355469 275.570312 C 267.804688 280.871094 268.257812 286.171875 268.707031 291.46875 L 266.132812 294.902344 C 267.070312 294.683594 268.011719 294.460938 268.941406 294.230469 C 269.089844 295.933594 269.230469 297.636719 269.378906 299.335938 Z M 38.875 283.746094 C 35.601562 281.925781 32.578125 286.730469 35.011719 289.183594 C 35.457031 289.628906 36.074219 289.875 36.695312 289.984375 C 40.78125 290.714844 42.398438 285.707031 38.875 283.746094 Z M 72.648438 278.097656 C 63.011719 276.871094 53.476562 275.121094 44.097656 272.730469 L 57.214844 292.234375 L 37.714844 305.046875 C 46.160156 306.503906 54.632812 307.285156 62.640625 307.894531 C 63.351562 307.949219 64.050781 307.988281 64.761719 308.042969 C 64.679688 308.359375 64.59375 308.675781 64.511719 308.992188 C 64.171875 310.328125 63.824219 311.675781 63.464844 313.015625 C 63.0625 312.984375 62.664062 312.960938 62.257812 312.929688 C 43.929688 311.535156 23.230469 309.238281 5.421875 300.238281 C 5.703125 298.496094 5.992188 296.75 6.289062 295.007812 C 14.609375 299.433594 23.734375 302.25 32.996094 304.148438 L 20.394531 281.605469 C 20.394531 281.605469 32.472656 274.554688 38.554688 271.238281 C 30.132812 268.839844 21.859375 265.890625 13.773438 262.285156 C 14.25 260.65625 14.738281 259.03125 15.246094 257.414062 C 33.914062 265.820312 53.714844 270.652344 73.992188 273.171875 C 73.542969 274.8125 73.089844 276.453125 72.648438 278.097656 Z M 294.550781 167.679688 C 294.21875 166.644531 292.761719 166.179688 291.890625 166.835938 L 292.019531 166.886719 C 291.617188 166.664062 291.160156 167.074219 290.929688 167.472656 C 290.46875 168.257812 290.195312 169.15625 290.148438 170.066406 C 290.136719 170.242188 290.136719 170.421875 290.214844 170.578125 C 290.277344 170.71875 290.394531 170.824219 290.515625 170.914062 C 291.242188 171.449219 292.292969 171.457031 293.082031 171.015625 C 293.871094 170.578125 294.40625 169.742188 294.582031 168.855469 C 294.660156 168.46875 294.675781 168.058594 294.550781 167.679688 Z M 251.132812 193.667969 C 251.234375 193.816406 251.386719 193.917969 251.546875 193.992188 C 252.195312 194.300781 253.03125 194.128906 253.507812 193.59375 C 254.246094 192.757812 253.945312 191.03125 252.636719 191.085938 C 251.621094 191.128906 250.460938 192.746094 251.132812 193.667969 Z M 222.289062 208.855469 C 222.699219 209.066406 223.21875 209.007812 223.597656 208.75 C 224.636719 208.046875 224.40625 206.257812 223.003906 206.347656 C 221.878906 206.417969 221.164062 208.285156 222.289062 208.855469 Z M 181.007812 214.753906 C 181.089844 214.984375 181.214844 215.203125 181.390625 215.367188 C 181.742188 215.703125 182.28125 215.792969 182.75 215.679688 C 183.21875 215.566406 183.632812 215.273438 183.972656 214.925781 C 184.355469 214.53125 184.664062 214.03125 184.707031 213.480469 C 184.726562 213.292969 184.703125 213.09375 184.609375 212.929688 C 184.519531 212.769531 184.371094 212.65625 184.226562 212.550781 C 183.300781 211.871094 182.609375 211.269531 181.640625 212.222656 C 180.992188 212.863281 180.683594 213.878906 181.007812 214.753906 Z M 84.050781 200.0625 C 84.023438 200.457031 84.003906 200.875 84.203125 201.210938 C 84.410156 201.554688 84.808594 201.742188 85.207031 201.804688 C 86.898438 202.0625 88.625 200.003906 87.550781 198.46875 C 86.394531 196.808594 84.152344 198.554688 84.050781 200.0625 Z M 140.765625 208.597656 C 140.933594 208.941406 141.28125 209.164062 141.640625 209.296875 C 142.300781 209.539062 143.066406 209.519531 143.671875 209.167969 C 144.980469 208.414062 144.871094 206.300781 143.332031 205.878906 C 142.023438 205.523438 140.117188 207.242188 140.765625 208.597656 Z M 229.085938 117.121094 C 228.402344 117.789062 228.078125 118.765625 228.078125 119.71875 C 228.078125 120.265625 228.183594 120.824219 228.464844 121.292969 C 228.726562 121.722656 229.125 122.0625 229.570312 122.300781 C 230.753906 122.945312 232.316406 122.878906 233.394531 122.066406 C 234.472656 121.257812 234.976562 119.726562 234.511719 118.457031 C 233.769531 116.4375 230.648438 115.578125 229.085938 117.121094 Z M 192.582031 132.097656 C 193.261719 133.625 195.371094 134.242188 196.835938 133.441406 C 198.304688 132.640625 198.945312 130.667969 198.363281 129.101562 C 196.472656 124.007812 190.597656 127.644531 192.582031 132.097656 Z M 163.511719 126.582031 C 162.902344 126.371094 162.203125 126.644531 161.765625 127.121094 C 161.332031 127.59375 161.113281 128.230469 160.976562 128.859375 C 160.769531 129.800781 160.769531 130.921875 161.484375 131.5625 C 161.996094 132.023438 162.730469 132.105469 163.417969 132.117188 C 164.457031 132.140625 165.617188 132 166.292969 131.210938 C 166.824219 130.59375 166.929688 129.703125 166.792969 128.902344 C 166.664062 128.148438 166.328125 127.40625 165.738281 126.917969 C 165.148438 126.429688 164.289062 126.246094 163.59375 126.570312 M 122.792969 118.96875 C 122.148438 119.398438 121.691406 120.070312 121.378906 120.777344 C 120.898438 121.867188 120.765625 123.261719 121.550781 124.164062 C 121.957031 124.628906 122.546875 124.890625 123.140625 125.046875 C 124.75 125.46875 126.535156 125.183594 127.933594 124.28125 C 129.007812 123.582031 129.902344 122.355469 129.660156 121.089844 C 129.492188 120.210938 128.789062 119.492188 127.96875 119.117188 C 126.628906 118.5 124.089844 118.085938 122.792969 118.96875 Z M 203.445312 73.453125 L 203.230469 72.9375 C 202.558594 73.214844 201.882812 73.484375 201.203125 73.742188 C 201.359375 72.179688 201.730469 70.652344 202.324219 69.195312 L 201.804688 68.980469 C 201.152344 70.574219 200.753906 72.253906 200.609375 73.96875 C 198.371094 74.8125 196.089844 75.570312 193.785156 76.230469 C 193.820312 74.433594 193.957031 72.636719 194.207031 70.867188 C 194.320312 70.070312 194.492188 69.179688 195.070312 68.644531 L 194.6875 68.230469 C 193.972656 68.890625 193.777344 69.898438 193.652344 70.789062 C 193.390625 72.632812 193.246094 74.515625 193.222656 76.382812 C 190.933594 77.023438 188.613281 77.574219 186.277344 78.027344 C 186.019531 75.167969 185.757812 71.964844 186.785156 69.109375 L 187.117188 68.96875 L 186.902344 68.453125 L 186.34375 68.6875 L 186.300781 68.800781 C 185.175781 71.820312 185.457031 75.160156 185.722656 78.128906 C 183.472656 78.554688 181.203125 78.894531 178.925781 79.144531 C 178.996094 75.617188 178.902344 72.054688 178.644531 68.535156 L 178.082031 68.574219 C 178.34375 72.097656 178.4375 75.671875 178.363281 79.199219 C 175.726562 79.472656 173.082031 79.625 170.433594 79.65625 L 170.265625 69.351562 L 169.707031 69.363281 L 169.875 79.667969 C 168.027344 79.679688 166.183594 79.640625 164.34375 79.535156 C 163.433594 79.484375 162.457031 79.414062 161.453125 79.3125 L 161.96875 79.34375 C 162.15625 76.050781 161.914062 72.75 161.25 69.523438 L 160.699219 69.632812 C 161.355469 72.8125 161.589844 76.066406 161.40625 79.308594 C 158.546875 79.019531 155.390625 78.46875 152.382812 77.300781 C 152.472656 75.199219 152.046875 73.082031 151.152344 71.175781 C 150.886719 70.617188 150.539062 69.988281 149.957031 69.59375 L 149.640625 70.058594 C 150.109375 70.378906 150.410156 70.921875 150.640625 71.414062 C 151.472656 73.179688 151.875 75.132812 151.824219 77.078125 C 151.140625 76.792969 150.460938 76.476562 149.796875 76.117188 L 149.53125 76.613281 C 154.390625 79.230469 159.980469 79.847656 164.3125 80.097656 C 165.964844 80.191406 167.625 80.238281 169.28125 80.238281 C 180.957031 80.238281 192.671875 77.917969 203.445312 73.453125 Z M 199.335938 85.679688 C 198.871094 82.8125 198.175781 79.84375 196.289062 77.5625 L 195.859375 77.917969 C 197.660156 80.101562 198.328125 82.980469 198.78125 85.773438 C 199.855469 92.402344 199.976562 99.148438 199.136719 105.816406 L 199.691406 105.886719 C 200.539062 99.167969 200.421875 92.367188 199.335938 85.679688 Z M 174.285156 107.597656 C 173.917969 99.269531 173.605469 90.8125 173.359375 82.457031 L 172.800781 82.472656 C 173.046875 90.828125 173.355469 99.292969 173.726562 107.625 Z M 220.382812 90.597656 C 218.613281 94.757812 215.195312 98.585938 211.304688 101.28125 C 211.769531 94.398438 211.488281 87.445312 210.46875 80.621094 C 210.265625 79.261719 210.015625 77.828125 209.414062 76.542969 C 208.726562 75.070312 207.652344 74.003906 206.394531 73.546875 L 206.203125 74.074219 C 207.320312 74.480469 208.28125 75.445312 208.90625 76.777344 C 209.480469 77.996094 209.710938 79.332031 209.914062 80.703125 C 210.929688 87.492188 211.207031 94.40625 210.746094 101.25 L 211.296875 101.289062 C 210.167969 102.070312 208.996094 102.761719 207.8125 103.328125 C 202.554688 105.859375 196.71875 106.945312 190.917969 107.558594 C 189.910156 107.664062 188.898438 107.753906 187.886719 107.835938 C 188.214844 98.71875 188.535156 89.300781 186.296875 80.253906 L 185.753906 80.390625 C 187.980469 89.382812 187.652344 98.777344 187.328125 107.871094 C 178.394531 108.523438 169.386719 108.105469 160.550781 106.628906 L 160.6875 106.621094 C 160.339844 100.484375 159.980469 94.136719 159.957031 87.886719 C 159.953125 85.746094 160.003906 83.667969 160.707031 81.78125 L 160.179688 81.585938 C 159.445312 83.558594 159.390625 85.691406 159.398438 87.890625 C 159.417969 94.117188 159.773438 100.433594 160.125 106.554688 C 156.515625 105.941406 152.941406 105.152344 149.414062 104.1875 C 148.585938 97.390625 148.40625 90.484375 148.886719 83.660156 C 149.007812 81.910156 149.1875 80.070312 149.871094 78.429688 L 149.351562 78.21875 C 148.636719 79.933594 148.453125 81.828125 148.328125 83.617188 C 147.851562 90.40625 148.023438 97.269531 148.832031 104.023438 C 148.289062 103.871094 147.746094 103.726562 147.210938 103.566406 C 144.46875 102.757812 141.6875 101.664062 139.238281 100.164062 C 139.273438 100.144531 139.304688 100.128906 139.332031 100.097656 C 139.441406 99.980469 139.472656 99.804688 139.414062 99.671875 L 139.167969 99.527344 C 138.792969 93.675781 138.414062 87.636719 139.171875 81.628906 C 139.382812 79.976562 139.707031 78.0625 140.5625 76.394531 L 140.0625 76.136719 C 139.171875 77.882812 138.828125 79.855469 138.617188 81.558594 C 137.84375 87.652344 138.234375 93.761719 138.617188 99.667969 C 138.617188 99.722656 138.640625 99.753906 138.652344 99.796875 C 135.992188 98.0625 133.785156 95.808594 132.570312 92.871094 C 132.636719 88.367188 132.984375 83.324219 133.046875 78.824219 C 133.066406 77.523438 133.09375 76.1875 133.578125 74.980469 C 134.878906 71.734375 138.832031 70.617188 142.277344 70.015625 C 160.113281 66.902344 178.300781 66.570312 196.402344 66.25 C 199.113281 66.199219 201.835938 66.152344 204.527344 66.449219 C 207.539062 66.773438 210.503906 67.53125 213.304688 68.6875 C 214.132812 69.027344 214.96875 69.421875 215.585938 70.070312 C 216.253906 70.78125 216.597656 71.734375 216.902344 72.660156 C 218.796875 78.4375 220.210938 84.515625 220.382812 90.597656 Z M 139.105469 99.667969 C 139.089844 99.664062 139.074219 99.664062 139.058594 99.664062 C 139.003906 99.664062 138.953125 99.683594 138.917969 99.71875 C 138.867188 99.773438 138.878906 99.855469 138.902344 99.90625 L 139.109375 99.8125 Z M 264.675781 353.398438 C 263.871094 351.726562 262.660156 350.386719 261.207031 349.285156 C 259.332031 350.195312 257.257812 350.78125 255.152344 351.089844 C 255.871094 352.539062 256.398438 354.769531 256.660156 355.90625 C 256.867188 356.777344 256.910156 357.6875 256.933594 358.472656 C 257.078125 362.652344 256.773438 366.863281 256.03125 370.980469 C 259.3125 371.132812 262.789062 370.839844 264.585938 368.246094 C 265.71875 366.621094 265.8125 364.515625 265.867188 362.53125 C 265.957031 359.433594 266.019531 356.195312 264.675781 353.398438 Z M 217.011719 348.070312 L 216.460938 348.175781 C 217.976562 355.835938 218.144531 363.632812 216.949219 371.347656 L 217.5 371.433594 C 218.703125 363.652344 218.542969 355.792969 217.011719 348.070312 Z M 110.984375 356.332031 C 111.007812 354.378906 111.125 352.160156 112.316406 350.554688 L 111.867188 350.21875 C 110.578125 351.960938 110.445312 354.285156 110.425781 356.324219 C 110.371094 361.972656 110.800781 367.664062 111.710938 373.242188 L 112.261719 373.152344 C 111.359375 367.605469 110.929688 361.945312 110.984375 356.332031 Z M 244.199219 370.472656 C 239.839844 370.449219 235.347656 370.578125 230.792969 370.820312 C 231.128906 369.613281 231.472656 368.371094 231.753906 367.132812 C 233.109375 361.230469 233.261719 354.964844 232.195312 349.007812 L 231.644531 349.105469 C 232.699219 354.988281 232.546875 361.179688 231.207031 367.007812 C 230.914062 368.289062 230.554688 369.578125 230.203125 370.847656 C 221.65625 371.316406 212.921875 372.132812 204.5625 372.878906 C 205.300781 364.785156 206.109375 355.644531 203.511719 347.304688 L 202.972656 347.476562 C 205.550781 355.742188 204.734375 364.863281 203.996094 372.929688 C 198.875 373.382812 193.890625 373.8125 189.1875 374.113281 C 189.0625 374.121094 188.9375 374.125 188.8125 374.132812 C 189.621094 365.21875 190.039062 356.175781 190.042969 347.234375 L 189.480469 347.234375 C 189.476562 356.183594 189.058594 365.242188 188.246094 374.160156 C 172.097656 375.128906 155.898438 374.636719 139.730469 374.136719 C 134.738281 373.980469 129.75 373.824219 124.761719 373.671875 C 124.078125 369.0625 123.703125 364.367188 123.648438 359.710938 C 123.625 357.34375 123.679688 354.625 124.726562 352.296875 L 124.214844 352.0625 C 123.121094 354.5 123.058594 357.292969 123.089844 359.71875 C 123.140625 364.367188 123.519531 369.050781 124.195312 373.652344 C 120.070312 373.523438 115.945312 373.394531 111.820312 373.269531 C 109.957031 373.210938 107.960938 373.105469 106.496094 371.957031 C 104.804688 370.632812 104.324219 368.316406 103.953125 366.199219 C 103.457031 363.363281 102.960938 360.523438 102.464844 357.691406 C 101.859375 354.222656 102.203125 351.261719 103.328125 348.800781 C 103.464844 348.941406 103.578125 349.09375 103.71875 349.226562 C 107.25 349.859375 110.910156 349.761719 114.445312 350.390625 C 119.625 351.320312 124.816406 352.25 130.0625 352.621094 C 132.824219 352.816406 135.582031 352.839844 138.335938 352.765625 C 137.375 357.351562 137.847656 362.050781 138.316406 366.597656 L 139.085938 374.078125 L 139.644531 374.023438 L 138.875 366.539062 C 138.40625 361.988281 137.925781 357.289062 138.90625 352.746094 C 144.421875 352.558594 149.925781 351.929688 155.425781 351.136719 C 154.453125 354.304688 154.457031 357.636719 154.554688 360.777344 C 154.695312 365.328125 155.035156 369.925781 155.574219 374.445312 L 156.132812 374.382812 C 155.597656 369.878906 155.253906 365.292969 155.113281 360.757812 C 155.019531 357.640625 155.007812 354.332031 155.984375 351.21875 L 155.628906 351.109375 C 161.230469 350.300781 166.828125 349.347656 172.441406 348.566406 C 171.472656 357.164062 171.363281 365.894531 172.121094 374.511719 L 172.675781 374.464844 C 171.921875 365.839844 172.035156 357.105469 173.011719 348.5 L 172.964844 348.496094 C 177.445312 347.882812 181.933594 347.382812 186.4375 347.175781 C 191.664062 346.933594 196.902344 347.082031 202.136719 347.226562 C 207.628906 347.382812 213.117188 347.539062 218.605469 347.691406 C 223.804688 347.835938 229.023438 347.980469 234.167969 348.761719 C 237.441406 349.261719 240.691406 350.007812 243.953125 350.570312 C 245.375 356.441406 245.351562 363.636719 243.871094 370.402344 Z M 255.476562 370.90625 C 256.214844 366.816406 256.515625 362.640625 256.375 358.492188 C 256.347656 357.695312 256.308594 356.855469 256.113281 356.03125 C 255.84375 354.867188 255.289062 352.527344 254.554688 351.160156 C 253.511719 351.285156 252.460938 351.347656 251.421875 351.34375 C 249.117188 351.328125 246.828125 351.050781 244.550781 350.675781 C 245.929688 356.570312 245.894531 363.734375 244.429688 370.476562 C 247.792969 370.5 251.085938 370.613281 254.246094 370.867188 C 254.777344 370.910156 255.320312 370.949219 255.871094 370.976562 Z M 374.636719 324.476562 C 374.445312 320.609375 372.664062 317.027344 370.921875 313.578125 C 369.75 311.265625 368.285156 308.730469 366.085938 307.609375 C 366.054688 307.742188 366.035156 307.878906 366.003906 308.015625 C 365.726562 309.167969 365.347656 310.320312 364.628906 311.269531 C 363.726562 312.457031 362.378906 313.207031 361.097656 313.980469 C 363.929688 317.664062 365.703125 322.011719 367.414062 326.21875 L 368.828125 329.691406 L 368.859375 329.640625 C 369.195312 329.832031 369.375 330.238281 369.335938 330.617188 C 370.351562 329.941406 371.363281 329.265625 372.382812 328.585938 C 373.097656 328.109375 373.839844 327.597656 374.25 326.84375 C 374.636719 326.128906 374.675781 325.28125 374.636719 324.476562 Z M 354.367188 321.832031 C 354.03125 321.203125 353.605469 320.425781 352.925781 320.066406 L 352.941406 320.039062 C 350.644531 321.972656 348.386719 323.964844 346.03125 325.820312 C 347.675781 327.785156 349.089844 329.941406 350.230469 332.234375 C 350.75 333.273438 351.214844 334.351562 351.667969 335.398438 C 352.441406 337.175781 353.238281 339.015625 354.292969 340.667969 C 359.113281 337.449219 363.933594 334.226562 368.753906 331.007812 L 366.894531 326.429688 C 365.1875 322.242188 363.425781 317.910156 360.617188 314.277344 C 358.050781 315.875 355.675781 317.746094 353.351562 319.691406 C 354.074219 320.152344 354.511719 320.925781 354.859375 321.566406 L 362.300781 335.316406 L 361.808594 335.582031 Z M 351.15625 335.617188 C 350.703125 334.582031 350.238281 333.507812 349.730469 332.484375 C 348.605469 330.222656 347.210938 328.101562 345.589844 326.167969 C 344.382812 327.101562 343.152344 328 341.867188 328.832031 C 338.664062 330.90625 334.914062 332.507812 331.136719 333.15625 C 331 334.621094 331.214844 336.210938 331.761719 337.761719 C 332.167969 338.914062 332.75 340.03125 333.308594 341.109375 L 337.636719 349.421875 C 337.695312 349.542969 337.816406 349.632812 337.859375 349.640625 C 337.835938 349.640625 337.789062 349.65625 337.773438 349.683594 L 338.25 349.976562 C 338.160156 350.121094 338.015625 350.203125 337.851562 350.203125 C 337.847656 350.203125 337.839844 350.203125 337.835938 350.203125 C 337.546875 350.191406 337.265625 349.929688 337.136719 349.683594 L 332.816406 341.386719 C 332.238281 340.273438 331.652344 339.140625 331.230469 337.949219 C 330.675781 336.371094 330.457031 334.753906 330.574219 333.25 C 328.820312 333.511719 327.066406 333.5625 325.363281 333.355469 C 324.480469 337.546875 327.996094 343.738281 329.625 346.652344 C 330.300781 347.855469 331.011719 349.105469 332.144531 349.890625 C 334.394531 351.445312 337.472656 350.707031 339.960938 349.578125 C 342.28125 348.523438 344.460938 347.195312 346.597656 345.796875 C 343.382812 341.433594 339.839844 336.5 338.820312 330.761719 L 339.375 330.660156 C 340.371094 336.285156 343.882812 341.164062 347.066406 345.488281 C 347.597656 345.136719 348.128906 344.785156 348.65625 344.429688 C 350.382812 343.277344 352.101562 342.128906 353.824219 340.980469 C 352.746094 339.285156 351.933594 337.421875 351.15625 335.617188 Z M 21.773438 346.664062 C 23.785156 341.734375 25.222656 336.574219 26.050781 331.320312 C 24.707031 330.863281 23.367188 330.40625 22.023438 329.953125 C 20.808594 329.535156 19.566406 329.101562 18.339844 328.628906 C 15.0625 332.855469 14.15625 338.4375 13.371094 343.378906 L 14.054688 343.707031 C 16.507812 344.890625 18.984375 346.085938 21.632812 346.710938 C 21.804688 346.75 21.976562 346.78125 22.148438 346.816406 Z M 47.292969 337.101562 C 46.929688 337.167969 46.5625 337.21875 46.191406 337.242188 C 43.921875 337.375 41.703125 336.636719 39.550781 335.90625 C 35.230469 334.4375 30.910156 332.96875 26.589844 331.5 C 25.753906 336.753906 24.3125 341.917969 22.300781 346.847656 C 23.910156 347.171875 25.546875 347.351562 27.144531 347.730469 C 28.511719 348.058594 29.835938 348.539062 31.152344 349.066406 L 30.871094 348.9375 C 33.074219 344.246094 35 339.609375 34.363281 334.414062 L 34.917969 334.34375 C 35.574219 339.679688 33.535156 344.589844 31.382812 349.160156 C 33.507812 350.019531 35.601562 350.972656 37.765625 351.574219 L 37.53125 351.496094 C 37.84375 350.53125 38.1875 349.605469 38.523438 348.71875 C 38.855469 347.828125 39.203125 346.914062 39.507812 345.957031 C 40.433594 343.09375 41.480469 339.851562 40.902344 336.695312 L 41.453125 336.59375 C 42.058594 339.890625 40.988281 343.203125 40.042969 346.128906 C 39.730469 347.097656 39.382812 348.023438 39.050781 348.914062 C 38.71875 349.792969 38.378906 350.703125 38.070312 351.65625 C 39.082031 351.914062 40.109375 352.097656 41.167969 352.148438 C 41.957031 352.183594 42.773438 352.136719 43.480469 351.785156 C 44.601562 351.214844 45.214844 349.992188 45.75 348.847656 C 46.640625 346.933594 47.546875 344.984375 47.871094 342.894531 C 48.171875 340.941406 47.925781 338.96875 47.292969 337.101562 Z M 12.84375 343.121094 L 2.964844 338.355469 C 1.242188 337.519531 0.359375 335.582031 0.871094 333.738281 C 1.726562 330.617188 2.9375 326.238281 3.128906 325.601562 C 3.800781 323.433594 4.789062 321.703125 6.328125 320.339844 C 7.480469 322.109375 9.019531 323.566406 10.773438 324.796875 C 9.4375 325.519531 8.332031 326.65625 7.660156 328.019531 C 7.21875 328.914062 6.964844 329.882812 6.722656 330.820312 L 5.21875 336.628906 C 5.019531 337.394531 4.816406 338.1875 4.757812 339.003906 L 5.316406 339.042969 C 5.371094 338.277344 5.570312 337.507812 5.761719 336.765625 L 7.265625 330.960938 C 7.5 330.050781 7.746094 329.113281 8.160156 328.269531 C 8.792969 326.984375 9.835938 325.914062 11.105469 325.253906 L 10.917969 324.898438 C 12.992188 326.332031 15.367188 327.457031 17.796875 328.417969 C 14.550781 332.691406 13.625 338.207031 12.84375 343.121094"/></g></svg>