<svg xmlns="http://www.w3.org/2000/svg" width="375" viewBox="0 0 375 375" height="375" version="1.0"><defs><clipPath id="a"><path d="M 241 152 L 287 152 L 287 198 L 241 198 Z M 241 152"/></clipPath><clipPath id="b"><path d="M 307.769531 188.417969 L 247.34375 217.855469 L 219.886719 161.425781 L 280.3125 131.988281 Z M 307.769531 188.417969"/></clipPath><clipPath id="c"><path d="M 279.011719 155.53125 C 280.148438 156.421875 281.175781 157.425781 282.09375 158.546875 C 283.015625 159.664062 283.808594 160.875 284.480469 162.179688 C 285.148438 163.488281 285.679688 164.859375 286.074219 166.300781 C 286.46875 167.742188 286.71875 169.222656 286.820312 170.746094 C 286.925781 172.269531 286.878906 173.800781 286.6875 175.34375 C 286.496094 176.890625 286.160156 178.414062 285.683594 179.921875 C 285.203125 181.429688 284.589844 182.886719 283.839844 184.300781 C 283.089844 185.710938 282.222656 187.050781 281.234375 188.3125 C 280.246094 189.574219 279.15625 190.738281 277.964844 191.804688 C 276.773438 192.871094 275.503906 193.816406 274.15625 194.640625 C 272.808594 195.46875 271.40625 196.160156 269.953125 196.714844 C 268.503906 197.269531 267.027344 197.679688 265.523438 197.945312 C 264.023438 198.207031 262.523438 198.320312 261.03125 198.28125 C 259.539062 198.246094 258.078125 198.054688 256.652344 197.71875 C 255.226562 197.378906 253.859375 196.894531 252.554688 196.269531 C 251.25 195.644531 250.027344 194.886719 248.894531 193.996094 C 247.757812 193.105469 246.730469 192.101562 245.8125 190.984375 C 244.890625 189.863281 244.097656 188.652344 243.425781 187.347656 C 242.757812 186.042969 242.226562 184.667969 241.832031 183.226562 C 241.4375 181.789062 241.1875 180.304688 241.085938 178.785156 C 240.984375 177.261719 241.027344 175.730469 241.21875 174.183594 C 241.410156 172.640625 241.746094 171.113281 242.226562 169.609375 C 242.703125 168.101562 243.320312 166.640625 244.066406 165.230469 C 244.816406 163.816406 245.683594 162.480469 246.671875 161.214844 C 247.660156 159.953125 248.753906 158.789062 249.941406 157.726562 C 251.132812 156.660156 252.402344 155.714844 253.75 154.886719 C 255.097656 154.0625 256.5 153.371094 257.953125 152.816406 C 259.40625 152.257812 260.882812 151.851562 262.382812 151.585938 C 263.882812 151.320312 265.382812 151.210938 266.875 151.246094 C 268.367188 151.285156 269.828125 151.472656 271.253906 151.8125 C 272.679688 152.152344 274.046875 152.632812 275.351562 153.257812 C 276.660156 153.886719 277.878906 154.644531 279.011719 155.53125 Z M 279.011719 155.53125"/></clipPath><clipPath id="d"><path d="M 239 152 L 280 152 L 280 198 L 239 198 Z M 239 152"/></clipPath><clipPath id="e"><path d="M 241.875 185.617188 C 241.242188 184.320312 240.757812 182.96875 240.421875 181.558594 C 240.085938 180.148438 239.898438 178.710938 239.867188 177.246094 C 239.835938 175.777344 239.960938 174.3125 240.234375 172.84375 C 240.511719 171.375 240.9375 169.933594 241.507812 168.519531 C 242.082031 167.105469 242.792969 165.746094 243.640625 164.441406 C 244.488281 163.136719 245.457031 161.914062 246.546875 160.769531 C 247.640625 159.625 248.828125 158.578125 250.121094 157.636719 C 251.410156 156.695312 252.777344 155.875 254.21875 155.171875 C 255.660156 154.46875 257.148438 153.902344 258.6875 153.464844 C 260.222656 153.03125 261.777344 152.734375 263.351562 152.582031 C 264.925781 152.429688 266.484375 152.421875 268.035156 152.558594 C 269.582031 152.695312 271.089844 152.972656 272.554688 153.394531 C 274.023438 153.816406 275.417969 154.367188 276.742188 155.058594 C 278.070312 155.746094 279.296875 156.554688 280.433594 157.484375 C 281.566406 158.414062 282.585938 159.445312 283.484375 160.578125 C 284.386719 161.714844 285.152344 162.929688 285.78125 164.226562 C 286.414062 165.523438 286.898438 166.878906 287.234375 168.285156 C 287.574219 169.695312 287.757812 171.132812 287.789062 172.597656 C 287.820312 174.066406 287.695312 175.535156 287.421875 177.003906 C 287.144531 178.472656 286.71875 179.910156 286.148438 181.324219 C 285.574219 182.738281 284.863281 184.097656 284.015625 185.402344 C 283.167969 186.707031 282.199219 187.929688 281.109375 189.078125 C 280.015625 190.222656 278.828125 191.265625 277.535156 192.207031 C 276.246094 193.148438 274.878906 193.96875 273.4375 194.671875 C 271.996094 195.375 270.507812 195.945312 268.96875 196.378906 C 267.433594 196.816406 265.878906 197.109375 264.304688 197.261719 C 262.730469 197.414062 261.171875 197.421875 259.621094 197.285156 C 258.074219 197.148438 256.566406 196.871094 255.101562 196.449219 C 253.632812 196.03125 252.238281 195.476562 250.914062 194.789062 C 249.589844 194.097656 248.359375 193.289062 247.222656 192.359375 C 246.089844 191.433594 245.070312 190.398438 244.171875 189.265625 C 243.269531 188.128906 242.503906 186.914062 241.875 185.617188 Z M 241.875 185.617188"/></clipPath><clipPath id="f"><path d="M 70 152 L 117 152 L 117 198 L 70 198 Z M 70 152"/></clipPath><clipPath id="g"><path d="M 77.285156 131.949219 L 137.707031 161.386719 L 110.25 217.8125 L 49.828125 188.378906 Z M 77.285156 131.949219"/></clipPath><clipPath id="h"><path d="M 108.8125 194.15625 C 107.675781 195.046875 106.457031 195.804688 105.152344 196.429688 C 103.84375 197.058594 102.480469 197.539062 101.050781 197.878906 C 99.625 198.214844 98.164062 198.40625 96.671875 198.441406 C 95.179688 198.480469 93.683594 198.367188 92.179688 198.105469 C 90.679688 197.839844 89.203125 197.429688 87.75 196.875 C 86.296875 196.320312 84.898438 195.628906 83.550781 194.800781 C 82.203125 193.976562 80.933594 193.03125 79.742188 191.964844 C 78.550781 190.898438 77.460938 189.734375 76.472656 188.472656 C 75.484375 187.210938 74.613281 185.875 73.867188 184.460938 C 73.117188 183.050781 72.503906 181.589844 72.023438 180.082031 C 71.542969 178.574219 71.207031 177.050781 71.015625 175.503906 C 70.824219 173.960938 70.78125 172.429688 70.882812 170.90625 C 70.988281 169.382812 71.234375 167.902344 71.628906 166.460938 C 72.023438 165.019531 72.554688 163.648438 73.226562 162.34375 C 73.894531 161.035156 74.691406 159.824219 75.609375 158.707031 C 76.53125 157.585938 77.558594 156.582031 78.691406 155.695312 C 79.828125 154.804688 81.046875 154.046875 82.351562 153.417969 C 83.660156 152.792969 85.023438 152.3125 86.453125 151.972656 C 87.878906 151.632812 89.339844 151.445312 90.832031 151.40625 C 92.324219 151.371094 93.820312 151.484375 95.324219 151.746094 C 96.824219 152.011719 98.300781 152.421875 99.753906 152.976562 C 101.207031 153.53125 102.605469 154.222656 103.953125 155.046875 C 105.300781 155.875 106.570312 156.820312 107.761719 157.886719 C 108.953125 158.949219 110.042969 160.113281 111.03125 161.378906 C 112.019531 162.640625 112.890625 163.976562 113.636719 165.390625 C 114.386719 166.800781 115 168.261719 115.480469 169.769531 C 115.960938 171.273438 116.296875 172.800781 116.488281 174.34375 C 116.679688 175.890625 116.722656 177.421875 116.621094 178.945312 C 116.515625 180.464844 116.269531 181.949219 115.875 183.390625 C 115.480469 184.832031 114.949219 186.203125 114.277344 187.507812 C 113.609375 188.8125 112.8125 190.027344 111.894531 191.144531 C 110.972656 192.261719 109.945312 193.265625 108.8125 194.15625 Z M 108.8125 194.15625"/></clipPath><clipPath id="i"><path d="M 78 152 L 118 152 L 118 198 L 78 198 Z M 78 152"/></clipPath><clipPath id="j"><path d="M 115.71875 185.578125 C 115.089844 186.875 114.324219 188.089844 113.421875 189.222656 C 112.523438 190.359375 111.507812 191.390625 110.371094 192.320312 C 109.238281 193.25 108.007812 194.058594 106.679688 194.746094 C 105.355469 195.433594 103.960938 195.988281 102.496094 196.410156 C 101.03125 196.828125 99.523438 197.109375 97.972656 197.246094 C 96.425781 197.382812 94.863281 197.375 93.289062 197.222656 C 91.714844 197.070312 90.160156 196.773438 88.625 196.339844 C 87.085938 195.902344 85.597656 195.332031 84.15625 194.632812 C 82.714844 193.929688 81.347656 193.105469 80.058594 192.164062 C 78.769531 191.222656 77.578125 190.179688 76.488281 189.035156 C 75.398438 187.890625 74.425781 186.664062 73.578125 185.359375 C 72.730469 184.058594 72.019531 182.699219 71.449219 181.285156 C 70.875 179.871094 70.449219 178.429688 70.175781 176.960938 C 69.898438 175.492188 69.773438 174.023438 69.804688 172.558594 C 69.839844 171.089844 70.023438 169.652344 70.359375 168.246094 C 70.699219 166.835938 71.183594 165.484375 71.8125 164.1875 C 72.445312 162.890625 73.210938 161.671875 74.109375 160.539062 C 75.007812 159.402344 76.027344 158.371094 77.160156 157.441406 C 78.296875 156.511719 79.527344 155.703125 80.851562 155.015625 C 82.175781 154.328125 83.574219 153.773438 85.039062 153.351562 C 86.503906 152.933594 88.011719 152.65625 89.558594 152.519531 C 91.109375 152.382812 92.671875 152.390625 94.242188 152.542969 C 95.816406 152.695312 97.371094 152.988281 98.910156 153.425781 C 100.445312 153.859375 101.933594 154.429688 103.375 155.132812 C 104.816406 155.832031 106.183594 156.65625 107.476562 157.597656 C 108.765625 158.539062 109.957031 159.582031 111.046875 160.726562 C 112.136719 161.871094 113.105469 163.097656 113.953125 164.402344 C 114.800781 165.707031 115.511719 167.066406 116.085938 168.476562 C 116.660156 169.890625 117.082031 171.332031 117.359375 172.800781 C 117.636719 174.269531 117.757812 175.738281 117.726562 177.203125 C 117.695312 178.671875 117.511719 180.109375 117.171875 181.519531 C 116.835938 182.925781 116.351562 184.28125 115.71875 185.578125 Z M 115.71875 185.578125"/></clipPath><clipPath id="k"><path d="M 272 161 L 328 161 L 328 188.285156 L 272 188.285156 Z M 272 161"/></clipPath><clipPath id="l"><path d="M 81.441406 109.160156 C 81.441406 109.160156 77.40625 0 190.535156 0 C 320.011719 0 350.703125 107.367188 311.949219 188.058594 L 288.875 188.058594 C 288.875 188.058594 278.570312 141.4375 278.570312 119.023438 C 278.570312 99.96875 267.59375 112.523438 243.847656 108.039062 C 197.03125 99.074219 110.785156 125.074219 82.335938 126.417969 C 80.320312 126.644531 81.441406 115.882812 81.441406 109.160156 Z M 81.441406 109.160156"/></clipPath></defs><path fill="#FFF" d="M 251.242188 123.503906 L 257.066406 111.175781 L 278.121094 105.351562 C 278.121094 105.351562 298.507812 135.609375 279.691406 203.75 C 262.441406 267.183594 244.96875 163.179688 244.96875 163.179688 L 251.242188 123.503906"/><g clip-path="url(#a)"><g clip-path="url(#b)"><g clip-path="url(#c)"><path fill="#FFCE9B" d="M 241.875 185.617188 C 241.558594 184.96875 241.28125 184.308594 241.039062 183.628906 C 240.796875 182.953125 240.589844 182.261719 240.421875 181.558594 C 240.253906 180.855469 240.121094 180.144531 240.03125 179.421875 C 239.9375 178.703125 239.882812 177.976562 239.867188 177.246094 C 239.851562 176.511719 239.875 175.78125 239.9375 175.042969 C 240 174.308594 240.097656 173.574219 240.234375 172.84375 C 240.375 172.109375 240.546875 171.382812 240.761719 170.660156 C 240.972656 169.9375 241.222656 169.222656 241.507812 168.519531 C 241.796875 167.8125 242.117188 167.121094 242.472656 166.441406 C 242.828125 165.757812 243.21875 165.09375 243.640625 164.441406 C 244.0625 163.792969 244.519531 163.160156 245.003906 162.546875 C 245.488281 161.933594 246.003906 161.339844 246.546875 160.769531 C 247.09375 160.199219 247.664062 159.648438 248.257812 159.128906 C 248.855469 158.605469 249.476562 158.109375 250.121094 157.636719 C 250.765625 157.167969 251.429688 156.726562 252.113281 156.316406 C 252.796875 155.902344 253.5 155.523438 254.21875 155.171875 C 254.9375 154.820312 255.671875 154.503906 256.417969 154.21875 C 257.164062 153.933594 257.917969 153.683594 258.6875 153.464844 C 259.453125 153.246094 260.226562 153.066406 261.003906 152.917969 C 261.785156 152.769531 262.566406 152.660156 263.351562 152.582031 C 264.136719 152.507812 264.917969 152.464844 265.703125 152.460938 C 266.484375 152.457031 267.261719 152.492188 268.035156 152.558594 C 268.808594 152.628906 269.570312 152.730469 270.328125 152.871094 C 271.082031 153.011719 271.824219 153.183594 272.554688 153.394531 C 273.289062 153.605469 274.003906 153.847656 274.703125 154.125 C 275.402344 154.402344 276.082031 154.714844 276.742188 155.058594 C 277.402344 155.402344 278.042969 155.773438 278.660156 156.179688 C 279.277344 156.585938 279.867188 157.019531 280.433594 157.484375 C 281 157.945312 281.535156 158.4375 282.046875 158.953125 C 282.558594 159.472656 283.035156 160.015625 283.484375 160.578125 C 283.933594 161.144531 284.351562 161.734375 284.734375 162.34375 C 285.117188 162.953125 285.46875 163.582031 285.78125 164.226562 C 286.097656 164.875 286.375 165.535156 286.617188 166.214844 C 286.859375 166.894531 287.066406 167.582031 287.234375 168.285156 C 287.402344 168.988281 287.535156 169.699219 287.625 170.421875 C 287.71875 171.140625 287.773438 171.867188 287.789062 172.597656 C 287.804688 173.332031 287.78125 174.066406 287.71875 174.800781 C 287.660156 175.535156 287.558594 176.269531 287.421875 177.003906 C 287.285156 177.734375 287.109375 178.460938 286.894531 179.183594 C 286.683594 179.90625 286.433594 180.621094 286.148438 181.324219 C 285.859375 182.03125 285.539062 182.722656 285.183594 183.40625 C 284.828125 184.085938 284.4375 184.75 284.015625 185.402344 C 283.59375 186.050781 283.136719 186.683594 282.652344 187.296875 C 282.167969 187.914062 281.652344 188.503906 281.109375 189.078125 C 280.5625 189.648438 279.992188 190.195312 279.398438 190.71875 C 278.800781 191.242188 278.179688 191.738281 277.535156 192.207031 C 276.894531 192.675781 276.226562 193.117188 275.542969 193.527344 C 274.859375 193.941406 274.15625 194.320312 273.4375 194.671875 C 272.71875 195.023438 271.988281 195.339844 271.238281 195.625 C 270.492188 195.910156 269.738281 196.160156 268.96875 196.378906 C 268.203125 196.597656 267.429688 196.777344 266.652344 196.925781 C 265.871094 197.074219 265.089844 197.1875 264.304688 197.261719 C 263.519531 197.339844 262.738281 197.378906 261.953125 197.382812 C 261.171875 197.386719 260.394531 197.355469 259.621094 197.285156 C 258.847656 197.21875 258.085938 197.113281 257.328125 196.972656 C 256.574219 196.835938 255.832031 196.660156 255.101562 196.449219 C 254.367188 196.242188 253.652344 195.996094 252.953125 195.71875 C 252.253906 195.441406 251.574219 195.128906 250.914062 194.789062 C 250.253906 194.445312 249.613281 194.070312 248.996094 193.664062 C 248.378906 193.257812 247.789062 192.824219 247.222656 192.359375 C 246.65625 191.898438 246.121094 191.40625 245.609375 190.890625 C 245.101562 190.371094 244.621094 189.832031 244.171875 189.265625 C 243.722656 188.699219 243.304688 188.109375 242.921875 187.5 C 242.539062 186.890625 242.1875 186.265625 241.875 185.617188 Z M 241.875 185.617188"/></g></g></g><g clip-path="url(#d)"><g clip-path="url(#e)"><path d="M 109.890625 266.511719 L 279.019531 266.511719 L 279.019531 167.664062 C 279.019531 136.730469 253.929688 111.851562 223.015625 111.851562 L 167.011719 111.851562 C 136.097656 111.851562 110.113281 136.507812 110.113281 167.4375 L 110.113281 266.511719 Z M 109.890625 266.511719" fill-opacity=".047"/></g></g><path fill="#FFF" d="M 109.441406 123.503906 L 103.617188 111.175781 L 85.695312 124.625 C 85.695312 124.625 72.925781 142.109375 91.519531 210.25 C 108.769531 273.683594 115.9375 163.179688 115.9375 163.179688 L 109.441406 123.503906"/><g clip-path="url(#f)"><g clip-path="url(#g)"><g clip-path="url(#h)"><path fill="#FFCE9B" d="M 115.71875 185.578125 C 115.40625 186.222656 115.054688 186.851562 114.671875 187.460938 C 114.289062 188.070312 113.871094 188.65625 113.421875 189.222656 C 112.976562 189.789062 112.496094 190.332031 111.984375 190.847656 C 111.476562 191.367188 110.9375 191.855469 110.371094 192.320312 C 109.804688 192.785156 109.214844 193.21875 108.597656 193.625 C 107.980469 194.027344 107.34375 194.402344 106.679688 194.746094 C 106.019531 195.089844 105.339844 195.398438 104.640625 195.679688 C 103.941406 195.957031 103.226562 196.199219 102.496094 196.410156 C 101.765625 196.617188 101.019531 196.792969 100.265625 196.933594 C 99.511719 197.074219 98.746094 197.175781 97.972656 197.246094 C 97.199219 197.3125 96.421875 197.34375 95.640625 197.339844 C 94.859375 197.335938 94.074219 197.296875 93.289062 197.222656 C 92.503906 197.144531 91.722656 197.03125 90.945312 196.886719 C 90.164062 196.738281 89.390625 196.554688 88.625 196.339844 C 87.859375 196.121094 87.101562 195.871094 86.355469 195.585938 C 85.609375 195.300781 84.875 194.980469 84.15625 194.632812 C 83.4375 194.28125 82.734375 193.898438 82.050781 193.488281 C 81.367188 193.074219 80.703125 192.636719 80.058594 192.164062 C 79.414062 191.695312 78.792969 191.199219 78.199219 190.675781 C 77.601562 190.152344 77.03125 189.605469 76.488281 189.035156 C 75.941406 188.464844 75.429688 187.871094 74.941406 187.257812 C 74.457031 186.644531 74.003906 186.011719 73.578125 185.359375 C 73.15625 184.710938 72.765625 184.042969 72.410156 183.363281 C 72.054688 182.683594 71.734375 181.988281 71.449219 181.285156 C 71.160156 180.578125 70.914062 179.867188 70.699219 179.144531 C 70.488281 178.421875 70.3125 177.695312 70.175781 176.960938 C 70.035156 176.230469 69.9375 175.496094 69.875 174.757812 C 69.8125 174.023438 69.789062 173.289062 69.804688 172.558594 C 69.820312 171.828125 69.875 171.101562 69.96875 170.378906 C 70.0625 169.660156 70.191406 168.949219 70.359375 168.246094 C 70.527344 167.542969 70.734375 166.851562 70.976562 166.171875 C 71.21875 165.496094 71.5 164.832031 71.8125 164.1875 C 72.128906 163.539062 72.476562 162.910156 72.859375 162.300781 C 73.246094 161.691406 73.660156 161.105469 74.109375 160.539062 C 74.558594 159.972656 75.039062 159.429688 75.546875 158.914062 C 76.058594 158.394531 76.597656 157.90625 77.160156 157.441406 C 77.726562 156.980469 78.320312 156.542969 78.933594 156.140625 C 79.550781 155.734375 80.191406 155.359375 80.851562 155.015625 C 81.511719 154.671875 82.191406 154.363281 82.894531 154.085938 C 83.59375 153.808594 84.308594 153.5625 85.039062 153.351562 C 85.769531 153.144531 86.511719 152.96875 87.269531 152.828125 C 88.023438 152.691406 88.789062 152.585938 89.558594 152.519531 C 90.332031 152.449219 91.109375 152.417969 91.894531 152.421875 C 92.675781 152.425781 93.460938 152.464844 94.242188 152.542969 C 95.027344 152.617188 95.808594 152.730469 96.589844 152.878906 C 97.371094 153.023438 98.140625 153.207031 98.910156 153.425781 C 99.675781 153.640625 100.433594 153.894531 101.179688 154.179688 C 101.925781 154.464844 102.65625 154.78125 103.375 155.132812 C 104.09375 155.480469 104.796875 155.863281 105.480469 156.273438 C 106.167969 156.6875 106.832031 157.128906 107.476562 157.597656 C 108.117188 158.066406 108.738281 158.5625 109.335938 159.085938 C 109.933594 159.609375 110.503906 160.15625 111.046875 160.726562 C 111.589844 161.296875 112.105469 161.890625 112.589844 162.503906 C 113.078125 163.117188 113.53125 163.75 113.953125 164.402344 C 114.375 165.050781 114.765625 165.71875 115.121094 166.398438 C 115.480469 167.082031 115.800781 167.773438 116.085938 168.476562 C 116.371094 169.183594 116.621094 169.898438 116.832031 170.621094 C 117.046875 171.339844 117.222656 172.070312 117.359375 172.800781 C 117.496094 173.535156 117.597656 174.269531 117.65625 175.003906 C 117.71875 175.738281 117.742188 176.472656 117.726562 177.203125 C 117.710938 177.9375 117.65625 178.660156 117.566406 179.382812 C 117.472656 180.101562 117.339844 180.816406 117.171875 181.519531 C 117.003906 182.21875 116.800781 182.910156 116.554688 183.589844 C 116.3125 184.265625 116.035156 184.929688 115.71875 185.578125 Z M 115.71875 185.578125"/></g></g></g><g clip-path="url(#i)"><g clip-path="url(#j)"><path d="M 246.535156 266.511719 L 78.75 266.511719 L 80.992188 167.664062 C 80.992188 136.730469 103.839844 111.851562 134.753906 111.851562 L 190.757812 111.851562 C 221.671875 111.851562 246.535156 136.507812 246.535156 167.4375 Z M 246.535156 266.511719" fill-opacity=".047"/></g></g><path fill="#FFF" d="M 268.9375 123.503906 C 268.9375 123.503906 276.554688 153.765625 270.953125 191.199219 C 265.355469 228.632812 231.753906 210.476562 231.753906 210.476562 L 217.640625 104.230469 Z M 268.9375 123.503906"/><path fill="#FFF" d="M 91.519531 123.503906 C 91.519531 123.503906 83.902344 153.765625 89.503906 191.199219 C 95.328125 228.632812 128.707031 210.476562 128.707031 210.476562 L 143.042969 104.003906 Z M 91.519531 123.503906"/><path fill="#FFCE9B" d="M 264.234375 266.738281 L 96.226562 266.738281 L 96.226562 167.4375 C 96.226562 136.507812 121.3125 111.402344 152.226562 111.402344 L 208.230469 111.402344 C 239.144531 111.402344 264.234375 136.507812 264.234375 167.4375 Z M 264.234375 266.738281"/><path d="M 270.058594 146.816406 L 242.058594 141.660156 C 200.839844 134.265625 158.5 134.265625 117.28125 141.660156 L 89.953125 146.59375 C 85.472656 147.488281 81.441406 144.128906 81.886719 139.644531 L 82.335938 135.160156 L 82.558594 128.886719 L 81.214844 121.710938 C 81.214844 118.125 83.679688 114.988281 87.265625 114.539062 L 117.953125 108.9375 C 159.171875 101.539062 201.511719 101.539062 242.730469 108.9375 L 272.746094 114.316406 C 276.332031 114.988281 278.792969 118.125 278.792969 121.488281 L 283.273438 139.644531 C 283.273438 142.109375 292.234375 151.300781 289.097656 150.851562 C 284.171875 150.179688 272.074219 147.042969 270.058594 146.816406 Z M 270.058594 146.816406" fill-opacity=".098"/><path fill="#F92545" d="M 81.441406 109.160156 C 81.441406 109.160156 77.40625 0 190.535156 0 C 320.011719 0 350.703125 107.367188 311.949219 188.058594 L 288.875 188.058594 C 288.875 188.058594 278.570312 141.4375 278.570312 119.023438 C 278.570312 99.96875 267.59375 112.523438 243.847656 108.039062 C 197.03125 99.074219 110.785156 125.074219 82.335938 126.417969 C 80.320312 126.644531 81.441406 115.882812 81.441406 109.160156 Z M 81.441406 109.160156"/><path fill="#F92545" d="M 193.671875 209.578125 L 164.101562 209.578125 L 164.101562 167.214844 C 164.101562 160.042969 169.925781 154.214844 177.09375 154.214844 L 180.902344 154.214844 C 188.070312 154.214844 193.894531 160.042969 193.894531 167.214844 L 193.894531 209.578125 Z M 193.671875 209.578125" fill-opacity=".4"/><path fill="#FFF" d="M 322.699219 245.21875 C 315.085938 222.355469 293.132812 223.25 293.132812 223.25 C 293.132812 164.972656 247.207031 162.058594 229.0625 171.699219 C 211.144531 181.113281 202.40625 201.957031 179.109375 202.183594 C 155.589844 201.734375 147.074219 181.113281 129.15625 171.699219 C 111.007812 162.058594 65.085938 164.972656 65.085938 223.25 C 65.085938 223.25 43.132812 222.355469 35.515625 245.21875 C 27.902344 268.082031 43.132812 276.824219 43.132812 276.824219 C 43.132812 276.824219 24.09375 299.6875 42.238281 319.859375 C 60.382812 340.03125 76.734375 324.566406 76.734375 324.566406 C 76.734375 324.566406 70.015625 343.621094 86.367188 353.257812 C 102.722656 362.894531 119.746094 353.257812 119.746094 353.257812 C 119.746094 353.257812 118.851562 373.65625 140.804688 374.328125 C 165.667969 375 175.523438 363.570312 179.332031 355.273438 C 183.140625 363.570312 192.996094 375 217.863281 374.328125 C 239.816406 373.878906 238.921875 353.257812 238.921875 353.257812 C 238.921875 353.257812 256.167969 362.894531 272.296875 353.257812 C 288.652344 343.621094 281.929688 324.566406 281.929688 324.566406 C 281.929688 324.566406 298.285156 339.808594 316.429688 319.859375 C 334.574219 299.6875 315.53125 276.824219 315.53125 276.824219 C 315.53125 276.824219 330.542969 268.082031 322.699219 245.21875 Z M 322.699219 245.21875"/><path d="M 147.074219 153.316406 C 147.074219 153.863281 147.023438 154.402344 146.917969 154.933594 C 146.808594 155.46875 146.652344 155.988281 146.445312 156.492188 C 146.238281 156.996094 145.980469 157.472656 145.679688 157.925781 C 145.375 158.378906 145.03125 158.796875 144.648438 159.183594 C 144.261719 159.566406 143.84375 159.910156 143.390625 160.214844 C 142.9375 160.515625 142.460938 160.769531 141.957031 160.980469 C 141.457031 161.1875 140.9375 161.34375 140.402344 161.453125 C 139.871094 161.558594 139.332031 161.609375 138.785156 161.609375 C 138.242188 161.609375 137.703125 161.558594 137.171875 161.453125 C 136.636719 161.34375 136.117188 161.1875 135.613281 160.980469 C 135.113281 160.769531 134.636719 160.515625 134.183594 160.214844 C 133.730469 159.910156 133.3125 159.566406 132.925781 159.183594 C 132.542969 158.796875 132.199219 158.378906 131.894531 157.925781 C 131.59375 157.472656 131.335938 156.996094 131.128906 156.492188 C 130.921875 155.988281 130.765625 155.46875 130.65625 154.933594 C 130.550781 154.402344 130.5 153.863281 130.5 153.316406 C 130.5 152.773438 130.550781 152.234375 130.65625 151.699219 C 130.765625 151.164062 130.921875 150.648438 131.128906 150.144531 C 131.335938 149.640625 131.59375 149.164062 131.894531 148.710938 C 132.199219 148.257812 132.542969 147.839844 132.925781 147.453125 C 133.3125 147.066406 133.730469 146.722656 134.183594 146.421875 C 134.636719 146.117188 135.113281 145.863281 135.613281 145.65625 C 136.117188 145.445312 136.636719 145.289062 137.171875 145.183594 C 137.703125 145.078125 138.242188 145.023438 138.785156 145.023438 C 139.332031 145.023438 139.871094 145.078125 140.402344 145.183594 C 140.9375 145.289062 141.457031 145.445312 141.957031 145.65625 C 142.460938 145.863281 142.9375 146.117188 143.390625 146.421875 C 143.84375 146.722656 144.261719 147.066406 144.648438 147.453125 C 145.03125 147.839844 145.375 148.257812 145.679688 148.710938 C 145.980469 149.164062 146.238281 149.640625 146.445312 150.144531 C 146.652344 150.648438 146.808594 151.164062 146.917969 151.699219 C 147.023438 152.234375 147.074219 152.773438 147.074219 153.316406 Z M 147.074219 153.316406" fill-opacity=".4"/><path d="M 227.046875 153.316406 C 227.046875 153.863281 226.996094 154.402344 226.886719 154.933594 C 226.78125 155.46875 226.625 155.988281 226.417969 156.492188 C 226.207031 156.996094 225.953125 157.472656 225.652344 157.925781 C 225.347656 158.378906 225.003906 158.796875 224.621094 159.183594 C 224.234375 159.566406 223.816406 159.910156 223.363281 160.214844 C 222.910156 160.515625 222.433594 160.769531 221.929688 160.980469 C 221.429688 161.1875 220.910156 161.34375 220.375 161.453125 C 219.84375 161.558594 219.304688 161.609375 218.757812 161.609375 C 218.214844 161.609375 217.675781 161.558594 217.140625 161.453125 C 216.609375 161.34375 216.089844 161.1875 215.585938 160.980469 C 215.085938 160.769531 214.605469 160.515625 214.15625 160.214844 C 213.703125 159.910156 213.285156 159.566406 212.898438 159.183594 C 212.515625 158.796875 212.171875 158.378906 211.867188 157.925781 C 211.566406 157.472656 211.308594 156.996094 211.101562 156.492188 C 210.894531 155.988281 210.738281 155.46875 210.628906 154.933594 C 210.523438 154.402344 210.472656 153.863281 210.472656 153.316406 C 210.472656 152.773438 210.523438 152.234375 210.628906 151.699219 C 210.738281 151.164062 210.894531 150.648438 211.101562 150.144531 C 211.308594 149.640625 211.566406 149.164062 211.867188 148.710938 C 212.171875 148.257812 212.515625 147.839844 212.898438 147.453125 C 213.285156 147.066406 213.703125 146.722656 214.15625 146.421875 C 214.605469 146.117188 215.085938 145.863281 215.585938 145.65625 C 216.089844 145.445312 216.609375 145.289062 217.140625 145.183594 C 217.675781 145.078125 218.214844 145.023438 218.757812 145.023438 C 219.304688 145.023438 219.84375 145.078125 220.375 145.183594 C 220.910156 145.289062 221.429688 145.445312 221.929688 145.65625 C 222.433594 145.863281 222.910156 146.117188 223.363281 146.421875 C 223.816406 146.722656 224.234375 147.066406 224.621094 147.453125 C 225.003906 147.839844 225.347656 148.257812 225.652344 148.710938 C 225.953125 149.164062 226.207031 149.640625 226.417969 150.144531 C 226.625 150.648438 226.78125 151.164062 226.886719 151.699219 C 226.996094 152.234375 227.046875 152.773438 227.046875 153.316406 Z M 227.046875 153.316406" fill-opacity=".4"/><path d="M 179.332031 247.683594 C 168.132812 247.683594 156.933594 243.648438 148.195312 235.804688 L 147.746094 235.578125 C 145.730469 233.5625 145.507812 230.425781 147.300781 228.40625 C 149.316406 226.390625 152.453125 226.164062 154.46875 227.957031 L 154.914062 228.183594 C 168.582031 240.734375 190.085938 240.511719 203.527344 227.957031 C 205.542969 225.941406 208.902344 226.164062 210.695312 228.183594 C 212.710938 230.199219 212.488281 233.5625 210.472656 235.355469 C 201.957031 243.425781 190.757812 247.683594 179.332031 247.683594 Z M 179.332031 247.683594" fill-opacity=".4"/><path d="M 272.296875 49.089844 C 272.296875 49.089844 273.640625 72.175781 272.296875 89.433594 L 242.953125 84.054688 C 201.734375 76.433594 159.394531 76.433594 118.179688 84.054688 L 86.816406 89.660156 C 83.230469 90.332031 80.320312 93.46875 80.320312 96.832031 L 80.320312 114.539062 C 80.320312 119.246094 85.023438 122.609375 89.503906 121.710938 L 117.058594 116.78125 C 158.277344 109.160156 200.613281 109.160156 242.058594 116.78125 L 270.507812 121.9375 C 274.988281 122.832031 279.691406 119.246094 279.691406 114.765625 L 279.691406 99.074219 C 279.691406 86.746094 279.691406 61.640625 272.296875 49.089844 Z M 272.296875 49.089844" fill-opacity=".047"/><path fill="#F92545" d="M 132.515625 207.113281 C 132.515625 207.953125 132.433594 208.78125 132.269531 209.605469 C 132.105469 210.429688 131.863281 211.226562 131.542969 212.003906 C 131.222656 212.777344 130.828125 213.511719 130.363281 214.210938 C 129.898438 214.910156 129.367188 215.554688 128.773438 216.148438 C 128.183594 216.742188 127.535156 217.269531 126.839844 217.734375 C 126.144531 218.203125 125.40625 218.597656 124.632812 218.917969 C 123.859375 219.238281 123.058594 219.480469 122.238281 219.644531 C 121.414062 219.808594 120.585938 219.890625 119.746094 219.890625 C 118.90625 219.890625 118.078125 219.808594 117.253906 219.644531 C 116.433594 219.480469 115.632812 219.238281 114.859375 218.917969 C 114.085938 218.597656 113.347656 218.203125 112.652344 217.734375 C 111.953125 217.269531 111.308594 216.742188 110.71875 216.148438 C 110.125 215.554688 109.59375 214.910156 109.128906 214.210938 C 108.664062 213.511719 108.269531 212.777344 107.949219 212.003906 C 107.628906 211.226562 107.386719 210.429688 107.222656 209.605469 C 107.058594 208.78125 106.976562 207.953125 106.976562 207.113281 C 106.976562 206.273438 107.058594 205.441406 107.222656 204.621094 C 107.386719 203.796875 107.628906 203 107.949219 202.222656 C 108.269531 201.449219 108.664062 200.710938 109.128906 200.015625 C 109.59375 199.316406 110.125 198.671875 110.71875 198.078125 C 111.308594 197.484375 111.953125 196.957031 112.652344 196.488281 C 113.347656 196.023438 114.085938 195.628906 114.859375 195.308594 C 115.632812 194.988281 116.433594 194.746094 117.253906 194.582031 C 118.078125 194.417969 118.90625 194.335938 119.746094 194.335938 C 120.585938 194.335938 121.414062 194.417969 122.238281 194.582031 C 123.058594 194.746094 123.859375 194.988281 124.632812 195.308594 C 125.40625 195.628906 126.144531 196.023438 126.839844 196.488281 C 127.535156 196.957031 128.183594 197.484375 128.773438 198.078125 C 129.367188 198.671875 129.898438 199.316406 130.363281 200.015625 C 130.828125 200.710938 131.222656 201.449219 131.542969 202.222656 C 131.863281 203 132.105469 203.796875 132.269531 204.621094 C 132.433594 205.441406 132.515625 206.273438 132.515625 207.113281 Z M 132.515625 207.113281" fill-opacity=".4"/><path fill="#FFF" d="M 270.058594 139.867188 L 242.058594 134.714844 C 200.839844 127.316406 158.5 127.316406 117.28125 134.714844 L 89.953125 139.644531 C 85.472656 140.539062 81.214844 136.953125 81.214844 132.472656 L 81.214844 114.765625 C 81.214844 111.175781 83.679688 108.039062 87.265625 107.589844 L 117.953125 101.988281 C 159.171875 94.589844 201.511719 94.589844 242.730469 101.988281 L 272.746094 107.367188 C 276.332031 108.039062 285.515625 111.175781 285.515625 114.539062 L 285.066406 133.367188 C 284.84375 138.074219 274.539062 140.765625 270.058594 139.867188 Z M 270.058594 139.867188"/><path fill="#F92545" d="M 251.015625 207.113281 C 251.015625 207.953125 250.933594 208.78125 250.773438 209.605469 C 250.609375 210.429688 250.367188 211.226562 250.046875 212.003906 C 249.722656 212.777344 249.332031 213.511719 248.867188 214.210938 C 248.398438 214.910156 247.871094 215.554688 247.277344 216.148438 C 246.683594 216.742188 246.039062 217.269531 245.34375 217.734375 C 244.644531 218.203125 243.910156 218.597656 243.136719 218.917969 C 242.359375 219.238281 241.5625 219.480469 240.738281 219.644531 C 239.917969 219.808594 239.085938 219.890625 238.25 219.890625 C 237.410156 219.890625 236.578125 219.808594 235.757812 219.644531 C 234.933594 219.480469 234.136719 219.238281 233.363281 218.917969 C 232.585938 218.597656 231.851562 218.203125 231.15625 217.734375 C 230.457031 217.269531 229.8125 216.742188 229.21875 216.148438 C 228.625 215.554688 228.097656 214.910156 227.632812 214.210938 C 227.164062 213.511719 226.773438 212.777344 226.453125 212.003906 C 226.132812 211.226562 225.890625 210.429688 225.726562 209.605469 C 225.5625 208.78125 225.480469 207.953125 225.480469 207.113281 C 225.480469 206.273438 225.5625 205.441406 225.726562 204.621094 C 225.890625 203.796875 226.132812 203 226.453125 202.222656 C 226.773438 201.449219 227.164062 200.710938 227.632812 200.015625 C 228.097656 199.316406 228.625 198.671875 229.21875 198.078125 C 229.8125 197.484375 230.457031 196.957031 231.15625 196.488281 C 231.851562 196.023438 232.585938 195.628906 233.363281 195.308594 C 234.136719 194.988281 234.933594 194.746094 235.757812 194.582031 C 236.578125 194.417969 237.410156 194.335938 238.25 194.335938 C 239.085938 194.335938 239.917969 194.417969 240.738281 194.582031 C 241.5625 194.746094 242.359375 194.988281 243.136719 195.308594 C 243.910156 195.628906 244.644531 196.023438 245.34375 196.488281 C 246.039062 196.957031 246.683594 197.484375 247.277344 198.078125 C 247.871094 198.671875 248.398438 199.316406 248.867188 200.015625 C 249.332031 200.710938 249.722656 201.449219 250.046875 202.222656 C 250.367188 203 250.609375 203.796875 250.773438 204.621094 C 250.933594 205.441406 251.015625 206.273438 251.015625 207.113281 Z M 251.015625 207.113281" fill-opacity=".4"/><g clip-path="url(#k)"><g clip-path="url(#l)"><path d="M 327.40625 188.957031 C 327.40625 189.859375 327.359375 190.761719 327.273438 191.660156 C 327.183594 192.558594 327.050781 193.449219 326.875 194.335938 C 326.699219 195.222656 326.480469 196.097656 326.21875 196.960938 C 325.957031 197.824219 325.652344 198.671875 325.308594 199.507812 C 324.960938 200.34375 324.578125 201.15625 324.152344 201.953125 C 323.726562 202.75 323.261719 203.523438 322.761719 204.273438 C 322.261719 205.023438 321.722656 205.75 321.152344 206.449219 C 320.578125 207.144531 319.972656 207.8125 319.335938 208.453125 C 318.695312 209.089844 318.027344 209.695312 317.332031 210.269531 C 316.632812 210.84375 315.910156 211.378906 315.160156 211.878906 C 314.410156 212.382812 313.636719 212.847656 312.839844 213.273438 C 312.042969 213.699219 311.230469 214.082031 310.394531 214.429688 C 309.5625 214.773438 308.714844 215.078125 307.851562 215.339844 C 306.988281 215.601562 306.113281 215.820312 305.226562 215.996094 C 304.34375 216.171875 303.449219 216.304688 302.550781 216.394531 C 301.65625 216.484375 300.753906 216.527344 299.851562 216.527344 C 298.949219 216.527344 298.050781 216.484375 297.152344 216.394531 C 296.253906 216.304688 295.363281 216.171875 294.476562 215.996094 C 293.589844 215.820312 292.71875 215.601562 291.851562 215.339844 C 290.988281 215.078125 290.140625 214.773438 289.308594 214.429688 C 288.472656 214.082031 287.660156 213.699219 286.863281 213.273438 C 286.066406 212.847656 285.292969 212.382812 284.542969 211.878906 C 283.792969 211.378906 283.070312 210.84375 282.371094 210.269531 C 281.675781 209.695312 281.007812 209.089844 280.367188 208.453125 C 279.730469 207.8125 279.125 207.144531 278.550781 206.449219 C 277.980469 205.75 277.441406 205.023438 276.941406 204.273438 C 276.441406 203.523438 275.976562 202.75 275.550781 201.953125 C 275.125 201.15625 274.742188 200.34375 274.394531 199.507812 C 274.050781 198.671875 273.746094 197.824219 273.484375 196.960938 C 273.222656 196.097656 273.003906 195.222656 272.828125 194.335938 C 272.652344 193.449219 272.519531 192.558594 272.429688 191.660156 C 272.34375 190.761719 272.296875 189.859375 272.296875 188.957031 C 272.296875 188.054688 272.34375 187.152344 272.429688 186.253906 C 272.519531 185.355469 272.652344 184.464844 272.828125 183.578125 C 273.003906 182.691406 273.222656 181.816406 273.484375 180.953125 C 273.746094 180.089844 274.050781 179.242188 274.394531 178.40625 C 274.742188 177.570312 275.125 176.757812 275.550781 175.960938 C 275.976562 175.164062 276.441406 174.390625 276.941406 173.640625 C 277.441406 172.890625 277.980469 172.164062 278.550781 171.464844 C 279.125 170.769531 279.730469 170.101562 280.367188 169.460938 C 281.007812 168.824219 281.675781 168.21875 282.371094 167.644531 C 283.070312 167.070312 283.792969 166.535156 284.542969 166.03125 C 285.292969 165.53125 286.066406 165.066406 286.863281 164.640625 C 287.660156 164.214844 288.472656 163.832031 289.308594 163.484375 C 290.140625 163.140625 290.988281 162.835938 291.851562 162.574219 C 292.71875 162.3125 293.589844 162.09375 294.476562 161.917969 C 295.363281 161.742188 296.253906 161.609375 297.152344 161.519531 C 298.050781 161.429688 298.949219 161.386719 299.851562 161.386719 C 300.753906 161.386719 301.65625 161.429688 302.550781 161.519531 C 303.449219 161.609375 304.34375 161.742188 305.226562 161.917969 C 306.113281 162.09375 306.988281 162.3125 307.851562 162.574219 C 308.714844 162.835938 309.5625 163.140625 310.394531 163.484375 C 311.230469 163.832031 312.042969 164.214844 312.839844 164.640625 C 313.636719 165.066406 314.410156 165.53125 315.160156 166.03125 C 315.910156 166.535156 316.632812 167.070312 317.332031 167.644531 C 318.027344 168.21875 318.695312 168.824219 319.335938 169.460938 C 319.972656 170.101562 320.578125 170.769531 321.152344 171.464844 C 321.722656 172.164062 322.261719 172.890625 322.761719 173.640625 C 323.261719 174.390625 323.726562 175.164062 324.152344 175.960938 C 324.578125 176.757812 324.960938 177.570312 325.308594 178.40625 C 325.652344 179.242188 325.957031 180.089844 326.21875 180.953125 C 326.480469 181.816406 326.699219 182.691406 326.875 183.578125 C 327.050781 184.464844 327.183594 185.355469 327.273438 186.253906 C 327.359375 187.152344 327.40625 188.054688 327.40625 188.957031 Z M 327.40625 188.957031" fill-opacity=".047"/></g></g><path fill="#FFF" d="M 327.40625 197.921875 C 327.40625 198.824219 327.359375 199.726562 327.273438 200.625 C 327.183594 201.523438 327.050781 202.414062 326.875 203.300781 C 326.699219 204.1875 326.480469 205.0625 326.21875 205.925781 C 325.957031 206.789062 325.652344 207.640625 325.308594 208.472656 C 324.960938 209.308594 324.578125 210.125 324.152344 210.917969 C 323.726562 211.714844 323.261719 212.488281 322.761719 213.238281 C 322.261719 213.992188 321.722656 214.714844 321.152344 215.414062 C 320.578125 216.109375 319.972656 216.78125 319.335938 217.417969 C 318.695312 218.054688 318.027344 218.664062 317.332031 219.234375 C 316.632812 219.808594 315.910156 220.34375 315.160156 220.847656 C 314.410156 221.347656 313.636719 221.8125 312.839844 222.238281 C 312.042969 222.664062 311.230469 223.050781 310.394531 223.394531 C 309.5625 223.738281 308.714844 224.042969 307.851562 224.304688 C 306.988281 224.566406 306.113281 224.789062 305.226562 224.964844 C 304.34375 225.140625 303.449219 225.273438 302.550781 225.359375 C 301.65625 225.449219 300.753906 225.492188 299.851562 225.492188 C 298.949219 225.492188 298.050781 225.449219 297.152344 225.359375 C 296.253906 225.273438 295.363281 225.140625 294.476562 224.964844 C 293.589844 224.789062 292.71875 224.566406 291.851562 224.304688 C 290.988281 224.042969 290.140625 223.738281 289.308594 223.394531 C 288.472656 223.050781 287.660156 222.664062 286.863281 222.238281 C 286.066406 221.8125 285.292969 221.347656 284.542969 220.847656 C 283.792969 220.34375 283.070312 219.808594 282.371094 219.234375 C 281.675781 218.660156 281.007812 218.054688 280.367188 217.417969 C 279.730469 216.78125 279.125 216.109375 278.550781 215.414062 C 277.980469 214.714844 277.441406 213.992188 276.941406 213.238281 C 276.441406 212.488281 275.976562 211.714844 275.550781 210.917969 C 275.125 210.121094 274.742188 209.308594 274.394531 208.472656 C 274.050781 207.640625 273.746094 206.789062 273.484375 205.925781 C 273.222656 205.0625 273.003906 204.1875 272.828125 203.300781 C 272.652344 202.414062 272.519531 201.523438 272.429688 200.625 C 272.34375 199.726562 272.296875 198.824219 272.296875 197.921875 C 272.296875 197.019531 272.34375 196.121094 272.429688 195.21875 C 272.519531 194.320312 272.652344 193.429688 272.828125 192.542969 C 273.003906 191.660156 273.222656 190.785156 273.484375 189.917969 C 273.746094 189.054688 274.050781 188.207031 274.394531 187.371094 C 274.742188 186.539062 275.125 185.722656 275.550781 184.925781 C 275.976562 184.128906 276.441406 183.355469 276.941406 182.605469 C 277.441406 181.855469 277.980469 181.128906 278.550781 180.433594 C 279.125 179.734375 279.730469 179.066406 280.367188 178.429688 C 281.007812 177.789062 281.675781 177.183594 282.371094 176.609375 C 283.070312 176.039062 283.792969 175.5 284.542969 175 C 285.292969 174.496094 286.066406 174.035156 286.863281 173.609375 C 287.660156 173.183594 288.472656 172.796875 289.308594 172.453125 C 290.140625 172.105469 290.988281 171.800781 291.851562 171.539062 C 292.71875 171.277344 293.589844 171.058594 294.476562 170.882812 C 295.363281 170.707031 296.253906 170.574219 297.152344 170.484375 C 298.050781 170.398438 298.949219 170.351562 299.851562 170.351562 C 300.753906 170.351562 301.65625 170.398438 302.550781 170.484375 C 303.449219 170.574219 304.34375 170.707031 305.226562 170.882812 C 306.113281 171.058594 306.988281 171.277344 307.851562 171.539062 C 308.714844 171.800781 309.5625 172.105469 310.394531 172.453125 C 311.230469 172.796875 312.042969 173.183594 312.839844 173.609375 C 313.636719 174.035156 314.410156 174.496094 315.160156 175 C 315.910156 175.5 316.632812 176.039062 317.332031 176.609375 C 318.027344 177.183594 318.695312 177.789062 319.335938 178.429688 C 319.972656 179.066406 320.578125 179.734375 321.152344 180.433594 C 321.722656 181.128906 322.261719 181.855469 322.761719 182.605469 C 323.261719 183.355469 323.726562 184.128906 324.152344 184.925781 C 324.578125 185.722656 324.960938 186.539062 325.308594 187.371094 C 325.652344 188.207031 325.957031 189.054688 326.21875 189.917969 C 326.480469 190.785156 326.699219 191.660156 326.875 192.542969 C 327.050781 193.429688 327.183594 194.320312 327.273438 195.21875 C 327.359375 196.121094 327.40625 197.019531 327.40625 197.921875 Z M 327.40625 197.921875"/><path d="M 319.339844 217.421875 C 308.589844 228.183594 291.117188 228.183594 280.363281 217.421875 C 269.609375 206.664062 269.609375 189.179688 280.363281 178.421875 C 280.363281 178.421875 279.019531 192.09375 293.132812 206.890625 C 307.246094 221.683594 319.339844 217.421875 319.339844 217.421875 Z M 319.339844 217.421875" fill-opacity=".098"/><path fill="#F92545" d="M 274.3125 20.847656 C 331.660156 56.035156 340.398438 129.332031 312.171875 188.285156 L 289.097656 188.285156 C 289.097656 188.285156 278.792969 141.660156 278.792969 119.246094 L 277.449219 68.589844 L 276.777344 40.570312"/></svg>