<svg xmlns="http://www.w3.org/2000/svg" width="375" viewBox="0 0 375 375" height="375" version="1.0"><path fill="#0D6856" d="M 12.914062 325.863281 C 11.839844 329.65625 9.160156 349.117188 11.304688 352.910156 C 13.449219 357.335938 25.78125 359.234375 30.070312 359.867188 C 36.503906 361.132812 45.085938 361.765625 50.984375 359.234375 C 57.953125 355.441406 61.167969 338.78125 60.632812 330.558594"/><path fill="#0D6856" d="M 97.628906 338.664062 C 97.09375 341.195312 94.414062 355.683594 94.949219 359.476562 C 96.023438 365.800781 104.066406 368.960938 108.890625 370.859375 C 119.078125 374.652344 130.875 374.019531 141.597656 374.019531 C 165.726562 374.019531 189.320312 373.390625 213.445312 373.390625 C 228.460938 373.390625 242.9375 374.019531 257.949219 374.019531 C 264.386719 374.019531 275.109375 375.285156 279.933594 370.226562 C 286.90625 363.902344 283.335938 346.882812 283.335938 338.664062"/><path fill="#0D6856" d="M 315.859375 333.332031 C 315.324219 339.65625 319.613281 353.785156 324.4375 356.945312 C 328.726562 360.109375 337.84375 360.742188 343.203125 361.375 C 364.117188 363.269531 368.941406 344.929688 361.972656 325.328125"/><path fill="#F33F4B" d="M 361.820312 292.601562 C 356.152344 265.644531 354.734375 237.265625 349.0625 210.304688 C 343.390625 179.089844 326.378906 145.039062 307.953125 119.5 C 290.824219 95.765625 275.328125 73.554688 247.199219 62.554688 C 218.222656 51.21875 185.34375 49.75 155 56.046875 C 113.28125 64.699219 91.347656 85.722656 66.976562 119.496094 C 48.546875 145.035156 31.535156 179.089844 25.867188 210.304688 C 20.195312 237.265625 18.777344 265.644531 13.105469 292.601562 C 7.4375 320.980469 0.347656 352.195312 42.878906 347.9375 C 81.15625 343.683594 75.484375 262.804688 88.242188 230.171875 C 89.339844 226.875 90.75 223.746094 92.386719 220.738281 C 93.84375 244.671875 94.234375 268.214844 92.882812 291.378906 C 91.207031 317.96875 83.289062 347.9375 114.253906 354.371094 C 141.222656 359.492188 171.882812 359.492188 198.710938 359.492188 C 211.484375 359.492188 224.289062 356.933594 238.378906 355.652344 C 248.636719 354.371094 266.453125 358.214844 275.476562 355.652344 C 297.519531 347.9375 291.628906 296.734375 289.710938 276.539062 C 288.921875 261.863281 288.117188 247.371094 287.613281 232.738281 C 299.183594 266.84375 294.738281 343.789062 332.050781 347.9375 C 374.582031 352.195312 367.492188 320.980469 361.820312 292.601562 Z M 361.820312 292.601562"/><path fill="#F33F4B" d="M 361.820312 292.601562 C 356.152344 265.644531 354.734375 237.265625 349.0625 210.304688 C 343.390625 179.089844 326.378906 145.039062 307.953125 119.5 C 290.824219 95.765625 275.328125 73.554688 247.199219 62.554688 C 218.222656 51.21875 185.34375 49.75 155 56.046875 C 113.28125 64.699219 91.347656 85.722656 66.976562 119.496094 C 48.546875 145.035156 31.535156 179.089844 25.867188 210.304688 C 20.195312 237.265625 18.777344 265.644531 13.105469 292.601562 C 7.4375 320.980469 0.347656 352.195312 42.878906 347.9375 C 81.15625 343.683594 75.484375 262.804688 88.242188 230.171875 C 89.339844 226.875 90.75 223.746094 92.386719 220.738281 C 93.84375 244.671875 94.234375 268.214844 92.882812 291.378906 C 91.207031 317.96875 83.289062 347.9375 114.253906 354.371094 C 141.222656 359.492188 171.882812 359.492188 198.710938 359.492188 C 211.484375 359.492188 224.289062 356.933594 238.378906 355.652344 C 248.636719 354.371094 266.453125 358.214844 275.476562 355.652344 C 297.519531 347.9375 291.628906 296.734375 289.710938 276.539062 C 288.921875 261.863281 288.117188 247.371094 287.613281 232.738281 C 299.183594 266.84375 294.738281 343.789062 332.050781 347.9375 C 374.582031 352.195312 367.492188 320.980469 361.820312 292.601562 Z M 361.820312 292.601562"/><path fill="#F3903F" d="M 71.859375 313.503906 C 71.4375 313.570312 70.980469 313.746094 70.492188 314.058594 C 66.933594 316.339844 59.894531 323.503906 54.871094 323.039062 C 49.84375 322.578125 46.863281 316.496094 44.707031 314.296875 C 42.496094 312.046875 39.492188 310.910156 36.382812 310.835938 C 29.632812 310.671875 24.792969 319.960938 18.292969 318.238281 C 12.972656 316.832031 12.035156 307.933594 11.273438 301.910156 C 10.203125 307.578125 9.300781 313.191406 8.960938 318.453125 C 10.070312 320.398438 11.40625 322.125 13.046875 323.390625 C 20.542969 329.167969 28.933594 318.15625 35.59375 316.339844 C 40.269531 315.0625 41.988281 319.964844 44.414062 323.039062 C 46.921875 326.21875 50.765625 329.308594 54.871094 329.621094 C 58.925781 329.929688 63.785156 328.136719 67.605469 325.734375 C 69.226562 321.964844 70.628906 317.855469 71.859375 313.503906 Z M 71.859375 313.503906"/><path fill="#F3903F" d="M 24.976562 308.691406 L 24.976562 308.152344 C 24.976562 306.835938 23.878906 305.738281 22.5625 305.738281 C 21.25 305.738281 20.152344 306.835938 20.152344 308.152344 L 20.152344 308.691406 C 20.152344 310.007812 21.25 311.105469 22.5625 311.105469 C 23.878906 311.105469 24.976562 310.007812 24.976562 308.691406 Z M 24.976562 308.691406"/><path fill="#F3903F" d="M 37.375 327.269531 C 37.980469 326.828125 38.382812 326.121094 38.382812 325.328125 C 38.382812 324.011719 37.285156 322.910156 35.96875 322.914062 C 35.167969 322.914062 34.394531 323.085938 33.808594 323.675781 C 33.207031 324.277344 33.019531 325.039062 33.019531 325.863281 C 33.019531 327.179688 34.117188 328.277344 35.433594 328.277344 C 36.226562 328.277344 36.933594 327.875 37.375 327.269531 Z M 37.375 327.269531"/><path fill="#F3903F" d="M 58.488281 315.933594 C 59.804688 315.933594 60.902344 314.835938 60.902344 313.519531 C 60.902344 312.203125 59.804688 311.105469 58.488281 311.105469 L 57.953125 311.105469 C 56.636719 311.105469 55.539062 312.203125 55.539062 313.519531 C 55.539062 314.835938 56.636719 315.933594 57.953125 315.933594 Z M 58.488281 315.933594"/><path fill="#F3903F" d="M 77.292969 279.601562 C 73.734375 281.878906 66.699219 289.042969 61.671875 288.582031 C 56.644531 288.117188 53.667969 282.039062 51.507812 279.839844 C 49.300781 277.589844 46.296875 276.453125 43.183594 276.375 C 36.4375 276.210938 31.59375 285.503906 25.09375 283.78125 C 18.960938 282.15625 18.65625 270.570312 17.71875 264.921875 C 16.910156 270.84375 16.039062 276.746094 15.019531 282.597656 C 16.257812 285.109375 17.824219 287.371094 19.851562 288.933594 C 27.347656 294.707031 35.738281 283.699219 42.394531 281.878906 C 47.074219 280.605469 48.792969 285.507812 51.21875 288.582031 C 53.722656 291.761719 57.570312 294.851562 61.671875 295.164062 C 66.722656 295.546875 73.015625 292.683594 76.992188 289.433594 C 77.566406 285.984375 78.097656 282.511719 78.613281 279.050781 C 78.207031 279.125 77.765625 279.300781 77.292969 279.601562 Z M 77.292969 279.601562"/><path fill="#F3903F" d="M 31.78125 274.230469 L 31.78125 273.695312 C 31.78125 272.378906 30.683594 271.28125 29.367188 271.28125 C 28.050781 271.28125 26.953125 272.378906 26.953125 273.695312 L 26.953125 274.230469 C 26.953125 275.546875 28.050781 276.644531 29.367188 276.644531 C 30.683594 276.644531 31.78125 275.546875 31.78125 274.230469 Z M 31.78125 274.230469"/><path fill="#F3903F" d="M 44.175781 292.8125 C 44.78125 292.371094 45.183594 291.664062 45.183594 290.867188 C 45.183594 289.554688 44.085938 288.453125 42.773438 288.453125 C 41.96875 288.457031 41.199219 288.628906 40.609375 289.214844 C 40.007812 289.820312 39.824219 290.582031 39.824219 291.40625 C 39.820312 292.722656 40.921875 293.820312 42.234375 293.820312 C 43.027344 293.820312 43.734375 293.417969 44.175781 292.8125 Z M 44.175781 292.8125"/><path fill="#F3903F" d="M 65.292969 281.476562 C 66.605469 281.476562 67.703125 280.378906 67.703125 279.0625 C 67.703125 277.746094 66.605469 276.648438 65.292969 276.648438 L 64.753906 276.648438 C 63.441406 276.648438 62.34375 277.746094 62.34375 279.0625 C 62.34375 280.378906 63.441406 281.476562 64.753906 281.476562 Z M 65.292969 281.476562"/><path fill="#F3903F" d="M 68.722656 254.871094 C 63.695312 254.410156 60.714844 248.328125 58.558594 246.128906 C 56.347656 243.878906 53.34375 242.742188 50.234375 242.667969 C 43.484375 242.503906 38.644531 251.792969 32.144531 250.074219 C 26.804688 248.660156 23.953125 236.433594 22.503906 229.261719 C 21.621094 235.117188 20.832031 241.007812 20.070312 246.90625 C 21.839844 250.054688 24.117188 253.082031 26.898438 255.222656 C 34.394531 261 42.785156 249.988281 49.445312 248.171875 C 54.121094 246.894531 55.839844 251.800781 58.265625 254.871094 C 60.773438 258.050781 64.617188 261.140625 68.71875 261.453125 C 72.914062 261.769531 77.972656 259.847656 81.84375 257.324219 C 82.460938 253.472656 83.109375 249.757812 83.824219 246.242188 C 80.136719 248.824219 73.515625 255.316406 68.722656 254.871094 Z M 68.722656 254.871094"/><path fill="#F3903F" d="M 34.003906 239.988281 L 34.003906 240.523438 C 34.003906 241.839844 35.101562 242.9375 36.414062 242.9375 C 37.730469 242.9375 38.828125 241.839844 38.828125 240.523438 L 38.828125 239.988281 C 38.828125 238.671875 37.730469 237.570312 36.414062 237.570312 C 35.101562 237.570312 34.003906 238.671875 34.003906 239.988281 Z M 34.003906 239.988281"/><path fill="#F3903F" d="M 51.226562 259.105469 C 51.832031 258.660156 52.234375 257.953125 52.234375 257.160156 C 52.234375 255.84375 51.136719 254.742188 49.820312 254.746094 C 49.019531 254.746094 48.246094 254.917969 47.660156 255.507812 C 47.058594 256.109375 46.871094 256.875 46.871094 257.695312 C 46.871094 259.015625 47.96875 260.113281 49.285156 260.113281 C 50.078125 260.113281 50.785156 259.710938 51.226562 259.105469 Z M 51.226562 259.105469"/><path fill="#F3903F" d="M 71.804688 242.9375 C 70.488281 242.9375 69.390625 244.035156 69.390625 245.351562 C 69.390625 246.667969 70.488281 247.769531 71.804688 247.769531 L 72.339844 247.769531 C 73.65625 247.769531 74.753906 246.667969 74.753906 245.351562 C 74.753906 244.035156 73.65625 242.9375 72.339844 242.9375 Z M 71.804688 242.9375"/><path fill="#F3903F" d="M 364.5625 306.996094 C 363.808594 312.957031 362.695312 320.96875 357.671875 322.300781 C 351.171875 324.019531 346.332031 314.730469 339.582031 314.894531 C 336.46875 314.96875 333.46875 316.105469 331.257812 318.355469 C 329.101562 320.554688 326.121094 326.636719 321.09375 327.097656 C 316.070312 327.5625 307.347656 318.242188 303.789062 315.960938 C 305.417969 321.296875 307.328125 326.226562 309.621094 330.542969 C 313.210938 332.554688 317.472656 333.953125 321.09375 333.679688 C 325.199219 333.367188 329.042969 330.277344 331.550781 327.097656 C 333.972656 324.023438 335.691406 319.121094 340.371094 320.398438 C 347.03125 322.214844 355.421875 333.226562 362.917969 327.449219 C 364.136719 326.511719 365.183594 325.316406 366.101562 323.96875 C 366.21875 318.707031 365.550781 312.933594 364.5625 306.996094 Z M 364.5625 306.996094"/><path fill="#F3903F" d="M 350.988281 312.210938 L 350.988281 312.75 C 350.988281 314.066406 352.082031 315.164062 353.398438 315.164062 C 354.714844 315.164062 355.8125 314.066406 355.8125 312.75 L 355.8125 312.210938 C 355.8125 310.898438 354.714844 309.796875 353.398438 309.796875 C 352.085938 309.796875 350.988281 310.898438 350.988281 312.210938 Z M 350.988281 312.210938"/><path fill="#F3903F" d="M 342.945312 329.921875 C 342.941406 329.097656 342.757812 328.335938 342.15625 327.734375 C 341.566406 327.144531 340.796875 326.972656 339.996094 326.972656 C 338.679688 326.96875 337.582031 328.070312 337.582031 329.386719 C 337.582031 330.179688 337.984375 330.886719 338.589844 331.328125 C 339.03125 331.933594 339.738281 332.335938 340.53125 332.335938 C 341.84375 332.335938 342.945312 331.238281 342.945312 329.921875 Z M 342.945312 329.921875"/><path fill="#F3903F" d="M 317.476562 315.164062 C 316.160156 315.164062 315.0625 316.261719 315.0625 317.578125 C 315.0625 318.894531 316.160156 319.992188 317.476562 319.992188 L 318.011719 319.992188 C 319.324219 319.992188 320.421875 318.894531 320.421875 317.578125 C 320.421875 316.261719 319.324219 315.164062 318.011719 315.164062 Z M 317.476562 315.164062"/><path fill="#F3903F" d="M 314.167969 299.597656 C 318.273438 299.285156 322.117188 296.195312 324.625 293.015625 C 327.046875 289.941406 328.765625 285.035156 333.445312 286.3125 C 340.105469 288.128906 348.496094 299.140625 355.992188 293.367188 C 357.972656 291.835938 359.519531 289.640625 360.746094 287.191406 C 359.6875 281.617188 358.789062 275.992188 357.972656 270.339844 C 357.132812 276.25 356.542969 286.679688 350.746094 288.214844 C 344.246094 289.9375 339.40625 280.648438 332.65625 280.808594 C 329.542969 280.886719 326.539062 282.023438 324.332031 284.273438 C 322.171875 286.472656 319.195312 292.554688 314.167969 293.015625 C 309.863281 293.410156 301.484375 286.550781 296.929688 283.136719 C 297.472656 286.679688 298.046875 290.21875 298.671875 293.710938 C 302.632812 297.023438 309.039062 299.984375 314.167969 299.597656 Z M 314.167969 299.597656"/><path fill="#F3903F" d="M 344.0625 278.128906 L 344.0625 278.664062 C 344.0625 279.980469 345.160156 281.082031 346.472656 281.082031 C 347.789062 281.082031 348.886719 279.980469 348.886719 278.664062 L 348.886719 278.128906 C 348.886719 276.8125 347.789062 275.714844 346.472656 275.714844 C 345.160156 275.714844 344.0625 276.8125 344.0625 278.128906 Z M 344.0625 278.128906"/><path fill="#F3903F" d="M 330.65625 295.300781 C 330.65625 296.097656 331.058594 296.804688 331.664062 297.246094 C 332.105469 297.851562 332.8125 298.253906 333.605469 298.253906 C 334.917969 298.253906 336.019531 297.15625 336.019531 295.839844 C 336.015625 295.015625 335.832031 294.253906 335.230469 293.648438 C 334.640625 293.0625 333.871094 292.890625 333.070312 292.886719 C 331.753906 292.886719 330.65625 293.988281 330.65625 295.300781 Z M 330.65625 295.300781"/><path fill="#F3903F" d="M 310.550781 281.082031 C 309.234375 281.082031 308.136719 282.179688 308.136719 283.496094 C 308.136719 284.8125 309.234375 285.910156 310.550781 285.910156 L 311.085938 285.910156 C 312.398438 285.910156 313.496094 284.8125 313.496094 283.496094 C 313.496094 282.179688 312.398438 281.082031 311.085938 281.082031 Z M 310.550781 281.082031"/><path fill="#F3903F" d="M 307.242188 265.511719 C 311.347656 265.199219 315.191406 262.109375 317.699219 258.929688 C 320.121094 255.855469 321.839844 250.953125 326.519531 252.230469 C 333.179688 254.046875 341.566406 265.058594 349.066406 259.28125 C 351.90625 257.09375 353.851562 253.53125 355.230469 249.820312 C 354.515625 244.238281 353.789062 238.664062 352.992188 233.113281 C 352.148438 233.269531 351.503906 233.691406 351.363281 234.371094 C 350.277344 239.578125 350.300781 252.414062 343.820312 254.132812 C 337.320312 255.851562 332.480469 246.5625 325.730469 246.726562 C 322.617188 246.800781 319.613281 247.9375 317.40625 250.1875 C 315.25 252.386719 312.269531 258.46875 307.242188 258.929688 C 302.316406 259.382812 295.460938 252.515625 291.839844 250.097656 C 292.488281 253.609375 293.085938 257.285156 293.664062 261.066406 C 297.585938 263.742188 302.875 265.84375 307.242188 265.511719 Z M 307.242188 265.511719"/><path fill="#F3903F" d="M 337.136719 244.046875 L 337.136719 244.582031 C 337.136719 245.898438 338.234375 246.996094 339.546875 246.996094 C 340.863281 246.996094 341.960938 245.898438 341.960938 244.582031 L 341.960938 244.046875 C 341.960938 242.730469 340.863281 241.628906 339.546875 241.628906 C 338.234375 241.628906 337.136719 242.730469 337.136719 244.046875 Z M 337.136719 244.046875"/><path fill="#F3903F" d="M 323.730469 261.21875 C 323.730469 262.011719 324.132812 262.71875 324.738281 263.164062 C 325.179688 263.765625 325.886719 264.171875 326.679688 264.171875 C 327.992188 264.171875 329.09375 263.070312 329.09375 261.753906 C 329.089844 260.929688 328.90625 260.167969 328.304688 259.566406 C 327.71875 258.976562 326.945312 258.804688 326.144531 258.804688 C 324.828125 258.800781 323.730469 259.902344 323.730469 261.21875 Z M 323.730469 261.21875"/><path fill="#F3903F" d="M 303.625 246.996094 C 302.308594 246.996094 301.210938 248.097656 301.210938 249.410156 C 301.210938 250.726562 302.308594 251.828125 303.625 251.828125 L 304.160156 251.828125 C 305.472656 251.828125 306.570312 250.730469 306.570312 249.410156 C 306.570312 248.097656 305.472656 246.996094 304.160156 246.996094 Z M 303.625 246.996094"/><path fill="#0D6856" d="M 195.394531 78.460938 C 206.316406 78.046875 220.382812 76.90625 227.875 67.832031 C 230.332031 64.859375 232.125 61.523438 233.546875 58.011719 C 208.144531 50.953125 180.667969 50.722656 155 56.046875 C 149.527344 57.183594 144.40625 58.535156 139.5625 60.097656 C 152.554688 75.910156 175.988281 79.199219 195.394531 78.460938 Z M 195.394531 78.460938"/><path fill="#0D6856" d="M 127.324219 75.042969 C 132.570312 79.152344 137.867188 83.320312 143.527344 86.851562 C 149.617188 90.652344 156.472656 92.917969 163.375 94.726562 C 175.179688 97.820312 187.484375 99.152344 199.664062 98.582031 C 218.746094 97.6875 240.992188 91.53125 247.273438 71.261719 C 247.71875 69.820312 245.53125 69.253906 245.035156 70.644531 C 241.65625 80.132812 235.621094 86.328125 226.480469 90.519531 C 217.585938 94.601562 207.449219 95.960938 197.765625 96.382812 C 186.371094 96.882812 174.992188 95.394531 163.929688 92.707031 C 157.140625 91.054688 150.523438 88.753906 144.457031 85.253906 C 138.714844 81.941406 133.628906 77.621094 127.894531 74.300781 C 127.445312 74.042969 126.890625 74.707031 127.324219 75.042969 Z M 127.324219 75.042969"/><path fill="#F1F2F2" d="M 134.1875 73.191406 C 135.234375 72.71875 136.042969 71.796875 136.867188 71.019531 C 137.269531 70.636719 137.695312 70.292969 138.167969 69.996094 C 138.667969 69.691406 139.125 69.613281 139.292969 68.984375 C 139.351562 68.777344 139.304688 68.476562 139.121094 68.335938 C 138.136719 67.558594 137.011719 68.558594 136.21875 69.207031 C 135.179688 70.054688 134.242188 71.089844 133.308594 72.050781 C 132.703125 72.675781 133.464844 73.515625 134.1875 73.191406 Z M 134.1875 73.191406"/><path fill="#F1F2F2" d="M 145.515625 80.753906 C 146.097656 79.820312 146.675781 78.886719 147.332031 78.003906 C 147.898438 77.234375 149.011719 76.460938 148.746094 75.394531 C 148.707031 75.242188 148.574219 75.105469 148.421875 75.070312 C 147.285156 74.816406 146.578125 76.042969 145.996094 76.824219 C 145.21875 77.867188 144.527344 78.925781 144.035156 80.128906 C 143.671875 81.011719 145.046875 81.5 145.515625 80.753906 Z M 145.515625 80.753906"/><path fill="#F1F2F2" d="M 160.277344 87.203125 C 161.019531 85.96875 161.5 84.613281 162.179688 83.347656 C 162.433594 82.871094 164.488281 80.90625 163.335938 80.386719 C 161.015625 79.335938 159.527344 84.992188 158.84375 86.367188 C 158.371094 87.320312 159.71875 88.128906 160.277344 87.203125 Z M 160.277344 87.203125"/><path fill="#F1F2F2" d="M 178.15625 90.808594 C 178.328125 89.398438 178.46875 87.964844 178.753906 86.574219 C 178.972656 85.484375 179.390625 84.589844 179.21875 83.46875 C 179.179688 83.230469 178.863281 83.136719 178.675781 83.25 C 176.496094 84.550781 176.65625 88.632812 176.890625 90.8125 C 176.980469 91.628906 178.054688 91.617188 178.15625 90.808594 Z M 178.15625 90.808594"/><path fill="#F1F2F2" d="M 198.449219 90.003906 C 198.296875 88.1875 198.511719 86.3125 198.269531 84.519531 C 198.226562 84.191406 197.894531 83.960938 197.609375 83.859375 C 197.429688 83.796875 197.289062 83.800781 197.105469 83.859375 C 196.8125 83.957031 196.507812 84.191406 196.445312 84.519531 C 196.097656 86.414062 196.136719 88.644531 196.921875 90.417969 C 197.25 91.160156 198.515625 90.796875 198.449219 90.003906 Z M 198.449219 90.003906"/><path fill="#F1F2F2" d="M 218.910156 88.570312 C 219.226562 86.972656 219.179688 85.703125 218.769531 84.117188 C 218.453125 82.878906 218.175781 80.8125 216.808594 80.363281 C 216.566406 80.285156 216.332031 80.417969 216.199219 80.609375 C 215.546875 81.5625 216.199219 82.648438 216.523438 83.636719 C 217.011719 85.117188 217.539062 86.832031 217.613281 88.394531 C 217.648438 89.109375 218.757812 89.332031 218.910156 88.570312 Z M 218.910156 88.570312"/><path fill="#F1F2F2" d="M 233.429688 78.011719 C 233.117188 76.8125 232.710938 75.652344 232.078125 74.582031 C 231.695312 73.945312 230.601562 72.363281 229.675781 72.917969 C 228.746094 73.472656 229.851562 74.433594 230.28125 74.894531 C 231.175781 75.859375 231.667969 77.160156 232.066406 78.386719 C 232.347656 79.25 233.664062 78.898438 233.429688 78.011719 Z M 233.429688 78.011719"/><path fill="#F1F2F2" d="M 241.398438 66.589844 C 240.511719 65.867188 239.609375 65.195312 238.628906 64.605469 C 237.753906 64.078125 236.84375 63.371094 235.777344 63.5625 C 235.386719 63.632812 235.207031 64.085938 235.285156 64.433594 C 235.5 65.363281 236.449219 65.871094 237.226562 66.3125 C 238.25 66.902344 239.3125 67.394531 240.359375 67.9375 C 241.183594 68.363281 242.1875 67.234375 241.398438 66.589844 Z M 241.398438 66.589844"/><path fill="#F1F2F2" d="M 18.195312 352.429688 C 18.296875 351.050781 18.117188 349.652344 18.507812 348.316406 C 18.59375 348.027344 18.515625 347.632812 18.277344 347.433594 C 18.152344 347.332031 18.039062 347.238281 17.875 347.203125 C 17.507812 347.113281 17.027344 347.246094 16.855469 347.617188 C 16.132812 349.167969 16.578125 350.8125 16.742188 352.425781 C 16.839844 353.351562 18.128906 353.375 18.195312 352.429688 Z M 18.195312 352.429688"/><path fill="#F1F2F2" d="M 26.222656 350.550781 C 26.101562 351.738281 25.957031 353.066406 26.1875 354.242188 C 26.234375 354.496094 26.503906 354.785156 26.765625 354.824219 C 26.921875 354.847656 27.050781 354.847656 27.207031 354.824219 C 27.46875 354.785156 27.738281 354.496094 27.789062 354.242188 C 28.019531 353.066406 27.871094 351.738281 27.75 350.550781 C 27.652344 349.566406 26.324219 349.566406 26.222656 350.550781 Z M 26.222656 350.550781"/><path fill="#F1F2F2" d="M 38.550781 351.386719 C 38.03125 352.558594 37.511719 353.949219 37.667969 355.253906 C 37.769531 356.136719 39.125 356.5 39.34375 355.480469 C 39.589844 354.320312 39.652344 353.121094 39.894531 351.953125 C 40.058594 351.183594 38.90625 350.585938 38.550781 351.386719 Z M 38.550781 351.386719"/><path fill="#F1F2F2" d="M 48.519531 356.402344 C 49.292969 355.539062 49.691406 354.558594 50.039062 353.460938 C 50.378906 352.378906 50.867188 350.980469 50.429688 349.871094 C 50.292969 349.535156 49.816406 349.289062 49.53125 349.632812 C 48.886719 350.40625 48.804688 351.378906 48.585938 352.328125 C 48.332031 353.4375 47.949219 354.550781 47.4375 355.566406 C 47.105469 356.238281 47.972656 357.015625 48.519531 356.402344 Z M 48.519531 356.402344"/><path fill="#F1F2F2" d="M 104.628906 356.886719 C 104.179688 358.5625 102.683594 361.761719 104.632812 363.03125 C 104.910156 363.214844 105.214844 363.015625 105.324219 362.75 C 105.636719 361.96875 105.375 361.042969 105.375 360.210938 C 105.371094 359.136719 105.347656 358.066406 105.390625 356.988281 C 105.40625 356.546875 104.742188 356.46875 104.628906 356.886719 Z M 104.628906 356.886719"/><path fill="#F1F2F2" d="M 117.414062 359.539062 C 117.242188 360.824219 117.25 362.144531 117.140625 363.4375 C 117.042969 364.625 116.777344 365.992188 117.457031 367.027344 C 117.664062 367.339844 118.078125 367.328125 118.285156 367.027344 C 118.976562 366.023438 118.832031 364.617188 118.929688 363.4375 C 119.046875 362.09375 119.125 360.671875 118.839844 359.34375 C 118.648438 358.46875 117.515625 358.796875 117.414062 359.539062 Z M 117.414062 359.539062"/><path fill="#F1F2F2" d="M 133.714844 361.042969 C 133.082031 362.019531 133.148438 363.453125 133.125 364.578125 C 133.109375 365.488281 132.929688 367.207031 133.699219 367.847656 C 133.945312 368.054688 134.238281 368.058594 134.484375 367.847656 C 135.21875 367.214844 134.929688 365.835938 134.933594 364.960938 C 134.9375 363.777344 135.109375 362.589844 135.101562 361.417969 C 135.101562 360.652344 134.113281 360.429688 133.714844 361.042969 Z M 133.714844 361.042969"/><path fill="#F1F2F2" d="M 149.976562 362.089844 C 149.878906 363.113281 149.882812 364.128906 149.882812 365.160156 C 149.886719 365.96875 149.871094 366.988281 150.316406 367.6875 C 150.503906 367.984375 150.921875 367.984375 151.113281 367.6875 C 151.574219 366.964844 151.488281 365.992188 151.542969 365.160156 C 151.605469 364.144531 151.546875 363.097656 151.449219 362.089844 C 151.355469 361.140625 150.070312 361.140625 149.976562 362.089844 Z M 149.976562 362.089844"/><path fill="#F1F2F2" d="M 168.660156 362.355469 C 168.492188 363.875 168.496094 365.378906 168.527344 366.90625 C 168.546875 368.046875 168.359375 369.28125 169.207031 370.140625 C 169.425781 370.363281 169.804688 370.367188 170.019531 370.140625 C 170.878906 369.261719 170.632812 368.0625 170.613281 366.90625 C 170.589844 365.382812 170.480469 363.867188 170.300781 362.355469 C 170.175781 361.304688 168.777344 361.296875 168.660156 362.355469 Z M 168.660156 362.355469"/><path fill="#F1F2F2" d="M 186.277344 362.949219 C 186.070312 364.085938 185.910156 365.234375 185.9375 366.390625 C 185.957031 367.339844 185.882812 368.539062 186.425781 369.34375 C 186.664062 369.699219 187.148438 369.707031 187.386719 369.34375 C 187.867188 368.613281 187.765625 367.699219 187.804688 366.84375 C 187.859375 365.617188 187.761719 364.390625 187.832031 363.160156 C 187.882812 362.273438 186.4375 362.066406 186.277344 362.949219 Z M 186.277344 362.949219"/><path fill="#F1F2F2" d="M 202.074219 362.488281 C 201.996094 363.703125 201.824219 364.914062 201.804688 366.132812 C 201.792969 367.101562 201.664062 368.558594 202.6875 369.046875 C 202.929688 369.164062 203.222656 369.164062 203.417969 368.953125 C 204.132812 368.195312 203.761719 367.085938 203.734375 366.132812 C 203.703125 364.917969 203.695312 363.703125 203.640625 362.488281 C 203.59375 361.476562 202.140625 361.484375 202.074219 362.488281 Z M 202.074219 362.488281"/><path fill="#F1F2F2" d="M 219.414062 361.953125 C 219.261719 363.257812 219.277344 364.542969 219.316406 365.855469 C 219.351562 367.027344 219.214844 368.421875 219.886719 369.429688 C 220.082031 369.726562 220.488281 369.734375 220.683594 369.429688 C 221.265625 368.523438 221.128906 367.460938 221.070312 366.410156 C 220.988281 364.925781 220.929688 363.441406 220.886719 361.953125 C 220.855469 360.984375 219.519531 361.03125 219.414062 361.953125 Z M 219.414062 361.953125"/><path fill="#F1F2F2" d="M 236.878906 360.878906 C 237.03125 362.175781 237.167969 363.464844 237.160156 364.769531 C 237.152344 366.132812 236.648438 367.339844 236.570312 368.660156 C 236.535156 369.320312 237.394531 369.617188 237.828125 369.183594 C 239.859375 367.15625 238.773438 363.136719 238.246094 360.695312 C 238.082031 359.933594 236.785156 360.09375 236.878906 360.878906 Z M 236.878906 360.878906"/><path fill="#F1F2F2" d="M 255.242188 361.417969 C 255.125 362.652344 255.066406 363.882812 254.996094 365.125 C 254.929688 366.335938 254.328125 367.359375 254.21875 368.527344 C 254.164062 369.140625 254.921875 369.476562 255.398438 369.203125 C 257.761719 367.855469 256.882812 363.570312 256.636719 361.417969 C 256.535156 360.527344 255.328125 360.511719 255.242188 361.417969 Z M 255.242188 361.417969"/><path fill="#F1F2F2" d="M 269.394531 361.609375 C 268.960938 362.761719 269.203125 364.140625 269.367188 365.332031 C 269.527344 366.515625 269.480469 367.882812 270.238281 368.839844 C 270.5 369.167969 271.039062 369.03125 271.230469 368.710938 C 271.800781 367.765625 271.53125 366.585938 271.445312 365.523438 C 271.339844 364.269531 271.378906 362.785156 270.902344 361.613281 C 270.609375 360.882812 269.679688 360.855469 269.394531 361.609375 Z M 269.394531 361.609375"/><path fill="#F1F2F2" d="M 325.925781 349.746094 C 326.070312 350.964844 326.546875 352.078125 327.132812 353.144531 C 327.710938 354.199219 328.574219 355.644531 329.746094 356.0625 C 330.25 356.242188 330.773438 355.683594 330.617188 355.191406 C 330.296875 354.203125 329.371094 353.464844 328.804688 352.597656 C 328.183594 351.640625 327.835938 350.605469 327.480469 349.535156 C 327.214844 348.730469 325.816406 348.816406 325.925781 349.746094 Z M 325.925781 349.746094"/><path fill="#F1F2F2" d="M 338.125 351.578125 C 337.894531 352.621094 337.9375 353.585938 338.140625 354.632812 C 338.351562 355.699219 338.636719 357.023438 339.617188 357.625 C 340.140625 357.945312 340.65625 357.511719 340.722656 356.988281 C 340.832031 356.128906 340.335938 355.269531 340.109375 354.453125 C 339.84375 353.503906 339.679688 352.527344 339.4375 351.574219 C 339.273438 350.941406 338.273438 350.914062 338.125 351.578125 Z M 338.125 351.578125"/><path fill="#F1F2F2" d="M 350.652344 350.148438 C 350.851562 351.636719 351.078125 353.117188 351.261719 354.605469 C 351.378906 355.582031 352.816406 355.644531 352.828125 354.605469 C 352.851562 353 352.371094 351.476562 351.820312 349.988281 C 351.605469 349.410156 350.558594 349.4375 350.652344 350.148438 Z M 350.652344 350.148438"/><path fill="#F1F2F2" d="M 358.726562 345.71875 C 358.601562 346.753906 358.613281 347.785156 358.632812 348.824219 C 358.640625 349.34375 358.621094 349.859375 358.59375 350.378906 C 358.554688 351.152344 358.714844 352.15625 358.617188 352.890625 C 358.574219 353.179688 358.980469 353.425781 359.132812 353.109375 C 359.703125 351.90625 360.097656 351.21875 360.144531 349.859375 C 360.195312 348.425781 360.03125 346.984375 359.835938 345.570312 C 359.738281 344.882812 358.792969 345.144531 358.726562 345.71875 Z M 358.726562 345.71875"/><path fill="#0D6856" d="M 94.871094 167.550781 C 95.21875 173.074219 97.613281 178.328125 98.601562 183.761719 C 99.691406 189.765625 98.96875 196.097656 97.671875 202 C 97.402344 203.222656 93.59375 216.683594 98.742188 213.617188 C 99.710938 213.039062 99.3125 211.484375 98.167969 211.488281 C 98.828125 212.589844 99.085938 212.765625 98.933594 212.019531 C 98.859375 211.316406 98.953125 210.585938 99.054688 209.894531 C 99.253906 208.472656 99.597656 207.070312 99.921875 205.675781 C 100.691406 202.320312 101.34375 198.976562 101.734375 195.554688 C 102.835938 185.980469 100.183594 175.824219 96.015625 167.242188 C 95.75 166.699219 94.835938 166.953125 94.871094 167.550781 Z M 94.871094 167.550781"/><path fill="#0D6856" d="M 286.195312 176.480469 C 284.882812 184.160156 281.917969 191.347656 281.03125 199.113281 C 280.15625 206.789062 281.300781 215.785156 283.503906 223.171875 C 283.914062 224.535156 286.183594 224.335938 286.058594 222.828125 C 285.40625 214.8125 283.335938 207.253906 283.875 199.113281 C 284.375 191.558594 288.40625 184.300781 287.640625 176.675781 C 287.5625 175.914062 286.347656 175.597656 286.195312 176.480469 Z M 286.195312 176.480469"/><path fill="#F1F2F2" d="M 173.691406 271.960938 C 173.859375 279.238281 172.871094 289.164062 171.941406 294.5625 C 171.398438 298.953125 167.367188 310.980469 170.425781 314.003906 C 173.488281 317.023438 178.289062 308.792969 178.835938 304.398438 C 180.398438 295.566406 184.257812 280.355469 185.867188 272"/><path fill="#0D6856" d="M 173.171875 284.609375 C 173.070312 285.738281 172.960938 286.84375 172.84375 287.90625 C 175.898438 289.011719 179.019531 289.410156 182.140625 288.875 C 182.402344 287.730469 182.660156 286.585938 182.921875 285.453125 C 179.667969 286.382812 176.316406 285.917969 173.171875 284.609375 Z M 173.171875 284.609375"/><path fill="#0D6856" d="M 172.460938 291.101562 C 172.292969 292.347656 172.125 293.480469 171.953125 294.472656 C 174.574219 295.757812 177.601562 296.152344 180.558594 295.917969 C 180.792969 294.835938 181.039062 293.738281 181.289062 292.617188 C 178.28125 293.03125 174.984375 292.742188 172.460938 291.101562 Z M 172.460938 291.101562"/><path fill="#0D6856" d="M 179.214844 302.359375 C 179.417969 301.304688 179.644531 300.1875 179.890625 299.019531 C 178.65625 299.109375 177.414062 299.089844 176.171875 299.011719 C 175.097656 298.941406 172.554688 298.820312 171.261719 298.058594 C 171.039062 299.046875 170.789062 300.128906 170.546875 301.25 C 173.007812 302.382812 176.316406 302.574219 179.214844 302.359375 Z M 179.214844 302.359375"/><path fill="#0D6856" d="M 181.445312 305.40625 C 180.933594 304.191406 167.132812 302.257812 165.796875 304.015625 C 164.457031 305.769531 167.121094 317.875 157.433594 317.359375 C 151.609375 316.953125 148.976562 307.8125 152.332031 304.339844 C 146.464844 303.457031 145.171875 315.15625 147.019531 319.320312 C 150.09375 326.261719 157.117188 324.140625 163.375 324.023438 C 168.148438 323.566406 176.066406 325.703125 180.226562 323.855469 C 185.34375 321.917969 181.957031 306.625 181.445312 305.40625 Z M 181.445312 305.40625"/><path fill="#F1F2F2" d="M 215.144531 269.652344 C 214.976562 276.929688 215.96875 286.855469 216.898438 292.253906 C 217.441406 296.644531 221.472656 308.671875 218.410156 311.691406 C 215.351562 314.714844 210.546875 306.484375 210.003906 302.089844 C 208.4375 293.257812 204.582031 278.046875 202.96875 269.691406"/><path fill="#0D6856" d="M 215.667969 282.300781 C 215.769531 283.429688 215.878906 284.53125 215.992188 285.597656 C 212.9375 286.703125 209.816406 287.097656 206.699219 286.566406 C 206.4375 285.421875 206.175781 284.277344 205.917969 283.144531 C 209.171875 284.074219 212.523438 283.605469 215.667969 282.300781 Z M 215.667969 282.300781"/><path fill="#0D6856" d="M 216.378906 288.792969 C 216.542969 290.039062 216.714844 291.171875 216.882812 292.164062 C 214.261719 293.449219 211.238281 293.84375 208.28125 293.609375 C 208.042969 292.527344 207.800781 291.429688 207.546875 290.308594 C 210.558594 290.722656 213.851562 290.433594 216.378906 288.792969 Z M 216.378906 288.792969"/><path fill="#0D6856" d="M 209.621094 300.050781 C 209.417969 298.996094 209.191406 297.878906 208.949219 296.710938 C 210.179688 296.800781 211.421875 296.78125 212.664062 296.703125 C 213.738281 296.632812 216.28125 296.507812 217.574219 295.746094 C 217.796875 296.738281 218.046875 297.820312 218.292969 298.941406 C 215.828125 300.074219 212.519531 300.265625 209.621094 300.050781 Z M 209.621094 300.050781"/><path fill="#0D6856" d="M 207.390625 303.097656 C 207.902344 301.882812 221.703125 299.949219 223.042969 301.707031 C 224.378906 303.460938 221.714844 315.566406 231.402344 315.050781 C 237.226562 314.644531 239.863281 305.503906 236.503906 302.03125 C 242.375 301.148438 243.664062 312.847656 241.820312 317.011719 C 238.746094 323.953125 231.71875 321.832031 225.464844 321.714844 C 220.6875 321.257812 212.769531 323.394531 208.609375 321.546875 C 203.496094 319.609375 206.878906 304.316406 207.390625 303.097656 Z M 207.390625 303.097656"/><path fill="#0D6856" d="M 167.253906 250.152344 C 166.058594 255.480469 153.59375 275.75 167.027344 280.550781 C 178.0625 284.390625 190.058594 284.390625 192.457031 270.46875 C 197.734375 281.992188 206.371094 281.511719 216.925781 278.148438 C 230.839844 274.308594 218.664062 254.332031 217.074219 250.152344 C 216.257812 248.007812 206.144531 253.9375 193.71875 253.855469 C 181.953125 253.78125 167.839844 247.5625 167.253906 250.152344 Z M 167.253906 250.152344"/><path fill="#F1F2F2" d="M 178.625 236.984375 C 181.4375 233.414062 189.9375 229.5625 193.53125 229.921875 C 195.691406 230.644531 204.496094 233.660156 206.234375 236.761719 C 207.972656 239.859375 209.347656 248.996094 207.191406 253.675781 C 203.234375 261.589844 196.617188 263.03125 193.382812 263.03125 C 190.144531 263.03125 179.484375 256.585938 178.429688 253.675781 C 177.378906 250.765625 175.808594 240.554688 178.625 236.984375 Z M 178.625 236.984375"/><path fill="#F33F4B" d="M 179.667969 238.554688 C 182.367188 242.125 187.140625 243.566406 191.199219 244.988281 C 193.519531 245.796875 195.363281 244.683594 197.273438 243.425781 C 199.742188 241.796875 202.320312 239.8125 204.273438 237.582031 C 204.613281 237.191406 204.046875 236.621094 203.703125 237.011719 C 202.238281 238.6875 200.398438 240.101562 198.640625 241.457031 C 196.542969 243.074219 194.195312 245 191.414062 244.210938 C 187.636719 243.136719 182.800781 241.375 180.363281 238.148438 C 180.054688 237.742188 179.355469 238.140625 179.667969 238.554688 Z M 179.667969 238.554688"/><path fill="#F33F4B" d="M 192.75 244.878906 C 192.769531 250.414062 193.09375 255.957031 193.324219 261.484375 C 193.347656 262 194.152344 262.003906 194.128906 261.484375 C 193.898438 255.957031 193.574219 250.414062 193.554688 244.878906 C 193.550781 244.359375 192.75 244.359375 192.75 244.878906 Z M 192.75 244.878906"/><path fill="#F33F4B" d="M 184.667969 251.664062 C 184.660156 249.914062 184.613281 248.164062 184.605469 246.414062 C 184.59375 244.351562 184.371094 242.539062 185.980469 240.957031 C 187.15625 239.796875 188.964844 239.269531 190.382812 238.464844 C 191.230469 237.980469 192.058594 237.453125 192.867188 236.910156 C 193.296875 236.621094 192.894531 235.921875 192.460938 236.214844 C 190.082031 237.8125 187.066406 238.757812 185.019531 240.769531 C 183.960938 241.8125 183.777344 243.242188 183.757812 244.652344 C 183.730469 246.988281 183.851562 249.328125 183.863281 251.660156 C 183.867188 252.179688 184.671875 252.179688 184.667969 251.664062 Z M 184.667969 251.664062"/><path fill="#F33F4B" d="M 191.296875 237.453125 C 193.027344 237.867188 194.710938 239.214844 196.367188 239.902344 C 197.386719 240.328125 199.300781 240.722656 199.980469 241.664062 C 200.460938 242.328125 200.648438 243.265625 200.855469 244.046875 C 201.644531 247.015625 202.039062 250.128906 202.371094 253.179688 C 202.425781 253.691406 203.230469 253.695312 203.171875 253.179688 C 202.800781 249.71875 202.363281 246.160156 201.34375 242.820312 C 200.792969 241.027344 200.011719 240.566406 198.277344 239.835938 C 196.597656 239.128906 194.9375 238.4375 193.34375 237.550781 C 192.785156 237.238281 192.148438 236.828125 191.511719 236.675781 C 191.007812 236.554688 190.792969 237.332031 191.296875 237.453125 Z M 191.296875 237.453125"/><path fill="#F3903F" d="M 192.503906 236.667969 C 191.625 234.578125 188.917969 229.792969 186.28125 228.957031 C 183.203125 228.539062 181.445312 231.464844 181.882812 233.972656 C 182.324219 236.480469 186.28125 238.152344 188.917969 239.40625 C 193.753906 241.078125 202.574219 236.816406 202.550781 232.71875 C 202.523438 228.625 199.664062 226.707031 196.585938 228.917969 C 193.511719 231.128906 192.503906 236.667969 192.503906 236.667969 Z M 192.503906 236.667969"/><path fill="#F3903F" d="M 177.824219 246.097656 C 179.863281 245.738281 182.023438 245.136719 184.0625 244.777344 C 184.78125 244.65625 186.820312 244.175781 187.179688 245.136719 C 187.660156 246.21875 184.902344 247.296875 184.539062 248.257812 C 186.460938 249.578125 188.859375 250.78125 190.296875 252.582031 C 192.578125 255.222656 189.9375 255.460938 187.660156 255.703125 C 183.460938 256.179688 179.621094 253.542969 175.90625 252.101562"/><path fill="#F3903F" d="M 208.488281 246.097656 C 206.449219 245.738281 204.289062 245.136719 202.25 244.777344 C 201.53125 244.65625 199.492188 244.175781 199.132812 245.136719 C 198.652344 246.21875 201.410156 247.296875 201.769531 248.257812 C 199.851562 249.578125 197.453125 250.78125 196.011719 252.582031 C 193.734375 255.222656 196.371094 255.460938 198.652344 255.703125 C 202.851562 256.179688 206.6875 253.542969 210.40625 252.101562"/><path fill="#0D6856" d="M 167.683594 210.292969 C 162.167969 213.175781 140.152344 255.820312 170.378906 255.820312 C 175.417969 255.820312 179.738281 254.378906 179.738281 247.898438 C 179.738281 241.414062 174.460938 243.574219 169.902344 241.894531 C 165.34375 240.214844 177.816406 221.726562 177.816406 216.445312 C 177.816406 211.160156 173.203125 207.414062 167.683594 210.292969 Z M 167.683594 210.292969"/><path fill="#0D6856" d="M 216.644531 210.292969 C 222.164062 213.175781 244.175781 255.820312 213.949219 255.820312 C 208.910156 255.820312 204.59375 254.378906 204.59375 247.898438 C 204.59375 241.414062 209.871094 243.574219 214.429688 241.894531 C 218.988281 240.214844 206.511719 221.726562 206.511719 216.445312 C 206.511719 211.160156 211.128906 207.414062 216.644531 210.292969 Z M 216.644531 210.292969"/><path fill="#0D6856" d="M 172.335938 169.773438 C 174.453125 162.878906 173.394531 153.332031 168.09375 147.5 C 159.617188 137.953125 150.082031 144.847656 139.484375 144.316406 C 138.953125 135.832031 154.320312 127.875 161.207031 125.226562 C 169.683594 122.042969 177.632812 122.042969 186.109375 126.285156 C 195.648438 131.589844 205.714844 138.484375 209.953125 149.089844 C 213.132812 157.042969 213.132812 166.589844 214.722656 175.074219 Z M 172.335938 169.773438"/><path fill="#F1F2F2" d="M 167.035156 169.242188 C 164.386719 167.121094 153.789062 163.53125 154.847656 159.285156 C 155.910156 155.042969 164.917969 157.101562 167.566406 154.980469 C 170.746094 152.328125 172.863281 145.90625 176.574219 143.253906 C 180.28125 140.605469 186.640625 150.148438 191.410156 149.089844 C 194.589844 148.558594 204.542969 140.257812 208.667969 139.914062 C 212.792969 139.566406 210.683594 155.511719 215.980469 155.511719 C 220.21875 156.039062 221.332031 153.917969 225.570312 154.980469 C 229.808594 156.039062 214.722656 165.53125 211.542969 172.953125"/><path fill="#F1F2F2" d="M 211.371094 191.976562 C 213.953125 194.179688 230.6875 208.03125 229.496094 212.238281 C 228.300781 216.445312 219.363281 214.105469 216.648438 216.140625 C 213.386719 218.691406 211.066406 225.042969 207.273438 227.574219 C 203.484375 230.105469 197.429688 220.363281 192.632812 221.273438 C 189.4375 221.703125 179.226562 229.683594 175.09375 229.898438 C 170.960938 230.113281 173.574219 214.246094 168.28125 214.078125 C 164.0625 213.410156 162.882812 215.496094 158.679688 214.300781 C 154.476562 213.109375 169.855469 204.101562 173.269531 196.78125"/><path fill="#F3903F" d="M 192.945312 158.609375 C 184.300781 159.035156 175.398438 160.167969 168.625 166.589844 C 158.558594 176.136719 162.796875 192.574219 173.925781 199.46875 C 184.117188 205.785156 202.292969 205.382812 212.480469 199.390625 C 233.695312 186.902344 217.902344 157.367188 192.945312 158.609375 Z M 192.945312 158.609375"/><path fill="#F3903F" d="M 166.738281 184.085938 C 161.96875 178.109375 147.425781 169.78125 145.058594 173.175781 C 142.691406 176.574219 152.847656 189.539062 158.488281 193.3125 C 162.984375 196.117188 172.535156 195.828125 175.867188 191.285156"/><path fill="#F3903F" d="M 216.035156 178.90625 C 219.714844 172.203125 232.621094 161.511719 235.535156 164.457031 C 238.445312 167.398438 230.652344 181.90625 225.734375 186.589844 C 221.785156 190.125 212.328125 191.46875 208.269531 187.5625"/><path fill="#F1F2F2" d="M 139.46875 136.367188 C 136.265625 136.367188 133.589844 139.046875 133.589844 142.253906 L 133.589844 144.605469 C 133.589844 147.8125 136.265625 150.488281 139.46875 150.488281 C 142.675781 150.488281 145.347656 147.8125 145.347656 144.605469 L 145.347656 142.253906 C 145.347656 139.042969 142.675781 136.367188 139.46875 136.367188 Z M 139.46875 136.367188"/><path fill="#231F20" d="M 166.402344 162.261719 C 161.351562 165.804688 158.289062 170.863281 159.445312 177.820312 C 161.566406 193.199219 169.515625 169.335938 174.28125 169.867188 C 180.640625 170.398438 179.582031 176.761719 187 172.519531 C 191.238281 170.398438 192.296875 166.683594 197.597656 167.746094 C 199.714844 168.273438 201.304688 171.457031 203.425781 171.457031 C 206.074219 171.988281 208.191406 169.335938 210.3125 169.867188 C 215.609375 170.925781 214.550781 179.414062 220.910156 179.410156 C 224.6875 164.867188 214.179688 158.320312 201.828125 155.890625 C 193.300781 154.210938 176.148438 155.417969 166.402344 162.261719 Z M 166.402344 162.261719"/><path fill="#231F20" d="M 181.199219 183.128906 C 178.40625 182.800781 179.296875 189.582031 181.554688 189.25 C 183.8125 188.917969 183.992188 183.457031 181.199219 183.128906 Z M 181.199219 183.128906"/><path fill="#231F20" d="M 204.429688 181.320312 C 201.636719 180.992188 202.527344 187.773438 204.785156 187.441406 C 207.042969 187.109375 207.222656 181.648438 204.429688 181.320312 Z M 204.429688 181.320312"/><path fill="#F33F4B" d="M 152.167969 180.871094 C 151.566406 180.050781 150.617188 177.777344 152.59375 178.902344 C 153.53125 179.441406 154.289062 180.4375 155.039062 181.199219 C 157.585938 183.78125 159.691406 186.792969 162.542969 189.058594 C 162.804688 189.265625 163.285156 188.984375 163.046875 188.671875 C 160.160156 184.863281 156.886719 180.203125 152.695312 177.726562 C 149.914062 176.078125 149.539062 180.214844 151.574219 181.464844 C 151.929688 181.679688 152.433594 181.230469 152.167969 180.871094 Z M 152.167969 180.871094"/><path fill="#F33F4B" d="M 232.40625 171.730469 C 234.117188 169.734375 232.304688 167.695312 230.113281 169.308594 C 228.457031 170.53125 227.394531 172.503906 226.324219 174.222656 C 224.796875 176.675781 223.152344 179.054688 221.65625 181.523438 C 221.378906 181.984375 221.960938 182.644531 222.429688 182.296875 C 224.539062 180.734375 225.871094 178.636719 227.1875 176.394531 C 227.917969 175.15625 228.585938 173.886719 229.285156 172.628906 C 229.679688 171.917969 229.945312 171.230469 230.492188 170.609375 C 231.164062 169.839844 232.296875 169.457031 231.59375 171.101562 C 231.378906 171.597656 231.988281 172.21875 232.40625 171.730469 Z M 232.40625 171.730469"/><path fill="#F33F4B" d="M 190.691406 188.082031 C 191.433594 187.460938 192.3125 186.519531 193.28125 186.289062 C 193.789062 186.164062 194.199219 186.804688 194.417969 187.148438 C 194.820312 187.773438 194.859375 188.546875 195.546875 188.90625 C 195.730469 189 195.902344 188.90625 195.976562 188.730469 C 196.472656 187.550781 194.882812 185.253906 193.554688 185.183594 C 192.0625 185.105469 191.039062 186.578125 190.199219 187.589844 C 189.910156 187.9375 190.347656 188.375 190.691406 188.082031 Z M 190.691406 188.082031"/><path fill="#231F20" d="M 178.164062 181.453125 C 179.199219 181.179688 180.292969 180.855469 181.367188 180.808594 C 182.65625 180.75 183.667969 181.457031 184.667969 182.160156 C 185.433594 182.695312 186.355469 181.484375 185.660156 180.871094 C 183.316406 178.792969 180.152344 178.875 177.796875 180.824219 C 177.492188 181.074219 177.820312 181.542969 178.164062 181.453125 Z M 178.164062 181.453125"/><path fill="#231F20" d="M 201.347656 180.800781 C 202.328125 180.363281 203.007812 179.621094 204.140625 179.550781 C 205.128906 179.492188 205.988281 180.191406 206.902344 180.472656 C 207.28125 180.585938 207.558594 180.222656 207.496094 179.882812 C 206.921875 176.789062 201.128906 177.378906 200.613281 180.238281 C 200.53125 180.6875 200.933594 180.984375 201.347656 180.800781 Z M 201.347656 180.800781"/><path fill="#F33F4B" d="M 185.773438 190.480469 C 189.363281 194.210938 198.664062 195.542969 201.871094 190.515625 C 202.117188 190.128906 201.605469 189.558594 201.210938 189.855469 C 196.621094 193.328125 190.878906 193.832031 186.1875 190.066406 C 185.898438 189.835938 185.507812 190.203125 185.773438 190.480469 Z M 185.773438 190.480469"/><path fill="#F33F4B" d="M 179.203125 189.199219 C 177.125 187.960938 173.457031 188.476562 173.660156 191.863281 C 173.882812 195.582031 178.429688 195.894531 180.113281 192.96875 C 181.101562 191.257812 180.425781 189.925781 179.203125 189.199219 Z M 179.203125 189.199219"/><path fill="#F33F4B" d="M 206.21875 189.121094 C 207.488281 187.058594 210.972656 185.808594 212.367188 188.902344 C 213.894531 192.300781 210.007812 194.691406 207.160156 192.882812 C 205.492188 191.828125 205.472656 190.332031 206.21875 189.121094 Z M 206.21875 189.121094"/><path fill="#F33F4B" d="M 165.808594 256.058594 C 168.515625 257.847656 173.613281 257.609375 176.082031 255.527344 C 176.792969 254.929688 175.886719 253.953125 175.144531 254.3125 C 173.628906 255.050781 172.300781 255.488281 170.59375 255.523438 C 169.070312 255.554688 167.582031 254.921875 166.082031 255.039062 C 165.539062 255.082031 165.339844 255.75 165.808594 256.058594 Z M 165.808594 256.058594"/><path fill="#F33F4B" d="M 208.433594 255.253906 C 210.300781 256.0625 216.269531 258.050781 217.292969 255.277344 C 217.34375 255.132812 217.257812 254.953125 217.132812 254.882812 C 215.988281 254.25 214.632812 254.957031 213.351562 254.910156 C 211.777344 254.851562 210.277344 254.328125 208.710938 254.234375 C 208.191406 254.203125 207.933594 255.035156 208.433594 255.253906 Z M 208.433594 255.253906"/><path fill="#F33F4B" d="M 217.113281 240.664062 C 218.726562 240.40625 220.496094 239.597656 222.109375 240.351562 C 223.175781 240.851562 224.113281 239.289062 223.039062 238.753906 C 221.207031 237.839844 217.976562 238.097656 216.535156 239.667969 C 216.105469 240.136719 216.539062 240.753906 217.113281 240.664062 Z M 217.113281 240.664062"/><path fill="#F33F4B" d="M 162.605469 240.539062 C 163.449219 241.035156 164.324219 241.421875 165.195312 241.867188 C 166.050781 242.300781 166.730469 242.929688 167.507812 243.484375 C 168.082031 243.898438 168.910156 243.074219 168.492188 242.5 C 167.273438 240.820312 164.941406 240.03125 163.003906 239.589844 C 162.4375 239.460938 162.085938 240.230469 162.605469 240.539062 Z M 162.605469 240.539062"/><path fill="#F33F4B" d="M 173.179688 212.578125 C 173.824219 212.011719 174.308594 211.210938 174.824219 210.53125 C 175.460938 209.6875 176.226562 208.980469 176.886719 208.171875 C 177.421875 207.515625 176.761719 206.542969 175.964844 206.972656 C 175.066406 207.457031 174.382812 208.441406 173.777344 209.242188 C 173.152344 210.070312 172.480469 210.972656 172.09375 211.941406 C 171.828125 212.601562 172.738281 212.960938 173.179688 212.578125 Z M 173.179688 212.578125"/><path fill="#F33F4B" d="M 193.574219 218.472656 C 194.488281 218.136719 194.492188 217.054688 194.496094 216.222656 C 194.5 215.257812 194.523438 213.832031 194.074219 212.96875 C 193.75 212.339844 192.933594 212.59375 192.71875 213.144531 C 192.433594 213.875 192.742188 214.925781 192.832031 215.6875 C 192.925781 216.457031 192.699219 217.363281 192.910156 218.097656 C 192.988281 218.359375 193.292969 218.574219 193.574219 218.472656 Z M 193.574219 218.472656"/><path fill="#F33F4B" d="M 217.066406 211.414062 C 216.472656 210.015625 216.007812 208.042969 214.589844 207.265625 C 214.285156 207.097656 213.820312 207.300781 213.851562 207.6875 C 213.976562 209.285156 215.066406 210.980469 216.132812 212.132812 C 216.628906 212.671875 217.308594 211.988281 217.066406 211.414062 Z M 217.066406 211.414062"/><path fill="#F1F2F2" d="M 124.121094 203.613281 C 122.535156 203.457031 123.664062 208.613281 122.664062 209.914062 C 121.664062 211.214844 117.652344 211.34375 117.878906 212.589844 C 118.109375 213.839844 121.074219 213.148438 122.332031 214.761719 C 124.003906 216.902344 123.871094 220.625 124.769531 220.625 C 126.34375 220.625 125.960938 216.527344 126.597656 214.953125 C 127.238281 213.378906 132.460938 213.695312 132.042969 212.589844 C 131.625 211.488281 128.613281 211.679688 127.085938 210.070312 C 125.558594 208.464844 125.710938 203.773438 124.121094 203.613281 Z M 124.121094 203.613281"/><path fill="#F1F2F2" d="M 73.078125 148.828125 C 71.992188 148.71875 72.765625 152.242188 72.085938 153.128906 C 71.402344 154.015625 68.660156 154.105469 68.816406 154.957031 C 68.972656 155.808594 70.996094 155.339844 71.855469 156.4375 C 72.996094 157.902344 72.90625 160.441406 73.519531 160.441406 C 74.59375 160.441406 74.332031 157.644531 74.769531 156.570312 C 75.207031 155.496094 78.769531 155.710938 78.484375 154.957031 C 78.199219 154.207031 76.144531 154.335938 75.101562 153.238281 C 74.058594 152.136719 74.164062 148.933594 73.078125 148.828125 Z M 73.078125 148.828125"/><path fill="#F3903F" d="M 332.96875 199.1875 C 331.378906 199.03125 332.511719 204.1875 331.511719 205.488281 C 330.511719 206.785156 326.496094 206.917969 326.726562 208.164062 C 326.957031 209.414062 329.921875 208.722656 331.175781 210.332031 C 332.847656 212.476562 332.714844 216.195312 333.613281 216.195312 C 335.1875 216.195312 334.804688 212.101562 335.445312 210.527344 C 336.082031 208.953125 341.304688 209.265625 340.886719 208.164062 C 340.46875 207.0625 337.460938 207.253906 335.929688 205.644531 C 334.402344 204.035156 334.554688 199.34375 332.96875 199.1875 Z M 332.96875 199.1875"/><path fill="#F3903F" d="M 245.308594 129.554688 C 243.71875 129.398438 244.851562 134.554688 243.851562 135.855469 C 242.851562 137.15625 238.835938 137.285156 239.066406 138.53125 C 239.296875 139.78125 242.261719 139.089844 243.515625 140.703125 C 245.1875 142.84375 245.054688 146.566406 245.953125 146.566406 C 247.527344 146.566406 247.144531 142.46875 247.785156 140.894531 C 248.425781 139.320312 253.644531 139.636719 253.226562 138.53125 C 252.8125 137.429688 249.800781 137.621094 248.273438 136.011719 C 246.746094 134.40625 246.894531 129.714844 245.308594 129.554688 Z M 245.308594 129.554688"/><path fill="#F3903F" d="M 147.992188 268.34375 C 146.863281 268.234375 147.667969 271.910156 146.957031 272.835938 C 146.242188 273.761719 143.382812 273.851562 143.546875 274.742188 C 143.710938 275.632812 145.824219 275.140625 146.71875 276.289062 C 147.910156 277.816406 147.8125 280.46875 148.453125 280.46875 C 149.574219 280.46875 149.300781 277.550781 149.757812 276.425781 C 150.214844 275.304688 153.9375 275.53125 153.636719 274.742188 C 153.339844 273.957031 151.195312 274.09375 150.105469 272.949219 C 149.015625 271.800781 149.125 268.457031 147.992188 268.34375 Z M 147.992188 268.34375"/><path fill="#F1F2F2" d="M 252.828125 264.957031 C 253.105469 264.867188 254.28125 267.0625 255.539062 269.71875 C 257.847656 269.941406 259.714844 270.265625 259.886719 270.578125 C 260.035156 270.855469 258.816406 271.875 257.074219 273.113281 C 258.261719 275.863281 259.183594 278.324219 258.988281 278.632812 C 258.5625 279.304688 255.898438 277.378906 252.9375 275.847656 C 250.085938 277.628906 247.363281 279.125 247.003906 278.953125 C 246.648438 278.78125 247.609375 276.082031 248.851562 273.101562 C 247.355469 271.886719 245.949219 270.53125 246.179688 269.941406 C 246.339844 269.53125 248.179688 269.394531 250.457031 269.429688 C 251.570312 267 252.578125 265.039062 252.828125 264.957031 Z M 252.828125 264.957031"/><path fill="#F3903F" d="M 50.882812 196.609375 C 51.15625 196.519531 52.335938 198.710938 53.59375 201.367188 C 55.898438 201.59375 57.769531 201.914062 57.941406 202.230469 C 58.089844 202.503906 56.867188 203.523438 55.125 204.761719 C 56.3125 207.511719 57.234375 209.976562 57.039062 210.285156 C 56.613281 210.953125 53.949219 209.027344 50.992188 207.5 C 48.140625 209.277344 45.414062 210.777344 45.054688 210.601562 C 44.703125 210.429688 45.664062 207.730469 46.90625 204.75 C 45.40625 203.535156 44.003906 202.183594 44.234375 201.59375 C 44.394531 201.183594 46.230469 201.046875 48.511719 201.078125 C 49.625 198.648438 50.628906 196.691406 50.882812 196.609375 Z M 50.882812 196.609375"/><path fill="#F1F2F2" d="M 306.597656 162.589844 C 306.820312 162.515625 307.753906 164.269531 308.75 166.386719 C 310.589844 166.566406 312.078125 166.824219 312.214844 167.074219 C 312.335938 167.296875 311.359375 168.109375 309.964844 169.097656 C 310.90625 171.292969 311.632812 173.257812 311.476562 173.503906 C 311.136719 174.039062 309.015625 172.503906 306.660156 171.28125 C 304.378906 172.703125 302.203125 173.898438 301.917969 173.757812 C 301.632812 173.621094 302.40625 171.46875 303.40625 169.089844 C 302.210938 168.117188 301.097656 167.039062 301.28125 166.566406 C 301.410156 166.242188 302.878906 166.132812 304.695312 166.15625 C 305.589844 164.21875 306.398438 162.652344 306.597656 162.589844 Z M 306.597656 162.589844"/></svg>